<svg width="73" height="98" viewBox="0 0 73 98" fill="none" xmlns="http://www.w3.org/2000/svg">
<path d="M9.70624 52.417L14.6889 55.3235L9.70624 57.8149L4.30835 54.9083L9.70624 52.417Z" fill="#D9E0FF"/>
<path d="M4.30847 54.798L9.70636 57.7045V76.1382L4.30847 73.2317V54.798Z" fill="#BFCBFF"/>
<path d="M14.6885 55.3271L9.70581 57.8183V76.1384L14.6885 73.232V55.3271Z" fill="url(#paint0_linear_146_9717)"/>
<path d="M56.0705 7.44336L61.0532 10.3499L56.0705 12.8412L50.6726 9.93469L56.0705 7.44336Z" fill="#D9E0FF"/>
<path d="M50.6729 9.82434L56.0707 12.7309V50.3389L50.6729 47.4323V9.82434Z" fill="#BFCBFF"/>
<path d="M61.0527 10.3535L56.0701 12.8418L56.07 50.4661L58.5613 49.0129L61.0526 47.5597L61.0527 10.3535Z" fill="url(#paint1_linear_146_9717)"/>
<path d="M21.1638 35.0902L26.1464 37.9968L21.1638 40.4881L15.7659 37.5815L21.1638 35.0902Z" fill="#D9E0FF"/>
<path d="M15.7656 37.6022L21.1635 40.5087V69.1524L15.7656 66.2459V37.6022Z" fill="#BFCBFF"/>
<path d="M26.1456 38.021L21.1629 40.5122L21.1632 69.1519L26.1459 66.2455L26.1456 38.021Z" fill="url(#paint2_linear_146_9717)"/>
<path d="M44.5346 21.6377L49.5173 24.5442L44.5346 27.0356L39.1367 24.129L44.5346 21.6377Z" fill="#D9E0FF"/>
<path d="M39.1365 24.1101L44.5344 27.0167V55.6998L39.1365 52.7932V24.1101Z" fill="#BFCBFF"/>
<path d="M49.5166 24.5292L44.5339 27.0203V55.6995L49.5166 52.7931V24.5292Z" fill="url(#paint3_linear_146_9717)"/>
<path d="M32.7903 19.6127L37.773 22.5192L32.7903 25.0106L27.3925 22.104L32.7903 19.6127Z" fill="#D9E0FF"/>
<path d="M27.3926 21.9971L32.7905 24.9036V62.5081L27.3926 59.6016V21.9971Z" fill="#BFCBFF"/>
<path d="M37.7729 22.5229L32.7903 25.0112V62.6354L35.2816 61.1823L37.7729 59.7291V22.5229Z" fill="url(#paint4_linear_146_9717)"/>
<path d="M21.6761 71.4084L48.6605 56.7274L61.3589 63.6057L34.9037 79.3449L21.6761 71.4084Z" fill="#E5EAFF"/>
<path d="M21.676 71.4084L34.9036 79.345V97.8635L21.676 89.927V71.4084Z" fill="#BFCBFF"/>
<path d="M34.9038 79.345L61.3589 63.6058V82.1244L34.9038 97.8636V79.345Z" fill="#8EA3FF"/>
<path d="M60.83 37.1506L73 44.5588L61.3596 51.437L48.6608 44.0291L60.83 37.1506Z" fill="#E5EAFF"/>
<path d="M61.3589 51.4364L72.9991 44.5581V75.246L61.3589 82.1243V51.4364Z" fill="#8EA3FF"/>
<path d="M48.6604 44.0291L61.3589 51.4365V63.6058L48.6604 56.7275V44.0291Z" fill="#BFCBFF"/>
<path d="M37.0203 81.8015L51.8351 72.4667V76.8884L37.0203 86.2233V81.8015Z" fill="#DAE1FF" stroke="#8EA3FF" stroke-width="0.432279"/>
<path d="M37.0205 85.3161L51.8354 76.6993V80.781L37.0205 89.3978V85.3161Z" fill="#DAE1FF" stroke="#8EA3FF" stroke-width="0.432279"/>
<path d="M37.0205 89.3789L51.8354 80.4031V84.6548L37.0205 93.6306V89.3789Z" fill="#DAE1FF" stroke="#8EA3FF" stroke-width="0.432279"/>
<path d="M53.4224 71.0133L60.8298 66.7804V80.0079L53.4224 84.2407V71.0133Z" fill="#DAE1FF"/>
<path d="M70.3538 51.9655L66.3855 54.3464L64.5337 60.6956L67.9729 58.5792L66.121 65.4575L70.6184 56.1983L68.2374 57.521L70.3538 51.9655Z" fill="#C9FFC4"/>
<g filter="url(#filter0_d_146_9717)">
<path d="M47.5094 42.3742L42.0606 41.3525L27.4169 49.7528L33.0928 51.115L40.3011 46.7446L47.5094 42.3742Z" fill="#E5EAFF"/>
<path d="M33.0928 51.115L27.4169 49.7528L24.0855 58.2666L23.3303 60.1963L29.2332 61.3315L33.0928 51.115Z" fill="#BFCBFF"/>
<path d="M33.0928 51.115L29.2332 61.3315L36.4983 57.4719L33.0928 51.115Z" fill="#DAE1FF"/>
<path d="M40.2443 70.2993L51.596 48.8447L43.9904 53.1583L43.0539 57.4436L42.1174 61.7288L40.2443 70.2993Z" fill="#A1B2FF"/>
<path d="M23.3303 60.1963L36.4983 70.2993H40.2443L29.2332 61.3315L23.3303 60.1963Z" fill="#BFCBFF"/>
<path d="M40.3011 46.7446L36.4983 57.4719L43.9904 53.1583L40.3011 46.7446Z" fill="#D5DDFF"/>
<path d="M51.596 48.8447L47.5094 42.3742L43.9904 53.1583L51.596 48.8447Z" fill="#D9E0FF"/>
<path d="M33.0928 51.115L36.4983 57.4719L40.3011 46.7446L33.0928 51.115Z" fill="#C3CEFF"/>
<path d="M47.5094 42.3742L40.3011 46.7446L43.9904 53.1583L47.5094 42.3742Z" fill="#BECAFF"/>
<path d="M29.2332 61.3315L40.2443 70.2993L36.4983 57.4719L29.2332 61.3315Z" fill="#CDD6FF"/>
<path d="M43.9904 53.1583L36.4983 57.4719L40.2443 70.2993L42.1174 61.7288L43.0539 57.4436L43.9904 53.1583Z" fill="#C4CFFF"/>
</g>
<path d="M57.0845 4.23294C56.4672 1.41107 52.7342 -0.951515 50.7352 2.64595C49.4125 5.02654 48.5307 8.73045 47.8253 12.1696C47.1198 16.4906 45.9734 19.578 43.857 19.578C41.7406 19.578 41.476 18.7844 40.6824 17.7262C39.3596 15.6098 37.7723 13.2947 35.9205 13.2288C34.0686 13.1629 32.7459 15.8743 31.9522 18.5198C31.1586 21.6944 31.3079 21.6944 30.3649 26.7868C29.3067 32.5011 27.2785 34.1283 26.3966 34.1283C25.9557 34.6574 23.5643 36.6048 20.5765 31.4828C18.7247 28.3082 16.3437 29.3664 15.55 31.7474C14.3155 37.6557 12.058 47.8979 11.8463 49.8027C11.5818 52.1837 10.7881 55.0278 8.40716 55.0278C6.50239 55.0278 4.70345 52.8891 4.17434 50.5963C3.64524 49.0972 2.26958 46.2048 0.999732 46.6281" stroke="#7485CF" stroke-width="0.648419"/>
<ellipse cx="1.32276" cy="1.47725" rx="1.32276" ry="1.47725" transform="matrix(-0.99423 -0.107271 -0.107272 0.99423 13.7583 46.9728)" fill="#56D04D"/>
<ellipse cx="1.32276" cy="1.47725" rx="1.32276" ry="1.47725" transform="matrix(-0.99423 -0.107271 -0.107272 0.99423 16.6458 30.4425)" fill="#56D04D"/>
<ellipse cx="1.32276" cy="1.47725" rx="1.32276" ry="1.47725" transform="matrix(-0.99423 -0.107271 -0.107272 0.99423 27.7568 32.5603)" fill="#56D04D"/>
<ellipse cx="1.32276" cy="1.47725" rx="1.32276" ry="1.47725" transform="matrix(-0.99423 -0.107271 -0.107272 0.99423 34.635 14.0417)" fill="#56D04D"/>
<ellipse cx="1.32276" cy="1.47725" rx="1.32276" ry="1.47725" transform="matrix(-0.99423 -0.107271 -0.107272 0.99423 45.217 17.7454)" fill="#56D04D"/>
<ellipse cx="1.32276" cy="1.47725" rx="1.32276" ry="1.47725" transform="matrix(-0.99423 -0.107271 -0.107272 0.99423 53.1536 0.283691)" fill="#56D04D"/>
<defs>
<filter id="filter0_d_146_9717" x="20.8492" y="40.5255" width="30.7468" height="30.6009" filterUnits="userSpaceOnUse" color-interpolation-filters="sRGB">
<feFlood flood-opacity="0" result="BackgroundImageFix"/>
<feColorMatrix in="SourceAlpha" type="matrix" values="0 0 0 0 0 0 0 0 0 0 0 0 0 0 0 0 0 0 127 0" result="hardAlpha"/>
<feOffset dx="-1.6541"/>
<feGaussianBlur stdDeviation="0.413526"/>
<feComposite in2="hardAlpha" operator="out"/>
<feColorMatrix type="matrix" values="0 0 0 0 0.237951 0 0 0 0 0.370826 0 0 0 0 0.93776 0 0 0 0.4 0"/>
<feBlend mode="normal" in2="BackgroundImageFix" result="effect1_dropShadow_146_9717"/>
<feBlend mode="normal" in="SourceGraphic" in2="effect1_dropShadow_146_9717" result="shape"/>
</filter>
<linearGradient id="paint0_linear_146_9717" x1="10.7932" y1="60.4759" x2="21.2709" y2="68.2598" gradientUnits="userSpaceOnUse">
<stop stop-color="#8EA3FF"/>
<stop offset="1" stop-color="#0228CA"/>
</linearGradient>
<linearGradient id="paint1_linear_146_9717" x1="57.1573" y1="20.2775" x2="71.3148" y2="25.7344" gradientUnits="userSpaceOnUse">
<stop stop-color="#8EA3FF"/>
<stop offset="1" stop-color="#0228CA"/>
</linearGradient>
<linearGradient id="paint2_linear_146_9717" x1="22.2503" y1="45.7229" x2="35.2941" y2="52.2012" gradientUnits="userSpaceOnUse">
<stop stop-color="#8EA3FF"/>
<stop offset="1" stop-color="#0228CA"/>
</linearGradient>
<linearGradient id="paint3_linear_146_9717" x1="45.6213" y1="32.2408" x2="58.6711" y2="38.7136" gradientUnits="userSpaceOnUse">
<stop stop-color="#8EA3FF"/>
<stop offset="1" stop-color="#0228CA"/>
</linearGradient>
<linearGradient id="paint4_linear_146_9717" x1="33.8776" y1="32.4469" x2="48.0349" y2="37.9036" gradientUnits="userSpaceOnUse">
<stop stop-color="#8EA3FF"/>
<stop offset="1" stop-color="#0228CA"/>
</linearGradient>
</defs>
</svg>
