<svg width="326" height="309" viewBox="0 0 326 309" fill="none" xmlns="http://www.w3.org/2000/svg">
<rect x="0.63501" y="0.988281" width="325.29" height="308" rx="8.00714" fill="#E8ECFF"/>
<path d="M84.5997 166.469L96.8976 173.643L84.5997 179.792L71.2769 172.618L84.5997 166.469Z" fill="#D9E0FF"/>
<path d="M71.2769 172.345L84.5997 179.519V225.016L71.2769 217.842V172.345Z" fill="#BFCBFF"/>
<path d="M96.8984 173.652L84.6004 179.8V225.017L96.8984 217.843V173.652Z" fill="url(#paint0_linear_1134_180)"/>
<path d="M199.032 55.4672L211.33 62.641L199.032 68.7899L185.709 61.6161L199.032 55.4672Z" fill="#D9E0FF"/>
<path d="M185.709 61.3435L199.032 68.5173V161.34L185.709 154.166V61.3435Z" fill="#BFCBFF"/>
<path d="M211.33 62.6499L199.032 68.7913L199.032 161.654L205.181 158.067L211.33 154.48L211.33 62.6499Z" fill="url(#paint1_linear_1134_180)"/>
<path d="M112.878 123.704L125.176 130.878L112.878 137.027L99.5552 129.853L112.878 123.704Z" fill="#D9E0FF"/>
<path d="M99.555 129.903L112.878 137.077V207.774L99.555 200.6V129.903Z" fill="#BFCBFF"/>
<path d="M125.176 130.937L112.878 137.086L112.879 207.773L125.177 200.6L125.176 130.937Z" fill="url(#paint2_linear_1134_180)"/>
<path d="M170.561 90.5009L182.859 97.6747L170.561 103.824L157.238 96.6499L170.561 90.5009Z" fill="#D9E0FF"/>
<path d="M157.238 96.6038L170.561 103.778V174.572L157.238 167.398V96.6038Z" fill="#BFCBFF"/>
<path d="M182.859 97.6378L170.561 103.786V174.571L182.859 167.397V97.6378Z" fill="url(#paint3_linear_1134_180)"/>
<path d="M141.575 85.5031L153.873 92.677L141.575 98.8259L128.252 91.6521L141.575 85.5031Z" fill="#D9E0FF"/>
<path d="M128.252 91.3889L141.575 98.5627V191.376L128.252 184.202V91.3889Z" fill="#BFCBFF"/>
<path d="M153.874 92.6859L141.576 98.8273V191.69L147.725 188.103L153.874 184.516V92.6859Z" fill="url(#paint4_linear_1134_180)"/>
<path d="M148.211 197.649L212.096 162.892L242.16 179.176L179.527 216.439L148.211 197.649Z" fill="#E5EAFF"/>
<path d="M148.211 197.649L179.527 216.439V260.282L148.211 241.492V197.649Z" fill="#BFCBFF"/>
<path d="M179.529 216.439L242.162 179.177V223.019L179.529 260.282V216.439Z" fill="#8EA3FF"/>
<path d="M240.907 116.544L269.72 134.083L242.161 150.367L212.097 132.828L240.907 116.544Z" fill="#E5EAFF"/>
<path d="M242.161 150.365L269.719 134.081V206.734L242.161 223.019V150.365Z" fill="#8EA3FF"/>
<path d="M212.096 132.829L242.159 150.366V179.177L212.096 162.892V132.829Z" fill="#BFCBFF"/>
<path d="M184.537 222.255L219.611 200.155V210.623L184.537 232.723V222.255Z" fill="#DAE1FF" stroke="#8EA3FF" stroke-width="1.02342"/>
<path d="M184.537 230.576L219.611 210.176V219.839L184.537 240.239V230.576Z" fill="#DAE1FF" stroke="#8EA3FF" stroke-width="1.02342"/>
<path d="M184.537 240.194L219.611 218.944V229.01L184.537 250.26V240.194Z" fill="#DAE1FF" stroke="#8EA3FF" stroke-width="1.02342"/>
<path d="M223.369 196.713L240.906 186.692V218.008L223.369 228.029V196.713Z" fill="#DAE1FF"/>
<path d="M263.454 151.618L254.059 157.254L249.675 172.286L257.817 167.276L253.433 183.56L264.081 161.639L258.444 164.77L263.454 151.618Z" fill="#C9FFC4"/>
<g filter="url(#filter0_d_1134_180)">
<path d="M208.78 119.227L195.879 116.809L161.211 136.696L174.648 139.921L191.714 129.574L208.78 119.227Z" fill="#E5EAFF"/>
<path d="M174.648 139.921L161.211 136.696L153.323 156.852L151.536 161.421L165.511 164.109L174.648 139.921Z" fill="#BFCBFF"/>
<path d="M174.648 139.921L165.511 164.109L182.711 154.971L174.648 139.921Z" fill="#DAE1FF"/>
<path d="M191.579 185.34L218.455 134.546L200.448 144.759L198.231 154.904L196.014 165.049L191.579 185.34Z" fill="#A1B2FF"/>
<path d="M151.536 161.421L182.711 185.34H191.579L165.511 164.109L151.536 161.421Z" fill="#BFCBFF"/>
<path d="M191.714 129.574L182.711 154.971L200.448 144.759L191.714 129.574Z" fill="#D5DDFF"/>
<path d="M218.455 134.546L208.78 119.227L200.448 144.759L218.455 134.546Z" fill="#D9E0FF"/>
<path d="M174.648 139.921L182.711 154.971L191.714 129.574L174.648 139.921Z" fill="#C3CEFF"/>
<path d="M208.78 119.227L191.714 129.574L200.448 144.759L208.78 119.227Z" fill="#BECAFF"/>
<path d="M165.511 164.109L191.579 185.34L182.711 154.971L165.511 164.109Z" fill="#CDD6FF"/>
<path d="M200.448 144.759L182.711 154.971L191.579 185.34L196.014 165.049L198.231 154.904L200.448 144.759Z" fill="#C4CFFF"/>
</g>
<path d="M195.347 60.0427C193.824 53.0779 184.61 47.2467 179.677 56.1258C176.412 62.0014 174.235 71.1432 172.494 79.6315C170.753 90.2964 167.924 97.9167 162.7 97.9167C157.476 97.9167 156.823 95.9578 154.865 93.346C151.6 88.1224 147.682 82.4085 143.111 82.2459C138.541 82.0833 135.276 88.7754 133.317 95.3049C131.358 103.14 131.727 103.14 129.399 115.709C126.788 129.813 121.782 133.829 119.605 133.829C118.517 135.135 112.615 139.941 105.24 127.299C100.67 119.464 94.793 122.076 92.8342 127.952C89.787 142.535 84.2152 167.814 83.6928 172.516C83.0399 178.392 81.081 185.412 75.2045 185.412C70.5032 185.412 66.0631 180.133 64.7572 174.475C63.4513 170.775 60.056 163.636 56.9218 164.68" stroke="#7485CF" stroke-width="1.6004"/>
<ellipse cx="3.26476" cy="3.64607" rx="3.26476" ry="3.64607" transform="matrix(-0.99423 -0.107271 -0.107272 0.99423 88.4118 165.53)" fill="#56D04D"/>
<ellipse cx="3.26476" cy="3.64607" rx="3.26476" ry="3.64607" transform="matrix(-0.99423 -0.107271 -0.107272 0.99423 95.5366 124.731)" fill="#56D04D"/>
<ellipse cx="3.26476" cy="3.64607" rx="3.26476" ry="3.64607" transform="matrix(-0.99423 -0.107271 -0.107272 0.99423 122.961 129.958)" fill="#56D04D"/>
<ellipse cx="3.26476" cy="3.64607" rx="3.26476" ry="3.64607" transform="matrix(-0.99423 -0.107271 -0.107272 0.99423 139.939 84.2526)" fill="#56D04D"/>
<ellipse cx="3.26476" cy="3.64607" rx="3.26476" ry="3.64607" transform="matrix(-0.99423 -0.107271 -0.107272 0.99423 166.057 93.3937)" fill="#56D04D"/>
<ellipse cx="3.26476" cy="3.64607" rx="3.26476" ry="3.64607" transform="matrix(-0.99423 -0.107271 -0.107272 0.99423 185.643 50.295)" fill="#56D04D"/>
<defs>
<filter id="filter0_d_1134_180" x="145.662" y="114.851" width="72.793" height="72.4474" filterUnits="userSpaceOnUse" color-interpolation-filters="sRGB">
<feFlood flood-opacity="0" result="BackgroundImageFix"/>
<feColorMatrix in="SourceAlpha" type="matrix" values="0 0 0 0 0 0 0 0 0 0 0 0 0 0 0 0 0 0 127 0" result="hardAlpha"/>
<feOffset dx="-3.91608"/>
<feGaussianBlur stdDeviation="0.979019"/>
<feComposite in2="hardAlpha" operator="out"/>
<feColorMatrix type="matrix" values="0 0 0 0 0.237951 0 0 0 0 0.370826 0 0 0 0 0.93776 0 0 0 0.4 0"/>
<feBlend mode="normal" in2="BackgroundImageFix" result="effect1_dropShadow_1134_180"/>
<feBlend mode="normal" in="SourceGraphic" in2="effect1_dropShadow_1134_180" result="shape"/>
</filter>
<linearGradient id="paint0_linear_1134_180" x1="87.2842" y1="186.359" x2="113.145" y2="205.571" gradientUnits="userSpaceOnUse">
<stop stop-color="#8EA3FF"/>
<stop offset="1" stop-color="#0228CA"/>
</linearGradient>
<linearGradient id="paint1_linear_1134_180" x1="201.716" y1="87.1437" x2="236.659" y2="100.612" gradientUnits="userSpaceOnUse">
<stop stop-color="#8EA3FF"/>
<stop offset="1" stop-color="#0228CA"/>
</linearGradient>
<linearGradient id="paint2_linear_1134_180" x1="115.562" y1="149.947" x2="147.756" y2="165.936" gradientUnits="userSpaceOnUse">
<stop stop-color="#8EA3FF"/>
<stop offset="1" stop-color="#0228CA"/>
</linearGradient>
<linearGradient id="paint3_linear_1134_180" x1="173.245" y1="116.671" x2="205.454" y2="132.647" gradientUnits="userSpaceOnUse">
<stop stop-color="#8EA3FF"/>
<stop offset="1" stop-color="#0228CA"/>
</linearGradient>
<linearGradient id="paint4_linear_1134_180" x1="144.259" y1="117.18" x2="179.202" y2="130.648" gradientUnits="userSpaceOnUse">
<stop stop-color="#8EA3FF"/>
<stop offset="1" stop-color="#0228CA"/>
</linearGradient>
</defs>
</svg>
