<svg width="224" height="187" viewBox="0 0 224 187" fill="none" xmlns="http://www.w3.org/2000/svg">
<path d="M69.6491 141.983C66.9038 143.279 63.6682 142.962 61.2274 141.156L10.7673 103.835C9.33538 102.776 9.55171 100.572 11.1622 99.8114L26.7624 92.4455C27.1519 92.2616 27.6106 92.305 27.9587 92.5586L83.908 133.323C84.6307 133.85 84.5259 134.958 83.7173 135.34L69.6491 141.983Z" fill="#D9D9D9"/>
<path d="M69.6491 141.983C66.9038 143.279 63.6682 142.962 61.2274 141.156L10.7673 103.835C9.33538 102.776 9.55171 100.572 11.1622 99.8114L26.7624 92.4455C27.1519 92.2616 27.6106 92.305 27.9587 92.5586L83.908 133.323C84.6307 133.85 84.5259 134.958 83.7173 135.34L69.6491 141.983Z" fill="url(#paint0_linear_196_161)"/>
<path d="M96.69 149.246C94.5648 150.249 92.0628 150.023 90.1523 148.654L10.3591 91.487C9.93834 91.1855 9.67097 90.7147 9.62763 90.1989L9.10294 83.9546C9.03953 83.1999 9.46424 82.4888 10.1588 82.1868L130.662 29.7851C131.204 29.5493 131.828 29.6005 132.325 29.9214L216.864 84.5537C219.963 86.5567 219.656 91.1853 216.319 92.7609L96.69 149.246Z" fill="#D9D9D9"/>
<path d="M96.69 149.246C94.5648 150.249 92.0628 150.023 90.1523 148.654L10.3591 91.487C9.93834 91.1855 9.67097 90.7147 9.62763 90.1989L9.10294 83.9546C9.03953 83.1999 9.46424 82.4888 10.1588 82.1868L130.662 29.7851C131.204 29.5493 131.828 29.6005 132.325 29.9214L216.864 84.5537C219.963 86.5567 219.656 91.1853 216.319 92.7609L96.69 149.246Z" fill="url(#paint1_linear_196_161)"/>
<path d="M95.8554 144.471C94.3165 145.198 92.5054 145.038 91.1177 144.053L9.82968 86.3549C8.06881 85.105 8.30576 82.4215 10.2584 81.4995L130.723 24.6201C131.294 24.3502 131.967 24.4063 132.486 24.7672L217.684 84.02C218.8 84.7957 218.659 86.4875 217.43 87.0676L95.8554 144.471Z" fill="#D9D9D9"/>
<path d="M95.8554 144.471C94.3165 145.198 92.5054 145.038 91.1177 144.053L9.82968 86.3549C8.06881 85.105 8.30576 82.4215 10.2584 81.4995L130.723 24.6201C131.294 24.3502 131.967 24.4063 132.486 24.7672L217.684 84.02C218.8 84.7957 218.659 86.4875 217.43 87.0676L95.8554 144.471Z" fill="#BFCBFF"/>
<path d="M95.4432 136.779C93.9068 137.504 92.0987 137.346 90.7116 136.365L18.6841 85.413C17.5801 84.6321 17.7272 82.951 18.95 82.3736L128.931 30.4442C129.501 30.1749 130.172 30.2302 130.691 30.5895L205.05 82.0955C206.168 82.8699 206.028 84.5643 204.798 85.145L95.4432 136.779Z" fill="#D9D9D9"/>
<path d="M95.4432 136.779C93.9068 137.504 92.0987 137.346 90.7116 136.365L18.6841 85.413C17.5801 84.6321 17.7272 82.951 18.95 82.3736L128.931 30.4442C129.501 30.1749 130.172 30.2302 130.691 30.5895L205.05 82.0955C206.168 82.8699 206.028 84.5643 204.798 85.145L95.4432 136.779Z" fill="#F3F5FF"/>
<path d="M144.43 92.2228L169.333 80.4644" stroke="#718BF4" stroke-width="4.29194" stroke-linecap="round"/>
<path d="M127.814 85.0287L152.717 73.2703" stroke="#56D04D" stroke-width="4.29194" stroke-linecap="round"/>
<path d="M75.6284 70.7876L113.761 52.7824" stroke="#718BF4" stroke-width="4.29194" stroke-linecap="round"/>
<path d="M117.297 77.2522L135.889 68.4736" stroke="#718BF4" stroke-width="4.29194" stroke-linecap="round"/>
<path d="M94.3629 76.5148L132.496 58.5096" stroke="#56D04D" stroke-width="4.29194" stroke-linecap="round"/>
<path d="M108.099 94.8043L106.891 94.5563L106.648 95.7396L107.826 96.0075L108.099 94.8043ZM110.086 85.1224L111.295 85.3704L111.541 84.1675L110.34 83.9149L110.086 85.1224ZM56.6948 73.8989L67.3046 83.409L70.2357 69.4655L56.6948 73.8989ZM138.577 100.471L108.373 93.6011L107.826 96.0075L138.03 102.877L138.577 100.471ZM109.308 95.0523L111.295 85.3704L108.877 84.8744L106.891 94.5563L109.308 95.0523ZM110.34 83.9149L67.8165 74.9759L67.3088 77.391L109.832 86.33L110.34 83.9149Z" fill="#002EDC"/>
<path d="M70.264 137.814C67.5187 139.11 64.2831 138.792 61.8423 136.987L11.3822 99.6657C9.95028 98.6066 10.1666 96.4027 11.7771 95.6423L27.3773 88.2763C27.7668 88.0925 28.2255 88.1358 28.5736 88.3894L84.5229 129.154C85.2456 129.681 85.1408 130.789 84.3322 131.171L70.264 137.814Z" fill="#D9D9D9"/>
<path d="M70.264 137.814C67.5187 139.11 64.2831 138.792 61.8423 136.987L11.3822 99.6657C9.95028 98.6066 10.1666 96.4027 11.7771 95.6423L27.3773 88.2763C27.7668 88.0925 28.2255 88.1358 28.5736 88.3894L84.5229 129.154C85.2456 129.681 85.1408 130.789 84.3322 131.171L70.264 137.814Z" fill="#6575B8"/>
<ellipse cx="197.901" cy="128.871" rx="25.8143" ry="15.0693" fill="#D9D9D9"/>
<ellipse cx="197.901" cy="128.871" rx="25.8143" ry="15.0693" fill="url(#paint2_linear_196_161)"/>
<path d="M223.429 125.771C223.429 129.788 220.638 133.478 216.01 136.18C211.39 138.877 204.988 140.554 197.901 140.554C190.814 140.554 184.412 138.877 179.792 136.18C175.164 133.478 172.373 129.788 172.373 125.771C172.373 121.754 175.164 118.064 179.792 115.363C184.412 112.665 190.814 110.988 197.901 110.988C204.988 110.988 211.39 112.665 216.01 115.363C220.638 118.064 223.429 121.754 223.429 125.771Z" fill="#DAE1FF" stroke="#BFCBFF" stroke-width="0.572252"/>
<ellipse cx="197.901" cy="121.799" rx="25.8143" ry="15.0693" fill="#D9D9D9"/>
<ellipse cx="197.901" cy="121.799" rx="25.8143" ry="15.0693" fill="url(#paint3_linear_196_161)"/>
<path d="M223.429 118.698C223.429 122.716 220.638 126.406 216.01 129.107C211.39 131.804 204.988 133.482 197.901 133.482C190.814 133.482 184.412 131.804 179.792 129.107C175.164 126.406 172.373 122.716 172.373 118.698C172.373 114.681 175.164 110.991 179.792 108.29C184.412 105.593 190.814 103.915 197.901 103.915C204.988 103.915 211.39 105.593 216.01 108.29C220.638 110.991 223.429 114.681 223.429 118.698Z" fill="#DAE1FF" stroke="#BFCBFF" stroke-width="0.572252"/>
<ellipse cx="197.901" cy="114.725" rx="25.8143" ry="15.0693" fill="#D9D9D9"/>
<ellipse cx="197.901" cy="114.725" rx="25.8143" ry="15.0693" fill="url(#paint4_linear_196_161)"/>
<path d="M223.429 111.625C223.429 115.642 220.638 119.332 216.01 122.034C211.39 124.731 204.988 126.408 197.901 126.408C190.814 126.408 184.412 124.731 179.792 122.034C175.164 119.332 172.373 115.642 172.373 111.625C172.373 107.608 175.164 103.918 179.792 101.217C184.412 98.5194 190.814 96.8419 197.901 96.8419C204.988 96.8419 211.39 98.5194 216.01 101.217C220.638 103.918 223.429 107.608 223.429 111.625Z" fill="#DAE1FF" stroke="#BFCBFF" stroke-width="0.572252"/>
<ellipse cx="197.901" cy="107.653" rx="25.8143" ry="15.0693" fill="#D9D9D9"/>
<ellipse cx="197.901" cy="107.653" rx="25.8143" ry="15.0693" fill="url(#paint5_linear_196_161)"/>
<path d="M223.429 104.552C223.429 108.569 220.638 112.259 216.01 114.96C211.39 117.658 204.988 119.335 197.901 119.335C190.814 119.335 184.412 117.658 179.792 114.96C175.164 112.259 172.373 108.569 172.373 104.552C172.373 100.535 175.164 96.8448 179.792 94.1435C184.412 91.4462 190.814 89.7688 197.901 89.7688C204.988 89.7688 211.39 91.4462 216.01 94.1435C220.638 96.8448 223.429 100.535 223.429 104.552Z" fill="#DAE1FF" stroke="#BFCBFF" stroke-width="0.572252"/>
<ellipse cx="197.901" cy="100.579" rx="25.8143" ry="15.0693" fill="#D9D9D9"/>
<ellipse cx="197.901" cy="100.579" rx="25.8143" ry="15.0693" fill="url(#paint6_linear_196_161)"/>
<path d="M223.429 97.4787C223.429 101.496 220.638 105.186 216.01 107.887C211.39 110.584 204.988 112.262 197.901 112.262C190.814 112.262 184.412 110.584 179.792 107.887C175.164 105.186 172.373 101.496 172.373 97.4787C172.373 93.4614 175.164 89.7715 179.792 87.0702C184.412 84.373 190.814 82.6955 197.901 82.6955C204.988 82.6955 211.39 84.373 216.01 87.0702C220.638 89.7715 223.429 93.4614 223.429 97.4787Z" fill="#DAE1FF" stroke="#BFCBFF" stroke-width="0.572252"/>
<ellipse cx="197.901" cy="93.5051" rx="25.8143" ry="15.0693" fill="#D9D9D9"/>
<ellipse cx="197.901" cy="93.5051" rx="25.8143" ry="15.0693" fill="url(#paint7_linear_196_161)"/>
<path d="M223.429 90.4056C223.429 94.423 220.638 98.1128 216.01 100.814C211.39 103.511 204.988 105.189 197.901 105.189C190.814 105.189 184.412 103.511 179.792 100.814C175.164 98.1128 172.373 94.423 172.373 90.4056C172.373 86.3883 175.164 82.6984 179.792 79.9971C184.412 77.2999 190.814 75.6224 197.901 75.6224C204.988 75.6224 211.39 77.2999 216.01 79.9971C220.638 82.6984 223.429 86.3883 223.429 90.4056Z" fill="#DAE1FF" stroke="#BFCBFF" stroke-width="0.572252"/>
<ellipse cx="197.901" cy="86.4311" rx="25.8143" ry="15.0693" fill="#D9D9D9"/>
<ellipse cx="197.901" cy="86.4311" rx="25.8143" ry="15.0693" fill="url(#paint8_linear_196_161)"/>
<path d="M223.429 83.3313C223.429 87.3486 220.638 91.0385 216.01 93.7398C211.39 96.437 204.988 98.1145 197.901 98.1145C190.814 98.1145 184.412 96.437 179.792 93.7398C175.164 91.0385 172.373 87.3486 172.373 83.3313C172.373 79.3139 175.164 75.6241 179.792 72.9228C184.412 70.2255 190.814 68.5481 197.901 68.5481C204.988 68.5481 211.39 70.2255 216.01 72.9228C220.638 75.6241 223.429 79.3139 223.429 83.3313Z" fill="#DAE1FF" stroke="#BFCBFF" stroke-width="0.572252"/>
<ellipse cx="197.901" cy="79.3591" rx="25.8143" ry="15.0693" fill="#D9D9D9"/>
<ellipse cx="197.901" cy="79.3591" rx="25.8143" ry="15.0693" fill="url(#paint9_linear_196_161)"/>
<path d="M223.429 76.2585C223.429 80.2759 220.638 83.9657 216.01 86.667C211.39 89.3643 204.988 91.0417 197.901 91.0417C190.814 91.0417 184.412 89.3643 179.792 86.667C175.164 83.9657 172.373 80.2759 172.373 76.2585C172.373 72.2412 175.164 68.5513 179.792 65.85C184.412 63.1528 190.814 61.4753 197.901 61.4753C204.988 61.4753 211.39 63.1528 216.01 65.85C220.638 68.5513 223.429 72.2412 223.429 76.2585Z" fill="#DAE1FF" stroke="#BFCBFF" stroke-width="0.572252"/>
<ellipse cx="197.901" cy="72.2854" rx="25.8143" ry="15.0693" fill="#D9D9D9"/>
<ellipse cx="197.901" cy="72.2854" rx="25.8143" ry="15.0693" fill="url(#paint10_linear_196_161)"/>
<path d="M223.429 69.1853C223.429 73.2027 220.638 76.8925 216.01 79.5938C211.39 82.291 204.988 83.9685 197.901 83.9685C190.814 83.9685 184.412 82.291 179.792 79.5938C175.164 76.8925 172.373 73.2027 172.373 69.1853C172.373 65.1679 175.164 61.4781 179.792 58.7768C184.412 56.0795 190.814 54.4021 197.901 54.4021C204.988 54.4021 211.39 56.0795 216.01 58.7768C220.638 61.4781 223.429 65.1679 223.429 69.1853Z" fill="#DAE1FF" stroke="#BFCBFF" stroke-width="0.572252"/>
<ellipse cx="197.901" cy="65.2124" rx="25.8143" ry="15.0693" fill="#D9D9D9"/>
<ellipse cx="197.901" cy="65.2124" rx="25.8143" ry="15.0693" fill="url(#paint11_linear_196_161)"/>
<path d="M223.429 62.1122C223.429 66.1295 220.638 69.8194 216.01 72.5207C211.39 75.2179 204.988 76.8954 197.901 76.8954C190.814 76.8954 184.412 75.2179 179.792 72.5207C175.164 69.8194 172.373 66.1295 172.373 62.1122C172.373 58.0948 175.164 54.405 179.792 51.7037C184.412 49.0064 190.814 47.329 197.901 47.329C204.988 47.329 211.39 49.0064 216.01 51.7037C220.638 54.405 223.429 58.0948 223.429 62.1122Z" fill="#DAE1FF" stroke="#BFCBFF" stroke-width="0.572252"/>
<ellipse cx="161.941" cy="157.893" rx="25.8143" ry="15.0693" fill="#D9D9D9"/>
<ellipse cx="161.941" cy="157.893" rx="25.8143" ry="15.0693" fill="url(#paint12_linear_196_161)"/>
<path d="M187.469 154.793C187.469 158.81 184.677 162.5 180.05 165.201C175.429 167.899 169.028 169.576 161.941 169.576C154.854 169.576 148.452 167.899 143.831 165.201C139.204 162.5 136.413 158.81 136.413 154.793C136.413 150.776 139.204 147.086 143.831 144.384C148.452 141.687 154.854 140.01 161.941 140.01C169.028 140.01 175.429 141.687 180.05 144.384C184.677 147.086 187.469 150.776 187.469 154.793Z" fill="#DAE1FF" stroke="#BFCBFF" stroke-width="0.572252"/>
<ellipse cx="161.941" cy="150.82" rx="25.8143" ry="15.0693" fill="#D9D9D9"/>
<ellipse cx="161.941" cy="150.82" rx="25.8143" ry="15.0693" fill="url(#paint13_linear_196_161)"/>
<path d="M187.469 147.72C187.469 151.737 184.677 155.427 180.05 158.128C175.429 160.826 169.028 162.503 161.941 162.503C154.854 162.503 148.452 160.826 143.831 158.128C139.204 155.427 136.413 151.737 136.413 147.72C136.413 143.702 139.204 140.013 143.831 137.311C148.452 134.614 154.854 132.937 161.941 132.937C169.028 132.937 175.429 134.614 180.05 137.311C184.677 140.013 187.469 143.702 187.469 147.72Z" fill="#DAE1FF" stroke="#BFCBFF" stroke-width="0.572252"/>
<ellipse cx="161.941" cy="143.746" rx="25.8143" ry="15.0693" fill="#D9D9D9"/>
<ellipse cx="161.941" cy="143.746" rx="25.8143" ry="15.0693" fill="url(#paint14_linear_196_161)"/>
<path d="M187.469 140.646C187.469 144.663 184.677 148.353 180.05 151.054C175.429 153.752 169.028 155.429 161.941 155.429C154.854 155.429 148.452 153.752 143.831 151.054C139.204 148.353 136.413 144.663 136.413 140.646C136.413 136.628 139.204 132.939 143.831 130.237C148.452 127.54 154.854 125.863 161.941 125.863C169.028 125.863 175.429 127.54 180.05 130.237C184.677 132.939 187.469 136.628 187.469 140.646Z" fill="#DAE1FF" stroke="#BFCBFF" stroke-width="0.572252"/>
<ellipse cx="161.941" cy="136.673" rx="25.8143" ry="15.0693" fill="#D9D9D9"/>
<ellipse cx="161.941" cy="136.673" rx="25.8143" ry="15.0693" fill="url(#paint15_linear_196_161)"/>
<path d="M187.469 133.573C187.469 137.591 184.677 141.28 180.05 143.982C175.43 146.679 169.028 148.356 161.941 148.356C154.854 148.356 148.452 146.679 143.832 143.982C139.204 141.28 136.413 137.591 136.413 133.573C136.413 129.556 139.204 125.866 143.832 123.165C148.452 120.467 154.854 118.79 161.941 118.79C169.028 118.79 175.43 120.467 180.05 123.165C184.677 125.866 187.469 129.556 187.469 133.573Z" fill="#DAE1FF" stroke="#BFCBFF" stroke-width="0.572252"/>
<path d="M127.678 173.218V148.71L104.985 161.078V185.667L127.678 173.218Z" fill="#0F2170"/>
<path d="M127.678 173.218V148.71L104.985 161.078V185.667L127.678 173.218Z" fill="url(#paint16_linear_196_161)"/>
<path d="M83.5706 148.043L105.683 161.006V186.168L83.5706 173.396V148.043Z" fill="#8AE980"/>
<path d="M105.69 136.308L83.5453 148.152L105.69 161.041L127.931 149.493L105.69 136.308Z" fill="#C9FFC4"/>
<defs>
<linearGradient id="paint0_linear_196_161" x1="26.4662" y1="110.142" x2="83.3409" y2="101.795" gradientUnits="userSpaceOnUse">
<stop stop-color="#8DA3FF"/>
<stop offset="1" stop-color="#0228CA"/>
</linearGradient>
<linearGradient id="paint1_linear_196_161" x1="57.6402" y1="86.8846" x2="224.83" y2="111.3" gradientUnits="userSpaceOnUse">
<stop stop-color="#8DA3FF"/>
<stop offset="1" stop-color="#0228CA"/>
</linearGradient>
<linearGradient id="paint2_linear_196_161" x1="221.589" y1="116.264" x2="212.664" y2="149.04" gradientUnits="userSpaceOnUse">
<stop stop-color="#8EA3FF"/>
<stop offset="1" stop-color="#0228CA"/>
</linearGradient>
<linearGradient id="paint3_linear_196_161" x1="221.589" y1="109.191" x2="212.664" y2="141.967" gradientUnits="userSpaceOnUse">
<stop stop-color="#8EA3FF"/>
<stop offset="1" stop-color="#0228CA"/>
</linearGradient>
<linearGradient id="paint4_linear_196_161" x1="221.589" y1="102.118" x2="212.664" y2="134.893" gradientUnits="userSpaceOnUse">
<stop stop-color="#8EA3FF"/>
<stop offset="1" stop-color="#0228CA"/>
</linearGradient>
<linearGradient id="paint5_linear_196_161" x1="221.589" y1="95.0454" x2="212.664" y2="127.821" gradientUnits="userSpaceOnUse">
<stop stop-color="#8EA3FF"/>
<stop offset="1" stop-color="#0228CA"/>
</linearGradient>
<linearGradient id="paint6_linear_196_161" x1="221.589" y1="87.9715" x2="212.664" y2="120.747" gradientUnits="userSpaceOnUse">
<stop stop-color="#8EA3FF"/>
<stop offset="1" stop-color="#0228CA"/>
</linearGradient>
<linearGradient id="paint7_linear_196_161" x1="221.589" y1="80.8978" x2="212.664" y2="113.673" gradientUnits="userSpaceOnUse">
<stop stop-color="#8EA3FF"/>
<stop offset="1" stop-color="#0228CA"/>
</linearGradient>
<linearGradient id="paint8_linear_196_161" x1="221.589" y1="73.8238" x2="212.664" y2="106.599" gradientUnits="userSpaceOnUse">
<stop stop-color="#8EA3FF"/>
<stop offset="1" stop-color="#0228CA"/>
</linearGradient>
<linearGradient id="paint9_linear_196_161" x1="221.589" y1="66.7518" x2="212.664" y2="99.5274" gradientUnits="userSpaceOnUse">
<stop stop-color="#8EA3FF"/>
<stop offset="1" stop-color="#0228CA"/>
</linearGradient>
<linearGradient id="paint10_linear_196_161" x1="221.589" y1="59.6781" x2="212.664" y2="92.4537" gradientUnits="userSpaceOnUse">
<stop stop-color="#8EA3FF"/>
<stop offset="1" stop-color="#0228CA"/>
</linearGradient>
<linearGradient id="paint11_linear_196_161" x1="221.589" y1="52.6051" x2="212.664" y2="85.3807" gradientUnits="userSpaceOnUse">
<stop stop-color="#8EA3FF"/>
<stop offset="1" stop-color="#0228CA"/>
</linearGradient>
<linearGradient id="paint12_linear_196_161" x1="185.629" y1="145.286" x2="176.704" y2="178.062" gradientUnits="userSpaceOnUse">
<stop stop-color="#8EA3FF"/>
<stop offset="1" stop-color="#0228CA"/>
</linearGradient>
<linearGradient id="paint13_linear_196_161" x1="185.629" y1="138.212" x2="176.704" y2="170.988" gradientUnits="userSpaceOnUse">
<stop stop-color="#8EA3FF"/>
<stop offset="1" stop-color="#0228CA"/>
</linearGradient>
<linearGradient id="paint14_linear_196_161" x1="185.629" y1="131.139" x2="176.704" y2="163.914" gradientUnits="userSpaceOnUse">
<stop stop-color="#8EA3FF"/>
<stop offset="1" stop-color="#0228CA"/>
</linearGradient>
<linearGradient id="paint15_linear_196_161" x1="185.629" y1="124.065" x2="176.704" y2="156.841" gradientUnits="userSpaceOnUse">
<stop stop-color="#8EA3FF"/>
<stop offset="1" stop-color="#0228CA"/>
</linearGradient>
<linearGradient id="paint16_linear_196_161" x1="122.261" y1="158.222" x2="112.136" y2="193.844" gradientUnits="userSpaceOnUse">
<stop stop-color="#57DD4E"/>
<stop offset="1" stop-color="#54B54B"/>
</linearGradient>
</defs>
</svg>
