<svg width="326" height="308" viewBox="0 0 326 308" fill="none" xmlns="http://www.w3.org/2000/svg">
<rect x="0.140015" width="325.29" height="308" rx="8.00714" fill="#E8ECFF"/>
<g clip-path="url(#clip0_1134_339)">
<path d="M63.6088 198.909C61.559 198.515 60.7068 196.048 62.0761 194.472L105.912 144.033C106.559 143.289 107.559 142.955 108.523 143.161L207.975 164.416C209.976 164.844 210.799 167.252 209.477 168.814L168.191 217.628C167.559 218.376 166.572 218.724 165.611 218.539L63.6088 198.909Z" fill="#D9D9D9"/>
<path d="M63.6088 198.909C61.559 198.515 60.7068 196.048 62.0761 194.472L105.912 144.033C106.559 143.289 107.559 142.955 108.523 143.161L207.975 164.416C209.976 164.844 210.799 167.252 209.477 168.814L168.191 217.628C167.559 218.376 166.572 218.724 165.611 218.539L63.6088 198.909Z" fill="#CDD6FF"/>
<path d="M105.199 141.271C105.73 140.661 106.532 140.366 107.325 140.48L107.483 140.509L206.935 161.763C208.687 162.137 209.406 164.245 208.25 165.612L166.964 214.426C166.41 215.08 165.547 215.385 164.706 215.223L62.7037 195.593C60.9664 195.258 60.2122 193.222 61.256 191.842L61.3631 191.711L105.199 141.271Z" fill="white" stroke="#0228CA" stroke-width="0.677225"/>
<path d="M63.6446 193.953C61.5948 193.558 60.7426 191.091 62.1119 189.516L105.948 139.077C106.595 138.332 107.595 137.998 108.559 138.204L208.011 159.459C210.012 159.887 210.834 162.295 209.513 163.858L168.227 212.672C167.595 213.419 166.608 213.768 165.647 213.583L63.6446 193.953Z" fill="#D9D9D9"/>
<path d="M63.6446 193.953C61.5948 193.558 60.7426 191.091 62.1119 189.516L105.948 139.077C106.595 138.332 107.595 137.998 108.559 138.204L208.011 159.459C210.012 159.887 210.834 162.295 209.513 163.858L168.227 212.672C167.595 213.419 166.608 213.768 165.647 213.583L63.6446 193.953Z" fill="#CDD6FF"/>
<path d="M105.236 136.317C105.766 135.707 106.568 135.412 107.362 135.526L107.52 135.555L206.972 156.809C208.723 157.183 209.443 159.291 208.286 160.658L167 209.472C166.447 210.126 165.584 210.431 164.742 210.269L62.7402 190.638C60.9469 190.293 60.2016 188.135 61.3997 186.756L105.236 136.317Z" fill="white" stroke="#0228CA" stroke-width="0.677225"/>
<path d="M63.6799 188.995C61.6301 188.601 60.7779 186.134 62.1472 184.558L105.983 134.119C106.63 133.375 107.63 133.041 108.594 133.247L208.046 154.502C210.047 154.93 210.87 157.338 209.548 158.901L168.262 207.715C167.63 208.462 166.643 208.81 165.682 208.625L63.6799 188.995Z" fill="#D9D9D9"/>
<path d="M63.6799 188.995C61.6301 188.601 60.7779 186.134 62.1472 184.558L105.983 134.119C106.63 133.375 107.63 133.041 108.594 133.247L208.046 154.502C210.047 154.93 210.87 157.338 209.548 158.901L168.262 207.715C167.63 208.462 166.643 208.81 165.682 208.625L63.6799 188.995Z" fill="#CDD6FF"/>
<path d="M105.27 131.358C105.8 130.748 106.602 130.453 107.396 130.567L107.554 130.596L207.006 151.85C208.757 152.224 209.477 154.332 208.32 155.699L167.034 204.513C166.481 205.167 165.618 205.472 164.776 205.31L62.7742 185.68C60.9808 185.334 60.2355 183.176 61.4336 181.798L105.27 131.358Z" fill="white" stroke="#0228CA" stroke-width="0.677225"/>
<path d="M63.7137 184.038C61.6639 183.644 60.8117 181.177 62.181 179.601L106.017 129.162C106.664 128.418 107.664 128.084 108.628 128.29L208.08 149.545C210.081 149.973 210.904 152.381 209.582 153.943L168.296 202.757C167.664 203.505 166.677 203.853 165.716 203.668L63.7137 184.038Z" fill="#D9D9D9"/>
<path d="M63.7137 184.038C61.6639 183.644 60.8117 181.177 62.181 179.601L106.017 129.162C106.664 128.418 107.664 128.084 108.628 128.29L208.08 149.545C210.081 149.973 210.904 152.381 209.582 153.943L168.296 202.757C167.664 203.505 166.677 203.853 165.716 203.668L63.7137 184.038Z" fill="url(#paint0_linear_1134_339)"/>
<path d="M105.304 126.402C105.835 125.791 106.637 125.496 107.43 125.61L107.588 125.639L207.04 146.893C208.791 147.267 209.511 149.375 208.355 150.743L167.068 199.556C166.515 200.21 165.652 200.515 164.811 200.353L62.8085 180.723C61.0152 180.378 60.2699 178.219 61.468 176.841L105.304 126.402Z" fill="white" stroke="#0228CA" stroke-width="0.677225"/>
<path d="M128.685 108.489C128.685 104.621 130.781 101.056 134.161 99.1741L219.39 51.7255C220.134 51.3111 221.023 51.244 221.821 51.542L226.612 53.3305C227.78 53.7665 228.54 54.8985 228.501 56.1445L224.386 189.078C224.355 190.086 223.804 191.006 222.93 191.509L133.043 243.212C131.104 244.327 128.685 242.928 128.685 240.691V108.489Z" fill="#D9D9D9"/>
<path d="M128.685 108.489C128.685 104.621 130.781 101.056 134.161 99.1741L219.39 51.7255C220.134 51.3111 221.023 51.244 221.821 51.542L226.612 53.3305C227.78 53.7665 228.54 54.8985 228.501 56.1445L224.386 189.078C224.355 190.086 223.804 191.006 222.93 191.509L133.043 243.212C131.104 244.327 128.685 242.928 128.685 240.691V108.489Z" fill="url(#paint1_linear_1134_339)"/>
<path d="M133.467 109.148C133.467 106.347 134.978 103.764 137.42 102.39L224.785 53.2474C226.723 52.1572 229.118 53.5578 229.118 55.7817V191.409C229.118 192.449 228.562 193.411 227.66 193.929L137.825 245.603C135.886 246.718 133.467 245.319 133.467 243.082V109.148Z" fill="#D9D9D9"/>
<path d="M133.467 109.148C133.467 106.347 134.978 103.764 137.42 102.39L224.785 53.2474C226.723 52.1572 229.118 53.5578 229.118 55.7817V191.409C229.118 192.449 228.562 193.411 227.66 193.929L137.825 245.603C135.886 246.718 133.467 245.319 133.467 243.082V109.148Z" fill="#BFCBFF"/>
<path d="M140.762 112.126C140.762 109.329 142.268 106.749 144.704 105.374L220.173 62.7627C222.112 61.6683 224.511 63.0687 224.511 65.2947V187.209C224.511 188.248 223.957 189.208 223.058 189.727L145.124 234.75C143.186 235.87 140.762 234.471 140.762 232.233V112.126Z" fill="#D9D9D9"/>
<path d="M140.762 112.126C140.762 109.329 142.268 106.749 144.704 105.374L220.173 62.7627C222.112 61.6683 224.511 63.0687 224.511 65.2947V187.209C224.511 188.248 223.957 189.208 223.058 189.727L145.124 234.75C143.186 235.87 140.762 234.471 140.762 232.233V112.126Z" fill="#F3F5FF"/>
<path d="M152 127.331L215.368 95.0489" stroke="url(#paint2_linear_1134_339)" stroke-width="2.9077" stroke-linecap="round"/>
<path d="M151.999 140.483L215.368 108.201" stroke="url(#paint3_linear_1134_339)" stroke-width="2.9077" stroke-linecap="round"/>
<path d="M151.999 153.047L191.122 133.346" stroke="url(#paint4_linear_1134_339)" stroke-width="2.9077" stroke-linecap="round"/>
<path d="M197.137 155.225C200.542 157.272 204.806 158.678 204.75 163.752C204.696 168.642 202.202 178.309 198.931 183.75C195.209 189.942 188.926 196.238 184.055 198.323C180.204 199.971 176.945 197.696 173.993 195.921C167.308 191.903 166.3 179.111 172.965 168.024C179.63 156.937 190.452 151.207 197.137 155.225ZM177.068 188.611C181.501 191.276 188.677 187.477 193.096 180.125C197.515 172.773 197.504 164.654 193.072 161.989C188.639 159.324 182.754 163.776 178.335 171.127C173.915 178.479 172.635 185.947 177.068 188.611Z" fill="url(#paint5_linear_1134_339)"/>
<path d="M197.137 155.225C200.542 157.272 204.806 158.678 204.75 163.752C204.696 168.642 202.202 178.309 198.931 183.75C195.209 189.942 188.926 196.238 184.055 198.323C180.204 199.971 176.945 197.696 173.993 195.921C167.308 191.903 166.3 179.111 172.965 168.024C179.63 156.937 190.452 151.207 197.137 155.225ZM177.068 188.611C181.501 191.276 188.677 187.477 193.096 180.125C197.515 172.773 197.504 164.654 193.072 161.989C188.639 159.324 182.754 163.776 178.335 171.127C173.915 178.479 172.635 185.947 177.068 188.611Z" fill="url(#paint6_linear_1134_339)"/>
<ellipse cx="189.064" cy="177.63" rx="23.4226" ry="14.1232" transform="rotate(-58.9883 189.064 177.63)" fill="#F3F5FF"/>
<ellipse cx="189.064" cy="177.63" rx="23.4226" ry="14.1232" transform="rotate(-58.9883 189.064 177.63)" fill="#8AE980"/>
<path d="M182.729 170.919V173.344L183.965 173.95L187.046 170.919C188.616 170.253 189.218 171.328 189.323 171.948L182.729 175.678V177.758L183.965 178.483L189.323 173.95C188.569 177.279 184.613 179.342 182.729 179.957V182.705L189.323 190.163L190.667 190.871L192.306 188.358L185.79 181.056C190.501 178.669 191.574 174.434 191.521 172.615L196.546 169.789L197.782 168.651L196.546 167.748L191.521 170.692C191.615 170.001 191.246 169.043 191.05 168.651L196.546 165.549L197.782 163.649L196.546 162.919L182.729 170.919Z" fill="url(#paint7_linear_1134_339)"/>
<path d="M184.042 171.552V173.977L188.359 171.552C189.929 170.886 190.531 171.96 190.636 172.581L184.042 176.31V178.391L190.636 174.583C189.882 177.912 185.926 179.974 184.042 180.589V183.337L190.636 190.796L193.619 188.99L187.103 181.688C191.814 179.302 192.887 175.067 192.834 173.248L197.859 170.422V168.38L192.834 171.325C192.928 170.634 192.559 169.676 192.363 169.283L197.859 166.182V163.552L184.042 171.552Z" fill="#F3F5FF"/>
<ellipse cx="250.021" cy="194.463" rx="18.5642" ry="10.837" fill="#D9D9D9"/>
<ellipse cx="250.021" cy="194.463" rx="18.5642" ry="10.837" fill="url(#paint8_linear_1134_339)"/>
<path d="M250.021 181.602C255.117 181.602 259.721 182.808 263.044 184.747C266.371 186.69 268.38 189.344 268.38 192.233C268.38 195.122 266.371 197.775 263.044 199.718C259.721 201.658 255.117 202.865 250.021 202.865C244.925 202.865 240.321 201.658 236.998 199.718C233.67 197.775 231.663 195.122 231.663 192.233C231.663 189.344 233.67 186.69 236.998 184.747C240.321 182.808 244.925 181.602 250.021 181.602Z" fill="#DAE1FF" stroke="#BFCBFF" stroke-width="0.411532"/>
<ellipse cx="250.021" cy="189.377" rx="18.5642" ry="10.837" fill="#D9D9D9"/>
<ellipse cx="250.021" cy="189.377" rx="18.5642" ry="10.837" fill="url(#paint9_linear_1134_339)"/>
<path d="M250.021 176.516C255.117 176.516 259.721 177.722 263.044 179.661C266.371 181.604 268.38 184.258 268.38 187.147C268.38 190.036 266.371 192.689 263.044 194.632C259.721 196.571 255.117 197.778 250.021 197.778C244.925 197.778 240.321 196.572 236.998 194.632C233.67 192.689 231.663 190.036 231.663 187.147C231.663 184.258 233.67 181.604 236.998 179.661C240.321 177.722 244.925 176.516 250.021 176.516Z" fill="#DAE1FF" stroke="#BFCBFF" stroke-width="0.411532"/>
<ellipse cx="250.022" cy="184.289" rx="18.5642" ry="10.837" fill="#D9D9D9"/>
<ellipse cx="250.022" cy="184.289" rx="18.5642" ry="10.837" fill="url(#paint10_linear_1134_339)"/>
<path d="M250.023 171.429C255.119 171.429 259.722 172.635 263.045 174.574C266.373 176.517 268.381 179.171 268.381 182.06C268.381 184.949 266.373 187.602 263.045 189.545C259.722 191.485 255.119 192.691 250.023 192.691C244.926 192.691 240.322 191.485 236.999 189.545C233.671 187.602 231.664 184.949 231.664 182.06C231.664 179.171 233.671 176.517 236.999 174.574C240.322 172.635 244.926 171.429 250.023 171.429Z" fill="#DAE1FF" stroke="#BFCBFF" stroke-width="0.411532"/>
<ellipse cx="250.021" cy="179.203" rx="18.5642" ry="10.837" fill="#D9D9D9"/>
<ellipse cx="250.021" cy="179.203" rx="18.5642" ry="10.837" fill="url(#paint11_linear_1134_339)"/>
<path d="M250.021 166.342C255.117 166.342 259.721 167.548 263.044 169.488C266.371 171.43 268.38 174.084 268.38 176.973C268.38 179.862 266.371 182.516 263.044 184.458C259.721 186.398 255.117 187.605 250.021 187.605C244.925 187.605 240.321 186.398 236.998 184.458C233.67 182.516 231.663 179.862 231.663 176.973C231.663 174.084 233.67 171.43 236.998 169.488C240.321 167.548 244.925 166.342 250.021 166.342Z" fill="#DAE1FF" stroke="#BFCBFF" stroke-width="0.411532"/>
<ellipse cx="250.021" cy="174.116" rx="18.5642" ry="10.837" fill="#D9D9D9"/>
<ellipse cx="250.021" cy="174.116" rx="18.5642" ry="10.837" fill="url(#paint12_linear_1134_339)"/>
<path d="M250.021 161.256C255.117 161.256 259.721 162.462 263.044 164.401C266.371 166.344 268.38 168.998 268.38 171.887C268.38 174.776 266.371 177.429 263.044 179.372C259.721 181.312 255.117 182.519 250.021 182.519C244.925 182.519 240.321 181.312 236.998 179.372C233.67 177.429 231.663 174.776 231.663 171.887C231.663 168.998 233.67 166.344 236.998 164.401C240.321 162.462 244.925 161.256 250.021 161.256Z" fill="#DAE1FF" stroke="#BFCBFF" stroke-width="0.411532"/>
<ellipse cx="250.021" cy="169.028" rx="18.5642" ry="10.837" fill="#D9D9D9"/>
<ellipse cx="250.021" cy="169.028" rx="18.5642" ry="10.837" fill="url(#paint13_linear_1134_339)"/>
<path d="M250.021 156.168C255.117 156.168 259.721 157.374 263.044 159.314C266.371 161.257 268.38 163.91 268.38 166.799C268.38 169.688 266.371 172.342 263.044 174.285C259.721 176.224 255.117 177.431 250.021 177.431C244.925 177.431 240.321 176.224 236.998 174.285C233.67 172.342 231.663 169.688 231.663 166.799C231.663 163.91 233.67 161.257 236.998 159.314C240.321 157.374 244.925 156.168 250.021 156.168Z" fill="#DAE1FF" stroke="#BFCBFF" stroke-width="0.411532"/>
<ellipse cx="250.021" cy="163.942" rx="18.5642" ry="10.837" fill="#D9D9D9"/>
<ellipse cx="250.021" cy="163.942" rx="18.5642" ry="10.837" fill="url(#paint14_linear_1134_339)"/>
<path d="M250.021 151.082C255.117 151.082 259.721 152.288 263.044 154.227C266.371 156.17 268.38 158.823 268.38 161.712C268.38 164.601 266.371 167.255 263.044 169.198C259.721 171.137 255.117 172.344 250.021 172.344C244.925 172.344 240.321 171.137 236.998 169.198C233.67 167.255 231.663 164.601 231.663 161.712C231.663 158.823 233.67 156.17 236.998 154.227C240.321 152.287 244.925 151.082 250.021 151.082Z" fill="#DAE1FF" stroke="#BFCBFF" stroke-width="0.411532"/>
<ellipse cx="250.021" cy="158.856" rx="18.5642" ry="10.837" fill="#D9D9D9"/>
<ellipse cx="250.021" cy="158.856" rx="18.5642" ry="10.837" fill="url(#paint15_linear_1134_339)"/>
<path d="M250.021 145.995C255.117 145.995 259.721 147.201 263.044 149.14C266.371 151.083 268.38 153.737 268.38 156.626C268.38 159.515 266.371 162.168 263.044 164.111C259.721 166.051 255.117 167.257 250.021 167.258C244.925 167.258 240.321 166.051 236.998 164.111C233.67 162.168 231.663 159.515 231.663 156.626C231.663 153.737 233.67 151.083 236.998 149.14C240.321 147.201 244.925 145.995 250.021 145.995Z" fill="#DAE1FF" stroke="#BFCBFF" stroke-width="0.411532"/>
<ellipse cx="250.022" cy="153.769" rx="18.5642" ry="10.837" fill="#D9D9D9"/>
<ellipse cx="250.022" cy="153.769" rx="18.5642" ry="10.837" fill="url(#paint16_linear_1134_339)"/>
<path d="M250.023 140.909C255.119 140.909 259.722 142.115 263.045 144.054C266.373 145.997 268.381 148.651 268.381 151.54C268.381 154.429 266.373 157.082 263.045 159.025C259.722 160.964 255.119 162.171 250.023 162.171C244.926 162.171 240.322 160.965 236.999 159.025C233.671 157.082 231.664 154.429 231.664 151.54C231.664 148.651 233.671 145.997 236.999 144.054C240.322 142.115 244.926 140.909 250.023 140.909Z" fill="#DAE1FF" stroke="#BFCBFF" stroke-width="0.411532"/>
<ellipse cx="250.021" cy="148.683" rx="18.5642" ry="10.837" fill="#D9D9D9"/>
<ellipse cx="250.021" cy="148.683" rx="18.5642" ry="10.837" fill="url(#paint17_linear_1134_339)"/>
<path d="M250.021 135.822C255.117 135.822 259.721 137.028 263.044 138.967C266.371 140.91 268.38 143.564 268.38 146.453C268.38 149.342 266.371 151.995 263.044 153.938C259.721 155.878 255.117 157.084 250.021 157.084C244.925 157.084 240.321 155.878 236.998 153.938C233.67 151.995 231.663 149.342 231.663 146.453C231.663 143.564 233.67 140.91 236.998 138.967C240.321 137.028 244.925 135.822 250.021 135.822Z" fill="#DAE1FF" stroke="#BFCBFF" stroke-width="0.411532"/>
<ellipse cx="236.46" cy="217.271" rx="18.5642" ry="10.837" fill="#D9D9D9"/>
<ellipse cx="236.46" cy="217.271" rx="18.5642" ry="10.837" fill="url(#paint18_linear_1134_339)"/>
<path d="M236.461 204.41C241.557 204.41 246.16 205.616 249.483 207.556C252.811 209.498 254.819 212.152 254.819 215.041C254.819 217.93 252.811 220.584 249.483 222.526C246.16 224.466 241.557 225.673 236.461 225.673C231.364 225.673 226.76 224.466 223.437 222.526C220.109 220.584 218.102 217.93 218.102 215.041C218.102 212.152 220.109 209.498 223.437 207.556C226.76 205.616 231.364 204.41 236.461 204.41Z" fill="#DAE1FF" stroke="#BFCBFF" stroke-width="0.411532"/>
<ellipse cx="236.462" cy="212.182" rx="18.5642" ry="10.837" fill="#D9D9D9"/>
<ellipse cx="236.462" cy="212.182" rx="18.5642" ry="10.837" fill="url(#paint19_linear_1134_339)"/>
<path d="M236.462 199.323C241.559 199.323 246.162 200.529 249.485 202.468C252.813 204.411 254.821 207.064 254.821 209.953C254.821 212.843 252.813 215.496 249.485 217.439C246.162 219.378 241.559 220.585 236.462 220.585C231.366 220.585 226.762 219.379 223.439 217.439C220.111 215.496 218.104 212.843 218.104 209.953C218.104 207.064 220.111 204.411 223.439 202.468C226.762 200.528 231.366 199.323 236.462 199.323Z" fill="#DAE1FF" stroke="#BFCBFF" stroke-width="0.411532"/>
<ellipse cx="236.461" cy="207.096" rx="18.5642" ry="10.837" fill="#D9D9D9"/>
<ellipse cx="236.461" cy="207.096" rx="18.5642" ry="10.837" fill="url(#paint20_linear_1134_339)"/>
<path d="M236.461 194.236C241.557 194.236 246.161 195.442 249.484 197.382C252.811 199.325 254.82 201.978 254.82 204.867C254.82 207.756 252.811 210.41 249.484 212.353C246.161 214.292 241.557 215.499 236.461 215.499C231.365 215.499 226.761 214.292 223.438 212.353C220.11 210.41 218.103 207.756 218.103 204.867C218.103 201.978 220.11 199.325 223.438 197.382C226.761 195.442 231.365 194.236 236.461 194.236Z" fill="#DAE1FF" stroke="#BFCBFF" stroke-width="0.411532"/>
<ellipse cx="236.46" cy="202.01" rx="18.5642" ry="10.837" fill="#D9D9D9"/>
<ellipse cx="236.46" cy="202.01" rx="18.5642" ry="10.837" fill="url(#paint21_linear_1134_339)"/>
<path d="M236.461 189.149C241.557 189.149 246.161 190.355 249.483 192.295C252.811 194.237 254.819 196.891 254.819 199.78C254.819 202.669 252.811 205.323 249.483 207.266C246.161 209.205 241.557 210.412 236.461 210.412C231.364 210.412 226.76 209.205 223.437 207.266C220.11 205.323 218.102 202.669 218.102 199.78C218.102 196.891 220.11 194.237 223.437 192.295C226.76 190.355 231.364 189.149 236.461 189.149Z" fill="#DAE1FF" stroke="#BFCBFF" stroke-width="0.411532"/>
<path d="M128.685 230.865L136.222 235.913L141.498 232.898V254.906L148.733 259.428L154.159 246.542V216.847L166.369 210.214L155.667 200.339L147.527 195.894L128.685 230.865Z" fill="#0F2170"/>
<path d="M128.685 230.865L136.222 235.913L141.498 232.898V254.906L148.733 259.428L154.159 246.542V216.847L166.369 210.214L155.667 200.339L147.527 195.894L128.685 230.865Z" fill="url(#paint22_linear_1134_339)"/>
<path d="M148.883 228.977V258.974L162.298 251.135V221.44L174.508 214.808L155.666 200.488L136.824 235.459L148.883 228.977Z" fill="#8AE980"/>
</g>
<defs>
<linearGradient id="paint0_linear_1134_339" x1="170.316" y1="131.01" x2="182.445" y2="224.209" gradientUnits="userSpaceOnUse">
<stop stop-color="#8DA3FF"/>
<stop offset="1" stop-color="#0228CA"/>
</linearGradient>
<linearGradient id="paint1_linear_1134_339" x1="203.438" y1="97.2316" x2="107.815" y2="241.245" gradientUnits="userSpaceOnUse">
<stop stop-color="#8DA3FF"/>
<stop offset="1" stop-color="#0228CA"/>
</linearGradient>
<linearGradient id="paint2_linear_1134_339" x1="183.911" y1="111.636" x2="184.809" y2="113.416" gradientUnits="userSpaceOnUse">
<stop stop-color="#8EA3FF"/>
<stop offset="1" stop-color="#0228CA"/>
</linearGradient>
<linearGradient id="paint3_linear_1134_339" x1="183.911" y1="124.787" x2="184.809" y2="126.567" gradientUnits="userSpaceOnUse">
<stop stop-color="#8EA3FF"/>
<stop offset="1" stop-color="#0228CA"/>
</linearGradient>
<linearGradient id="paint4_linear_1134_339" x1="183.955" y1="137.438" x2="185.027" y2="139.567" gradientUnits="userSpaceOnUse">
<stop stop-color="#8EA3FF"/>
<stop offset="1" stop-color="#0228CA"/>
</linearGradient>
<linearGradient id="paint5_linear_1134_339" x1="186.24" y1="160.519" x2="209.18" y2="181.747" gradientUnits="userSpaceOnUse">
<stop stop-color="#8DA3FF"/>
<stop offset="1" stop-color="#0228CA"/>
</linearGradient>
<linearGradient id="paint6_linear_1134_339" x1="186.01" y1="161.488" x2="210.954" y2="180.599" gradientUnits="userSpaceOnUse">
<stop stop-color="#57DD4E"/>
<stop offset="1" stop-color="#54B54B"/>
</linearGradient>
<linearGradient id="paint7_linear_1134_339" x1="194.497" y1="169.834" x2="181.543" y2="191.48" gradientUnits="userSpaceOnUse">
<stop stop-color="#8EA3FF"/>
<stop offset="1" stop-color="#0228CA"/>
</linearGradient>
<linearGradient id="paint8_linear_1134_339" x1="267.056" y1="185.397" x2="260.638" y2="208.967" gradientUnits="userSpaceOnUse">
<stop stop-color="#8EA3FF"/>
<stop offset="1" stop-color="#0228CA"/>
</linearGradient>
<linearGradient id="paint9_linear_1134_339" x1="267.056" y1="180.31" x2="260.638" y2="203.881" gradientUnits="userSpaceOnUse">
<stop stop-color="#8EA3FF"/>
<stop offset="1" stop-color="#0228CA"/>
</linearGradient>
<linearGradient id="paint10_linear_1134_339" x1="267.058" y1="175.222" x2="260.639" y2="198.793" gradientUnits="userSpaceOnUse">
<stop stop-color="#8EA3FF"/>
<stop offset="1" stop-color="#0228CA"/>
</linearGradient>
<linearGradient id="paint11_linear_1134_339" x1="267.056" y1="170.136" x2="260.638" y2="193.707" gradientUnits="userSpaceOnUse">
<stop stop-color="#8EA3FF"/>
<stop offset="1" stop-color="#0228CA"/>
</linearGradient>
<linearGradient id="paint12_linear_1134_339" x1="267.056" y1="165.05" x2="260.638" y2="188.62" gradientUnits="userSpaceOnUse">
<stop stop-color="#8EA3FF"/>
<stop offset="1" stop-color="#0228CA"/>
</linearGradient>
<linearGradient id="paint13_linear_1134_339" x1="267.056" y1="159.962" x2="260.638" y2="183.532" gradientUnits="userSpaceOnUse">
<stop stop-color="#8EA3FF"/>
<stop offset="1" stop-color="#0228CA"/>
</linearGradient>
<linearGradient id="paint14_linear_1134_339" x1="267.056" y1="154.875" x2="260.638" y2="178.446" gradientUnits="userSpaceOnUse">
<stop stop-color="#8EA3FF"/>
<stop offset="1" stop-color="#0228CA"/>
</linearGradient>
<linearGradient id="paint15_linear_1134_339" x1="267.056" y1="149.79" x2="260.638" y2="173.36" gradientUnits="userSpaceOnUse">
<stop stop-color="#8EA3FF"/>
<stop offset="1" stop-color="#0228CA"/>
</linearGradient>
<linearGradient id="paint16_linear_1134_339" x1="267.058" y1="144.703" x2="260.639" y2="168.273" gradientUnits="userSpaceOnUse">
<stop stop-color="#8EA3FF"/>
<stop offset="1" stop-color="#0228CA"/>
</linearGradient>
<linearGradient id="paint17_linear_1134_339" x1="267.056" y1="139.616" x2="260.638" y2="163.187" gradientUnits="userSpaceOnUse">
<stop stop-color="#8EA3FF"/>
<stop offset="1" stop-color="#0228CA"/>
</linearGradient>
<linearGradient id="paint18_linear_1134_339" x1="253.496" y1="208.205" x2="247.077" y2="231.775" gradientUnits="userSpaceOnUse">
<stop stop-color="#8EA3FF"/>
<stop offset="1" stop-color="#0228CA"/>
</linearGradient>
<linearGradient id="paint19_linear_1134_339" x1="253.497" y1="203.116" x2="247.079" y2="226.686" gradientUnits="userSpaceOnUse">
<stop stop-color="#8EA3FF"/>
<stop offset="1" stop-color="#0228CA"/>
</linearGradient>
<linearGradient id="paint20_linear_1134_339" x1="253.496" y1="198.03" x2="247.078" y2="221.6" gradientUnits="userSpaceOnUse">
<stop stop-color="#8EA3FF"/>
<stop offset="1" stop-color="#0228CA"/>
</linearGradient>
<linearGradient id="paint21_linear_1134_339" x1="253.496" y1="192.943" x2="247.077" y2="216.514" gradientUnits="userSpaceOnUse">
<stop stop-color="#8EA3FF"/>
<stop offset="1" stop-color="#0228CA"/>
</linearGradient>
<linearGradient id="paint22_linear_1134_339" x1="157.373" y1="212.246" x2="139.451" y2="273.158" gradientUnits="userSpaceOnUse">
<stop stop-color="#57DD4E"/>
<stop offset="1" stop-color="#54B54B"/>
</linearGradient>
<clipPath id="clip0_1134_339">
<rect width="212.255" height="210.496" fill="white" transform="translate(56.6573 48.7521)"/>
</clipPath>
</defs>
</svg>
