<svg width="177" height="131" viewBox="0 0 177 131" fill="none" xmlns="http://www.w3.org/2000/svg">
<path fill-rule="evenodd" clip-rule="evenodd" d="M129.537 35.4546V66.3106H129.459C129.565 70.4703 128.342 74.6172 125.829 78.5601C122.622 83.5922 117.398 88.1628 110.542 91.9333L80.655 75.4952C83.0255 74.1915 84.8321 72.611 85.9409 70.871C87.0497 69.131 87.4323 67.276 87.0603 65.4436C86.6884 63.6112 85.5714 61.8484 83.7921 60.2857C82.0129 58.723 79.617 57.4006 76.7821 56.4165C73.9472 55.4324 70.746 54.8118 67.4157 54.6007C64.0854 54.3896 60.7114 54.5935 57.5438 55.1972C54.3762 55.8009 51.4963 56.7889 49.1174 58.088C46.7386 59.3872 44.9218 60.9641 43.8018 62.7019L3.96338 54.9352C6.55334 50.9165 10.4316 47.1954 15.3991 43.9446L12.8398 41.7845L52.4647 14.4774L86.8954 11.064L110.789 29.0214L129.537 35.4546Z" fill="url(#paint0_linear_146_10104)"/>
<path d="M19.2744 60.3295L20.1162 10.7613L46.2595 25.0979L45.6321 60.3295H19.2744Z" fill="url(#paint1_linear_146_10104)"/>
<path d="M110.542 61.3337C122.659 54.6698 129.465 45.6316 129.465 36.2074C129.465 26.7832 122.659 17.745 110.542 11.0811C98.4262 4.41715 81.9931 0.673403 64.8582 0.673401C47.7233 0.673399 31.2902 4.41714 19.174 11.0811L45.9887 25.8291C50.9932 23.0767 57.7808 21.5303 64.8582 21.5303C71.9357 21.5303 78.7232 23.0767 83.7277 25.8291C88.7322 28.5816 91.5437 32.3148 91.5437 36.2074C91.5437 40.1 88.7322 43.8331 83.7277 46.5856L110.542 61.3337Z" fill="#BFCBFF"/>
<path d="M19.1741 39.8004C9.38318 45.1853 2.99683 52.1579 0.956395 59.6903C-1.08404 67.2227 1.32939 74.9164 7.84095 81.6372L41.3077 71.8288C38.6182 69.0528 40.4649 65.588 41.3077 62.4768C42.1505 59.3656 40.735 56.3265 44.7791 54.1022L19.1741 39.8004Z" fill="url(#paint2_linear_146_10104)"/>
<path d="M110.472 91.9731V60.9994L84.6709 46.605V77.6464L110.472 91.9731Z" fill="url(#paint3_linear_146_10104)"/>
<path d="M0.375488 68.2324V46.4254L8.10708 61.2938V81.3167C3.19058 76.876 0.904144 70.7435 0.375488 68.2324Z" fill="#DAE1FF"/>
<path d="M0.375488 68.2324V46.4254L8.10708 61.2938V81.3167C3.19058 76.876 0.904144 70.7435 0.375488 68.2324Z" fill="url(#paint4_linear_146_10104)"/>
<path d="M41.3469 70.8798V52.0599L23.6385 49.7931L21.6704 33.9547L45.3813 34.5169V60.3833L41.3469 70.8798Z" fill="#DAE1FF"/>
<path d="M41.3469 70.8798V52.0599L23.6385 49.7931L21.6704 33.9547L45.3813 34.5169V60.3833L41.3469 70.8798Z" fill="url(#paint5_linear_146_10104)"/>
<path d="M19.174 19.9756C9.3831 25.3606 2.99675 32.3332 0.956317 39.8656C-1.08412 47.3979 1.32932 55.0916 7.84088 61.8125L41.3076 52.0041C38.6181 49.2281 37.6212 46.0503 38.464 42.9391C39.3068 39.8279 41.9446 36.9479 45.9887 34.7237L19.174 19.9756Z" fill="#C9FFC4"/>
<path fill-rule="evenodd" clip-rule="evenodd" d="M31.8415 74.3181L41.3306 71.8511C43.6087 74.1921 46.9989 76.1494 51.1398 77.5144C55.2807 78.8793 60.0174 79.6009 64.8451 79.6022L64.8266 100.459C53.1384 100.456 41.6708 98.709 31.6453 95.4043C21.6199 92.0997 12.6049 86.4209 7.08936 80.7532L7.26273 80.7081L7.53869 68.7867L31.8415 74.3181Z" fill="url(#paint6_linear_146_10104)"/>
<path d="M7.8968 68.8193C13.4123 74.487 21.62 79.2256 31.6455 82.5303C41.6709 85.835 53.1386 87.582 64.8267 87.5851L64.8452 66.7282C60.0175 66.7269 55.2809 66.0053 51.1399 64.6403C46.999 63.2753 43.6089 61.3181 41.3307 58.9771L7.8968 68.8193Z" fill="#BFCBFF"/>
<path fill-rule="evenodd" clip-rule="evenodd" d="M77.7707 99.7181C73.3675 100.208 68.8903 100.462 64.4375 100.462V100.101V79.6047C71.3655 79.6047 78.0322 78.1777 83.0769 75.6148L94.6097 81.9284L110.542 81.5621V90.6506V91.9858L91.9906 99.3093L77.7707 99.7181Z" fill="url(#paint7_linear_146_10104)"/>
<path d="M64.1606 92.0089C72.645 92.0089 81.7433 91.1132 89.5818 89.3274C97.4204 87.5417 104.543 84.9242 110.542 81.6246L83.7272 66.8765C81.2493 68.2394 78.3075 69.3205 75.0698 70.0581C71.8322 70.7957 67.665 71.1753 64.1606 71.1753V92.0089Z" fill="#DAE1FF"/>
<path d="M148.731 28.6205C154.516 32.0981 161.762 34.4863 161.666 43.1086C161.574 51.4166 157.336 67.8433 151.779 77.0877C145.454 87.6089 134.119 98.7687 125.843 102.312C119.3 105.112 112.736 99.8552 107.721 96.8405C96.3622 90.0121 96.3342 69.2051 107.659 50.3667C118.983 31.5282 137.372 21.7922 148.731 28.6205ZM114.629 85.3486C122.162 89.8764 134.355 83.4205 141.864 70.9289C149.373 58.4372 149.355 44.6403 141.823 40.1124C134.291 35.5846 124.292 43.1489 116.782 55.6405C109.273 68.1321 107.097 80.8208 114.629 85.3486Z" fill="url(#paint8_linear_146_10104)"/>
<path d="M155.519 32.581C166.878 39.4093 166.906 60.2163 155.581 79.0548C144.257 97.8932 125.868 107.629 114.509 100.801C103.15 93.9726 103.122 73.1655 114.447 54.3271C125.771 35.4887 144.16 25.7526 155.519 32.581ZM121.417 89.309C128.95 93.8369 141.143 87.3809 148.652 74.8893C156.161 62.3977 156.143 48.6007 148.611 44.0728C141.079 39.545 128.885 46.0009 121.376 58.4926C113.867 70.9842 113.885 84.7812 121.417 89.309Z" fill="#DAE1FF"/>
<path d="M101.523 88.5679C103.353 87.2744 104.913 88.5066 106.207 90.337C107.5 92.1673 108.037 93.9027 106.207 95.1962L85.2336 110.128C83.4032 111.421 80.8708 110.986 79.5774 109.156C78.2839 107.325 78.7191 104.793 80.5495 103.499L101.523 88.5679Z" fill="#DAE1FF"/>
<path fill-rule="evenodd" clip-rule="evenodd" d="M90.7122 110.349C93.4409 108.851 93.9262 104.491 91.796 100.611C89.6659 96.7303 85.7271 94.7991 82.9984 96.297C82.681 96.4713 82.394 96.6842 82.1379 96.9306L55.6704 114.171L64.1226 127.961L90.6444 110.385C90.6671 110.373 90.6897 110.361 90.7122 110.349Z" fill="url(#paint9_linear_146_10104)"/>
<ellipse cx="60.3177" cy="120.773" rx="5.63627" ry="8.20049" transform="rotate(-28.7652 60.3177 120.773)" fill="#DAE1FF"/>
<defs>
<linearGradient id="paint0_linear_146_10104" x1="102.134" y1="31.0713" x2="85.2103" y2="112.611" gradientUnits="userSpaceOnUse">
<stop stop-color="#8EA3FF"/>
<stop offset="1" stop-color="#0228CA"/>
</linearGradient>
<linearGradient id="paint1_linear_146_10104" x1="40.3706" y1="23.0246" x2="17.5177" y2="61.6282" gradientUnits="userSpaceOnUse">
<stop stop-color="#8EA3FF"/>
<stop offset="1" stop-color="#0228CA"/>
</linearGradient>
<linearGradient id="paint2_linear_146_10104" x1="29.0178" y1="29.3929" x2="46.5134" y2="68.0488" gradientUnits="userSpaceOnUse">
<stop stop-color="#5AE650"/>
<stop offset="1" stop-color="#54B54B"/>
</linearGradient>
<linearGradient id="paint3_linear_146_10104" x1="104.841" y1="57.8292" x2="84.3741" y2="93.9453" gradientUnits="userSpaceOnUse">
<stop stop-color="#8EA3FF"/>
<stop offset="1" stop-color="#0228CA"/>
</linearGradient>
<linearGradient id="paint4_linear_146_10104" x1="6.26136" y1="55.4056" x2="-11.4061" y2="77.8383" gradientUnits="userSpaceOnUse">
<stop stop-color="#57DD4E"/>
<stop offset="1" stop-color="#54B54B"/>
</linearGradient>
<linearGradient id="paint5_linear_146_10104" x1="39.7209" y1="43.4584" x2="29.9857" y2="79.2784" gradientUnits="userSpaceOnUse">
<stop stop-color="#57DD4E"/>
<stop offset="1" stop-color="#54B54B"/>
</linearGradient>
<linearGradient id="paint6_linear_146_10104" x1="52.2412" y1="76.6225" x2="46.5324" y2="108.924" gradientUnits="userSpaceOnUse">
<stop stop-color="#8EA3FF"/>
<stop offset="1" stop-color="#0228CA"/>
</linearGradient>
<linearGradient id="paint7_linear_146_10104" x1="100.481" y1="81.762" x2="96.075" y2="107.129" gradientUnits="userSpaceOnUse">
<stop stop-color="#8EA3FF"/>
<stop offset="1" stop-color="#0228CA"/>
</linearGradient>
<linearGradient id="paint8_linear_146_10104" x1="130.207" y1="37.6254" x2="169.194" y2="73.6913" gradientUnits="userSpaceOnUse">
<stop stop-color="#8EA3FF"/>
<stop offset="1" stop-color="#0228CA"/>
</linearGradient>
<linearGradient id="paint9_linear_146_10104" x1="84.9502" y1="103.749" x2="76.2501" y2="135.176" gradientUnits="userSpaceOnUse">
<stop stop-color="#8EA3FF"/>
<stop offset="1" stop-color="#0228CA"/>
</linearGradient>
</defs>
</svg>
