<svg width="326" height="309" viewBox="0 0 326 309" fill="none" xmlns="http://www.w3.org/2000/svg">
<g clip-path="url(#clip0_3270_45546)">
<path d="M310.933 0.0585938H14.5626C6.57813 0.0585938 0.105469 6.53126 0.105469 14.5157V293.602C0.105469 301.586 6.57813 308.059 14.5626 308.059H310.933C318.918 308.059 325.39 301.586 325.39 293.602V14.5157C325.39 6.53126 318.918 0.0585938 310.933 0.0585938Z" fill="#E8ECFF"/>
<g clip-path="url(#clip1_3270_45546)">
<path d="M68.2319 183.055C63.9444 180.96 64.4069 177.585 64.9857 174.675L180.29 108.922L258.99 152.68L260.38 153.844C264.09 158.615 260.612 163.07 258.062 164.551C220.78 186.197 154.212 223.997 151.894 225.3C147.257 227.907 143.085 226.696 140.883 225.3L68.2319 183.055Z" fill="url(#paint0_radial_3270_45546)"/>
<path d="M74.3754 184.508C74.5033 184.502 74.6018 184.393 74.5955 184.264C74.5893 184.136 74.4805 184.037 74.3526 184.043C74.2248 184.05 74.1262 184.159 74.1325 184.287C74.1388 184.416 74.2475 184.515 74.3754 184.508Z" fill="#122370"/>
<path d="M76.5268 185.801C76.6547 185.795 76.7532 185.686 76.7469 185.557C76.7406 185.429 76.6319 185.33 76.504 185.336C76.3761 185.343 76.2776 185.452 76.2839 185.58C76.2902 185.709 76.3989 185.807 76.5268 185.801Z" fill="#122370"/>
<path d="M78.6791 187.094C78.807 187.088 78.9056 186.979 78.8993 186.85C78.893 186.722 78.7842 186.623 78.6563 186.629C78.5285 186.636 78.4299 186.745 78.4362 186.873C78.4425 187.001 78.5513 187.1 78.6791 187.094Z" fill="#122370"/>
<path d="M82.3764 189.399C82.5043 189.392 82.6028 189.283 82.5965 189.155C82.5902 189.027 82.4815 188.928 82.3536 188.934C82.2257 188.94 82.1272 189.049 82.1335 189.178C82.1398 189.306 82.2485 189.405 82.3764 189.399Z" fill="#122370"/>
<path d="M75.0922 184.942C75.2201 184.935 75.3186 184.826 75.3123 184.698C75.3061 184.569 75.1973 184.471 75.0694 184.477C74.9416 184.483 74.843 184.592 74.8493 184.721C74.8556 184.849 74.9643 184.948 75.0922 184.942Z" fill="#122370"/>
<path d="M77.2446 186.231C77.3724 186.225 77.471 186.115 77.4647 185.987C77.4584 185.859 77.3496 185.76 77.2218 185.766C77.0939 185.772 76.9953 185.881 77.0016 186.01C77.0079 186.138 77.1167 186.237 77.2446 186.231Z" fill="#122370"/>
<path d="M80.9408 188.536C81.0687 188.529 81.1673 188.42 81.161 188.292C81.1547 188.163 81.0459 188.064 80.9181 188.071C80.7902 188.077 80.6916 188.186 80.6979 188.315C80.7042 188.443 80.813 188.542 80.9408 188.536Z" fill="#122370"/>
<path d="M79.3959 187.524C79.5238 187.517 79.6224 187.408 79.6161 187.28C79.6098 187.152 79.501 187.053 79.3731 187.059C79.2453 187.065 79.1467 187.174 79.153 187.303C79.1593 187.431 79.2681 187.53 79.3959 187.524Z" fill="#122370"/>
<path d="M83.0922 189.829C83.2201 189.822 83.3186 189.713 83.3123 189.585C83.3061 189.456 83.1973 189.357 83.0694 189.364C82.9416 189.37 82.843 189.479 82.8493 189.607C82.8556 189.736 82.9643 189.835 83.0922 189.829Z" fill="#122370"/>
<path d="M75.81 185.371C75.9379 185.365 76.0364 185.256 76.0301 185.128C76.0238 184.999 75.9151 184.9 75.7872 184.907C75.6593 184.913 75.5608 185.022 75.5671 185.15C75.5734 185.279 75.6821 185.378 75.81 185.371Z" fill="#122370"/>
<path d="M77.9614 186.661C78.0892 186.654 78.1878 186.545 78.1815 186.417C78.1752 186.288 78.0664 186.189 77.9386 186.196C77.8107 186.202 77.7121 186.311 77.7184 186.44C77.7247 186.568 77.8335 186.667 77.9614 186.661Z" fill="#122370"/>
<path d="M81.6576 188.965C81.7855 188.959 81.8841 188.85 81.8778 188.721C81.8715 188.593 81.7627 188.494 81.6348 188.5C81.507 188.507 81.4084 188.616 81.4147 188.744C81.421 188.873 81.5298 188.972 81.6576 188.965Z" fill="#122370"/>
<path d="M80.1137 187.954C80.2416 187.947 80.3401 187.838 80.3338 187.71C80.3275 187.581 80.2188 187.482 80.0909 187.489C79.963 187.495 79.8645 187.604 79.8708 187.732C79.8771 187.861 79.9858 187.96 80.1137 187.954Z" fill="#122370"/>
<path d="M83.81 190.258C83.9379 190.252 84.0364 190.143 84.0301 190.014C84.0238 189.886 83.9151 189.787 83.7872 189.793C83.6593 189.8 83.5608 189.909 83.5671 190.037C83.5734 190.166 83.6821 190.265 83.81 190.258Z" fill="#122370"/>
<path d="M121.508 212.028C121.636 212.021 121.735 211.912 121.728 211.784C121.722 211.655 121.613 211.556 121.485 211.563C121.358 211.569 121.259 211.678 121.265 211.807C121.272 211.935 121.38 212.034 121.508 212.028Z" fill="#122370"/>
<path d="M123.66 213.321C123.787 213.314 123.886 213.205 123.88 213.077C123.873 212.948 123.765 212.849 123.637 212.856C123.509 212.862 123.41 212.971 123.417 213.1C123.423 213.228 123.532 213.327 123.66 213.321Z" fill="#122370"/>
<path d="M125.812 214.614C125.94 214.607 126.038 214.498 126.032 214.37C126.026 214.241 125.917 214.142 125.789 214.149C125.661 214.155 125.563 214.264 125.569 214.393C125.575 214.521 125.684 214.62 125.812 214.614Z" fill="#122370"/>
<path d="M129.509 216.918C129.637 216.912 129.736 216.803 129.729 216.674C129.723 216.546 129.614 216.447 129.486 216.453C129.359 216.46 129.26 216.569 129.266 216.697C129.273 216.826 129.381 216.925 129.509 216.918Z" fill="#122370"/>
<path d="M122.226 212.461C122.354 212.455 122.452 212.346 122.446 212.217C122.44 212.089 122.331 211.99 122.203 211.996C122.075 212.003 121.977 212.112 121.983 212.24C121.989 212.369 122.098 212.468 122.226 212.461Z" fill="#122370"/>
<path d="M124.377 213.754C124.505 213.748 124.604 213.639 124.598 213.51C124.591 213.382 124.482 213.283 124.355 213.289C124.227 213.296 124.128 213.405 124.134 213.533C124.141 213.662 124.249 213.761 124.377 213.754Z" fill="#122370"/>
<path d="M128.074 216.055C128.202 216.049 128.3 215.94 128.294 215.811C128.287 215.683 128.179 215.584 128.051 215.59C127.923 215.596 127.824 215.706 127.831 215.834C127.837 215.962 127.946 216.061 128.074 216.055Z" fill="#122370"/>
<path d="M126.53 215.043C126.658 215.037 126.756 214.928 126.75 214.799C126.744 214.671 126.635 214.572 126.507 214.578C126.379 214.585 126.28 214.694 126.287 214.822C126.293 214.951 126.402 215.05 126.53 215.043Z" fill="#122370"/>
<path d="M130.226 217.348C130.354 217.342 130.452 217.233 130.446 217.104C130.44 216.976 130.331 216.877 130.203 216.883C130.075 216.889 129.977 216.999 129.983 217.127C129.989 217.255 130.098 217.354 130.226 217.348Z" fill="#122370"/>
<path d="M122.943 212.891C123.071 212.885 123.169 212.775 123.163 212.647C123.157 212.519 123.048 212.42 122.92 212.426C122.792 212.432 122.694 212.542 122.7 212.67C122.706 212.798 122.815 212.897 122.943 212.891Z" fill="#122370"/>
<path d="M125.095 214.184C125.223 214.178 125.322 214.068 125.315 213.94C125.309 213.812 125.2 213.713 125.072 213.719C124.944 213.725 124.846 213.835 124.852 213.963C124.859 214.091 124.967 214.19 125.095 214.184Z" fill="#122370"/>
<path d="M128.791 216.489C128.919 216.482 129.018 216.373 129.012 216.245C129.005 216.116 128.897 216.017 128.769 216.024C128.641 216.03 128.542 216.139 128.549 216.268C128.555 216.396 128.664 216.495 128.791 216.489Z" fill="#122370"/>
<path d="M127.247 215.473C127.375 215.467 127.474 215.358 127.468 215.229C127.461 215.101 127.353 215.002 127.225 215.008C127.097 215.014 126.998 215.124 127.005 215.252C127.011 215.38 127.12 215.479 127.247 215.473Z" fill="#122370"/>
<path d="M130.944 217.778C131.072 217.771 131.17 217.662 131.164 217.534C131.158 217.405 131.049 217.306 130.921 217.313C130.793 217.319 130.695 217.428 130.701 217.557C130.707 217.685 130.816 217.784 130.944 217.778Z" fill="#122370"/>
<g filter="url(#filter0_d_3270_45546)">
<path d="M154.327 223.905V219.25" stroke="#122370" stroke-width="0.416996"/>
</g>
<g filter="url(#filter1_d_3270_45546)">
<path d="M255.629 165.949V160.828" stroke="#122370" stroke-width="0.416996"/>
</g>
<g filter="url(#filter2_d_3270_45546)">
<path d="M92.8975 197.37V192.715" stroke="#122370" stroke-width="0.416996"/>
</g>
<g filter="url(#filter3_i_3270_45546)">
<path d="M101.938 201.069V199.929V199.809C101.938 199.556 102.215 199.4 102.429 199.533L105.223 201.252C105.415 201.37 105.531 201.579 105.531 201.804V202.974C105.531 203.224 105.262 203.379 105.047 203.254L102.26 201.629C102.061 201.513 101.938 201.3 101.938 201.069Z" fill="#0222AA"/>
</g>
<path d="M101.938 201.069V199.929V199.809C101.938 199.556 102.215 199.4 102.429 199.533L105.223 201.252C105.415 201.37 105.531 201.579 105.531 201.804V202.974C105.531 203.224 105.262 203.379 105.047 203.254L102.26 201.629C102.061 201.513 101.938 201.3 101.938 201.069Z" stroke="#122370" stroke-width="0.416996"/>
<path d="M171.102 111.611L69.9174 169.567C61.3465 174.594 66.7881 177.481 69.9174 179.459C90.7803 191.538 133.966 216.526 139.808 219.842C145.65 223.158 151.437 221.224 153.601 219.842C185.127 201.649 249.825 164.307 256.408 160.489C262.43 156.998 261.624 153.114 256.408 150.132C234.695 137.718 189.995 113.542 184.895 110.563C179.796 107.584 173.575 110.02 171.102 111.611Z" fill="#8EA3FF"/>
<path d="M69.0088 176.774C67.2563 175.792 67.2415 173.266 68.9824 172.264L172.579 112.63C176.52 110.361 181.359 110.341 185.319 112.577L256.938 153.018C258.686 154.005 258.694 156.529 256.952 157.527L153.335 216.844C149.412 219.09 144.605 219.112 140.661 216.903L69.0088 176.774Z" fill="#E6EAFB"/>
<path d="M227.347 155.796V127.34L218.178 120.227L203.591 139.057V164.166L227.347 155.796Z" fill="#CDD6FF"/>
<path d="M166.083 124.41L203.592 139.056V164.164L166.083 150.355V124.41Z" fill="#BFCBFF"/>
<path d="M232.348 128.176L219.845 118.133L216.928 121.062L227.347 128.176H232.348Z" fill="#8EA3FF"/>
<path d="M219.844 118.133L203.591 139.056L161.498 122.736L177.752 101.812L219.844 118.133Z" fill="url(#paint1_linear_3270_45546)"/>
<path d="M176.557 145.808L182.592 148.03V137.075L177.277 135.022L177.273 135.021L176.44 134.676L170.411 132.184V143.546L176.557 145.808ZM218.215 139.841L212.088 141.277V143.24V152.229L224.268 148.56V138.423L218.215 139.841Z" fill="white" stroke="#8DA3FF" stroke-width="0.208498"/>
<path d="M198.268 152.447V143.045L188.077 139.109V157.821L198.268 161.607V152.447Z" fill="white" stroke="#8DA3FF" stroke-width="0.416996"/>
<path d="M120.729 165.17V87.3438C121.214 87.9943 127.24 89.2467 147.456 89.0515C167.672 88.8564 174.346 87.8317 175.156 87.3438V164.195C166.894 170.294 157.856 172.294 147.942 172.49C138.028 172.685 125.345 168.586 120.729 165.17Z" fill="#CDD6FF"/>
<path d="M147.456 115.4C132.1 115.79 125.831 112.716 120.728 112.228C118.201 113.79 119.675 115.318 120.728 115.888C120.242 115.571 125.539 118.815 147.456 118.815C163.735 118.815 169.567 116.049 175.641 114.911C175.803 114.911 177.585 114.325 177.585 112.959C177.585 111.593 175.479 111.496 175.156 111.496C172.159 112.309 162.812 115.009 147.456 115.4Z" fill="#8EA3FF"/>
<path d="M120.728 141.505C125.345 143.701 133.8 147.263 149.157 146.873C164.513 146.482 172.159 141.587 175.156 140.773C175.48 140.773 176.613 140.871 176.613 142.237C176.613 143.604 175.803 144.188 175.641 144.188C169.081 146.873 165.436 150.288 149.157 150.288C127.995 150.288 120.742 145.216 120.705 145.152C119.654 144.573 118.22 143.055 120.728 141.505Z" fill="#8EA3FF"/>
<path d="M118.542 88.0743V85.3906H177.343V88.3183C175.318 89.3755 166.798 91.6363 148.914 92.2218C131.031 92.8073 121.215 89.7008 118.542 88.0743Z" fill="#8EA3FF"/>
<path d="M147.941 90.2709C164.179 90.2709 177.342 88.1955 177.342 85.6355C177.342 83.0754 164.179 81 147.941 81C131.704 81 118.541 83.0754 118.541 85.6355C118.541 88.1955 131.704 90.2709 147.941 90.2709Z" fill="#CDD6FF"/>
<path d="M149.688 132.294C149.688 132.89 149.58 133.405 149.366 133.84C149.152 134.274 148.857 134.609 148.484 134.844C148.11 135.08 147.683 135.198 147.203 135.198C146.723 135.198 146.296 135.08 145.922 134.844C145.548 134.609 145.254 134.274 145.039 133.84C144.825 133.405 144.718 132.89 144.718 132.294C144.718 131.698 144.825 131.183 145.039 130.748C145.254 130.314 145.548 129.979 145.922 129.744C146.296 129.508 146.723 129.391 147.203 129.391C147.683 129.391 148.11 129.508 148.484 129.744C148.857 129.979 149.152 130.314 149.366 130.748C149.58 131.183 149.688 131.698 149.688 132.294ZM149.028 132.294C149.028 131.805 148.946 131.392 148.783 131.055C148.622 130.718 148.403 130.463 148.126 130.29C147.851 130.117 147.543 130.031 147.203 130.031C146.862 130.031 146.553 130.117 146.276 130.29C146.001 130.463 145.782 130.718 145.619 131.055C145.458 131.392 145.378 131.805 145.378 132.294C145.378 132.784 145.458 133.197 145.619 133.533C145.782 133.87 146.001 134.125 146.276 134.298C146.553 134.471 146.862 134.557 147.203 134.557C147.543 134.557 147.851 134.471 148.126 134.298C148.403 134.125 148.622 133.87 148.783 133.533C148.946 133.197 149.028 132.784 149.028 132.294ZM151.516 129.468V135.12H150.834V129.468H151.516ZM152.882 135.12V129.468H153.564V134.513H156.181V135.12H152.882Z" fill="#0228CA"/>
<path d="M138.219 131.987L140.406 127.84C140.73 128.328 141.621 129.743 142.593 131.499C143.808 133.695 142.798 135.403 139.882 135.159C137.674 134.974 137.814 132.719 138.219 131.987Z" fill="#0228CA"/>
<path d="M211.191 170.033C207.694 171.128 206.391 171.055 206.177 170.881L195.017 167.392L176.194 159.318L178.136 156.301L196.456 156.583C198.669 157.014 204.275 158.276 208.996 159.881C213.717 161.485 216.899 165.755 217.9 167.69C217.122 168.014 214.689 168.937 211.191 170.033Z" fill="#E5EAFF"/>
<path d="M186.178 158.518C186.439 158.028 186.423 157.508 186.142 157.358C185.861 157.207 185.421 157.482 185.16 157.972C184.899 158.462 184.915 158.982 185.196 159.133C185.477 159.284 185.917 159.008 186.178 158.518Z" fill="#BFCBFF"/>
<path d="M189.315 162.734C189.662 162.082 189.641 161.391 189.267 161.19C188.894 160.989 188.309 161.355 187.962 162.007C187.615 162.659 187.636 163.35 188.01 163.551C188.383 163.752 188.968 163.386 189.315 162.734Z" fill="#BFCBFF"/>
<path d="M189.484 162.832C189.831 162.18 189.81 161.489 189.436 161.288C189.062 161.087 188.478 161.453 188.131 162.105C187.783 162.757 187.805 163.448 188.179 163.649C188.552 163.849 189.137 163.483 189.484 162.832Z" fill="#BFCBFF"/>
<path d="M199.978 159.542C200.325 158.891 200.304 158.199 199.93 157.999C199.557 157.798 198.972 158.164 198.625 158.816C198.278 159.468 198.299 160.159 198.673 160.359C199.046 160.56 199.631 160.194 199.978 159.542Z" fill="#BFCBFF"/>
<path d="M200.712 166.539C201.06 165.887 201.038 165.196 200.665 164.995C200.291 164.794 199.707 165.16 199.359 165.812C199.012 166.464 199.033 167.155 199.407 167.356C199.781 167.556 200.365 167.19 200.712 166.539Z" fill="#BFCBFF"/>
<path d="M209.894 163.66C210.241 163.008 210.22 162.317 209.846 162.116C209.473 161.915 208.888 162.281 208.541 162.933C208.194 163.585 208.215 164.276 208.589 164.477C208.962 164.677 209.547 164.312 209.894 163.66Z" fill="#BFCBFF"/>
<path d="M214.592 167.972C214.94 167.32 214.918 166.629 214.545 166.428C214.171 166.228 213.586 166.594 213.239 167.245C212.892 167.897 212.913 168.588 213.287 168.789C213.661 168.99 214.245 168.624 214.592 167.972Z" fill="#BFCBFF"/>
<path d="M187.025 168.693C175.407 167.13 168.77 162.448 166.904 160.303C169.953 161.468 175.616 160.545 178.066 159.938C178.982 160.052 182.107 160.743 187.287 162.589C192.467 164.435 205.627 170.654 211.559 173.532C208.222 172.571 198.642 170.257 187.025 168.693Z" fill="#8EA3FF"/>
<path d="M177.41 160.141C172.261 162.718 168.406 161.276 167.123 160.233L167.055 160.013C166.932 158.847 167.921 155.888 173.615 154.104C180.392 151.981 193.866 154.423 197.618 156.46C195.195 156.898 182.559 157.564 177.41 160.141Z" fill="#8DA3FF"/>
<path d="M199.353 185.964C195.689 185.964 194.467 185.504 194.315 185.274L184.696 178.605L169.123 165.268L171.871 162.969L189.276 168.717C191.261 169.791 196.238 172.673 200.269 175.616C204.3 178.559 206.071 183.588 206.452 185.734C205.613 185.81 203.017 185.964 199.353 185.964Z" fill="#E5EAFF"/>
<path d="M178.891 167.487C179.286 167.097 179.424 166.597 179.201 166.369C178.978 166.14 178.477 166.272 178.082 166.661C177.687 167.051 177.548 167.552 177.772 167.78C177.995 168.008 178.496 167.877 178.891 167.487Z" fill="#BFCBFF"/>
<path d="M180.634 172.453C181.159 171.934 181.344 171.268 181.046 170.965C180.749 170.661 180.083 170.836 179.558 171.354C179.033 171.873 178.848 172.539 179.145 172.842C179.443 173.146 180.109 172.971 180.634 172.453Z" fill="#BFCBFF"/>
<path d="M180.769 172.593C181.294 172.075 181.478 171.409 181.181 171.105C180.884 170.802 180.218 170.976 179.693 171.495C179.168 172.013 178.983 172.679 179.28 172.983C179.577 173.286 180.244 173.112 180.769 172.593Z" fill="#BFCBFF"/>
<path d="M191.761 172.593C192.286 172.075 192.47 171.409 192.173 171.105C191.876 170.802 191.21 170.976 190.685 171.495C190.16 172.013 189.975 172.679 190.272 172.983C190.57 173.286 191.236 173.112 191.761 172.593Z" fill="#BFCBFF"/>
<path d="M190.386 179.492C190.911 178.973 191.095 178.307 190.798 178.004C190.501 177.701 189.835 177.875 189.31 178.393C188.785 178.912 188.6 179.578 188.897 179.881C189.195 180.185 189.861 180.01 190.386 179.492Z" fill="#BFCBFF"/>
<path d="M200.005 179.492C200.53 178.973 200.715 178.307 200.417 178.004C200.12 177.701 199.454 177.875 198.929 178.393C198.404 178.912 198.219 179.578 198.517 179.881C198.814 180.185 199.48 180.01 200.005 179.492Z" fill="#BFCBFF"/>
<path d="M203.212 185.011C203.737 184.493 203.922 183.827 203.624 183.523C203.327 183.22 202.661 183.394 202.136 183.913C201.611 184.431 201.426 185.097 201.724 185.401C202.021 185.704 202.687 185.53 203.212 185.011Z" fill="#BFCBFF"/>
<path d="M176.68 177.457C166.054 172.49 161.107 166.036 159.962 163.43C162.527 165.453 168.206 166.266 170.726 166.419C171.565 166.802 174.344 168.396 178.741 171.708C183.138 175.019 193.856 184.892 198.665 189.414C195.765 187.498 187.306 182.424 176.68 177.457Z" fill="url(#paint2_linear_3270_45546)"/>
<path d="M170.038 166.418C164.358 167.337 161.106 164.808 160.19 163.428V163.198C160.419 162.048 162.241 159.519 168.206 159.52C175.305 159.52 187.443 165.881 190.42 168.947C187.977 168.64 175.718 165.498 170.038 166.418Z" fill="url(#paint3_linear_3270_45546)"/>
<path d="M120.16 158.712L137.7 155.949V157.676L130.134 160.784V172.179L137.7 171.489V172.87L119.816 176.668V175.287L127.382 172.87V160.784L120.16 160.093V158.712Z" fill="#F2F5FF"/>
<path d="M120.16 158.711L137.7 155.948L99.8693 144.207L89.5518 147.66L120.16 158.711Z" fill="#BFCBFF"/>
<path d="M120.16 160.092V158.71L89.5518 147.66V149.041L120.16 160.092Z" fill="#8EA3FF"/>
<path d="M119.816 176.669V175.288L85.4248 160.094V161.475L119.816 176.669Z" fill="#8EA3FF"/>
<path d="M91.6152 158.022L127.383 172.871V160.785L120.16 160.094L91.6152 149.734V158.022Z" fill="url(#paint4_linear_3270_45546)"/>
<path d="M119.816 175.289L127.383 172.872L91.6154 158.023L85.4248 160.095L119.816 175.289Z" fill="#BFCBFF"/>
<path d="M130.134 168.383L137.7 171.491L130.134 172.181V168.383Z" fill="#BFCBFF"/>
<path d="M98.7355 163.013L116.275 160.25V161.977L108.709 165.084V176.48L116.275 175.789V177.171L98.3916 180.969V179.588L105.958 177.171V165.084L98.7355 164.394V163.013Z" fill="#F2F5FF"/>
<path d="M98.7346 163.015L116.274 160.253L78.4435 148.512L68.126 151.965L98.7346 163.015Z" fill="#BFCBFF"/>
<path d="M98.7355 164.396V163.015L68.127 151.965V153.346L98.7355 164.396Z" fill="#8EA3FF"/>
<path d="M98.3916 180.97V179.589L64 164.395V165.776L98.3916 180.97Z" fill="#8EA3FF"/>
<path d="M70.1904 162.323L105.958 177.172V165.085L98.7355 164.395L70.1904 154.035V162.323Z" fill="url(#paint5_linear_3270_45546)"/>
<path d="M98.3917 179.59L105.958 177.173L70.1905 162.324L64 164.396L98.3917 179.59Z" fill="#BFCBFF"/>
<path d="M108.709 172.684L116.275 175.792L108.709 176.482V172.684Z" fill="#BFCBFF"/>
<path d="M126.952 181.013L129.46 175.977L137.485 180.509L139.491 188.567L126.952 181.013Z" fill="#BFCBFF"/>
<path d="M152.532 162.883L129.46 175.977L137.485 180.509L160.055 166.912L152.532 162.883Z" fill="#E6EAFB"/>
<path d="M139.491 188.569L137.484 180.512L160.055 166.914L162.563 174.972L139.491 188.569Z" fill="#8EA3FF"/>
<path d="M139.992 189.071L142.5 184.035L150.525 188.568L152.531 196.626L139.992 189.071Z" fill="#BFCBFF"/>
<path d="M165.572 170.941L142.5 184.035L150.525 188.568L173.096 174.97L165.572 170.941Z" fill="#E6EAFB"/>
<path d="M152.532 196.624L150.525 188.566L173.096 174.969L175.604 183.027L152.532 196.624Z" fill="#8EA3FF"/>
<path d="M135.479 176.985L137.986 171.949L146.011 176.482L148.018 184.54L135.479 176.985Z" fill="#BFCBFF"/>
<path d="M161.057 158.855L137.985 171.949L146.01 176.482L168.581 162.884L161.057 158.855Z" fill="#E6EAFB"/>
<path d="M148.017 184.538L146.011 176.48L168.581 162.883L171.089 170.941L148.017 184.538Z" fill="#8EA3FF"/>
</g>
</g>
<defs>
<filter id="filter0_d_3270_45546" x="154.118" y="218.833" width="1.25196" height="5.49024" filterUnits="userSpaceOnUse" color-interpolation-filters="sRGB">
<feFlood flood-opacity="0" result="BackgroundImageFix"/>
<feColorMatrix in="SourceAlpha" type="matrix" values="0 0 0 0 0 0 0 0 0 0 0 0 0 0 0 0 0 0 127 0" result="hardAlpha"/>
<feOffset dx="0.416996"/>
<feGaussianBlur stdDeviation="0.208498"/>
<feComposite in2="hardAlpha" operator="out"/>
<feColorMatrix type="matrix" values="0 0 0 0 0 0 0 0 0 0 0 0 0 0 0 0 0 0 0.3 0"/>
<feBlend mode="normal" in2="BackgroundImageFix" result="effect1_dropShadow_3270_45546"/>
<feBlend mode="normal" in="SourceGraphic" in2="effect1_dropShadow_3270_45546" result="shape"/>
</filter>
<filter id="filter1_d_3270_45546" x="255.42" y="160.411" width="1.25196" height="5.95509" filterUnits="userSpaceOnUse" color-interpolation-filters="sRGB">
<feFlood flood-opacity="0" result="BackgroundImageFix"/>
<feColorMatrix in="SourceAlpha" type="matrix" values="0 0 0 0 0 0 0 0 0 0 0 0 0 0 0 0 0 0 127 0" result="hardAlpha"/>
<feOffset dx="0.416996"/>
<feGaussianBlur stdDeviation="0.208498"/>
<feComposite in2="hardAlpha" operator="out"/>
<feColorMatrix type="matrix" values="0 0 0 0 0 0 0 0 0 0 0 0 0 0 0 0 0 0 0.3 0"/>
<feBlend mode="normal" in2="BackgroundImageFix" result="effect1_dropShadow_3270_45546"/>
<feBlend mode="normal" in="SourceGraphic" in2="effect1_dropShadow_3270_45546" result="shape"/>
</filter>
<filter id="filter2_d_3270_45546" x="92.6885" y="192.298" width="1.25196" height="5.49024" filterUnits="userSpaceOnUse" color-interpolation-filters="sRGB">
<feFlood flood-opacity="0" result="BackgroundImageFix"/>
<feColorMatrix in="SourceAlpha" type="matrix" values="0 0 0 0 0 0 0 0 0 0 0 0 0 0 0 0 0 0 127 0" result="hardAlpha"/>
<feOffset dx="0.416996"/>
<feGaussianBlur stdDeviation="0.208498"/>
<feComposite in2="hardAlpha" operator="out"/>
<feColorMatrix type="matrix" values="0 0 0 0 0 0 0 0 0 0 0 0 0 0 0 0 0 0 0.3 0"/>
<feBlend mode="normal" in2="BackgroundImageFix" result="effect1_dropShadow_3270_45546"/>
<feBlend mode="normal" in="SourceGraphic" in2="effect1_dropShadow_3270_45546" result="shape"/>
</filter>
<filter id="filter3_i_3270_45546" x="101.938" y="199.484" width="5.26076" height="3.8125" filterUnits="userSpaceOnUse" color-interpolation-filters="sRGB">
<feFlood flood-opacity="0" result="BackgroundImageFix"/>
<feBlend mode="normal" in="SourceGraphic" in2="BackgroundImageFix" result="shape"/>
<feColorMatrix in="SourceAlpha" type="matrix" values="0 0 0 0 0 0 0 0 0 0 0 0 0 0 0 0 0 0 127 0" result="hardAlpha"/>
<feOffset dx="1.66799"/>
<feGaussianBlur stdDeviation="1.25099"/>
<feComposite in2="hardAlpha" operator="arithmetic" k2="-1" k3="1"/>
<feColorMatrix type="matrix" values="0 0 0 0 0 0 0 0 0 0 0 0 0 0 0 0 0 0 0.4 0"/>
<feBlend mode="normal" in2="shape" result="effect1_innerShadow_3270_45546"/>
</filter>
<radialGradient id="paint0_radial_3270_45546" cx="0" cy="0" r="1" gradientUnits="userSpaceOnUse" gradientTransform="translate(213.655 239.364) rotate(-109.609) scale(160.323 101.37)">
<stop stop-color="#8EA3FF"/>
<stop offset="1" stop-color="#0228CA"/>
</radialGradient>
<linearGradient id="paint1_linear_3270_45546" x1="174.231" y1="111.027" x2="181.962" y2="148.606" gradientUnits="userSpaceOnUse">
<stop stop-color="#0228CA"/>
<stop offset="1" stop-color="#8EA3FF"/>
</linearGradient>
<linearGradient id="paint2_linear_3270_45546" x1="190.219" y1="169.858" x2="184.571" y2="195.964" gradientUnits="userSpaceOnUse">
<stop stop-color="#0228CA"/>
<stop offset="1" stop-color="#8EA3FF"/>
</linearGradient>
<linearGradient id="paint3_linear_3270_45546" x1="183.823" y1="161.852" x2="182.837" y2="171.668" gradientUnits="userSpaceOnUse">
<stop stop-color="#0228CA"/>
<stop offset="1" stop-color="#8EA3FF"/>
</linearGradient>
<linearGradient id="paint4_linear_3270_45546" x1="99.4206" y1="155.458" x2="104.282" y2="178.778" gradientUnits="userSpaceOnUse">
<stop stop-color="#0228CA"/>
<stop offset="1" stop-color="#8EA3FF"/>
</linearGradient>
<linearGradient id="paint5_linear_3270_45546" x1="77.9958" y1="159.759" x2="82.8574" y2="183.079" gradientUnits="userSpaceOnUse">
<stop stop-color="#0228CA"/>
<stop offset="1" stop-color="#8EA3FF"/>
</linearGradient>
<clipPath id="clip0_3270_45546">
<rect width="326" height="309" fill="white"/>
</clipPath>
<clipPath id="clip1_3270_45546">
<rect width="198" height="146" fill="white" transform="translate(64 81)"/>
</clipPath>
</defs>
</svg>
