<svg width="326" height="309" viewBox="0 0 326 309" fill="none" xmlns="http://www.w3.org/2000/svg">
<g clip-path="url(#clip0_3270_45548)">
<path d="M310.933 0.0585938H14.5626C6.57813 0.0585938 0.105469 6.53126 0.105469 14.5157V293.602C0.105469 301.586 6.57813 308.059 14.5626 308.059H310.933C318.918 308.059 325.39 301.586 325.39 293.602V14.5157C325.39 6.53126 318.918 0.0585938 310.933 0.0585938Z" fill="#E8ECFF"/>
<path d="M140.118 97.7305L219.182 121.797L219.047 142.723C219.037 144.268 218.225 145.696 216.905 146.492L149.784 186.945C144.936 189.867 138.884 189.903 134.001 187.04L67.7396 148.186C66.3841 147.391 65.5511 145.935 65.551 144.361L65.5508 122.929L140.118 97.7305Z" fill="#D9D9D9"/>
<path d="M140.118 97.7305L219.182 121.797L219.047 142.723C219.037 144.268 218.225 145.696 216.905 146.492L149.784 186.945C144.936 189.867 138.884 189.903 134.001 187.04L67.7396 148.186C66.3841 147.391 65.5511 145.935 65.551 144.361L65.5508 122.929L140.118 97.7305Z" fill="url(#paint0_linear_3270_45548)"/>
<path d="M130.469 82.449C136.459 78.8977 143.865 78.7425 149.998 82.0403L216.829 117.976C219.856 119.604 219.956 123.918 217.008 125.685L153.41 163.798C146.323 168.044 137.494 168.09 130.364 163.917L67.7621 127.281C64.8493 125.577 64.8374 121.361 67.7405 119.64L130.469 82.449Z" fill="#CFD8FF"/>
<path d="M142.484 140.186C159.793 140.186 173.826 131.975 173.826 121.845C173.826 111.716 159.793 103.504 142.484 103.504C125.174 103.504 111.142 111.716 111.142 121.845C111.142 131.975 125.174 140.186 142.484 140.186Z" fill="#D9D9D9"/>
<path d="M142.484 140.186C159.793 140.186 173.826 131.975 173.826 121.845C173.826 111.716 159.793 103.504 142.484 103.504C125.174 103.504 111.142 111.716 111.142 121.845C111.142 131.975 125.174 140.186 142.484 140.186Z" fill="url(#paint1_linear_3270_45548)"/>
<path d="M173.724 118.072C173.724 123.085 170.251 127.643 164.595 130.953C158.941 134.261 151.124 136.311 142.484 136.311C133.844 136.311 126.026 134.261 120.373 130.953C114.716 127.643 111.243 123.085 111.243 118.072C111.243 113.058 114.716 108.5 120.373 105.19C126.026 101.882 133.844 99.832 142.484 99.832C151.124 99.832 158.941 101.882 164.595 105.19C170.251 108.5 173.724 113.058 173.724 118.072Z" fill="#DAE1FF" stroke="#BFCBFF" stroke-width="0.107252"/>
<path fill-rule="evenodd" clip-rule="evenodd" d="M134.785 107.934L137.345 109.551C138.747 109.072 140.264 108.75 141.836 108.603C144.55 108.348 147.315 108.625 149.804 109.4C152.293 110.175 154.401 111.416 155.878 112.977C157.356 114.537 158.141 116.351 158.141 118.204H153.583C153.583 116.94 153.048 115.703 152.04 114.638C151.032 113.574 149.594 112.728 147.897 112.199C146.2 111.67 144.314 111.481 142.463 111.655C141.97 111.701 141.485 111.773 141.012 111.868L151.366 118.41L148.862 119.761L138.072 112.849C137.859 112.953 137.653 113.063 137.452 113.179C137.088 113.389 136.748 113.617 136.436 113.86L147.61 120.92L145.106 122.271L134.783 115.658C134.656 115.864 134.544 116.074 134.448 116.289C133.907 117.498 133.89 118.788 134.398 120.004C134.907 121.22 135.921 122.312 137.319 123.15C138.717 123.988 140.442 124.538 142.288 124.735L141.58 127.779C138.873 127.491 136.345 126.685 134.295 125.456C132.245 124.226 130.759 122.625 130.013 120.843C129.267 119.06 129.292 117.17 130.086 115.397C130.392 114.712 130.807 114.057 131.322 113.44L128.832 111.846L131.029 110.443L133.104 111.755C133.534 111.429 133.996 111.122 134.49 110.836C134.567 110.792 134.645 110.748 134.724 110.704L132.588 109.336L134.785 107.934Z" fill="#1C44F1"/>
<path fill-rule="evenodd" clip-rule="evenodd" d="M134.785 107.934L137.345 109.551C138.747 109.072 140.264 108.75 141.836 108.603C144.55 108.348 147.315 108.625 149.804 109.4C152.293 110.175 154.401 111.416 155.878 112.977C157.356 114.537 158.141 116.351 158.141 118.204H153.583C153.583 116.94 153.048 115.703 152.04 114.638C151.032 113.574 149.594 112.728 147.897 112.199C146.2 111.67 144.314 111.481 142.463 111.655C141.97 111.701 141.485 111.773 141.012 111.868L151.366 118.41L148.862 119.761L138.072 112.849C137.859 112.953 137.653 113.063 137.452 113.179C137.088 113.389 136.748 113.617 136.436 113.86L147.61 120.92L145.106 122.271L134.783 115.658C134.656 115.864 134.544 116.074 134.448 116.289C133.907 117.498 133.89 118.788 134.398 120.004C134.907 121.22 135.921 122.312 137.319 123.15C138.717 123.988 140.442 124.538 142.288 124.735L141.58 127.779C138.873 127.491 136.345 126.685 134.295 125.456C132.245 124.226 130.759 122.625 130.013 120.843C129.267 119.06 129.292 117.17 130.086 115.397C130.392 114.712 130.807 114.057 131.322 113.44L128.832 111.846L131.029 110.443L133.104 111.755C133.534 111.429 133.996 111.122 134.49 110.836C134.567 110.792 134.645 110.748 134.724 110.704L132.588 109.336L134.785 107.934Z" fill="url(#paint2_linear_3270_45548)"/>
<mask id="mask0_3270_45548" style="mask-type:luminance" maskUnits="userSpaceOnUse" x="128" y="107" width="31" height="21">
<path fill-rule="evenodd" clip-rule="evenodd" d="M134.785 107.934L137.345 109.551C138.747 109.072 140.264 108.75 141.836 108.603C144.55 108.348 147.315 108.625 149.804 109.4C152.293 110.175 154.401 111.416 155.878 112.977C157.356 114.537 158.141 116.351 158.141 118.204H153.583C153.583 116.94 153.048 115.703 152.04 114.638C151.032 113.574 149.594 112.728 147.897 112.199C146.2 111.67 144.314 111.481 142.463 111.655C141.97 111.701 141.485 111.773 141.012 111.868L151.366 118.41L148.862 119.761L138.072 112.849C137.859 112.953 137.653 113.063 137.452 113.179C137.088 113.389 136.748 113.617 136.436 113.86L147.61 120.92L145.106 122.271L134.783 115.658C134.656 115.864 134.544 116.074 134.448 116.289C133.907 117.498 133.89 118.788 134.398 120.004C134.907 121.22 135.921 122.312 137.319 123.15C138.717 123.988 140.442 124.538 142.288 124.735L141.58 127.779C138.873 127.491 136.345 126.685 134.295 125.456C132.245 124.226 130.759 122.625 130.013 120.843C129.267 119.06 129.292 117.17 130.086 115.397C130.392 114.712 130.807 114.057 131.322 113.44L128.832 111.846L131.029 110.443L133.104 111.755C133.534 111.429 133.996 111.122 134.49 110.836C134.567 110.792 134.645 110.748 134.724 110.704L132.588 109.336L134.785 107.934Z" fill="white"/>
</mask>
<g mask="url(#mask0_3270_45548)">
<path d="M137.345 109.55L137.237 109.722L137.319 109.774L137.411 109.742L137.345 109.55ZM134.785 107.932L134.894 107.76L134.785 107.691L134.676 107.761L134.785 107.932ZM158.142 118.202V118.406H158.345V118.202H158.142ZM153.584 118.202H153.381V118.406H153.584V118.202ZM141.012 111.867L140.972 111.667L140.475 111.768L140.904 112.039L141.012 111.867ZM151.366 118.408L151.462 118.588L151.768 118.422L151.474 118.236L151.366 118.408ZM148.862 119.76L148.753 119.931L148.854 119.996L148.958 119.939L148.862 119.76ZM138.072 112.848L138.181 112.676L138.085 112.615L137.983 112.665L138.072 112.848ZM136.436 113.858L136.312 113.697L136.083 113.875L136.328 114.03L136.436 113.858ZM147.61 120.919L147.707 121.098L148.013 120.932L147.719 120.746L147.61 120.919ZM145.107 122.27L144.997 122.441L145.098 122.506L145.203 122.449L145.107 122.27ZM134.783 115.657L134.893 115.485L134.719 115.374L134.611 115.55L134.783 115.657ZM142.288 124.733L142.486 124.78L142.538 124.555L142.31 124.531L142.288 124.733ZM141.58 127.778L141.559 127.98L141.737 127.999L141.778 127.824L141.58 127.778ZM131.322 113.439L131.478 113.57L131.626 113.392L131.431 113.268L131.322 113.439ZM128.833 111.844L128.724 111.673L128.455 111.844L128.723 112.016L128.833 111.844ZM131.03 110.442L131.138 110.27L131.029 110.201L130.921 110.271L131.03 110.442ZM133.105 111.753L132.997 111.925L133.115 112L133.227 111.916L133.105 111.753ZM134.724 110.703L134.823 110.881L135.121 110.716L134.834 110.531L134.724 110.703ZM132.588 109.334L132.479 109.163L132.211 109.334L132.479 109.506L132.588 109.334ZM137.453 109.378L134.894 107.76L134.677 108.104L137.237 109.722L137.453 109.378ZM141.818 108.399C140.231 108.548 138.698 108.873 137.28 109.357L137.411 109.742C138.798 109.269 140.299 108.95 141.856 108.804L141.818 108.399ZM149.865 109.204C147.349 108.421 144.557 108.142 141.818 108.399L141.856 108.804C144.544 108.551 147.282 108.826 149.744 109.593L149.865 109.204ZM156.026 112.835C154.52 111.245 152.379 109.987 149.865 109.204L149.744 109.593C152.207 110.36 154.282 111.585 155.731 113.115L156.026 112.835ZM158.345 118.202C158.345 116.289 157.533 114.427 156.026 112.835L155.731 113.115C157.179 114.644 157.939 116.41 157.939 118.202H158.345ZM153.584 118.406H158.142V117.999H153.584V118.406ZM151.893 114.777C152.872 115.81 153.381 116.999 153.381 118.202H153.787C153.787 116.878 153.225 115.592 152.188 114.497L151.893 114.777ZM147.837 112.392C149.509 112.912 150.914 113.743 151.893 114.777L152.188 114.497C151.151 113.403 149.681 112.54 147.958 112.003L147.837 112.392ZM142.482 111.856C144.308 111.685 146.167 111.871 147.837 112.392L147.958 112.003C146.234 111.466 144.321 111.275 142.444 111.451L142.482 111.856ZM141.052 112.066C141.518 111.972 141.996 111.902 142.482 111.856L142.444 111.451C141.944 111.498 141.452 111.57 140.972 111.667L141.052 112.066ZM151.474 118.236L141.121 111.695L140.904 112.039L151.258 118.581L151.474 118.236ZM148.958 119.939L151.462 118.588L151.27 118.229L148.766 119.581L148.958 119.939ZM137.963 113.019L148.753 119.931L148.972 119.588L138.181 112.676L137.963 113.019ZM137.554 113.354C137.75 113.24 137.953 113.132 138.161 113.03L137.983 112.665C137.767 112.771 137.556 112.883 137.351 113.001L137.554 113.354ZM136.56 114.019C136.865 113.783 137.197 113.56 137.554 113.354L137.351 113.001C136.979 113.216 136.632 113.449 136.312 113.697L136.56 114.019ZM136.328 114.03L147.502 121.091L147.719 120.746L136.544 113.686L136.328 114.03ZM147.514 120.739L145.01 122.091L145.203 122.449L147.707 121.098L147.514 120.739ZM145.216 122.099L134.893 115.485L134.674 115.828L144.997 122.441L145.216 122.099ZM134.634 116.371C134.726 116.165 134.833 115.962 134.956 115.764L134.611 115.55C134.479 115.763 134.363 115.981 134.263 116.204L134.634 116.371ZM134.586 119.924C134.099 118.76 134.115 117.529 134.634 116.371L134.263 116.204C133.699 117.465 133.681 118.813 134.212 120.081L134.586 119.924ZM137.424 122.974C136.053 122.152 135.074 121.091 134.586 119.924L134.212 120.081C134.741 121.346 135.789 122.468 137.215 123.323L137.424 122.974ZM142.31 124.531C140.489 124.337 138.793 123.795 137.424 122.974L137.215 123.323C138.642 124.179 140.396 124.737 142.267 124.936L142.31 124.531ZM141.778 127.824L142.486 124.78L142.091 124.687L141.383 127.732L141.778 127.824ZM134.191 125.629C136.27 126.875 138.827 127.69 141.559 127.98L141.602 127.575C138.92 127.29 136.421 126.492 134.4 125.28L134.191 125.629ZM129.826 120.92C130.593 122.752 132.113 124.383 134.191 125.629L134.4 125.28C132.378 124.067 130.926 122.497 130.201 120.763L129.826 120.92ZM129.901 115.312C129.085 117.136 129.058 119.085 129.826 120.92L130.201 120.763C129.476 119.032 129.501 117.201 130.271 115.478L129.901 115.312ZM131.166 113.309C130.641 113.938 130.215 114.609 129.901 115.312L130.271 115.478C130.569 114.813 130.974 114.173 131.478 113.57L131.166 113.309ZM131.431 113.268L128.942 111.673L128.723 112.016L131.213 113.611L131.431 113.268ZM128.941 112.016L131.139 110.614L130.921 110.271L128.724 111.673L128.941 112.016ZM130.922 110.614L132.997 111.925L133.213 111.581L131.138 110.27L130.922 110.614ZM134.389 110.659C133.888 110.949 133.419 111.26 132.982 111.591L133.227 111.916C133.649 111.595 134.105 111.293 134.592 111.011L134.389 110.659ZM134.626 110.525C134.547 110.569 134.468 110.614 134.389 110.659L134.592 111.011C134.668 110.967 134.745 110.924 134.823 110.881L134.626 110.525ZM132.479 109.506L134.615 110.874L134.834 110.531L132.697 109.163L132.479 109.506ZM134.676 107.761L132.479 109.163L132.697 109.506L134.894 108.104L134.676 107.761Z" fill="#BFCBFF"/>
</g>
<path fill-rule="evenodd" clip-rule="evenodd" d="M134.785 106.27L137.345 107.887C138.747 107.408 140.264 107.086 141.836 106.938C144.55 106.684 147.315 106.96 149.804 107.736C152.293 108.511 154.401 109.752 155.878 111.312C157.356 112.873 158.141 114.687 158.141 116.54H153.583C153.583 115.276 153.048 114.039 152.04 112.974C151.032 111.91 149.594 111.063 147.897 110.535C146.2 110.006 144.314 109.817 142.463 109.991C141.97 110.037 141.485 110.109 141.012 110.204L151.366 116.746L148.862 118.097L138.072 111.185C137.859 111.289 137.653 111.399 137.452 111.515C137.088 111.725 136.748 111.953 136.436 112.195L147.61 119.256L145.106 120.607L134.783 113.994C134.656 114.2 134.544 114.41 134.448 114.625C133.907 115.834 133.89 117.123 134.398 118.34C134.907 119.556 135.921 120.647 137.319 121.486C138.717 122.324 140.442 122.874 142.288 123.071L141.58 126.115C138.873 125.827 136.345 125.021 134.295 123.792C132.245 122.562 130.759 120.961 130.013 119.179C129.267 117.396 129.292 115.506 130.086 113.732C130.392 113.048 130.807 112.393 131.322 111.776L128.832 110.182L131.029 108.78L133.104 110.091C133.534 109.765 133.996 109.458 134.49 109.172C134.567 109.128 134.645 109.084 134.724 109.04L132.588 107.672L134.785 106.27Z" fill="white"/>
<mask id="mask1_3270_45548" style="mask-type:luminance" maskUnits="userSpaceOnUse" x="128" y="106" width="31" height="21">
<path fill-rule="evenodd" clip-rule="evenodd" d="M134.785 106.27L137.345 107.887C138.747 107.408 140.264 107.086 141.836 106.938C144.55 106.684 147.315 106.96 149.804 107.736C152.293 108.511 154.401 109.752 155.878 111.312C157.356 112.873 158.141 114.687 158.141 116.54H153.583C153.583 115.276 153.048 114.039 152.04 112.974C151.032 111.91 149.594 111.063 147.897 110.535C146.2 110.006 144.314 109.817 142.463 109.991C141.97 110.037 141.485 110.109 141.012 110.204L151.366 116.746L148.862 118.097L138.072 111.185C137.859 111.289 137.653 111.399 137.452 111.515C137.088 111.725 136.748 111.953 136.436 112.195L147.61 119.256L145.106 120.607L134.783 113.994C134.656 114.2 134.544 114.41 134.448 114.625C133.907 115.834 133.89 117.123 134.398 118.34C134.907 119.556 135.921 120.647 137.319 121.486C138.717 122.324 140.442 122.874 142.288 123.071L141.58 126.115C138.873 125.827 136.345 125.021 134.295 123.792C132.245 122.562 130.759 120.961 130.013 119.179C129.267 117.396 129.292 115.506 130.086 113.732C130.392 113.048 130.807 112.393 131.322 111.776L128.832 110.182L131.029 108.78L133.104 110.091C133.534 109.765 133.996 109.458 134.49 109.172C134.567 109.128 134.645 109.084 134.724 109.04L132.588 107.672L134.785 106.27Z" fill="white"/>
</mask>
<g mask="url(#mask1_3270_45548)">
<path d="M137.345 107.886L137.237 108.058L137.319 108.109L137.411 108.078L137.345 107.886ZM134.785 106.268L134.894 106.096L134.785 106.027L134.676 106.096L134.785 106.268ZM158.142 116.538V116.741H158.345V116.538H158.142ZM153.584 116.538H153.381V116.741H153.584V116.538ZM141.012 110.202L140.972 110.003L140.475 110.103L140.904 110.375L141.012 110.202ZM151.366 116.744L151.462 116.923L151.768 116.758L151.474 116.572L151.366 116.744ZM148.862 118.096L148.753 118.267L148.854 118.332L148.958 118.275L148.862 118.096ZM138.072 111.183L138.181 111.012L138.085 110.95L137.983 111L138.072 111.183ZM136.436 112.194L136.312 112.033L136.083 112.211L136.328 112.366L136.436 112.194ZM147.61 119.254L147.707 119.433L148.013 119.268L147.719 119.082L147.61 119.254ZM145.107 120.606L144.997 120.777L145.098 120.841L145.203 120.785L145.107 120.606ZM134.783 113.992L134.893 113.821L134.719 113.71L134.611 113.885L134.783 113.992ZM142.288 123.069L142.486 123.115L142.538 122.891L142.31 122.867L142.288 123.069ZM141.58 126.114L141.559 126.316L141.737 126.335L141.778 126.16L141.58 126.114ZM131.322 111.775L131.478 111.905L131.626 111.728L131.431 111.604L131.322 111.775ZM128.833 110.18L128.724 110.008L128.455 110.18L128.723 110.351L128.833 110.18ZM131.03 108.778L131.138 108.606L131.029 108.537L130.921 108.606L131.03 108.778ZM133.105 110.089L132.997 110.261L133.115 110.336L133.227 110.251L133.105 110.089ZM134.724 109.039L134.823 109.217L135.121 109.051L134.834 108.867L134.724 109.039ZM132.588 107.67L132.479 107.498L132.211 107.67L132.479 107.842L132.588 107.67ZM137.453 107.713L134.894 106.096L134.677 106.44L137.237 108.058L137.453 107.713ZM141.818 106.734C140.231 106.883 138.698 107.209 137.28 107.693L137.411 108.078C138.798 107.605 140.299 107.286 141.856 107.139L141.818 106.734ZM149.865 107.54C147.349 106.756 144.557 106.477 141.818 106.734L141.856 107.139C144.544 106.887 147.282 107.161 149.744 107.928L149.865 107.54ZM156.026 111.171C154.52 109.581 152.379 108.323 149.865 107.54L149.744 107.928C152.207 108.695 154.282 109.921 155.731 111.451L156.026 111.171ZM158.345 116.538C158.345 114.625 157.533 112.763 156.026 111.171L155.731 111.451C157.179 112.98 157.939 114.746 157.939 116.538H158.345ZM153.584 116.741H158.142V116.335H153.584V116.741ZM151.893 113.113C152.872 114.146 153.381 115.335 153.381 116.538H153.787C153.787 115.214 153.225 113.928 152.188 112.833L151.893 113.113ZM147.837 110.728C149.509 111.248 150.914 112.079 151.893 113.113L152.188 112.833C151.151 111.738 149.681 110.876 147.958 110.339L147.837 110.728ZM142.482 110.192C144.308 110.021 146.167 110.207 147.837 110.728L147.958 110.339C146.234 109.802 144.321 109.611 142.444 109.787L142.482 110.192ZM141.052 110.402C141.518 110.308 141.996 110.237 142.482 110.192L142.444 109.787C141.944 109.834 141.452 109.906 140.972 110.003L141.052 110.402ZM151.474 116.572L141.121 110.03L140.904 110.375L151.258 116.916L151.474 116.572ZM148.958 118.275L151.462 116.923L151.27 116.565L148.766 117.917L148.958 118.275ZM137.963 111.355L148.753 118.267L148.972 117.924L138.181 111.012L137.963 111.355ZM137.554 111.689C137.75 111.576 137.953 111.468 138.161 111.366L137.983 111C137.767 111.106 137.556 111.219 137.351 111.337L137.554 111.689ZM136.56 112.355C136.865 112.118 137.197 111.896 137.554 111.689L137.351 111.337C136.979 111.552 136.632 111.785 136.312 112.033L136.56 112.355ZM136.328 112.366L147.502 119.426L147.719 119.082L136.544 112.022L136.328 112.366ZM147.514 119.075L145.01 120.427L145.203 120.785L147.707 119.433L147.514 119.075ZM145.216 120.434L134.893 113.821L134.674 114.164L144.997 120.777L145.216 120.434ZM134.634 114.707C134.726 114.5 134.833 114.298 134.956 114.099L134.611 113.885C134.479 114.098 134.363 114.317 134.263 114.54L134.634 114.707ZM134.586 118.259C134.099 117.096 134.115 115.865 134.634 114.707L134.263 114.54C133.699 115.801 133.681 117.149 134.212 118.417L134.586 118.259ZM137.424 121.31C136.053 120.488 135.074 119.427 134.586 118.259L134.212 118.417C134.741 119.681 135.789 120.804 137.215 121.659L137.424 121.31ZM142.31 122.867C140.489 122.673 138.793 122.131 137.424 121.31L137.215 121.659C138.642 122.515 140.396 123.072 142.267 123.271L142.31 122.867ZM141.778 126.16L142.486 123.115L142.091 123.023L141.383 126.067L141.778 126.16ZM134.191 123.965C136.27 125.211 138.827 126.025 141.559 126.316L141.602 125.911C138.92 125.626 136.421 124.828 134.4 123.616L134.191 123.965ZM129.826 119.256C130.593 121.087 132.113 122.719 134.191 123.965L134.4 123.616C132.378 122.403 130.926 120.833 130.201 119.098L129.826 119.256ZM129.901 113.648C129.085 115.472 129.058 117.421 129.826 119.256L130.201 119.098C129.476 117.368 129.501 115.536 130.271 113.814L129.901 113.648ZM131.166 111.644C130.641 112.274 130.215 112.945 129.901 113.648L130.271 113.814C130.569 113.149 130.974 112.509 131.478 111.905L131.166 111.644ZM131.431 111.604L128.942 110.009L128.723 110.351L131.213 111.946L131.431 111.604ZM128.941 110.352L131.139 108.95L130.921 108.606L128.724 110.008L128.941 110.352ZM130.922 108.95L132.997 110.261L133.213 109.917L131.138 108.606L130.922 108.95ZM134.389 108.995C133.888 109.284 133.419 109.596 132.982 109.927L133.227 110.251C133.649 109.931 134.105 109.629 134.592 109.347L134.389 108.995ZM134.626 108.861C134.547 108.905 134.468 108.949 134.389 108.995L134.592 109.347C134.668 109.303 134.745 109.26 134.823 109.217L134.626 108.861ZM132.479 107.842L134.615 109.21L134.834 108.867L132.697 107.499L132.479 107.842ZM134.676 106.096L132.479 107.498L132.697 107.842L134.894 106.44L134.676 106.096Z" fill="#BFCBFF"/>
</g>
<path d="M230.86 115.28C235.34 117.98 240.952 119.834 240.878 126.528C240.807 132.978 237.524 145.732 233.22 152.909C228.322 161.077 219.543 169.742 213.133 172.492C208.066 174.667 204.287 171.307 200.403 168.966C191.606 163.664 190.28 146.789 199.05 132.163C207.821 117.537 222.062 109.978 230.86 115.28ZM204.449 159.322C210.282 162.838 219.726 157.826 225.542 148.127C231.357 138.429 231.343 127.717 225.51 124.202C219.676 120.687 211.932 126.559 206.116 136.258C200.301 145.956 198.615 155.807 204.449 159.322Z" fill="url(#paint3_linear_3270_45548)"/>
<path d="M236.064 118.441C240.421 121.066 242.618 126.388 242.627 132.898C242.636 139.406 240.455 147.083 236.078 154.383C231.701 161.683 225.96 167.215 220.223 170.26C214.483 173.306 208.764 173.857 204.408 171.231C200.051 168.606 197.853 163.285 197.845 156.774C197.836 150.266 200.016 142.589 204.394 135.29C208.771 127.99 214.512 122.458 220.249 119.413C225.989 116.366 231.708 115.816 236.064 118.441Z" fill="#DAE1FF" stroke="#BFCBFF" stroke-width="0.107252"/>
<path d="M231.565 126.422L230.01 128.819L222.799 132.898L222.715 132.945L222.758 133.032C222.885 133.285 223.068 133.725 223.205 134.213C223.341 134.703 223.427 135.23 223.368 135.666L223.34 135.873L223.52 135.767L230.075 131.917L231.548 132.995L230.021 134.405L223.419 138.128L223.366 138.158L223.367 138.22C223.435 140.587 222.039 146.133 215.88 149.261L215.763 149.32L215.851 149.419L224.375 158.994L222.31 162.167L220.64 161.285L212 151.488V147.975C213.25 147.556 215.143 146.677 216.856 145.363C218.601 144.025 220.171 142.229 220.675 140L220.742 139.704L220.51 139.9L213.514 145.833L212 144.943V142.316L220.626 137.425L220.688 137.39L220.676 137.32C220.604 136.893 220.362 136.307 219.861 135.939C219.352 135.567 218.598 135.436 217.54 135.886L217.522 135.893L217.508 135.907L213.505 139.855L212 139.115V136.038L230.081 125.543L231.565 126.422Z" fill="#1C44F1"/>
<path d="M231.565 126.422L230.01 128.819L222.799 132.898L222.715 132.945L222.758 133.032C222.885 133.285 223.068 133.725 223.205 134.213C223.341 134.703 223.427 135.23 223.368 135.666L223.34 135.873L223.52 135.767L230.075 131.917L231.548 132.995L230.021 134.405L223.419 138.128L223.366 138.158L223.367 138.22C223.435 140.587 222.039 146.133 215.88 149.261L215.763 149.32L215.851 149.419L224.375 158.994L222.31 162.167L220.64 161.285L212 151.488V147.975C213.25 147.556 215.143 146.677 216.856 145.363C218.601 144.025 220.171 142.229 220.675 140L220.742 139.704L220.51 139.9L213.514 145.833L212 144.943V142.316L220.626 137.425L220.688 137.39L220.676 137.32C220.604 136.893 220.362 136.307 219.861 135.939C219.352 135.567 218.598 135.436 217.54 135.886L217.522 135.893L217.508 135.907L213.505 139.855L212 139.115V136.038L230.081 125.543L231.565 126.422Z" fill="url(#paint4_linear_3270_45548)"/>
<path d="M231.565 126.422L230.01 128.819L222.799 132.898L222.715 132.945L222.758 133.032C222.885 133.285 223.068 133.725 223.205 134.213C223.341 134.703 223.427 135.23 223.368 135.666L223.34 135.873L223.52 135.767L230.075 131.917L231.548 132.995L230.021 134.405L223.419 138.128L223.366 138.158L223.367 138.22C223.435 140.587 222.039 146.133 215.88 149.261L215.763 149.32L215.851 149.419L224.375 158.994L222.31 162.167L220.64 161.285L212 151.488V147.975C213.25 147.556 215.143 146.677 216.856 145.363C218.601 144.025 220.171 142.229 220.675 140L220.742 139.704L220.51 139.9L213.514 145.833L212 144.943V142.316L220.626 137.425L220.688 137.39L220.676 137.32C220.604 136.893 220.362 136.307 219.861 135.939C219.352 135.567 218.598 135.436 217.54 135.886L217.522 135.893L217.508 135.907L213.505 139.855L212 139.115V136.038L230.081 125.543L231.565 126.422Z" stroke="#BFCBFF" stroke-width="0.107252"/>
<path d="M231.707 126.438V129.672L224.526 133.734L224.442 133.781L224.486 133.868C224.612 134.121 224.796 134.56 224.932 135.048C225.069 135.538 225.155 136.066 225.096 136.501L225.068 136.709L225.247 136.603L231.707 132.808V135.264L225.146 138.964L225.093 138.994L225.095 139.056C225.163 141.423 223.766 146.969 217.608 150.096L217.49 150.156L217.578 150.255L226.073 159.796L222.323 162.071L213.728 152.324V148.811C214.978 148.392 216.871 147.512 218.584 146.199C220.329 144.861 221.899 143.065 222.402 140.836L222.453 140.609L222.252 140.726L213.728 145.661V143.152L222.353 138.261L222.415 138.226L222.403 138.155C222.331 137.729 222.09 137.142 221.588 136.775C221.079 136.402 220.325 136.272 219.267 136.721L219.257 136.726L213.728 139.84V136.874L231.707 126.438Z" fill="white" stroke="#BFCBFF" stroke-width="0.107252"/>
<path fill-rule="evenodd" clip-rule="evenodd" d="M254.841 118.207L250.023 120.417C249.092 130.396 245.135 141.998 238.666 152.976C230.853 166.234 220.516 176.309 210.635 181.522L207.299 179.452L200.954 180.95L194.491 189.295L199.187 196.143L205.281 199.666L202.951 193.071L206.75 189.913C219.839 187.288 234.172 179.733 243.387 162.841C249.833 151.974 259.558 133.41 260.71 121.908C260.078 121.471 259.022 120.82 257.882 120.116C256.854 119.483 255.759 118.808 254.841 118.207Z" fill="#DAE1FF"/>
<path fill-rule="evenodd" clip-rule="evenodd" d="M254.841 118.207L250.023 120.417C249.092 130.396 245.135 141.998 238.666 152.976C230.853 166.234 220.516 176.309 210.635 181.522L207.299 179.452L200.954 180.95L194.491 189.295L199.187 196.143L205.281 199.666L202.951 193.071L206.75 189.913C219.839 187.288 234.172 179.733 243.387 162.841C249.833 151.974 259.558 133.41 260.71 121.908C260.078 121.471 259.022 120.82 257.882 120.116C256.854 119.483 255.759 118.808 254.841 118.207Z" fill="url(#paint5_linear_3270_45548)"/>
<path fill-rule="evenodd" clip-rule="evenodd" d="M260.735 121.918L255.916 124.129C254.985 134.107 251.029 145.709 244.56 156.687C234.717 173.389 220.871 185.038 208.975 188.281L213.192 183.163L206.848 184.661L200.385 193.007L205.081 199.854H209.777L206.04 194.405C220.571 192.104 237.915 179.074 248.71 159.285C256.44 146.254 260.407 133.1 260.735 121.918Z" fill="#8AE980"/>
<path fill-rule="evenodd" clip-rule="evenodd" d="M224.439 86.6328H220.144L223.002 90.7993C210.427 94.1699 197.606 104.518 187.294 121.073C179.202 134.065 174.857 148.522 174.467 160.887L180.117 164.788C180.954 153.937 187.158 135.677 193.776 125.052C200.379 114.45 208.728 106.297 217.472 101.348L217.021 101.896L221.306 103.243L222.692 105.786L232.469 97.8177L230.166 90.7157L224.439 86.6328Z" fill="#DAE1FF"/>
<path fill-rule="evenodd" clip-rule="evenodd" d="M224.439 86.6328H220.144L223.002 90.7993C210.427 94.1699 197.606 104.518 187.294 121.073C179.202 134.065 174.857 148.522 174.467 160.887L180.117 164.788C180.954 153.937 187.158 135.677 193.776 125.052C200.379 114.45 208.728 106.297 217.472 101.348L217.021 101.896L221.306 103.243L222.692 105.786L232.469 97.8177L230.166 90.7157L224.439 86.6328Z" fill="url(#paint6_linear_3270_45548)"/>
<path fill-rule="evenodd" clip-rule="evenodd" d="M230.09 90.5391H225.795L228.653 94.7056C216.079 98.0761 203.257 108.424 192.945 124.979C184.853 137.971 180.508 152.429 180.118 164.794L185.702 161.435C186.538 150.584 190.478 138.203 197.096 127.577C204.924 115.01 216.216 105.253 226.847 100.737L222.672 105.802L228.474 104.432L234.384 96.8009L230.09 90.5391Z" fill="#8AE980"/>
<path d="M163.15 229.733C180.459 229.733 194.492 221.522 194.492 211.392C194.492 201.262 180.459 193.051 163.15 193.051C145.84 193.051 131.808 201.262 131.808 211.392C131.808 221.522 145.84 229.733 163.15 229.733Z" fill="#D9D9D9"/>
<path d="M163.15 229.733C180.459 229.733 194.492 221.522 194.492 211.392C194.492 201.262 180.459 193.051 163.15 193.051C145.84 193.051 131.808 201.262 131.808 211.392C131.808 221.522 145.84 229.733 163.15 229.733Z" fill="url(#paint7_linear_3270_45548)"/>
<path d="M194.39 207.618C194.39 212.632 190.917 217.19 185.261 220.5C179.607 223.808 171.79 225.858 163.15 225.858C154.51 225.858 146.692 223.808 141.039 220.5C135.383 217.19 131.909 212.632 131.909 207.618C131.909 202.605 135.383 198.047 141.039 194.737C146.692 191.429 154.51 189.379 163.15 189.379C171.79 189.379 179.607 191.429 185.261 194.737C190.917 198.047 194.39 202.605 194.39 207.618Z" fill="#DAE1FF" stroke="#BFCBFF" stroke-width="0.107252"/>
<path fill-rule="evenodd" clip-rule="evenodd" d="M172.759 201.527L175.316 200.368L177.881 201.95L175.316 203.236C176.737 204.265 177.8 206.689 178.063 208.008L174.33 208.477C173.82 206.446 172.85 205.544 172.159 205.016L166.635 208.477C168.148 210.191 169.281 213.619 166.089 215.696C162.254 218.191 157.06 216.847 154.798 215.696L152.036 217.575L149.273 215.696L152.036 213.619C149.854 212.029 149.169 208.969 149.497 207.093H153.542C153.318 210.242 154.798 211.282 155.587 211.642L161.21 207.785C157.106 204.383 159.5 201.423 161.21 200.368C165.173 197.923 171.246 200.143 172.759 201.527ZM164.19 209.632L158.228 213.704C160.558 214.826 163.477 214.33 164.405 213.704C166.614 212.215 165.137 210.5 164.19 209.632ZM164.16 205.908L169.676 202.89C168.708 202.348 165.912 201.024 163.801 202.047C161.878 202.978 162.539 204.892 164.16 205.908Z" fill="#1C44F1"/>
<path fill-rule="evenodd" clip-rule="evenodd" d="M172.759 201.527L175.316 200.368L177.881 201.95L175.316 203.236C176.737 204.265 177.8 206.689 178.063 208.008L174.33 208.477C173.82 206.446 172.85 205.544 172.159 205.016L166.635 208.477C168.148 210.191 169.281 213.619 166.089 215.696C162.254 218.191 157.06 216.847 154.798 215.696L152.036 217.575L149.273 215.696L152.036 213.619C149.854 212.029 149.169 208.969 149.497 207.093H153.542C153.318 210.242 154.798 211.282 155.587 211.642L161.21 207.785C157.106 204.383 159.5 201.423 161.21 200.368C165.173 197.923 171.246 200.143 172.759 201.527ZM164.19 209.632L158.228 213.704C160.558 214.826 163.477 214.33 164.405 213.704C166.614 212.215 165.137 210.5 164.19 209.632ZM164.16 205.908L169.676 202.89C168.708 202.348 165.912 201.024 163.801 202.047C161.878 202.978 162.539 204.892 164.16 205.908Z" fill="url(#paint8_linear_3270_45548)"/>
<mask id="mask2_3270_45548" style="mask-type:luminance" maskUnits="userSpaceOnUse" x="149" y="199" width="30" height="19">
<path fill-rule="evenodd" clip-rule="evenodd" d="M172.759 201.527L175.316 200.368L177.881 201.95L175.316 203.236C176.737 204.265 177.8 206.689 178.063 208.008L174.33 208.477C173.82 206.446 172.85 205.544 172.159 205.016L166.635 208.477C168.148 210.191 169.281 213.619 166.089 215.696C162.254 218.191 157.06 216.847 154.798 215.696L152.036 217.575L149.273 215.696L152.036 213.619C149.854 212.029 149.169 208.969 149.497 207.093H153.542C153.318 210.242 154.798 211.282 155.587 211.642L161.21 207.785C157.106 204.383 159.5 201.423 161.21 200.368C165.173 197.923 171.246 200.143 172.759 201.527ZM164.19 209.632L158.228 213.704C160.558 214.826 163.477 214.33 164.405 213.704C166.614 212.215 165.137 210.5 164.19 209.632ZM164.16 205.908L169.676 202.89C168.708 202.348 165.912 201.024 163.801 202.047C161.878 202.978 162.539 204.892 164.16 205.908Z" fill="white"/>
</mask>
<g mask="url(#mask2_3270_45548)">
<path d="M175.316 200.368L175.422 200.195L175.33 200.138L175.232 200.183L175.316 200.368ZM172.759 201.528L172.622 201.678L172.72 201.768L172.842 201.713L172.759 201.528ZM177.881 201.95L177.971 202.132L178.298 201.969L177.987 201.777L177.881 201.95ZM175.316 203.236L175.225 203.054L174.925 203.204L175.197 203.401L175.316 203.236ZM178.063 208.008L178.088 208.21L178.304 208.182L178.262 207.968L178.063 208.008ZM174.329 208.477L174.133 208.527L174.176 208.702L174.355 208.679L174.329 208.477ZM172.159 205.016L172.282 204.854L172.17 204.769L172.052 204.844L172.159 205.016ZM166.635 208.477L166.527 208.305L166.324 208.432L166.483 208.612L166.635 208.477ZM154.797 215.696L154.889 215.515L154.782 215.461L154.684 215.528L154.797 215.696ZM152.035 217.575L151.921 217.743L152.035 217.821L152.149 217.743L152.035 217.575ZM149.273 215.696L149.151 215.534L148.924 215.704L149.159 215.865L149.273 215.696ZM152.035 213.62L152.157 213.782L152.377 213.617L152.155 213.455L152.035 213.62ZM149.497 207.093V206.89H149.327L149.297 207.058L149.497 207.093ZM153.542 207.093L153.744 207.108L153.759 206.89H153.542V207.093ZM155.586 211.642L155.502 211.827L155.606 211.874L155.701 211.81L155.586 211.642ZM161.209 207.785L161.324 207.953L161.546 207.8L161.339 207.628L161.209 207.785ZM158.228 213.705L158.114 213.537L157.823 213.735L158.14 213.888L158.228 213.705ZM164.19 209.632L164.326 209.482L164.208 209.373L164.075 209.464L164.19 209.632ZM169.676 202.89L169.773 203.069L170.096 202.892L169.775 202.713L169.676 202.89ZM164.16 205.908L164.052 206.081L164.153 206.144L164.257 206.087L164.16 205.908ZM175.232 200.183L172.675 201.342L172.842 201.713L175.399 200.554L175.232 200.183ZM177.987 201.777L175.422 200.195L175.209 200.542L177.774 202.124L177.987 201.777ZM175.407 203.418L177.971 202.132L177.79 201.769L175.225 203.054L175.407 203.418ZM178.262 207.968C178.126 207.286 177.786 206.332 177.303 205.418C176.82 204.507 176.181 203.612 175.435 203.071L175.197 203.401C175.871 203.889 176.474 204.721 176.944 205.609C177.413 206.494 177.737 207.411 177.864 208.048L178.262 207.968ZM174.355 208.679L178.088 208.21L178.037 207.806L174.304 208.275L174.355 208.679ZM172.036 205.178C172.7 205.685 173.637 206.551 174.133 208.527L174.526 208.428C174.002 206.341 172.999 205.402 172.282 204.854L172.036 205.178ZM166.742 208.65L172.267 205.189L172.052 204.844L166.527 208.305L166.742 208.65ZM166.199 215.867C167.858 214.788 168.406 213.341 168.329 211.94C168.252 210.553 167.566 209.226 166.787 208.343L166.483 208.612C167.216 209.443 167.853 210.687 167.924 211.962C167.993 213.222 167.512 214.528 165.978 215.526L166.199 215.867ZM154.705 215.878C155.859 216.465 157.749 217.096 159.837 217.266C161.925 217.437 164.232 217.147 166.199 215.867L165.978 215.526C164.11 216.741 161.903 217.027 159.87 216.861C157.837 216.695 155.998 216.079 154.889 215.515L154.705 215.878ZM152.149 217.743L154.911 215.865L154.684 215.528L151.921 217.407L152.149 217.743ZM149.159 215.865L151.921 217.743L152.149 217.407L149.387 215.528L149.159 215.865ZM151.914 213.457L149.151 215.534L149.395 215.859L152.157 213.782L151.914 213.457ZM149.297 207.058C149.127 208.033 149.22 209.302 149.633 210.528C150.045 211.756 150.783 212.958 151.916 213.784L152.155 213.455C151.106 212.69 150.41 211.567 150.017 210.398C149.624 209.228 149.539 208.029 149.697 207.128L149.297 207.058ZM153.542 206.89H149.497V207.297H153.542V206.89ZM155.67 211.457C155.3 211.288 154.769 210.96 154.356 210.305C153.943 209.65 153.635 208.648 153.744 207.108L153.339 207.079C153.225 208.688 153.545 209.78 154.013 210.522C154.48 211.264 155.083 211.636 155.502 211.827L155.67 211.457ZM161.095 207.617L155.472 211.474L155.701 211.81L161.324 207.953L161.095 207.617ZM161.103 200.195C160.222 200.738 159.148 201.781 158.832 203.151C158.51 204.545 158.988 206.208 161.08 207.942L161.339 207.628C159.327 205.961 158.95 204.443 159.227 203.242C159.51 202.018 160.487 201.053 161.316 200.542L161.103 200.195ZM172.895 201.377C172.493 201.009 171.807 200.6 170.954 200.232C170.097 199.861 169.058 199.526 167.941 199.312C165.715 198.885 163.146 198.935 161.103 200.195L161.316 200.542C163.236 199.357 165.686 199.294 167.865 199.712C168.951 199.92 169.962 200.246 170.793 200.605C171.628 200.966 172.268 201.353 172.622 201.678L172.895 201.377ZM158.342 213.873L164.304 209.8L164.075 209.464L158.114 213.537L158.342 213.873ZM164.291 213.536C163.871 213.819 162.951 214.095 161.831 214.157C160.718 214.217 159.442 214.063 158.316 213.521L158.14 213.888C159.343 214.467 160.692 214.626 161.853 214.563C163.006 214.5 164.01 214.215 164.517 213.873L164.291 213.536ZM164.053 209.782C164.524 210.214 165.092 210.827 165.286 211.493C165.381 211.818 165.385 212.151 165.248 212.485C165.11 212.821 164.82 213.179 164.291 213.536L164.517 213.873C165.093 213.486 165.447 213.071 165.624 212.639C165.802 212.206 165.792 211.776 165.675 211.378C165.447 210.596 164.802 209.918 164.326 209.482L164.053 209.782ZM169.579 202.712L164.063 205.73L164.257 206.087L169.773 203.069L169.579 202.712ZM163.889 202.23C164.883 201.749 166.054 201.813 167.118 202.079C168.178 202.344 169.102 202.802 169.577 203.068L169.775 202.713C169.282 202.437 168.324 201.961 167.216 201.685C166.112 201.409 164.83 201.323 163.712 201.864L163.889 202.23ZM164.267 205.736C163.488 205.247 162.966 204.558 162.851 203.91C162.795 203.591 162.837 203.281 162.994 203C163.153 202.718 163.437 202.449 163.889 202.23L163.712 201.864C163.203 202.11 162.849 202.43 162.641 202.801C162.432 203.172 162.38 203.579 162.452 203.981C162.592 204.777 163.21 205.553 164.052 206.081L164.267 205.736Z" fill="#BFCBFF"/>
</g>
<path fill-rule="evenodd" clip-rule="evenodd" d="M172.759 199.699L175.316 198.54L177.881 200.122L175.316 201.408C176.737 202.437 177.8 204.861 178.063 206.18L174.33 206.649C173.82 204.618 172.85 203.715 172.159 203.188L166.635 206.649C168.148 208.363 169.281 211.791 166.089 213.868C162.254 216.363 157.06 215.019 154.798 213.868L152.036 215.747L149.273 213.868L152.036 211.791C149.854 210.201 149.169 207.141 149.497 205.265H153.542C153.318 208.414 154.798 209.454 155.587 209.814L161.21 205.957C157.106 202.555 159.5 199.595 161.21 198.54C165.173 196.095 171.246 198.315 172.759 199.699ZM164.19 207.804L158.228 211.876C160.558 212.998 163.477 212.502 164.405 211.876C166.614 210.388 165.137 208.672 164.19 207.804ZM164.16 204.08L169.676 201.062C168.708 200.52 165.912 199.196 163.801 200.219C161.878 201.15 162.539 203.064 164.16 204.08Z" fill="white"/>
<mask id="mask3_3270_45548" style="mask-type:luminance" maskUnits="userSpaceOnUse" x="149" y="197" width="30" height="19">
<path fill-rule="evenodd" clip-rule="evenodd" d="M172.759 199.699L175.316 198.54L177.881 200.122L175.316 201.408C176.737 202.437 177.8 204.861 178.063 206.18L174.33 206.649C173.82 204.618 172.85 203.715 172.159 203.188L166.635 206.649C168.148 208.363 169.281 211.791 166.089 213.868C162.254 216.363 157.06 215.019 154.798 213.868L152.036 215.747L149.273 213.868L152.036 211.791C149.854 210.201 149.169 207.141 149.497 205.265H153.542C153.318 208.414 154.798 209.454 155.587 209.814L161.21 205.957C157.106 202.555 159.5 199.595 161.21 198.54C165.173 196.095 171.246 198.315 172.759 199.699ZM164.19 207.804L158.228 211.876C160.558 212.998 163.477 212.502 164.405 211.876C166.614 210.388 165.137 208.672 164.19 207.804ZM164.16 204.08L169.676 201.062C168.708 200.52 165.912 199.196 163.801 200.219C161.878 201.15 162.539 203.064 164.16 204.08Z" fill="white"/>
</mask>
<g mask="url(#mask3_3270_45548)">
<path d="M175.316 198.54L175.422 198.367L175.33 198.31L175.232 198.355L175.316 198.54ZM172.759 199.699L172.622 199.85L172.72 199.94L172.842 199.885L172.759 199.699ZM177.881 200.122L177.971 200.304L178.298 200.141L177.987 199.949L177.881 200.122ZM175.316 201.408L175.225 201.226L174.925 201.376L175.197 201.573L175.316 201.408ZM178.063 206.18L178.088 206.382L178.304 206.354L178.262 206.14L178.063 206.18ZM174.329 206.649L174.133 206.699L174.176 206.874L174.355 206.851L174.329 206.649ZM172.159 203.188L172.282 203.026L172.17 202.941L172.052 203.016L172.159 203.188ZM166.635 206.649L166.527 206.477L166.324 206.604L166.483 206.784L166.635 206.649ZM154.797 213.868L154.889 213.687L154.782 213.632L154.684 213.7L154.797 213.868ZM152.035 215.747L151.921 215.915L152.035 215.993L152.149 215.915L152.035 215.747ZM149.273 213.868L149.151 213.705L148.924 213.876L149.159 214.036L149.273 213.868ZM152.035 211.791L152.157 211.954L152.377 211.789L152.155 211.627L152.035 211.791ZM149.497 205.265V205.062H149.327L149.297 205.23L149.497 205.265ZM153.542 205.265L153.744 205.279L153.759 205.062H153.542V205.265ZM155.586 209.814L155.502 209.999L155.606 210.046L155.701 209.982L155.586 209.814ZM161.209 205.957L161.324 206.125L161.546 205.972L161.339 205.8L161.209 205.957ZM158.228 211.877L158.114 211.709L157.823 211.907L158.14 212.06L158.228 211.877ZM164.19 207.804L164.326 207.654L164.208 207.545L164.075 207.636L164.19 207.804ZM169.676 201.062L169.773 201.241L170.096 201.064L169.775 200.885L169.676 201.062ZM164.16 204.08L164.052 204.253L164.153 204.316L164.257 204.259L164.16 204.08ZM175.232 198.355L172.675 199.514L172.842 199.885L175.399 198.726L175.232 198.355ZM177.987 199.949L175.422 198.367L175.209 198.713L177.774 200.296L177.987 199.949ZM175.407 201.59L177.971 200.304L177.79 199.94L175.225 201.226L175.407 201.59ZM178.262 206.14C178.126 205.458 177.786 204.503 177.303 203.59C176.82 202.679 176.181 201.784 175.435 201.243L175.197 201.573C175.871 202.061 176.474 202.893 176.944 203.78C177.413 204.666 177.737 205.583 177.864 206.22L178.262 206.14ZM174.355 206.851L178.088 206.382L178.037 205.978L174.304 206.447L174.355 206.851ZM172.036 203.35C172.7 203.857 173.637 204.723 174.133 206.699L174.526 206.6C174.002 204.513 172.999 203.574 172.282 203.026L172.036 203.35ZM166.742 206.822L172.267 203.361L172.052 203.016L166.527 206.477L166.742 206.822ZM166.199 214.039C167.858 212.96 168.406 211.513 168.329 210.112C168.252 208.725 167.566 207.398 166.787 206.515L166.483 206.784C167.216 207.615 167.853 208.859 167.924 210.134C167.993 211.394 167.512 212.7 165.978 213.698L166.199 214.039ZM154.705 214.05C155.859 214.636 157.749 215.268 159.837 215.438C161.925 215.609 164.232 215.319 166.199 214.039L165.978 213.698C164.11 214.913 161.903 215.199 159.87 215.033C157.837 214.867 155.998 214.251 154.889 213.687L154.705 214.05ZM152.149 215.915L154.911 214.036L154.684 213.7L151.921 215.579L152.149 215.915ZM149.159 214.036L151.921 215.915L152.149 215.579L149.387 213.7L149.159 214.036ZM151.914 211.629L149.151 213.705L149.395 214.031L152.157 211.954L151.914 211.629ZM149.297 205.23C149.127 206.205 149.22 207.474 149.633 208.7C150.045 209.928 150.783 211.13 151.916 211.956L152.155 211.627C151.106 210.862 150.41 209.739 150.017 208.57C149.624 207.4 149.539 206.201 149.697 205.3L149.297 205.23ZM153.542 205.062H149.497V205.469H153.542V205.062ZM155.67 209.628C155.3 209.46 154.769 209.132 154.356 208.477C153.943 207.822 153.635 206.82 153.744 205.279L153.339 205.251C153.225 206.859 153.545 207.952 154.013 208.694C154.48 209.436 155.083 209.808 155.502 209.999L155.67 209.628ZM161.095 205.789L155.472 209.646L155.701 209.982L161.324 206.125L161.095 205.789ZM161.103 198.367C160.222 198.91 159.148 199.953 158.832 201.323C158.51 202.716 158.988 204.38 161.08 206.114L161.339 205.8C159.327 204.133 158.95 202.615 159.227 201.414C159.51 200.19 160.487 199.225 161.316 198.713L161.103 198.367ZM172.895 199.549C172.493 199.181 171.807 198.772 170.954 198.404C170.097 198.033 169.058 197.698 167.941 197.484C165.715 197.057 163.146 197.106 161.103 198.367L161.316 198.713C163.236 197.529 165.686 197.465 167.865 197.883C168.951 198.092 169.962 198.418 170.793 198.777C171.628 199.138 172.268 199.526 172.622 199.85L172.895 199.549ZM158.342 212.045L164.304 207.972L164.075 207.636L158.114 211.709L158.342 212.045ZM164.291 211.708C163.871 211.991 162.951 212.268 161.831 212.329C160.718 212.389 159.442 212.235 158.316 211.693L158.14 212.06C159.343 212.639 160.692 212.798 161.853 212.735C163.006 212.672 164.01 212.388 164.517 212.045L164.291 211.708ZM164.053 207.954C164.524 208.386 165.092 209 165.286 209.665C165.381 209.99 165.385 210.323 165.248 210.657C165.11 210.993 164.82 211.351 164.291 211.708L164.517 212.045C165.093 211.658 165.447 211.243 165.624 210.812C165.802 210.378 165.792 209.949 165.675 209.55C165.447 208.769 164.802 208.09 164.326 207.654L164.053 207.954ZM169.579 200.884L164.063 203.902L164.257 204.259L169.773 201.241L169.579 200.884ZM163.889 200.402C164.883 199.921 166.054 199.985 167.118 200.251C168.178 200.516 169.102 200.974 169.577 201.24L169.775 200.885C169.282 200.609 168.324 200.134 167.216 199.857C166.112 199.581 164.83 199.495 163.712 200.036L163.889 200.402ZM164.267 203.908C163.488 203.42 162.966 202.73 162.851 202.082C162.795 201.763 162.837 201.453 162.994 201.172C163.153 200.89 163.437 200.621 163.889 200.402L163.712 200.036C163.203 200.282 162.849 200.602 162.641 200.973C162.432 201.344 162.38 201.751 162.452 202.153C162.592 202.95 163.21 203.725 164.052 204.253L164.267 203.908Z" fill="#BFCBFF"/>
</g>
</g>
<defs>
<linearGradient id="paint0_linear_3270_45548" x1="212.856" y1="108.754" x2="157.552" y2="243.726" gradientUnits="userSpaceOnUse">
<stop stop-color="#8EA3FF"/>
<stop offset="1" stop-color="#0228CA"/>
</linearGradient>
<linearGradient id="paint1_linear_3270_45548" x1="171.245" y1="106.5" x2="160.358" y2="146.379" gradientUnits="userSpaceOnUse">
<stop stop-color="#8EA3FF"/>
<stop offset="1" stop-color="#0228CA"/>
</linearGradient>
<linearGradient id="paint2_linear_3270_45548" x1="153.977" y1="105.505" x2="148.627" y2="132.805" gradientUnits="userSpaceOnUse">
<stop stop-color="#AABBFF"/>
<stop offset="0.185" stop-color="#495CA8"/>
</linearGradient>
<linearGradient id="paint3_linear_3270_45548" x1="216.511" y1="122.276" x2="237.457" y2="157.182" gradientUnits="userSpaceOnUse">
<stop stop-color="#8DA3FF"/>
<stop offset="1" stop-color="#0228CA"/>
</linearGradient>
<linearGradient id="paint4_linear_3270_45548" x1="228.893" y1="120.914" x2="206.9" y2="161.739" gradientUnits="userSpaceOnUse">
<stop offset="0.055" stop-color="#AABBFF"/>
<stop offset="0.41" stop-color="#495CA8"/>
</linearGradient>
<linearGradient id="paint5_linear_3270_45548" x1="244.901" y1="139.173" x2="227.486" y2="220.292" gradientUnits="userSpaceOnUse">
<stop stop-color="#57DD4E"/>
<stop offset="1" stop-color="#54B54B"/>
</linearGradient>
<linearGradient id="paint6_linear_3270_45548" x1="218.622" y1="106.748" x2="200.48" y2="183.898" gradientUnits="userSpaceOnUse">
<stop stop-color="#57DD4E"/>
<stop offset="1" stop-color="#54B54B"/>
</linearGradient>
<linearGradient id="paint7_linear_3270_45548" x1="191.911" y1="196.047" x2="181.024" y2="235.926" gradientUnits="userSpaceOnUse">
<stop stop-color="#8EA3FF"/>
<stop offset="1" stop-color="#0228CA"/>
</linearGradient>
<linearGradient id="paint8_linear_3270_45548" x1="173.972" y1="197.034" x2="169.32" y2="222.321" gradientUnits="userSpaceOnUse">
<stop stop-color="#AABBFF"/>
<stop offset="0.235" stop-color="#495CA8"/>
</linearGradient>
<clipPath id="clip0_3270_45548">
<rect width="326" height="309" fill="white"/>
</clipPath>
</defs>
</svg>
