<svg width="66" height="103" viewBox="0 0 66 103" fill="none" xmlns="http://www.w3.org/2000/svg">
<path d="M0.866211 22.534L6.63189 19.5643L13.9048 24.4393L11.117 84.7578L56.2477 53.3993L65.1218 57.3313V62.9438L8.07965 102.743L1.98576 97.4297L0.866211 22.534Z" fill="#0F2170"/>
<path d="M0.866211 22.534L6.63189 19.5643L13.9048 24.4393L11.117 84.7578L56.2477 53.3993L65.1218 57.3313V62.9438L8.07965 102.743L1.98576 97.4297L0.866211 22.534Z" fill="url(#paint0_linear_146_8072)"/>
<path d="M53.2132 10.188L14.0736 37.0051V87.195L53.2132 60.8699V10.188Z" fill="#BFCBFF"/>
<path d="M7.3186 28.0212L13.9498 24.8112L14.7734 91.3588L65.1346 57.7475V64.0918L8.18411 102.698L7.3186 28.0212Z" fill="#D9E0FF"/>
<path d="M14.2434 73.3868L16.9959 75.735L29.2126 46.7942L42.1354 39.0891L52.3176 23.1548H53.0699L57.2314 1.18086L54.2075 0.886719L36.2872 22.2854L39.6681 24.7597L43.9818 23.8235L38.7347 36.8459L26.4069 44.8923L14.2434 73.3868Z" fill="#0F2170"/>
<path d="M14.2434 73.3868L16.9959 75.735L29.2126 46.7942L42.1354 39.0891L52.3176 23.1548H53.0699L57.2314 1.18086L54.2075 0.886719L36.2872 22.2854L39.6681 24.7597L43.9818 23.8235L38.7347 36.8459L26.4069 44.8923L14.2434 73.3868Z" fill="url(#paint1_linear_146_8072)"/>
<path d="M17.0786 75.7874L21.9929 77.6666L33.2738 51.2778L45.096 44.4967L52.6492 25.4508L57.2126 29.612V1.82617L39.6613 24.7797L47.5009 23.7058L41.8844 39.0081L29.1305 46.6593L17.0786 75.7874Z" fill="#C9FFC4"/>
<defs>
<linearGradient id="paint0_linear_146_8072" x1="51.0995" y1="40.1429" x2="20.0139" y2="114.655" gradientUnits="userSpaceOnUse">
<stop stop-color="#8EA3FF"/>
<stop offset="1" stop-color="#0228CA"/>
</linearGradient>
<linearGradient id="paint1_linear_146_8072" x1="46.9691" y1="20.151" x2="25.2792" y2="91.5314" gradientUnits="userSpaceOnUse">
<stop stop-color="#57DD4E"/>
<stop offset="1" stop-color="#54B54B"/>
</linearGradient>
</defs>
</svg>
