<svg width="326" height="309" viewBox="0 0 326 309" fill="none" xmlns="http://www.w3.org/2000/svg">
<g clip-path="url(#clip0_3270_45321)">
<path d="M310.933 0.0585938H14.5626C6.57813 0.0585938 0.105469 6.53126 0.105469 14.5157V293.602C0.105469 301.586 6.57813 308.059 14.5626 308.059H310.933C318.918 308.059 325.39 301.586 325.39 293.602V14.5157C325.39 6.53126 318.918 0.0585938 310.933 0.0585938Z" fill="#E8ECFF"/>
<path d="M97.6512 173.664L74.9668 186.854L97.6512 198.16L122.226 184.97L97.6512 173.664Z" fill="#D9E0FF"/>
<path d="M122.225 184.969L97.6504 198.159V235.844L122.225 222.654V184.969Z" fill="url(#paint0_linear_3270_45321)"/>
<path d="M74.9668 186.852L97.6513 198.156V235.842L74.9668 222.653V186.852Z" fill="#8DA3FF"/>
<path d="M146.802 107.715L124.117 120.905L146.802 132.21L171.377 119.02L146.802 107.715Z" fill="#D9E0FF"/>
<path d="M171.376 119.02L146.801 132.209V209.465L171.376 196.275V119.02Z" fill="url(#paint1_linear_3270_45321)"/>
<path d="M124.117 120.902L146.802 132.207V209.462L124.117 196.273V120.902Z" fill="#8DA3FF"/>
<path d="M199.731 56.8359L177.047 70.0258L199.731 81.3316L224.306 68.1416L199.731 56.8359Z" fill="#D9E0FF"/>
<path d="M224.306 68.1445L199.731 81.3345V181.201L224.306 168.011V68.1445Z" fill="url(#paint2_linear_3270_45321)"/>
<path d="M177.047 70.0273L199.731 81.3323V181.198L188.389 174.604L177.047 168.009V70.0273Z" fill="#8DA3FF"/>
<path d="M124.372 195.711C124.372 193.283 125.686 191.045 127.809 189.856L200.824 148.968C204.626 146.84 209.304 149.654 209.186 153.998L208.553 177.341L209.346 206.509C209.413 208.963 208.13 211.258 206.002 212.494L131.124 255.973C128.13 257.712 124.372 255.559 124.372 252.105V195.711Z" fill="url(#paint3_linear_3270_45321)"/>
<path d="M124.372 195.711C124.372 193.283 125.686 191.045 127.809 189.856L200.824 148.968C204.626 146.84 209.304 149.654 209.186 153.998L208.553 177.341L209.346 206.509C209.413 208.963 208.13 211.258 206.002 212.494L131.124 255.973C128.13 257.712 124.372 255.559 124.372 252.105V195.711Z" fill="url(#paint4_linear_3270_45321)"/>
<path d="M127.411 197.251C127.411 194.839 128.709 192.612 130.811 191.417L204.18 149.711C207.127 148.036 210.802 150.098 210.895 153.478L212.384 207.969C212.451 210.429 211.163 212.728 209.027 213.962L134.155 257.211C131.16 258.941 127.411 256.787 127.411 253.338V197.251Z" fill="#F3F5FF"/>
<path d="M127.411 197.251C127.411 194.839 128.709 192.612 130.811 191.417L204.18 149.711C207.127 148.036 210.802 150.098 210.895 153.478L212.384 207.969C212.451 210.429 211.163 212.728 209.027 213.962L134.155 257.211C131.16 258.941 127.411 256.787 127.411 253.338V197.251Z" fill="#BFCBFF"/>
<path d="M129.689 199.332C129.689 196.926 130.981 194.703 133.075 193.506L201.323 154.494C204.271 152.809 207.956 154.871 208.048 158.257L209.346 206.228C209.413 208.682 208.131 210.976 206.002 212.212L136.441 252.593C133.447 254.331 129.689 252.178 129.689 248.724V199.332Z" fill="#F3F5FF"/>
<path d="M149.061 221.48V233.405" stroke="#718BF4" stroke-width="1.39035" stroke-linecap="round"/>
<path d="M154.086 212.086V224.01" stroke="#56D04D" stroke-width="1.39035" stroke-linecap="round"/>
<path d="M167.077 208.125V220.049" stroke="#718BF4" stroke-width="1.39035" stroke-linecap="round"/>
<path d="M158.345 216.789V225.692" stroke="#718BF4" stroke-width="1.39035" stroke-linecap="round"/>
<path d="M161.994 205.09L161.978 226.292" stroke="#56D04D" stroke-width="1.39035" stroke-linecap="round"/>
<path d="M173.37 205.578V217.502" stroke="#718BF4" stroke-width="1.39035" stroke-linecap="round"/>
<path d="M178.396 196.184V208.108" stroke="#56D04D" stroke-width="1.39035" stroke-linecap="round"/>
<path d="M191.386 192.223V204.147" stroke="#718BF4" stroke-width="1.39035" stroke-linecap="round"/>
<path d="M182.653 200.887V209.789" stroke="#718BF4" stroke-width="1.39035" stroke-linecap="round"/>
<path d="M186.303 189.191L186.285 211.15" stroke="#56D04D" stroke-width="1.39035" stroke-linecap="round"/>
<path d="M160.456 192.976L160.929 191.961L160.09 191.573L159.547 192.32L160.456 192.976ZM171.092 197.898L170.619 198.913L171.388 199.269L171.942 198.63L171.092 197.898ZM192.742 172.91L180.497 177.157L190.309 185.604L192.742 172.91ZM142.374 219.757L161.366 193.633L159.547 192.32L140.556 218.443L142.374 219.757ZM159.984 193.991L170.619 198.913L171.565 196.883L160.929 191.961L159.984 193.991ZM171.942 198.63L186.987 181.265L185.287 179.802L170.242 197.167L171.942 198.63Z" fill="#002EDC"/>
<path d="M233.515 151.844L242.476 157.03L228.312 207.163L218.484 201.4L233.515 151.844Z" fill="#BFCBFF"/>
<path d="M242.475 157.032L233.515 151.846L237.272 148.965L246.811 154.727L242.475 157.032Z" fill="#E5EAFF"/>
<path fill-rule="evenodd" clip-rule="evenodd" d="M228.312 207.164L242.475 157.032L246.811 154.727L261.842 187.86L228.312 207.164ZM255.771 186.708L244.788 160.777L241.865 170.861L237.272 186.708L233.514 199.673L255.771 186.708Z" fill="#8EA3FF"/>
<path d="M255.772 186.706L233.515 199.671L237.272 186.706L245.944 181.52L255.772 186.706Z" fill="#516DE0"/>
<path d="M244.788 160.777L255.772 186.708L245.944 181.522L241.865 170.862L244.788 160.777Z" fill="#BFCBFF"/>
<path d="M81.1858 125.84C74.5647 139.55 76.1853 153.82 84.2469 157.689C92.3085 161.557 104.211 153.578 110.832 139.868C117.454 126.158 116.286 111.908 108.224 108.04C100.162 104.172 87.8069 112.13 81.1858 125.84Z" fill="#8EA3FF"/>
<path d="M89.5042 153.188C83.1689 151.152 80.9828 140.379 84.6213 129.125C88.2598 117.871 96.3451 110.397 102.68 112.432C109.016 114.467 111.202 125.241 107.563 136.495C103.925 147.749 95.8394 155.223 89.5042 153.188Z" fill="white"/>
<path d="M69.232 149.671L84.1741 157.714C64.3711 134.828 94.1809 102.601 106.898 107.471L108.38 108.266C107.918 107.936 107.423 107.672 106.898 107.471L92.8404 99.9258C68.6343 99.9258 59.0714 136.862 69.232 149.671Z" fill="#BFCBFF"/>
<path d="M83.2773 144.309C96.1873 138.113 97.024 120.28 95.5298 113.33C102.104 108.861 106.886 114.521 108.081 118.096C110.671 123.656 110.771 137.16 101.208 148.479C90.8489 160.741 83.875 150.266 83.2773 144.309Z" fill="#516DE0"/>
<path d="M80.5879 130.012L88.3578 134.778V139.246L80.5879 134.182V130.012Z" fill="#516DE0"/>
<path d="M90.7486 117.5L104.495 125.543L88.3578 134.777L80.5879 130.011L90.7486 117.5Z" fill="#BFCBFF"/>
<path d="M88.3574 134.777L104.495 125.543V130.011L96.426 134.628L88.3574 139.245V134.777Z" fill="#8EA3FF"/>
<path d="M82.7756 139.543C82.2974 132.394 88.055 121.472 91.1432 116.904L90.5455 116.309L78.8906 131.798L82.7756 139.543Z" fill="#8EA3FF"/>
</g>
<defs>
<linearGradient id="paint0_linear_3270_45321" x1="103.013" y1="197.556" x2="127.716" y2="234.581" gradientUnits="userSpaceOnUse">
<stop stop-color="#8EA3FF"/>
<stop offset="1" stop-color="#0228CA"/>
</linearGradient>
<linearGradient id="paint1_linear_3270_45321" x1="152.164" y1="141.396" x2="199.041" y2="180.918" gradientUnits="userSpaceOnUse">
<stop stop-color="#8EA3FF"/>
<stop offset="1" stop-color="#0228CA"/>
</linearGradient>
<linearGradient id="paint2_linear_3270_45321" x1="205.094" y1="96.1149" x2="260.216" y2="133.293" gradientUnits="userSpaceOnUse">
<stop stop-color="#8EA3FF"/>
<stop offset="1" stop-color="#0228CA"/>
</linearGradient>
<linearGradient id="paint3_linear_3270_45321" x1="190.887" y1="172.818" x2="146.149" y2="274.897" gradientUnits="userSpaceOnUse">
<stop stop-color="#8EA3FF"/>
<stop offset="1" stop-color="#0228CA"/>
</linearGradient>
<linearGradient id="paint4_linear_3270_45321" x1="190.865" y1="172.818" x2="146.163" y2="274.937" gradientUnits="userSpaceOnUse">
<stop stop-color="#8DA3FF"/>
<stop offset="1" stop-color="#0228CA"/>
</linearGradient>
<clipPath id="clip0_3270_45321">
<rect width="326" height="309" fill="white"/>
</clipPath>
</defs>
</svg>
