<svg width="326" height="309" viewBox="0 0 326 309" fill="none" xmlns="http://www.w3.org/2000/svg">
<rect x="0.105469" y="0.0585938" width="325.285" height="308" rx="14.4571" fill="#E8ECFF"/>
<path d="M57.9011 206.217L116.843 241.687C119.352 243.197 122.477 243.25 125.035 241.824L252.916 170.557C253.952 169.98 254.594 168.887 254.594 167.701V159.393L199.092 131.275C194.72 129.061 189.559 129.04 185.17 131.221L58.9234 193.94C57.8121 194.493 57.1094 195.626 57.1094 196.867V204.816C57.1094 205.39 57.4098 205.921 57.9011 206.217Z" fill="white"/>
<path d="M57.9011 206.217L116.843 241.687C119.352 243.197 122.477 243.25 125.035 241.824L252.916 170.557C253.952 169.98 254.594 168.887 254.594 167.701V159.393L199.092 131.275C194.72 129.061 189.559 129.04 185.17 131.221L58.9234 193.94C57.8121 194.493 57.1094 195.626 57.1094 196.867V204.816C57.1094 205.39 57.4098 205.921 57.9011 206.217Z" fill="url(#paint0_linear_919_105733)"/>
<path d="M59.6503 201.508L116.874 234.685C119.369 236.131 122.44 236.156 124.958 234.751L252.153 163.738C255.479 161.881 255.51 157.106 252.208 155.206L196.153 122.952C193.665 121.52 190.608 121.499 188.1 122.896L59.7116 194.403C56.9417 195.945 56.9074 199.918 59.6503 201.508Z" fill="#EFF2FF" stroke="url(#paint1_linear_919_105733)" stroke-width="0.490203"/>
<path d="M186.45 91.6074L176.691 97.3001L186.45 102.83L196.209 96.9748L186.45 91.6074Z" fill="#DAE1FF"/>
<path d="M176.691 158.299V97.2988L186.45 102.829V163.984L176.691 158.299Z" fill="#DAE1FF"/>
<path d="M176.691 158.299V97.2988L186.45 102.829V163.984L176.691 158.299Z" fill="url(#paint2_linear_919_105733)"/>
<path d="M196.212 96.9766L186.453 102.832V163.987L196.537 157.969L196.212 96.9766Z" fill="white"/>
<path d="M196.212 96.9766L186.453 102.832V163.987L196.537 157.969L196.212 96.9766Z" fill="#BFCBFF"/>
<path d="M175.715 158.78L176.691 158.292L186.45 163.985L196.534 157.967L197.835 158.292L186.45 165.286L175.715 158.78Z" fill="#CDD6FF"/>
<path d="M186.45 165.287L175.715 158.781V173.907L186.45 180.251V165.287Z" fill="#3A5ADF"/>
<path d="M197.838 158.293L186.453 165.287V180.25L198.001 173.36L197.838 158.293Z" fill="#8EA3FF"/>
<path d="M163.028 122.51L153.27 128.202L163.028 133.732L172.787 127.877L163.028 122.51Z" fill="#DAE1FF"/>
<path d="M153.27 171.961V128.201L163.028 133.731V177.646L153.27 171.961Z" fill="#DAE1FF"/>
<path d="M153.27 171.961V128.201L163.028 133.731V177.646L153.27 171.961Z" fill="url(#paint3_linear_919_105733)"/>
<path d="M172.786 127.877L163.027 133.732V177.647L173.111 171.629L172.786 127.877Z" fill="white"/>
<path d="M172.786 127.877L163.027 133.732V177.647L173.111 171.629L172.786 127.877Z" fill="#BFCBFF"/>
<path d="M152.293 172.444L153.269 171.956L163.028 177.649L173.112 171.631L174.413 171.956L163.028 178.95L152.293 172.444Z" fill="#CDD6FF"/>
<path d="M163.028 178.949L152.293 172.443V187.57L163.028 193.913V178.949Z" fill="#3A5ADF"/>
<path d="M174.413 171.953L163.027 178.947V193.911L174.575 187.02L174.413 171.953Z" fill="#8EA3FF"/>
<path d="M113.583 170.98L103.824 176.673L113.583 182.203L123.342 176.348L113.583 170.98Z" fill="#DAE1FF"/>
<path d="M103.824 201.239V176.672L113.583 182.202V206.924L103.824 201.239Z" fill="#DAE1FF"/>
<path d="M103.824 201.239V176.672L113.583 182.202V206.924L103.824 201.239Z" fill="url(#paint4_linear_919_105733)"/>
<path d="M123.345 176.35L113.586 182.205V206.927L123.67 200.909L123.345 176.35Z" fill="white"/>
<path d="M123.345 176.35L113.586 182.205V206.927L123.67 200.909L123.345 176.35Z" fill="#BFCBFF"/>
<path d="M102.848 201.721L103.824 201.233L113.582 206.926L123.667 200.908L124.968 201.233L113.582 208.227L102.848 201.721Z" fill="#CDD6FF"/>
<path d="M113.582 208.227L102.848 201.721V216.847L113.582 223.19V208.227Z" fill="#3A5ADF"/>
<path d="M124.971 201.232L113.586 208.226V223.19L125.134 216.3L124.971 201.232Z" fill="#8EA3FF"/>
<path d="M139.61 152.436L129.852 158.128L139.61 163.658L149.369 157.803L139.61 152.436Z" fill="#DAE1FF"/>
<path d="M129.852 185.947V158.127L139.61 163.657V191.632L129.852 185.947Z" fill="#DAE1FF"/>
<path d="M129.852 185.947V158.127L139.61 163.657V191.632L129.852 185.947Z" fill="url(#paint5_linear_919_105733)"/>
<path d="M149.368 157.803L139.609 163.658V191.633L149.694 185.615L149.368 157.803Z" fill="white"/>
<path d="M149.368 157.803L139.609 163.658V191.633L149.694 185.615L149.368 157.803Z" fill="#BFCBFF"/>
<path d="M128.875 186.428L129.851 185.941L139.61 191.633L149.694 185.615L150.995 185.941L139.61 192.934L128.875 186.428Z" fill="#CDD6FF"/>
<path d="M139.61 192.934L128.875 186.428V201.554L139.61 207.897V192.934Z" fill="#3A5ADF"/>
<path d="M150.995 185.941L139.609 192.935V207.899L151.157 201.009L150.995 185.941Z" fill="#8EA3FF"/>
<path d="M177.828 61.3532V54.3594L184.171 58.1003L181.081 63.1423L177.828 61.3532Z" fill="#56C74D"/>
<path d="M200.114 67.046L163.681 125.762L148.066 116.979L184.174 58.1004L177.831 54.3595L208.409 39.5586L207.27 71.2748L200.114 67.046Z" fill="#A3EB9D"/>
<path d="M209.547 42.9742L208.408 39.5586L207.27 71.2748L200.113 67.046L163.68 125.762L137.169 123.647L100.898 188.381L106.916 185.128L137.331 130.478L163.843 133.081L200.764 73.5519L208.571 78.4313L209.547 42.9742Z" fill="#56C74D"/>
<path d="M100.898 188.38L85.1211 179.76L121.066 114.701L137.168 123.647L100.898 188.38Z" fill="#A3EB9D"/>
<path d="M163.68 125.761L148.066 116.978L121.066 114.701L137.168 123.647L163.68 125.761Z" fill="#A3EB9D"/>
<defs>
<linearGradient id="paint0_linear_919_105733" x1="211.942" y1="156.547" x2="189.823" y2="274.802" gradientUnits="userSpaceOnUse">
<stop stop-color="#8DA3FF"/>
<stop offset="1" stop-color="#0228CA"/>
</linearGradient>
<linearGradient id="paint1_linear_919_105733" x1="214.638" y1="149.436" x2="193.121" y2="267.921" gradientUnits="userSpaceOnUse">
<stop stop-color="#8DA3FF"/>
<stop offset="1" stop-color="#0228CA"/>
</linearGradient>
<linearGradient id="paint2_linear_919_105733" x1="184.321" y1="113.797" x2="157.918" y2="125.786" gradientUnits="userSpaceOnUse">
<stop stop-color="#8EA3FF"/>
<stop offset="1" stop-color="#0228CA"/>
</linearGradient>
<linearGradient id="paint3_linear_919_105733" x1="160.899" y1="140.434" x2="137.738" y2="154.618" gradientUnits="userSpaceOnUse">
<stop stop-color="#8EA3FF"/>
<stop offset="1" stop-color="#0228CA"/>
</linearGradient>
<linearGradient id="paint4_linear_919_105733" x1="111.453" y1="184.156" x2="95.5448" y2="200.08" gradientUnits="userSpaceOnUse">
<stop stop-color="#8EA3FF"/>
<stop offset="1" stop-color="#0228CA"/>
</linearGradient>
<linearGradient id="paint5_linear_919_105733" x1="137.481" y1="166.416" x2="119.951" y2="182.259" gradientUnits="userSpaceOnUse">
<stop stop-color="#8EA3FF"/>
<stop offset="1" stop-color="#0228CA"/>
</linearGradient>
</defs>
</svg>
