<svg width="120" height="112" viewBox="0 0 120 112" fill="none" xmlns="http://www.w3.org/2000/svg">
<path d="M71.4457 60.7165L62.7404 18L16.0424 44.9931L24.7477 87.777L71.4457 60.7165Z" fill="#F3F5FF"/>
<path d="M71.4457 60.7165L62.7404 18L16.0424 44.9931L24.7477 87.777L71.4457 60.7165Z" fill="url(#paint0_linear_170_929)"/>
<path d="M69.4893 59.9069L61.3239 21.8467L18.4724 46.6128L26.0979 84.673L69.4893 59.9069Z" fill="#F3F5FF"/>
<path d="M28.6187 48.1981L23.4301 51.3113L24.4678 57.5377L29.6565 54.4245L28.6187 48.1981Z" fill="#E8ECFF"/>
<path d="M43.6659 38.8585L38.4772 41.9717L39.5149 48.1981L44.7036 45.0849L43.6659 38.8585Z" fill="#E8ECFF"/>
<path d="M36.4017 43.5283L31.213 46.6415L32.2507 52.8679L37.4394 49.7547L36.4017 43.5283Z" fill="white"/>
<path d="M36.4017 43.5283L31.213 46.6415L32.2507 52.8679L37.4394 49.7547L36.4017 43.5283Z" fill="url(#paint1_linear_170_929)"/>
<path d="M52.1178 33.6698L46.9291 36.783L47.9668 43.0094L53.1555 39.8962L52.1178 33.6698Z" fill="#E8ECFF"/>
<path d="M60.2696 29L55.0809 32.1132L56.1187 38.3396L61.3073 35.2264L60.2696 29Z" fill="#E8ECFF"/>
<path d="M30.6881 57.7971L25.4994 60.9103L26.5371 67.1367L31.7258 64.0235L30.6881 57.7971Z" fill="#E8ECFF"/>
<path d="M45.7353 48.4575L40.5466 51.5707L41.5844 57.7971L46.773 54.6839L45.7353 48.4575Z" fill="white"/>
<path d="M45.7353 48.4575L40.5466 51.5707L41.5844 57.7971L46.773 54.6839L45.7353 48.4575Z" fill="url(#paint2_linear_170_929)"/>
<path d="M38.4711 53.1273L33.2825 56.2405L34.3202 62.4669L39.5089 59.3537L38.4711 53.1273Z" fill="#E8ECFF"/>
<path d="M54.1872 43.2689L48.9985 46.3821L50.0363 52.6085L55.2249 49.4953L54.1872 43.2689Z" fill="#E8ECFF"/>
<path d="M62.3391 38.599L57.1504 41.7122L58.1881 47.9386L63.3768 44.8254L62.3391 38.599Z" fill="#E8ECFF"/>
<path d="M32.7575 67.3962L27.5688 70.5094L28.6066 76.7359L33.7953 73.6227L32.7575 67.3962Z" fill="white"/>
<path d="M32.7575 67.3962L27.5688 70.5094L28.6066 76.7359L33.7953 73.6227L32.7575 67.3962Z" fill="url(#paint3_linear_170_929)"/>
<path d="M47.8046 58.0566L42.616 61.1698L43.6537 67.3963L48.8424 64.2831L47.8046 58.0566Z" fill="#E8ECFF"/>
<path d="M40.5405 62.7264L35.3518 65.8396L36.3895 72.0661L41.5782 68.9529L40.5405 62.7264Z" fill="#E8ECFF"/>
<path d="M56.2565 52.8679L51.0679 55.9811L52.1056 62.2075L57.2943 59.0943L56.2565 52.8679Z" fill="#E8ECFF"/>
<path d="M64.4084 48.1981L59.2197 51.3113L60.2575 57.5377L65.4461 54.4245L64.4084 48.1981Z" fill="white"/>
<path d="M64.4084 48.1981L59.2197 51.3113L60.2575 57.5377L65.4461 54.4245L64.4084 48.1981Z" fill="url(#paint4_linear_170_929)"/>
<path d="M7.33765 78.2619L16.0429 45.3978L21.0366 69.8265L7.33765 78.2619Z" fill="#718BF4"/>
<path d="M6.99985 78.2621L16.0425 44.9932L16.1775 45.668L7.47223 78.2621H6.99985Z" fill="#0228CA"/>
<path d="M24.4105 87.7772H24.7479L16.0427 44.9932L15.8402 45.803L24.4105 87.7772Z" fill="#0228CA"/>
<path fill-rule="evenodd" clip-rule="evenodd" d="M46.7484 27.263C46.75 27.1812 46.7543 27.0995 46.7614 27.0183C46.8139 26.412 47.0165 25.8568 47.3414 25.4285C47.6663 25.0002 48.0977 24.7196 48.5768 24.625C49.0559 24.5304 49.5594 24.6265 50.0185 24.9C50.4776 25.1736 50.87 25.6113 51.1422 26.1535C51.4144 26.6957 51.5532 27.316 51.5395 27.9298C51.5258 28.5435 51.3604 29.1208 51.0658 29.583C50.8472 29.926 50.5653 30.1932 50.2429 30.3664C50.0609 30.4642 49.8506 30.345 49.7993 30.1448C49.751 29.9567 49.8626 29.7674 50.0299 29.6689C50.2531 29.5374 50.4487 29.3452 50.6029 29.1032C50.8266 28.7524 50.9521 28.3142 50.9625 27.8482C50.9729 27.3823 50.8675 26.9114 50.6609 26.4998C50.4543 26.0882 50.1564 25.7559 49.8079 25.5483C49.4593 25.3406 49.0771 25.2677 48.7135 25.3395C48.3498 25.4113 48.0222 25.6243 47.7756 25.9494C47.5738 26.2155 47.4342 26.546 47.3682 26.9096L46.7484 27.263Z" fill="#0F2170"/>
<path fill-rule="evenodd" clip-rule="evenodd" d="M46.7484 27.263C46.75 27.1812 46.7543 27.0995 46.7614 27.0183C46.8139 26.412 47.0165 25.8568 47.3414 25.4285C47.6663 25.0002 48.0977 24.7196 48.5768 24.625C49.0559 24.5304 49.5594 24.6265 50.0185 24.9C50.4776 25.1736 50.87 25.6113 51.1422 26.1535C51.4144 26.6957 51.5532 27.316 51.5395 27.9298C51.5258 28.5435 51.3604 29.1208 51.0658 29.583C50.8472 29.926 50.5653 30.1932 50.2429 30.3664C50.0609 30.4642 49.8506 30.345 49.7993 30.1448C49.751 29.9567 49.8626 29.7674 50.0299 29.6689C50.2531 29.5374 50.4487 29.3452 50.6029 29.1032C50.8266 28.7524 50.9521 28.3142 50.9625 27.8482C50.9729 27.3823 50.8675 26.9114 50.6609 26.4998C50.4543 26.0882 50.1564 25.7559 49.8079 25.5483C49.4593 25.3406 49.0771 25.2677 48.7135 25.3395C48.3498 25.4113 48.0222 25.6243 47.7756 25.9494C47.5738 26.2155 47.4342 26.546 47.3682 26.9096L46.7484 27.263Z" fill="url(#paint5_linear_170_929)"/>
<path fill-rule="evenodd" clip-rule="evenodd" d="M30.6877 36.44C30.6893 36.3581 30.6936 36.2764 30.7007 36.195C30.7533 35.5887 30.9558 35.0335 31.2807 34.6052C31.6056 34.1769 32.0371 33.8963 32.5162 33.8018C32.9953 33.7072 33.4987 33.8032 33.9578 34.0768C34.4169 34.3503 34.8093 34.788 35.0815 35.3303C35.3538 35.8725 35.4925 36.4928 35.4788 37.1065C35.4651 37.7203 35.2997 38.2976 35.0052 38.7597C34.7865 39.1028 34.5046 39.3699 34.1823 39.5432C34.0002 39.641 33.7899 39.5217 33.7386 39.3215C33.6903 39.1335 33.8019 38.9442 33.9692 38.8456C34.1924 38.7141 34.3881 38.5219 34.5423 38.28C34.7659 37.9292 34.8914 37.4909 34.9018 37.025C34.9122 36.5591 34.8069 36.0882 34.6002 35.6766C34.3936 35.265 34.0957 34.9327 33.7472 34.725C33.3987 34.5174 33.0165 34.4445 32.6528 34.5163C32.2891 34.5881 31.9616 34.8011 31.7149 35.1262C31.5131 35.3923 31.3734 35.723 31.3075 36.0866L30.6877 36.44Z" fill="#0F2170"/>
<path fill-rule="evenodd" clip-rule="evenodd" d="M30.6877 36.44C30.6893 36.3581 30.6936 36.2764 30.7007 36.195C30.7533 35.5887 30.9558 35.0335 31.2807 34.6052C31.6056 34.1769 32.0371 33.8963 32.5162 33.8018C32.9953 33.7072 33.4987 33.8032 33.9578 34.0768C34.4169 34.3503 34.8093 34.788 35.0815 35.3303C35.3538 35.8725 35.4925 36.4928 35.4788 37.1065C35.4651 37.7203 35.2997 38.2976 35.0052 38.7597C34.7865 39.1028 34.5046 39.3699 34.1823 39.5432C34.0002 39.641 33.7899 39.5217 33.7386 39.3215C33.6903 39.1335 33.8019 38.9442 33.9692 38.8456C34.1924 38.7141 34.3881 38.5219 34.5423 38.28C34.7659 37.9292 34.8914 37.4909 34.9018 37.025C34.9122 36.5591 34.8069 36.0882 34.6002 35.6766C34.3936 35.265 34.0957 34.9327 33.7472 34.725C33.3987 34.5174 33.0165 34.4445 32.6528 34.5163C32.2891 34.5881 31.9616 34.8011 31.7149 35.1262C31.5131 35.3923 31.3734 35.723 31.3075 36.0866L30.6877 36.44Z" fill="url(#paint6_linear_170_929)"/>
<path fill-rule="evenodd" clip-rule="evenodd" d="M22.3179 41.4581C22.3195 41.3763 22.3238 41.2946 22.3308 41.2132C22.3834 40.6069 22.586 40.0517 22.9109 39.6234C23.2358 39.1951 23.6672 38.9145 24.1463 38.8199C24.6254 38.7254 25.1288 38.8214 25.5879 39.095C26.047 39.3685 26.4395 39.8062 26.7117 40.3484C26.9839 40.8907 27.1226 41.511 27.1089 42.1247C27.0953 42.7385 26.9299 43.3158 26.6353 43.7779C26.4167 44.121 26.1347 44.3881 25.8124 44.5613C25.6303 44.6592 25.4201 44.5399 25.3687 44.3397C25.3205 44.1517 25.4321 43.9624 25.5993 43.8638C25.8225 43.7323 26.0182 43.5401 26.1724 43.2982C26.396 42.9474 26.5216 42.5091 26.5319 42.0432C26.5423 41.5773 26.437 41.1064 26.2304 40.6948C26.0237 40.2832 25.7258 39.9509 25.3773 39.7432C25.0288 39.5356 24.6466 39.4627 24.2829 39.5345C23.9192 39.6063 23.5917 39.8192 23.3451 40.1444C23.1432 40.4105 23.0036 40.7411 22.9376 41.1048L22.3179 41.4581Z" fill="#0F2170"/>
<path fill-rule="evenodd" clip-rule="evenodd" d="M22.3179 41.4581C22.3195 41.3763 22.3238 41.2946 22.3308 41.2132C22.3834 40.6069 22.586 40.0517 22.9109 39.6234C23.2358 39.1951 23.6672 38.9145 24.1463 38.8199C24.6254 38.7254 25.1288 38.8214 25.5879 39.095C26.047 39.3685 26.4395 39.8062 26.7117 40.3484C26.9839 40.8907 27.1226 41.511 27.1089 42.1247C27.0953 42.7385 26.9299 43.3158 26.6353 43.7779C26.4167 44.121 26.1347 44.3881 25.8124 44.5613C25.6303 44.6592 25.4201 44.5399 25.3687 44.3397C25.3205 44.1517 25.4321 43.9624 25.5993 43.8638C25.8225 43.7323 26.0182 43.5401 26.1724 43.2982C26.396 42.9474 26.5216 42.5091 26.5319 42.0432C26.5423 41.5773 26.437 41.1064 26.2304 40.6948C26.0237 40.2832 25.7258 39.9509 25.3773 39.7432C25.0288 39.5356 24.6466 39.4627 24.2829 39.5345C23.9192 39.6063 23.5917 39.8192 23.3451 40.1444C23.1432 40.4105 23.0036 40.7411 22.9376 41.1048L22.3179 41.4581Z" fill="url(#paint7_linear_170_929)"/>
<path fill-rule="evenodd" clip-rule="evenodd" d="M55.1498 22.4148C55.1283 21.8369 55.2484 21.2884 55.4958 20.8383C55.7548 20.3672 56.1408 20.0267 56.601 19.8633C57.0612 19.7 57.5732 19.7216 58.0673 19.9253C58.5614 20.129 59.0134 20.5049 59.3617 21.0017C59.7101 21.4984 59.9377 22.0919 60.0136 22.701C60.0896 23.3102 60.0101 23.9055 59.786 24.4056C59.6197 24.7769 59.3797 25.0823 59.0861 25.3006C58.9202 25.4239 58.6948 25.3366 58.6148 25.146C58.5397 24.967 58.6225 24.7635 58.7736 24.6416C58.9753 24.479 59.1408 24.2603 59.2581 23.9985C59.4282 23.6188 59.4886 23.1669 59.4309 22.7045C59.3733 22.242 59.2005 21.7915 58.9361 21.4144C58.6716 21.0373 58.3285 20.752 57.9534 20.5974C57.5784 20.4427 57.1896 20.4263 56.8403 20.5503C56.4909 20.6744 56.198 20.9328 56.0013 21.2904C55.8744 21.5212 55.7917 21.7861 55.7563 22.0689L55.1498 22.4148Z" fill="#0F2170"/>
<path fill-rule="evenodd" clip-rule="evenodd" d="M55.1498 22.4148C55.1283 21.8369 55.2484 21.2884 55.4958 20.8383C55.7548 20.3672 56.1408 20.0267 56.601 19.8633C57.0612 19.7 57.5732 19.7216 58.0673 19.9253C58.5614 20.129 59.0134 20.5049 59.3617 21.0017C59.7101 21.4984 59.9377 22.0919 60.0136 22.701C60.0896 23.3102 60.0101 23.9055 59.786 24.4056C59.6197 24.7769 59.3797 25.0823 59.0861 25.3006C58.9202 25.4239 58.6948 25.3366 58.6148 25.146C58.5397 24.967 58.6225 24.7635 58.7736 24.6416C58.9753 24.479 59.1408 24.2603 59.2581 23.9985C59.4282 23.6188 59.4886 23.1669 59.4309 22.7045C59.3733 22.242 59.2005 21.7915 58.9361 21.4144C58.6716 21.0373 58.3285 20.752 57.9534 20.5974C57.5784 20.4427 57.1896 20.4263 56.8403 20.5503C56.4909 20.6744 56.198 20.9328 56.0013 21.2904C55.8744 21.5212 55.7917 21.7861 55.7563 22.0689L55.1498 22.4148Z" fill="url(#paint8_linear_170_929)"/>
<path fill-rule="evenodd" clip-rule="evenodd" d="M39.09 31.5918C39.0684 31.0139 39.1885 30.4654 39.436 30.0153C39.695 29.5442 40.081 29.2037 40.5412 29.0404C41.0014 28.877 41.5134 28.8986 42.0075 29.1023C42.5016 29.306 42.9536 29.6819 43.3019 30.1787C43.6503 30.6754 43.8779 31.2689 43.9538 31.878C44.0298 32.4872 43.9503 33.0825 43.7262 33.5826C43.5599 33.9539 43.3199 34.2593 43.0262 34.4776C42.8604 34.6009 42.635 34.5136 42.555 34.323C42.4799 34.144 42.5627 33.9405 42.7138 33.8186C42.9155 33.656 43.081 33.4373 43.1983 33.1755C43.3684 32.7958 43.4288 32.3439 43.3711 31.8815C43.3135 31.419 43.1407 30.9685 42.8762 30.5914C42.6118 30.2143 42.2687 29.929 41.8936 29.7744C41.5185 29.6197 41.1298 29.6033 40.7805 29.7273C40.4311 29.8514 40.1382 30.1098 39.9415 30.4674C39.8146 30.6982 39.7318 30.9631 39.6965 31.2459L39.09 31.5918Z" fill="#0F2170"/>
<path fill-rule="evenodd" clip-rule="evenodd" d="M39.09 31.5918C39.0684 31.0139 39.1885 30.4654 39.436 30.0153C39.695 29.5442 40.081 29.2037 40.5412 29.0404C41.0014 28.877 41.5134 28.8986 42.0075 29.1023C42.5016 29.306 42.9536 29.6819 43.3019 30.1787C43.6503 30.6754 43.8779 31.2689 43.9538 31.878C44.0298 32.4872 43.9503 33.0825 43.7262 33.5826C43.5599 33.9539 43.3199 34.2593 43.0262 34.4776C42.8604 34.6009 42.635 34.5136 42.555 34.323C42.4799 34.144 42.5627 33.9405 42.7138 33.8186C42.9155 33.656 43.081 33.4373 43.1983 33.1755C43.3684 32.7958 43.4288 32.3439 43.3711 31.8815C43.3135 31.419 43.1407 30.9685 42.8762 30.5914C42.6118 30.2143 42.2687 29.929 41.8936 29.7744C41.5185 29.6197 41.1298 29.6033 40.7805 29.7273C40.4311 29.8514 40.1382 30.1098 39.9415 30.4674C39.8146 30.6982 39.7318 30.9631 39.6965 31.2459L39.09 31.5918Z" fill="url(#paint9_linear_170_929)"/>
<path d="M23.4661 91.1991L24.8325 91.8823C23.5311 92.2077 20.6838 93.7369 19.7077 95.689C19.4638 96.5024 19.7571 98.2756 20.9282 98.8612C19.2201 98.8612 18 97.8851 18.4883 95.689C19.2201 93.2489 21.8393 91.6058 23.4661 91.1991Z" fill="url(#paint10_linear_170_929)"/>
<path d="M21.0352 96.1769C21.2304 96.9577 22.6355 96.6649 22.9026 96.6803C23.1696 96.6957 24.0996 97.397 24.0996 97.397C23.8632 97.4834 22.6457 97.397 22.2552 97.397C21.7672 97.397 21.2792 97.641 21.0352 96.9089C20.8399 96.3233 20.9538 96.1769 21.0352 96.1769Z" fill="url(#paint11_linear_170_929)"/>
<path d="M18 100.569V102.521L19.4641 103.497V101.545L18 100.569Z" fill="url(#paint12_linear_170_929)"/>
<path d="M21.4162 99.8372C20.6354 100.228 18.732 100.569 18 100.569L19.4641 101.545C20.1961 101.464 22.3435 100.813 23.1243 99.8372C23.9052 98.8611 22.6363 98.3731 21.9042 98.8611C22.1483 98.8611 22.3923 99.3491 21.4162 99.8372Z" fill="url(#paint13_linear_170_929)"/>
<path d="M24.8317 93.9318V91.8821C23.6117 92.1261 22.1639 93.0046 21.7572 93.2486C21.1878 93.5739 20.293 94.3222 19.7073 95.2983C18.9753 96.5184 19.2194 98.3729 20.4395 98.861C21.6596 99.349 23.1237 98.1289 22.8797 99.593C22.6844 100.764 20.5208 101.382 19.4634 101.545V103.497C22.8795 102.521 24.3436 101.057 24.5876 99.593C24.753 98.6006 24.8317 97.3969 23.6116 97.1529C22.625 96.9555 21.4154 97.8849 21.4183 96.3003C21.4208 94.9338 23.693 94.1758 24.8317 93.9318Z" fill="#CDD6FF"/>
<path d="M33.1069 86.6689L35.4368 85.3292V93.3098L33.1069 94.533L33.1069 86.6689Z" fill="#CDD6FF"/>
<path d="M31.7081 85.8541L33.1061 86.6696V94.5329L31.7081 93.7175V85.8541Z" fill="url(#paint14_linear_170_929)"/>
<path d="M31.7081 85.8541L36.8921 83L38.5813 83.9902L33.1061 86.6696L31.7081 85.8541Z" fill="url(#paint15_linear_170_929)"/>
<path d="M33.1433 86.6758L38.4074 83.8155C39.8774 84.7256 40.4946 85.9632 38.3702 88.9737L33.1433 91.9169L33.1433 86.6758Z" fill="#CDD6FF"/>
<path d="M35.3873 86.9856L36.8495 86.2118C37.1488 86.0535 37.4538 85.9701 37.6665 86.2335C38.348 87.0776 36.8204 88.1075 35.8751 88.6398L35.3873 88.9145L35.3873 86.9856Z" fill="#D9D9D9"/>
<path d="M35.3873 86.9856L36.8495 86.2118C37.1488 86.0535 37.4538 85.9701 37.6665 86.2335C38.348 87.0776 36.8204 88.1075 35.8751 88.6398L35.3873 88.9145L35.3873 86.9856Z" fill="#EFF2FF"/>
<path d="M36.7468 86.2439L36.861 86.1928C37.1721 86.0538 37.505 86.0074 37.7186 86.2728C38.3441 87.05 37.0011 87.9545 36.1352 88.4499L35.3792 88.8823C36.7642 87.531 37.3978 86.7677 36.7468 86.2439Z" fill="#D9D9D9"/>
<path d="M36.7468 86.2439L36.861 86.1928C37.1721 86.0538 37.505 86.0074 37.7186 86.2728C38.3441 87.05 37.0011 87.9545 36.1352 88.4499L35.3792 88.8823C36.7642 87.531 37.3978 86.7677 36.7468 86.2439Z" fill="#6575B8"/>
<path d="M27.7015 90.0335L30.2033 88.595V97.1642L27.7015 98.4776L27.7015 90.0335Z" fill="#CDD6FF"/>
<path d="M26.199 89.1586L27.7 90.0342V98.4776L26.199 97.602V89.1586Z" fill="url(#paint16_linear_170_929)"/>
<path d="M26.199 89.1587L28.7007 87.7827L30.2018 88.5958L27.7 90.0343L26.199 89.1587Z" fill="url(#paint17_linear_170_929)"/>
<path fill-rule="evenodd" clip-rule="evenodd" d="M80.001 101.476L94.258 89.7827C96.9151 87.6035 98.4555 84.3479 98.4555 80.9114L98.4555 73.9983L94.7079 72.2528C81.4163 66.0623 65.6997 68.5365 54.9529 78.5113L46.6316 86.2348L55.2662 90.1785L68.4668 80.014C73.579 76.0777 80.4492 75.292 86.3181 77.9725C89.8653 79.5926 90.3373 84.4411 87.1693 86.715L71.8143 97.7365L80.001 101.476Z" fill="url(#paint18_linear_170_929)"/>
<path fill-rule="evenodd" clip-rule="evenodd" d="M79.3986 93.2412L94.3564 82.0739C100.579 77.4282 99.5518 67.8139 92.4882 64.5877C82.0741 59.8312 69.9155 60.9775 60.5737 67.5963L45.9443 77.9617L54.563 81.8981L67.7782 71.7346C72.8916 67.802 79.7601 67.0185 85.6278 69.6985C89.1763 71.3192 89.6485 76.1694 86.4793 78.4441L71.1273 89.4635L79.3986 93.2412Z" fill="#DAE1FF"/>
<path d="M79.303 93.1688L79.9606 101.574L71.5087 97.7141L70.9428 89.3504L79.303 93.1688Z" fill="url(#paint19_linear_170_929)"/>
<path d="M54.5856 81.8804L55.2494 90.173L46.5211 86.3023L45.9552 77.9387L54.5856 81.8804Z" fill="url(#paint20_linear_170_929)"/>
<g style="mix-blend-mode:overlay">
<path d="M85.7114 97.186L79.9364 101.567L79.2853 93.3074L71.0388 89.541L77.2403 85.0015L85.3405 88.7011L85.7114 97.186Z" fill="#2446D7"/>
</g>
<g style="mix-blend-mode:overlay">
<path d="M61.0324 85.7901L55.2574 90.1706L54.6064 81.9115L45.9725 77.9682L52.308 73.49L60.6615 77.3052L61.0324 85.7901Z" fill="#2446D7"/>
</g>
<path d="M40.1412 97.0674C40.1438 96.9234 40.1407 96.7743 40.1377 96.6272C40.1359 96.5395 40.1341 96.4526 40.1336 96.3679C40.132 96.1369 40.1391 95.9139 40.1758 95.7034C40.2483 95.2887 40.4353 94.9218 40.9131 94.653C41.3932 94.3829 42.1837 94.0932 43.0398 93.8743C43.8955 93.6555 44.806 93.51 45.5248 93.5227C46.3476 93.5373 47.2754 93.6867 48.1188 93.9236C48.9639 94.161 49.7146 94.4835 50.1889 94.8387C50.5477 95.1073 50.6861 95.4403 50.7339 95.8079C50.7684 96.0734 50.7555 96.3472 50.7422 96.6291C50.7366 96.7482 50.7309 96.8688 50.7287 96.9908C50.6668 97.8925 50.0761 98.7339 49.1208 99.3473C48.1656 99.9606 46.855 100.339 45.3818 100.313C43.9062 100.287 42.5817 99.9025 41.6335 99.3076C40.6832 98.7115 40.1263 97.9157 40.1412 97.0674ZM49.1232 97.226C49.1346 96.5788 48.7101 96.0028 48.0523 95.5902C47.3924 95.1763 46.4821 94.9148 45.4775 94.897C44.4728 94.8793 43.5538 95.1085 42.8798 95.4988C42.2078 95.888 41.7632 96.4486 41.7518 97.0958C41.7403 97.7481 42.1664 98.2414 42.8221 98.5699C43.4775 98.8983 44.3809 99.074 45.3789 99.0916C46.3769 99.1092 47.2978 98.9658 47.9763 98.6613C48.6542 98.357 49.1116 97.8798 49.1232 97.226Z" fill="#CDD6FF" stroke="#0228CA" stroke-width="0.209033"/>
<path d="M40.147 96.0008C40.162 95.1524 40.7467 94.3768 41.7174 93.8146C42.6861 93.2536 44.0233 92.9163 45.4989 92.9423C46.9745 92.9684 48.299 93.3527 49.2473 93.9476C50.1976 94.5437 50.7545 95.3394 50.7395 96.1878C50.7245 97.0362 50.1398 97.8118 49.1691 98.374C48.2004 98.935 46.8632 99.2724 45.3876 99.2463C43.912 99.2202 42.5875 98.8359 41.6393 98.241C40.689 97.6449 40.1321 96.8492 40.147 96.0008Z" fill="white" stroke="#0228CA" stroke-width="0.209033"/>
<path d="M40.0367 95.1217C40.0529 94.2057 39.8419 93.192 40.8619 92.6181C41.8446 92.0651 44.063 91.4485 45.5267 91.4744C47.1926 91.5038 49.2735 92.0788 50.2515 92.8111C51.0247 93.3901 50.8471 94.2574 50.8331 95.0514C50.7056 96.9426 48.3627 98.5262 45.38 98.4735C42.3972 98.4208 40.005 96.9202 40.0367 95.1217ZM49.0187 95.2803C49.0397 94.0877 47.4534 93.0926 45.4756 93.0577C43.4978 93.0227 41.8773 93.9612 41.8563 95.1538C41.8352 96.3464 43.4029 97.0083 45.3807 97.0432C47.3585 97.0782 48.9976 96.4729 49.0187 95.2803Z" fill="url(#paint21_linear_170_929)"/>
<path d="M40.147 94.057C40.162 93.2087 40.7467 92.4331 41.7174 91.8709C42.6861 91.3099 44.0233 90.9725 45.4989 90.9986C46.9745 91.0246 48.299 91.409 49.2473 92.0039C50.1976 92.6 50.7545 93.3957 50.7395 94.2441C50.7245 95.0925 50.1398 95.8681 49.1691 96.4303C48.2004 96.9913 46.8632 97.3286 45.3876 97.3026C43.912 97.2765 42.5875 96.8922 41.6393 96.2973C40.689 95.7012 40.1321 94.9054 40.147 94.057Z" fill="white" stroke="#0228CA" stroke-width="0.209033"/>
<path d="M40.1412 93.1805C40.1438 93.0365 40.1407 92.8874 40.1377 92.7403C40.1359 92.6527 40.1341 92.5658 40.1336 92.4811C40.132 92.2501 40.1391 92.027 40.1758 91.8166C40.2483 91.4018 40.4353 91.035 40.9131 90.7662C41.3932 90.496 42.1837 90.2064 43.0398 89.9874C43.8955 89.7686 44.806 89.6232 45.5248 89.6359C46.3476 89.6504 47.2754 89.7999 48.1188 90.0368C48.9639 90.2742 49.7146 90.5967 50.1889 90.9518C50.5477 91.2205 50.6861 91.5534 50.7339 91.9211C50.7684 92.1866 50.7555 92.4604 50.7422 92.7423C50.7366 92.8614 50.7309 92.982 50.7287 93.1039C50.6668 94.0056 50.0761 94.847 49.1208 95.4605C48.1656 96.0738 46.855 96.452 45.3818 96.426C43.9062 96.4 42.5817 96.0156 41.6335 95.4207C40.6832 94.8246 40.1263 94.0289 40.1412 93.1805ZM49.1232 93.3391C49.1346 92.692 48.7101 92.116 48.0523 91.7033C47.3924 91.2894 46.4821 91.0279 45.4775 91.0102C44.4728 90.9924 43.5538 91.2216 42.8798 91.612C42.2078 92.0012 41.7632 92.5618 41.7518 93.209C41.7403 93.8613 42.1664 94.3545 42.8221 94.6831C43.4775 95.0115 44.3809 95.1871 45.3789 95.2048C46.3769 95.2224 47.2978 95.0789 47.9763 94.7744C48.6542 94.4702 49.1116 93.993 49.1232 93.3391Z" fill="#CDD6FF" stroke="#0228CA" stroke-width="0.209033"/>
<path d="M40.1455 92.1137C40.1604 91.2653 40.7451 90.4897 41.7158 89.9275C42.6845 89.3665 44.0218 89.0292 45.4973 89.0552C46.9729 89.0813 48.2974 89.4656 49.2457 90.0605C50.196 90.6566 50.7529 91.4524 50.7379 92.3007C50.7229 93.1491 50.1383 93.9247 49.1675 94.4869C48.1988 95.0479 46.8616 95.3853 45.386 95.3592C43.9104 95.3332 42.5859 94.9488 41.6377 94.3539C40.6874 93.7578 40.1305 92.9621 40.1455 92.1137Z" fill="white" stroke="#0228CA" stroke-width="0.209033"/>
<path d="M40.0367 91.2358C40.0529 90.3198 39.8419 89.3061 40.8619 88.7322C41.8446 88.1793 44.063 87.5627 45.5267 87.5885C47.1926 87.6179 49.2735 88.1929 50.2515 88.9253C51.0247 89.5042 50.8471 90.3715 50.8331 91.1655C50.7056 93.0567 48.3627 94.6403 45.38 94.5877C42.3972 94.535 40.005 93.0343 40.0367 91.2358ZM49.0187 91.3944C49.0397 90.2018 47.4534 89.2067 45.4756 89.1718C43.4978 89.1369 41.8773 90.0753 41.8563 91.2679C41.8352 92.4605 43.4029 93.1225 45.3807 93.1574C47.3585 93.1923 48.9976 92.587 49.0187 91.3944Z" fill="url(#paint22_linear_170_929)"/>
<path d="M40.1455 90.1709C40.1604 89.3226 40.7451 88.547 41.7158 87.9848C42.6845 87.4238 44.0218 87.0864 45.4973 87.1125C46.9729 87.1385 48.2974 87.5229 49.2457 88.1178C50.196 88.7139 50.7529 89.5096 50.7379 90.358C50.7229 91.2064 50.1383 91.982 49.1675 92.5442C48.1988 93.1052 46.8616 93.4425 45.386 93.4165C43.9104 93.3904 42.5859 93.006 41.6377 92.4112C40.6874 91.8151 40.1305 91.0193 40.1455 90.1709Z" fill="white" stroke="#0228CA" stroke-width="0.209033"/>
<path d="M40.1412 89.2929C40.1438 89.1489 40.1407 88.9998 40.1377 88.8528C40.1359 88.7651 40.1341 88.6782 40.1336 88.5935C40.132 88.3625 40.1391 88.1395 40.1758 87.929C40.2483 87.5143 40.4353 87.1474 40.9131 86.8786C41.3932 86.6085 42.1837 86.3188 43.0398 86.0999C43.8955 85.881 44.806 85.7356 45.5248 85.7483C46.3476 85.7628 47.2754 85.9123 48.1188 86.1492C48.9639 86.3866 49.7146 86.7091 50.1889 87.0642C50.5477 87.3329 50.6861 87.6659 50.7339 88.0335C50.7684 88.299 50.7555 88.5728 50.7422 88.8547C50.7366 88.9738 50.7309 89.0944 50.7287 89.2164C50.6668 90.118 50.0761 90.9595 49.1208 91.5729C48.1656 92.1862 46.855 92.5645 45.3818 92.5385C43.9062 92.5124 42.5817 92.128 41.6335 91.5332C40.6832 90.9371 40.1263 90.1413 40.1412 89.2929ZM49.1232 89.4516C49.1346 88.8044 48.7101 88.2284 48.0523 87.8158C47.3924 87.4018 46.4821 87.1404 45.4775 87.1226C44.4728 87.1049 43.5538 87.334 42.8798 87.7244C42.2078 88.1136 41.7632 88.6742 41.7518 89.3214C41.7403 89.9737 42.1664 90.467 42.8221 90.7955C43.4775 91.1239 44.3809 91.2996 45.3789 91.3172C46.3769 91.3348 47.2978 91.1913 47.9763 90.8869C48.6542 90.5826 49.1116 90.1054 49.1232 89.4516Z" fill="#CDD6FF" stroke="#0228CA" stroke-width="0.209033"/>
<path d="M40.147 88.2267C40.162 87.3783 40.7467 86.6028 41.7174 86.0406C42.6861 85.4796 44.0233 85.1422 45.4989 85.1683C46.9745 85.1943 48.299 85.5787 49.2473 86.1735C50.1976 86.7697 50.7545 87.5654 50.7395 88.4138C50.7245 89.2622 50.1398 90.0378 49.1691 90.5999C48.2004 91.161 46.8632 91.4983 45.3876 91.4722C43.912 91.4462 42.5875 91.0618 41.6393 90.467C40.689 89.8709 40.1321 89.0751 40.147 88.2267Z" fill="white" stroke="#0228CA" stroke-width="0.209033"/>
<path d="M40.0365 87.3481C40.0527 86.4321 39.8417 85.4184 40.8616 84.8445C41.8444 84.2916 44.0628 83.675 45.5264 83.7008C47.1923 83.7302 49.2732 84.3052 50.2513 85.0376C51.0245 85.6165 50.8469 86.4838 50.8329 87.2778C50.7053 89.169 48.3625 90.7526 45.3797 90.7C42.397 90.6473 40.0047 89.1466 40.0365 87.3481ZM49.0184 87.5067C49.0395 86.3141 47.4532 85.319 45.4754 85.2841C43.4975 85.2492 41.8771 86.1877 41.856 87.3802C41.835 88.5728 43.4026 89.2348 45.3805 89.2697C47.3583 89.3046 48.9974 88.6993 49.0184 87.5067Z" fill="url(#paint23_linear_170_929)"/>
<path d="M40.1452 86.2832C40.1602 85.4349 40.7449 84.6593 41.7156 84.0971C42.6843 83.5361 44.0215 83.1987 45.4971 83.2248C46.9727 83.2508 48.2972 83.6352 49.2455 84.2301C50.1957 84.8262 50.7527 85.6219 50.7377 86.4703C50.7227 87.3187 50.138 88.0943 49.1673 88.6565C48.1986 89.2175 46.8614 89.5548 45.3858 89.5288C43.9102 89.5027 42.5857 89.1183 41.6374 88.5235C40.6872 87.9274 40.1302 87.1316 40.1452 86.2832Z" fill="white" stroke="#0228CA" stroke-width="0.209033"/>
<path d="M36.7102 103.247C36.7128 103.103 36.7097 102.953 36.7067 102.806C36.7049 102.719 36.7031 102.632 36.7025 102.547C36.701 102.316 36.7081 102.093 36.7448 101.883C36.8172 101.468 37.0043 101.101 37.4821 100.832C37.9622 100.562 38.7526 100.272 39.6088 100.053C40.4645 99.8347 41.375 99.6892 42.0938 99.7019C42.9166 99.7165 43.8443 99.8659 44.6877 100.103C45.5329 100.34 46.2836 100.663 46.7578 101.018C47.1166 101.287 47.255 101.619 47.3028 101.987C47.3374 102.253 47.3244 102.526 47.3111 102.808C47.3055 102.927 47.2998 103.048 47.2976 103.17C47.2358 104.072 46.6451 104.913 45.6897 105.526C44.7346 106.14 43.424 106.518 41.9508 106.492C40.4752 106.466 39.1507 106.082 38.2024 105.487C37.2522 104.891 36.6952 104.095 36.7102 103.247ZM45.6921 103.405C45.7036 102.758 45.2791 102.182 44.6212 101.769C43.9614 101.355 43.0511 101.094 42.0464 101.076C41.0417 101.058 40.1228 101.288 39.4487 101.678C38.7767 102.067 38.3322 102.628 38.3208 103.275C38.3092 103.927 38.7353 104.421 39.3911 104.749C40.0464 105.078 40.9499 105.253 41.9478 105.271C42.9458 105.288 43.8668 105.145 44.5452 104.84C45.2232 104.536 45.6806 104.059 45.6921 103.405Z" fill="#CDD6FF" stroke="#0228CA" stroke-width="0.209033"/>
<path d="M36.716 102.18C36.731 101.331 37.3157 100.556 38.2864 99.9937C39.2551 99.4327 40.5923 99.0953 42.0679 99.1214C43.5435 99.1474 44.868 99.5318 45.8163 100.127C46.7665 100.723 47.3235 101.519 47.3085 102.367C47.2935 103.215 46.7088 103.991 45.7381 104.553C44.7694 105.114 43.4322 105.451 41.9566 105.425C40.481 105.399 39.1565 105.015 38.2082 104.42C37.258 103.824 36.701 103.028 36.716 102.18Z" fill="white" stroke="#0228CA" stroke-width="0.209033"/>
<path d="M36.6057 101.301C36.6219 100.385 36.4109 99.3709 37.4308 98.797C38.4136 98.2441 40.632 97.6275 42.0957 97.6533C43.7615 97.6828 45.8424 98.2577 46.8205 98.9901C47.5937 99.5691 47.4161 100.436 47.4021 101.23C47.2745 103.122 44.9317 104.705 41.9489 104.652C38.9662 104.6 36.574 103.099 36.6057 101.301ZM45.5876 101.459C45.6087 100.267 44.0224 99.2716 42.0446 99.2366C40.0667 99.2017 38.4463 100.14 38.4253 101.333C38.4042 102.525 39.9718 103.187 41.9497 103.222C43.9275 103.257 45.5666 102.652 45.5876 101.459Z" fill="url(#paint24_linear_170_929)"/>
<path d="M36.716 100.236C36.731 99.3876 37.3157 98.612 38.2864 98.0499C39.2551 97.4888 40.5923 97.1515 42.0679 97.1775C43.5435 97.2036 44.868 97.588 45.8163 98.1828C46.7665 98.7789 47.3235 99.5747 47.3085 100.423C47.2935 101.271 46.7088 102.047 45.7381 102.609C44.7694 103.17 43.4322 103.508 41.9566 103.482C40.481 103.455 39.1565 103.071 38.2082 102.476C37.258 101.88 36.701 101.084 36.716 100.236Z" fill="white" stroke="#0228CA" stroke-width="0.209033"/>
<path d="M36.7102 99.3596C36.7128 99.2156 36.7097 99.0665 36.7067 98.9194C36.7049 98.8318 36.7031 98.7448 36.7025 98.6601C36.701 98.4292 36.7081 98.2061 36.7448 97.9957C36.8172 97.5809 37.0043 97.2141 37.4821 96.9453C37.9622 96.6751 38.7526 96.3855 39.6088 96.1665C40.4645 95.9477 41.375 95.8023 42.0938 95.815C42.9166 95.8295 43.8443 95.9789 44.6877 96.2159C45.5329 96.4533 46.2836 96.7758 46.7578 97.1309C47.1166 97.3996 47.255 97.7325 47.3028 98.1002C47.3374 98.3657 47.3244 98.6395 47.3111 98.9214C47.3055 99.0405 47.2998 99.161 47.2976 99.283C47.2358 100.185 46.6451 101.026 45.6897 101.64C44.7346 102.253 43.424 102.631 41.9508 102.605C40.4752 102.579 39.1507 102.195 38.2024 101.6C37.2522 101.004 36.6952 100.208 36.7102 99.3596ZM45.6921 99.5182C45.7036 98.871 45.2791 98.2951 44.6212 97.8824C43.9614 97.4685 43.0511 97.207 42.0464 97.1893C41.0417 97.1715 40.1228 97.4007 39.4487 97.7911C38.7767 98.1802 38.3322 98.7409 38.3208 99.388C38.3092 100.04 38.7353 100.534 39.3911 100.862C40.0464 101.191 40.9499 101.366 41.9478 101.384C42.9458 101.401 43.8668 101.258 44.5452 100.954C45.2232 100.649 45.6806 100.172 45.6921 99.5182Z" fill="#CDD6FF" stroke="#0228CA" stroke-width="0.209033"/>
<path d="M36.7144 98.2929C36.7294 97.4445 37.3141 96.6689 38.2848 96.1067C39.2535 95.5457 40.5907 95.2084 42.0663 95.2344C43.5419 95.2605 44.8664 95.6448 45.8147 96.2397C46.7649 96.8358 47.3219 97.6316 47.3069 98.4799C47.2919 99.3283 46.7072 100.104 45.7365 100.666C44.7678 101.227 43.4306 101.564 41.955 101.538C40.4794 101.512 39.1549 101.128 38.2066 100.533C37.2564 99.937 36.6994 99.1413 36.7144 98.2929Z" fill="white" stroke="#0228CA" stroke-width="0.209033"/>
<path d="M36.6057 97.4145C36.6219 96.4986 36.4109 95.4848 37.4308 94.9109C38.4136 94.358 40.632 93.7414 42.0957 93.7672C43.7615 93.7966 45.8424 94.3716 46.8205 95.104C47.5937 95.6829 47.4161 96.5502 47.4021 97.3443C47.2745 99.2354 44.9317 100.819 41.9489 100.766C38.9662 100.714 36.574 99.213 36.6057 97.4145ZM45.5876 97.5731C45.6087 96.3805 44.0224 95.3854 42.0446 95.3505C40.0667 95.3156 38.4463 96.2541 38.4253 97.4466C38.4042 98.6392 39.9718 99.3012 41.9497 99.3361C43.9275 99.371 45.5666 98.7657 45.5876 97.5731Z" fill="url(#paint25_linear_170_929)"/>
<path d="M36.7144 96.3499C36.7294 95.5015 37.3141 94.7259 38.2848 94.1637C39.2535 93.6027 40.5907 93.2654 42.0663 93.2914C43.5419 93.3175 44.8664 93.7019 45.8147 94.2967C46.7649 94.8928 47.3219 95.6886 47.3069 96.537C47.2919 97.3853 46.7072 98.1609 45.7365 98.7231C44.7678 99.2841 43.4306 99.6215 41.955 99.5954C40.4794 99.5694 39.1549 99.185 38.2066 98.5901C37.2564 97.994 36.6994 97.1983 36.7144 96.3499Z" fill="white" stroke="#0228CA" stroke-width="0.209033"/>
<path d="M49.0689 99.4759C49.0714 99.3319 49.0683 99.1828 49.0653 99.0358C49.0635 98.9481 49.0618 98.8612 49.0612 98.7765C49.0596 98.5455 49.0667 98.3224 49.1035 98.112C49.1759 97.6972 49.363 97.3304 49.8407 97.0616C50.3208 96.7914 51.1113 96.5018 51.9674 96.2829C52.8232 96.064 53.7336 95.9186 54.4525 95.9313C55.2752 95.9458 56.203 96.0953 57.0464 96.3322C57.8915 96.5696 58.6422 96.8921 59.1165 97.2472C59.4753 97.5159 59.6137 97.8488 59.6615 98.2165C59.696 98.482 59.6831 98.7558 59.6698 99.0377C59.6642 99.1568 59.6585 99.2774 59.6563 99.3993C59.5945 100.301 59.0037 101.142 58.0484 101.756C57.0932 102.369 55.7826 102.747 54.3094 102.721C52.8338 102.695 51.5093 102.311 50.5611 101.716C49.6108 101.12 49.0539 100.324 49.0689 99.4759ZM58.0508 99.6345C58.0622 98.9874 57.6377 98.4114 56.9799 97.9987C56.3201 97.5848 55.4098 97.3233 54.4051 97.3056C53.4004 97.2878 52.4814 97.517 51.8074 97.9074C51.1354 98.2966 50.6908 98.8572 50.6794 99.5044C50.6679 100.157 51.094 100.65 51.7497 100.978C52.4051 101.307 53.3085 101.483 54.3065 101.5C55.3045 101.518 56.2254 101.374 56.9039 101.07C57.5818 100.766 58.0392 100.288 58.0508 99.6345Z" fill="#CDD6FF" stroke="#0228CA" stroke-width="0.209033"/>
<path d="M49.0731 98.4097C49.088 97.5613 49.6727 96.7857 50.6434 96.2236C51.6121 95.6625 52.9494 95.3252 54.425 95.3512C55.9006 95.3773 57.225 95.7617 58.1733 96.3565C59.1236 96.9526 59.6805 97.7484 59.6655 98.5968C59.6506 99.4452 59.0659 100.221 58.0952 100.783C57.1265 101.344 55.7892 101.681 54.3136 101.655C52.838 101.629 51.5136 101.245 50.5653 100.65C49.615 100.054 49.0581 99.2581 49.0731 98.4097Z" fill="white" stroke="#0228CA" stroke-width="0.209033"/>
<path d="M48.9658 97.5308C48.982 96.6149 48.771 95.6011 49.7909 95.0273C50.7737 94.4743 52.9921 93.8577 54.4558 93.8836C56.1216 93.913 58.2025 94.488 59.1806 95.2203C59.9538 95.7993 59.7762 96.6665 59.7622 97.4606C59.6347 99.3517 57.2918 100.935 54.309 100.883C51.3263 100.83 48.9341 99.3293 48.9658 97.5308ZM57.9477 97.6895C57.9688 96.4969 56.3825 95.5018 54.4047 95.4669C52.4268 95.4319 50.8064 96.3704 50.7854 97.563C50.7643 98.7555 52.3319 99.4175 54.3098 99.4524C56.2876 99.4874 57.9267 98.882 57.9477 97.6895Z" fill="url(#paint26_linear_170_929)"/>
<path d="M49.0754 96.4665C49.0904 95.6181 49.6751 94.8425 50.6458 94.2803C51.6145 93.7193 52.9517 93.382 54.4273 93.408C55.9029 93.4341 57.2274 93.8184 58.1756 94.4133C59.1259 95.0094 59.6828 95.8051 59.6679 96.6535C59.6529 97.5019 59.0682 98.2775 58.0975 98.8397C57.1288 99.4007 55.7916 99.738 54.316 99.712C52.8404 99.6859 51.5159 99.3016 50.5676 98.7067C49.6173 98.1106 49.0604 97.3149 49.0754 96.4665Z" fill="white" stroke="#0228CA" stroke-width="0.209033"/>
<path d="M49.0689 95.5886C49.0714 95.4446 49.0683 95.2955 49.0653 95.1484C49.0635 95.0608 49.0618 94.9738 49.0612 94.8891C49.0596 94.6582 49.0667 94.4351 49.1035 94.2247C49.1759 93.8099 49.363 93.4431 49.8407 93.1743C50.3208 92.9041 51.1113 92.6145 51.9674 92.3955C52.8232 92.1767 53.7336 92.0313 54.4525 92.044C55.2752 92.0585 56.203 92.208 57.0464 92.4449C57.8915 92.6823 58.6422 93.0048 59.1165 93.3599C59.4753 93.6286 59.6137 93.9615 59.6615 94.3292C59.696 94.5947 59.6831 94.8685 59.6698 95.1504C59.6642 95.2695 59.6585 95.39 59.6563 95.512C59.5945 96.4137 59.0037 97.2551 58.0484 97.8685C57.0932 98.4818 55.7826 98.8601 54.3094 98.8341C52.8338 98.8081 51.5093 98.4237 50.5611 97.8288C49.6108 97.2327 49.0539 96.437 49.0689 95.5886ZM58.0508 95.7472C58.0622 95.1 57.6377 94.5241 56.9799 94.1114C56.3201 93.6975 55.4098 93.436 54.4051 93.4183C53.4004 93.4005 52.4814 93.6297 51.8074 94.0201C51.1354 94.4092 50.6908 94.9699 50.6794 95.617C50.6679 96.2694 51.094 96.7626 51.7497 97.0912C52.4051 97.4195 53.3085 97.5952 54.3065 97.6128C55.3045 97.6305 56.2254 97.487 56.9039 97.1825C57.5818 96.8783 58.0392 96.4011 58.0508 95.7472Z" fill="#CDD6FF" stroke="#0228CA" stroke-width="0.209033"/>
<path d="M49.0754 94.5221C49.0904 93.6738 49.6751 92.8982 50.6458 92.336C51.6145 91.775 52.9517 91.4376 54.4273 91.4637C55.9029 91.4897 57.2274 91.8741 58.1756 92.469C59.1259 93.0651 59.6828 93.8608 59.6679 94.7092C59.6529 95.5576 59.0682 96.3332 58.0975 96.8953C57.1288 97.4564 55.7916 97.7937 54.316 97.7677C52.8404 97.7416 51.5159 97.3572 50.5676 96.7624C49.6173 96.1663 49.0604 95.3705 49.0754 94.5221Z" fill="white" stroke="#0228CA" stroke-width="0.209033"/>
<defs>
<linearGradient id="paint0_linear_170_929" x1="28.0317" y1="35.2631" x2="53.7596" y2="98.1185" gradientUnits="userSpaceOnUse">
<stop stop-color="#8DA3FF"/>
<stop offset="1" stop-color="#0228CA"/>
</linearGradient>
<linearGradient id="paint1_linear_170_929" x1="36.0807" y1="45.839" x2="32.2316" y2="53.801" gradientUnits="userSpaceOnUse">
<stop stop-color="#8EA3FF"/>
<stop offset="1" stop-color="#0228CA"/>
</linearGradient>
<linearGradient id="paint2_linear_170_929" x1="45.4143" y1="50.7682" x2="41.5653" y2="58.7302" gradientUnits="userSpaceOnUse">
<stop stop-color="#8EA3FF"/>
<stop offset="1" stop-color="#0228CA"/>
</linearGradient>
<linearGradient id="paint3_linear_170_929" x1="32.4365" y1="69.7069" x2="28.5875" y2="77.6689" gradientUnits="userSpaceOnUse">
<stop stop-color="#8EA3FF"/>
<stop offset="1" stop-color="#0228CA"/>
</linearGradient>
<linearGradient id="paint4_linear_170_929" x1="64.0874" y1="50.5088" x2="60.2384" y2="58.4708" gradientUnits="userSpaceOnUse">
<stop stop-color="#8EA3FF"/>
<stop offset="1" stop-color="#0228CA"/>
</linearGradient>
<linearGradient id="paint5_linear_170_929" x1="47.8924" y1="26.0854" x2="49.1188" y2="31.8799" gradientUnits="userSpaceOnUse">
<stop stop-color="#57DD4E"/>
<stop offset="1" stop-color="#54B54B"/>
</linearGradient>
<linearGradient id="paint6_linear_170_929" x1="31.8317" y1="35.2621" x2="33.0581" y2="41.0567" gradientUnits="userSpaceOnUse">
<stop stop-color="#57DD4E"/>
<stop offset="1" stop-color="#54B54B"/>
</linearGradient>
<linearGradient id="paint7_linear_170_929" x1="23.4618" y1="40.2803" x2="24.6883" y2="46.0748" gradientUnits="userSpaceOnUse">
<stop stop-color="#57DD4E"/>
<stop offset="1" stop-color="#54B54B"/>
</linearGradient>
<linearGradient id="paint8_linear_170_929" x1="56.3419" y1="21.2097" x2="57.5683" y2="27.0042" gradientUnits="userSpaceOnUse">
<stop stop-color="#57DD4E"/>
<stop offset="1" stop-color="#54B54B"/>
</linearGradient>
<linearGradient id="paint9_linear_170_929" x1="40.2821" y1="30.3867" x2="41.5085" y2="36.1812" gradientUnits="userSpaceOnUse">
<stop stop-color="#57DD4E"/>
<stop offset="1" stop-color="#54B54B"/>
</linearGradient>
<linearGradient id="paint10_linear_170_929" x1="23.4935" y1="93.1682" x2="20.7633" y2="100.039" gradientUnits="userSpaceOnUse">
<stop stop-color="#8EA3FF"/>
<stop offset="0.825" stop-color="#0228CA"/>
</linearGradient>
<linearGradient id="paint11_linear_170_929" x1="22.9193" y1="96.4884" x2="22.7136" y2="97.7799" gradientUnits="userSpaceOnUse">
<stop stop-color="#8EA3FF"/>
<stop offset="0.825" stop-color="#0228CA"/>
</linearGradient>
<linearGradient id="paint12_linear_170_929" x1="19.1446" y1="101.293" x2="17.7422" y2="103.469" gradientUnits="userSpaceOnUse">
<stop stop-color="#8EA3FF"/>
<stop offset="0.825" stop-color="#0228CA"/>
</linearGradient>
<linearGradient id="paint13_linear_170_929" x1="21.9175" y1="99.5252" x2="21.4443" y2="102.267" gradientUnits="userSpaceOnUse">
<stop stop-color="#8EA3FF"/>
<stop offset="0.825" stop-color="#0228CA"/>
</linearGradient>
<linearGradient id="paint14_linear_170_929" x1="32.801" y1="88.0013" x2="29.1508" y2="89.8256" gradientUnits="userSpaceOnUse">
<stop stop-color="#8EA3FF"/>
<stop offset="0.88" stop-color="#0228CA"/>
</linearGradient>
<linearGradient id="paint15_linear_170_929" x1="37.0814" y1="83.9079" x2="36.4364" y2="87.6563" gradientUnits="userSpaceOnUse">
<stop stop-color="#8EA3FF"/>
<stop offset="0.5" stop-color="#7B92F8"/>
<stop offset="1" stop-color="#0228CA"/>
</linearGradient>
<linearGradient id="paint16_linear_170_929" x1="27.3725" y1="91.4641" x2="23.453" y2="93.423" gradientUnits="userSpaceOnUse">
<stop stop-color="#8EA3FF"/>
<stop offset="0.88" stop-color="#0228CA"/>
</linearGradient>
<linearGradient id="paint17_linear_170_929" x1="29.3283" y1="88.3398" x2="28.9126" y2="90.6325" gradientUnits="userSpaceOnUse">
<stop stop-color="#8EA3FF"/>
<stop offset="0.5" stop-color="#7B92F8"/>
<stop offset="1" stop-color="#0228CA"/>
</linearGradient>
<linearGradient id="paint18_linear_170_929" x1="88.7128" y1="77.3662" x2="44.6709" y2="77.215" gradientUnits="userSpaceOnUse">
<stop stop-color="#8DA3FF"/>
<stop offset="1" stop-color="#0228CA"/>
</linearGradient>
<linearGradient id="paint19_linear_170_929" x1="79.3655" y1="94.9682" x2="67.3389" y2="96.1391" gradientUnits="userSpaceOnUse">
<stop stop-color="#8DA3FF"/>
<stop offset="1" stop-color="#0228CA"/>
</linearGradient>
<linearGradient id="paint20_linear_170_929" x1="54.5529" y1="83.6364" x2="42.3646" y2="84.9254" gradientUnits="userSpaceOnUse">
<stop stop-color="#8DA3FF"/>
<stop offset="1" stop-color="#0228CA"/>
</linearGradient>
<linearGradient id="paint21_linear_170_929" x1="42.3533" y1="96.6878" x2="43.9462" y2="89.6577" gradientUnits="userSpaceOnUse">
<stop stop-color="#8DA3FF"/>
<stop offset="1" stop-color="#0228CA"/>
</linearGradient>
<linearGradient id="paint22_linear_170_929" x1="42.3533" y1="92.802" x2="43.9462" y2="85.7718" gradientUnits="userSpaceOnUse">
<stop stop-color="#8DA3FF"/>
<stop offset="1" stop-color="#0228CA"/>
</linearGradient>
<linearGradient id="paint23_linear_170_929" x1="42.353" y1="88.9143" x2="43.9459" y2="81.8841" gradientUnits="userSpaceOnUse">
<stop stop-color="#8DA3FF"/>
<stop offset="1" stop-color="#0228CA"/>
</linearGradient>
<linearGradient id="paint24_linear_170_929" x1="38.9223" y1="102.867" x2="40.5151" y2="95.8366" gradientUnits="userSpaceOnUse">
<stop stop-color="#8DA3FF"/>
<stop offset="1" stop-color="#0228CA"/>
</linearGradient>
<linearGradient id="paint25_linear_170_929" x1="38.9223" y1="98.9807" x2="40.5151" y2="91.9505" gradientUnits="userSpaceOnUse">
<stop stop-color="#8DA3FF"/>
<stop offset="1" stop-color="#0228CA"/>
</linearGradient>
<linearGradient id="paint26_linear_170_929" x1="51.2824" y1="99.097" x2="52.8753" y2="92.0669" gradientUnits="userSpaceOnUse">
<stop stop-color="#8DA3FF"/>
<stop offset="1" stop-color="#0228CA"/>
</linearGradient>
</defs>
</svg>
