<svg width="326" height="309" viewBox="0 0 326 309" fill="none" xmlns="http://www.w3.org/2000/svg">
<rect x="0.105469" y="0.0585938" width="325.285" height="308" rx="14.4571" fill="#E8ECFF"/>
<path d="M84.2618 82.1768C84.2617 79.5403 85.7108 77.1172 88.0336 75.8698L137.416 49.3496C138.779 48.6178 140.429 49.6049 140.429 51.1516V66.6067C140.429 66.9807 140.225 67.3249 139.897 67.5042L85.7749 97.0709C85.0934 97.4432 84.2619 96.95 84.2619 96.1734L84.2618 82.1768Z" fill="#D9D9D9"/>
<path d="M84.2618 82.1768C84.2617 79.5403 85.7108 77.1172 88.0336 75.8698L137.416 49.3496C138.779 48.6178 140.429 49.6049 140.429 51.1516V66.6067C140.429 66.9807 140.225 67.3249 139.897 67.5042L85.7749 97.0709C85.0934 97.4432 84.2619 96.95 84.2619 96.1734L84.2618 82.1768Z" fill="url(#paint0_linear_4104_235403)"/>
<path d="M68.1406 101.203C68.1406 99.1625 69.2462 97.2817 71.0294 96.2889L147.45 53.744C147.843 53.5254 148.312 53.49 148.733 53.6472L154 55.6136C154.616 55.8437 155.017 56.4409 154.997 57.0982L151.378 174.012C151.362 174.544 151.071 175.029 150.61 175.294L70.4395 221.408C69.4169 221.996 68.1406 221.258 68.1406 220.078V101.203Z" fill="#D9D9D9"/>
<path d="M68.1406 101.203C68.1406 99.1625 69.2462 97.2817 71.0294 96.2889L147.45 53.744C147.843 53.5254 148.312 53.49 148.733 53.6472L154 55.6136C154.616 55.8437 155.017 56.4409 154.997 57.0982L151.378 174.012C151.362 174.544 151.071 175.029 150.61 175.294L70.4395 221.408C69.4169 221.996 68.1406 221.258 68.1406 220.078V101.203Z" fill="url(#paint1_linear_4104_235403)"/>
<path d="M72.3008 102.371C72.3008 100.893 73.0979 99.5297 74.386 98.8051L153.226 54.4578C154.248 53.8826 155.512 54.6216 155.512 55.7948V176.061C155.512 176.61 155.218 177.117 154.743 177.391L74.5997 223.489C73.577 224.077 72.3008 223.339 72.3008 222.159V102.371Z" fill="#D9D9D9"/>
<path d="M72.3008 102.371C72.3008 100.893 73.0979 99.5297 74.386 98.8051L153.226 54.4578C154.248 53.8826 155.512 54.6216 155.512 55.7948V176.061C155.512 176.61 155.218 177.117 154.743 177.391L74.5997 223.489C73.577 224.077 72.3008 223.339 72.3008 222.159V102.371Z" fill="#BFCBFF"/>
<path d="M78.6484 104.962C78.6484 103.486 79.4431 102.125 80.728 101.4L149.217 62.7304C150.239 62.1531 151.505 62.8919 151.505 64.0663V172.405C151.505 172.953 151.213 173.459 150.738 173.733L80.9499 214.051C79.9272 214.642 78.6484 213.904 78.6484 212.723V104.962Z" fill="#D9D9D9"/>
<path d="M78.6484 104.962C78.6484 103.486 79.4431 102.125 80.728 101.4L149.217 62.7304C150.239 62.1531 151.505 62.8919 151.505 64.0663V172.405C151.505 172.953 151.213 173.459 150.738 173.733L80.9499 214.051C79.9272 214.642 78.6484 213.904 78.6484 212.723V104.962Z" fill="#F3F5FF"/>
<path d="M87.3868 84.2569C87.3867 81.6204 88.8358 79.1973 91.1586 77.9499L140.541 51.4297C141.904 50.6979 143.554 51.6849 143.554 53.2316V68.6868C143.554 69.0608 143.35 69.405 143.022 69.5843L88.8999 99.151C88.2184 99.5233 87.3869 99.03 87.3869 98.2535L87.3868 84.2569Z" fill="#D9D9D9"/>
<path d="M87.3868 84.2569C87.3867 81.6204 88.8358 79.1973 91.1586 77.9499L140.541 51.4297C141.904 50.6979 143.554 51.6849 143.554 53.2316V68.6868C143.554 69.0608 143.35 69.405 143.022 69.5843L88.8999 99.151C88.2184 99.5233 87.3869 99.03 87.3869 98.2535L87.3868 84.2569Z" fill="#6575B8"/>
<path d="M88.4219 119.739L143.549 91.6556" stroke="url(#paint2_linear_4104_235403)" stroke-width="1.53404" stroke-linecap="round"/>
<path d="M88.4219 131.182L143.549 103.098" stroke="url(#paint3_linear_4104_235403)" stroke-width="1.53404" stroke-linecap="round"/>
<path d="M88.4219 142.11L122.457 124.972" stroke="url(#paint4_linear_4104_235403)" stroke-width="1.53404" stroke-linecap="round"/>
<path d="M92.7578 189.139L112.341 177.879V244.958L92.7578 255.239L92.7578 189.139Z" fill="#A3EB9D"/>
<path d="M81 182.29L92.75 189.144V255.238L81 248.384V182.29Z" fill="#0F2170"/>
<path d="M81 182.29L92.75 189.144V255.238L81 248.384V182.29Z" fill="url(#paint5_linear_4104_235403)"/>
<path d="M81 182.29L100.583 171.52L112.333 177.884L92.75 189.145L81 182.29Z" fill="#C9FFC4"/>
<path d="M150.123 182.385C154.93 179.844 158.401 177.265 161.873 173.572L160.316 179.844C157.444 181.981 154.913 183.96 150.094 186.688L150.123 182.385Z" fill="#9AA5D2"/>
<path d="M242.78 125.156C240.547 146.4 227.063 173.958 210.795 180.203C206.43 181.878 200.651 178.48 197.468 177.148C188.306 173.314 182.233 163.316 183.867 147.771C186.1 126.527 201.098 104.243 217.367 97.9984C227.403 94.1454 241.634 99.5399 246.228 104.095C251.116 108.941 243.931 114.206 242.78 125.156Z" fill="#0F2170"/>
<path d="M242.78 125.156C240.547 146.4 227.063 173.958 210.795 180.203C206.43 181.878 200.651 178.48 197.468 177.148C188.306 173.314 182.233 163.316 183.867 147.771C186.1 126.527 201.098 104.243 217.367 97.9984C227.403 94.1454 241.634 99.5399 246.228 104.095C251.116 108.941 243.931 114.206 242.78 125.156Z" fill="url(#paint6_linear_4104_235403)"/>
<ellipse cx="31.9769" cy="38.6772" rx="31.9769" ry="38.6772" transform="matrix(0.93358 -0.358368 -0.104528 0.994522 197.777 113.659)" fill="#A3EB9D"/>
<ellipse cx="20.1731" cy="24.5421" rx="20.1731" ry="24.5421" transform="matrix(0.93358 -0.358368 -0.104528 0.994522 207.641 123.958)" fill="#57DC4D"/>
<ellipse cx="17.6891" cy="20.6174" rx="17.6891" ry="20.6174" transform="matrix(0.93358 -0.358368 -0.104528 0.994522 205.707 125.132)" fill="#EFF2FF"/>
<path d="M130.953 167.108L150.537 155.848V222.926L130.953 233.208L130.953 167.108Z" fill="#A3EB9D"/>
<path d="M119.191 160.26L130.941 167.114V233.208L119.191 226.354V160.26Z" fill="#0F2170"/>
<path d="M119.191 160.26L130.941 167.114V233.208L119.191 226.354V160.26Z" fill="url(#paint7_linear_4104_235403)"/>
<path d="M119.191 160.26L160.011 137.787C161.718 136.846 163.795 136.874 165.476 137.86L176.962 144.593L130.941 167.114L119.191 160.26Z" fill="#C9FFC4"/>
<path d="M131.245 167.168L175.492 143.126C187.848 150.776 193.035 161.178 175.179 186.482L131.245 211.221L131.245 167.168Z" fill="#A3EB9D"/>
<path d="M150.115 169.771L163.943 162.454C165.506 161.627 167.477 161.6 168.729 162.849C170.308 164.424 171.024 166.395 170.259 169.29C168.811 174.768 163.722 178.322 158.785 181.101L150.115 185.984L150.115 169.771Z" fill="#D9D9D9"/>
<path d="M150.115 169.771L163.943 162.454C165.506 161.627 167.477 161.6 168.729 162.849C170.308 164.424 171.024 166.395 170.259 169.29C168.811 174.768 163.722 178.322 158.785 181.101L150.115 185.984L150.115 169.771Z" fill="#EFF2FF"/>
<path d="M161.54 163.536L164.27 162.316C165.777 161.642 167.58 161.694 168.794 162.811C170.613 164.485 171.587 166.581 170.91 169.41C169.786 174.11 165.261 177.008 161.066 179.408L150.044 185.713C161.685 174.355 167.011 167.939 161.54 163.536Z" fill="#D9D9D9"/>
<path d="M161.54 163.536L164.27 162.316C165.777 161.642 167.58 161.694 168.794 162.811C170.613 164.485 171.587 166.581 170.91 169.41C169.786 174.11 165.261 177.008 161.066 179.408L150.044 185.713C161.685 174.355 167.011 167.939 161.54 163.536Z" fill="#57DC4D"/>
<path d="M196.432 221.112C196.442 220.546 196.43 219.967 196.418 219.39C196.411 219.041 196.404 218.694 196.402 218.351C196.395 217.432 196.423 216.53 196.573 215.673C196.87 213.968 197.65 212.439 199.623 211.329C201.552 210.244 204.705 209.091 208.103 208.222C211.501 207.353 215.13 206.771 218.008 206.822C221.289 206.88 224.983 207.476 228.339 208.419C231.698 209.362 234.704 210.649 236.619 212.083C238.11 213.199 238.685 214.59 238.881 216.099C239.021 217.174 238.968 218.295 238.915 219.421C238.893 219.889 238.871 220.358 238.862 220.825C238.613 224.506 236.206 227.905 232.377 230.364C228.548 232.823 223.308 234.331 217.432 234.227C211.553 234.124 206.262 232.593 202.462 230.209C198.659 227.823 196.37 224.6 196.432 221.112ZM231.972 221.74C232.015 219.31 230.421 217.105 227.861 215.499C225.298 213.891 221.746 212.867 217.811 212.798C213.876 212.728 210.289 213.626 207.671 215.143C205.056 216.657 203.385 218.804 203.342 221.234C203.299 223.671 204.883 225.547 207.429 226.822C209.973 228.097 213.504 228.788 217.43 228.858C221.356 228.927 224.957 228.362 227.593 227.179C230.228 225.996 231.929 224.179 231.972 221.74Z" fill="#CDD6FF" stroke="#0228CA" stroke-width="0.289756"/>
<path d="M196.449 216.892C196.51 213.405 198.912 210.264 202.796 208.014C206.678 205.766 212.019 204.423 217.899 204.527C223.778 204.63 229.069 206.161 232.869 208.545C236.672 210.931 238.961 214.154 238.899 217.642C238.838 221.13 236.436 224.27 232.551 226.52C228.669 228.769 223.328 230.112 217.449 230.008C211.569 229.904 206.279 228.373 202.479 225.989C198.676 223.604 196.387 220.38 196.449 216.892Z" fill="white" stroke="#0228CA" stroke-width="0.289756"/>
<path d="M196.287 213.42C196.351 209.796 195.516 205.784 199.552 203.513C203.441 201.326 212.219 198.886 218.01 198.988C224.602 199.104 232.836 201.38 236.706 204.277C239.765 206.568 239.063 210 239.007 213.142C238.502 220.625 229.232 226.891 217.43 226.683C205.627 226.474 196.161 220.536 196.287 213.42ZM231.828 214.048C231.911 209.329 225.634 205.391 217.808 205.253C209.982 205.115 203.57 208.828 203.487 213.547C203.403 218.266 209.606 220.885 217.433 221.023C225.259 221.162 231.744 218.766 231.828 214.048Z" fill="url(#paint8_linear_4104_235403)"/>
<path d="M196.449 209.203C196.51 205.715 198.912 202.575 202.796 200.325C206.678 198.077 212.019 196.733 217.899 196.837C223.778 196.941 229.069 198.472 232.869 200.856C236.672 203.242 238.961 206.465 238.899 209.953C238.838 213.44 236.436 216.581 232.551 218.831C228.669 221.079 223.328 222.422 217.449 222.319C211.569 222.215 206.279 220.684 202.479 218.3C198.676 215.914 196.387 212.691 196.449 209.203Z" fill="white" stroke="#0228CA" stroke-width="0.289756"/>
<path d="M196.432 205.731C196.442 205.165 196.43 204.586 196.418 204.009C196.411 203.661 196.404 203.313 196.402 202.97C196.395 202.051 196.423 201.149 196.573 200.293C196.87 198.587 197.65 197.059 199.623 195.948C201.552 194.863 204.705 193.71 208.103 192.841C211.501 191.972 215.13 191.391 218.008 191.441C221.289 191.499 224.983 192.095 228.339 193.038C231.698 193.981 234.704 195.268 236.619 196.702C238.11 197.819 238.685 199.21 238.881 200.718C239.021 201.793 238.968 202.914 238.915 204.04C238.893 204.509 238.871 204.977 238.862 205.444C238.613 209.125 236.206 212.525 232.377 214.983C228.548 217.442 223.308 218.95 217.432 218.847C211.553 218.743 206.262 217.212 202.462 214.828C198.659 212.442 196.37 209.219 196.432 205.731ZM231.972 206.359C232.015 203.929 230.421 201.724 227.861 200.118C225.298 198.511 221.746 197.486 217.811 197.417C213.876 197.347 210.289 198.246 207.671 199.762C205.056 201.276 203.385 203.423 203.342 205.853C203.299 208.29 204.883 210.166 207.429 211.441C209.973 212.716 213.504 213.408 217.43 213.477C221.356 213.546 224.957 212.981 227.593 211.798C230.228 210.615 231.929 208.798 231.972 206.359Z" fill="#CDD6FF" stroke="#0228CA" stroke-width="0.289756"/>
<path d="M196.449 201.512C196.51 198.024 198.912 194.883 202.796 192.633C206.678 190.385 212.019 189.042 217.899 189.146C223.778 189.25 229.069 190.781 232.869 193.165C236.672 195.55 238.961 198.774 238.899 202.261C238.838 205.749 236.436 208.89 232.551 211.139C228.669 213.388 223.328 214.731 217.449 214.627C211.569 214.523 206.279 212.992 202.479 210.608C198.676 208.223 196.387 204.999 196.449 201.512Z" fill="white" stroke="#0228CA" stroke-width="0.289756"/>
<path d="M196.287 198.041C196.351 194.417 195.516 190.405 199.552 188.135C203.441 185.947 212.219 183.507 218.01 183.609C224.602 183.726 232.836 186.001 236.706 188.899C239.765 191.189 239.063 194.621 239.007 197.763C238.502 205.246 229.232 211.512 217.43 211.304C205.627 211.096 196.161 205.158 196.287 198.041ZM231.828 198.669C231.911 193.95 225.634 190.012 217.808 189.874C209.982 189.736 203.57 193.449 203.487 198.168C203.403 202.887 209.606 205.506 217.433 205.645C225.259 205.783 231.744 203.388 231.828 198.669Z" fill="url(#paint9_linear_4104_235403)"/>
<path d="M196.449 193.824C196.51 190.336 198.912 187.196 202.796 184.946C206.678 182.698 212.019 181.354 217.899 181.458C223.778 181.562 229.069 183.093 232.869 185.477C236.672 187.863 238.961 191.086 238.899 194.574C238.838 198.062 236.436 201.202 232.551 203.452C228.669 205.7 223.328 207.044 217.449 206.94C211.569 206.836 206.279 205.305 202.479 202.921C198.676 200.535 196.387 197.312 196.449 193.824Z" fill="white" stroke="#0228CA" stroke-width="0.289756"/>
<path d="M196.432 190.35C196.442 189.784 196.43 189.205 196.418 188.628C196.411 188.28 196.404 187.932 196.402 187.589C196.395 186.67 196.423 185.769 196.573 184.912C196.87 183.207 197.65 181.678 199.623 180.567C201.552 179.482 204.705 178.329 208.103 177.46C211.501 176.591 215.13 176.01 218.008 176.061C221.289 176.119 224.983 176.714 228.339 177.657C231.698 178.6 234.704 179.888 236.619 181.321C238.11 182.438 238.685 183.829 238.881 185.337C239.021 186.412 238.968 187.533 238.915 188.66C238.893 189.128 238.871 189.597 238.862 190.063C238.613 193.744 236.206 197.144 232.377 199.603C228.548 202.061 223.308 203.57 217.432 203.466C211.553 203.362 206.262 201.831 202.462 199.447C198.659 197.061 196.37 193.838 196.432 190.35ZM231.972 190.978C232.015 188.548 230.421 186.343 227.861 184.737C225.298 183.13 221.746 182.105 217.811 182.036C213.876 181.966 210.289 182.865 207.671 184.381C205.056 185.896 203.385 188.042 203.342 190.472C203.299 192.909 204.883 194.785 207.429 196.06C209.973 197.335 213.504 198.027 217.43 198.096C221.356 198.165 224.957 197.6 227.593 196.417C230.228 195.234 231.929 193.417 231.972 190.978Z" fill="#CDD6FF" stroke="#0228CA" stroke-width="0.289756"/>
<path d="M196.449 186.131C196.51 182.643 198.912 179.502 202.796 177.253C206.678 175.004 212.019 173.661 217.899 173.765C223.778 173.869 229.069 175.4 232.869 177.784C236.672 180.169 238.961 183.393 238.899 186.88C238.838 190.368 236.436 193.509 232.551 195.759C228.669 198.007 223.328 199.35 217.449 199.246C211.569 199.142 206.279 197.611 202.479 195.227C198.676 192.842 196.387 189.618 196.449 186.131Z" fill="white" stroke="#0228CA" stroke-width="0.289756"/>
<path d="M196.287 182.659C196.351 179.035 195.516 175.024 199.552 172.753C203.441 170.565 212.219 168.125 218.01 168.227C224.602 168.344 232.836 170.619 236.706 173.517C239.765 175.808 239.063 179.239 239.007 182.381C238.502 189.864 229.232 196.131 217.43 195.922C205.627 195.714 196.161 189.776 196.287 182.659ZM231.828 183.287C231.911 178.568 225.634 174.63 217.808 174.492C209.982 174.354 203.57 178.067 203.487 182.786C203.403 187.505 209.606 190.124 217.433 190.263C225.259 190.401 231.744 188.006 231.828 183.287Z" fill="url(#paint10_linear_4104_235403)"/>
<path d="M196.449 178.443C196.51 174.956 198.912 171.815 202.796 169.565C206.678 167.317 212.019 165.974 217.899 166.077C223.778 166.181 229.069 167.712 232.869 170.096C236.672 172.482 238.961 175.705 238.899 179.193C238.838 182.681 236.436 185.821 232.551 188.071C228.669 190.319 223.328 191.663 217.449 191.559C211.569 191.455 206.279 189.924 202.479 187.54C198.676 185.154 196.387 181.931 196.449 178.443Z" fill="white" stroke="#0228CA" stroke-width="0.289756"/>
<path d="M163.826 240.484C163.836 239.918 163.825 239.339 163.813 238.762C163.805 238.414 163.798 238.066 163.796 237.723C163.79 236.804 163.818 235.902 163.967 235.046C164.265 233.34 165.044 231.812 167.018 230.701C168.946 229.616 172.099 228.463 175.498 227.594C178.896 226.725 182.524 226.144 185.402 226.194C188.684 226.252 192.378 226.848 195.734 227.791C199.092 228.734 202.099 230.021 204.014 231.455C205.505 232.572 206.079 233.962 206.275 235.471C206.415 236.546 206.362 237.667 206.309 238.793C206.287 239.261 206.265 239.73 206.257 240.197C206.007 243.878 203.601 247.277 199.771 249.736C195.942 252.195 190.703 253.703 184.827 253.6C178.947 253.496 173.657 251.965 169.857 249.581C166.054 247.195 163.765 243.972 163.826 240.484ZM199.367 241.112C199.41 238.682 197.816 236.477 195.255 234.871C192.692 233.264 189.14 232.239 185.205 232.17C181.27 232.1 177.684 232.998 175.066 234.515C172.451 236.029 170.779 238.176 170.736 240.606C170.693 243.043 172.278 244.919 174.823 246.194C177.368 247.469 180.899 248.16 184.824 248.23C188.75 248.299 192.351 247.734 194.987 246.551C197.623 245.368 199.324 243.551 199.367 241.112Z" fill="#CDD6FF" stroke="#0228CA" stroke-width="0.289756"/>
<path d="M163.843 236.266C163.905 232.779 166.306 229.638 170.191 227.388C174.073 225.14 179.414 223.797 185.293 223.901C191.173 224.004 196.463 225.536 200.263 227.919C204.066 230.305 206.355 233.528 206.294 237.016C206.232 240.504 203.831 243.644 199.946 245.894C196.064 248.143 190.723 249.486 184.843 249.382C178.964 249.278 173.674 247.747 169.873 245.363C166.071 242.978 163.781 239.754 163.843 236.266Z" fill="white" stroke="#0228CA" stroke-width="0.289756"/>
<path d="M163.682 232.79C163.746 229.166 162.911 225.154 166.946 222.884C170.835 220.696 179.613 218.256 185.405 218.358C191.996 218.475 200.23 220.75 204.1 223.648C207.16 225.938 206.457 229.37 206.402 232.512C205.897 239.995 196.627 246.261 184.824 246.053C173.022 245.845 163.556 239.907 163.682 232.79ZM199.222 233.418C199.305 228.699 193.029 224.761 185.203 224.623C177.376 224.485 170.965 228.198 170.881 232.917C170.798 237.636 177.001 240.255 184.827 240.394C192.653 240.532 199.139 238.137 199.222 233.418Z" fill="url(#paint11_linear_4104_235403)"/>
<path d="M163.843 228.574C163.905 225.086 166.306 221.946 170.191 219.696C174.073 217.448 179.414 216.104 185.293 216.208C191.173 216.312 196.463 217.843 200.263 220.227C204.066 222.613 206.355 225.836 206.294 229.324C206.232 232.812 203.831 235.952 199.946 238.202C196.064 240.45 190.723 241.794 184.843 241.69C178.964 241.586 173.674 240.055 169.873 237.671C166.071 235.285 163.781 232.062 163.843 228.574Z" fill="white" stroke="#0228CA" stroke-width="0.289756"/>
<path d="M163.826 225.104C163.836 224.538 163.825 223.959 163.813 223.382C163.805 223.034 163.798 222.686 163.796 222.343C163.79 221.424 163.818 220.523 163.967 219.666C164.265 217.96 165.044 216.432 167.018 215.321C168.946 214.236 172.099 213.083 175.498 212.214C178.896 211.345 182.524 210.764 185.402 210.815C188.684 210.872 192.378 211.468 195.734 212.411C199.092 213.354 202.099 214.641 204.014 216.075C205.505 217.192 206.079 218.583 206.275 220.091C206.415 221.166 206.362 222.287 206.309 223.413C206.287 223.882 206.265 224.351 206.257 224.817C206.007 228.498 203.601 231.898 199.771 234.356C195.942 236.815 190.703 238.323 184.827 238.22C178.947 238.116 173.657 236.585 169.857 234.201C166.054 231.815 163.765 228.592 163.826 225.104ZM199.367 225.732C199.41 223.302 197.816 221.097 195.255 219.491C192.692 217.884 189.14 216.859 185.205 216.79C181.27 216.72 177.684 217.619 175.066 219.135C172.451 220.649 170.779 222.796 170.736 225.226C170.693 227.663 172.278 229.539 174.823 230.814C177.368 232.089 180.899 232.781 184.824 232.85C188.75 232.919 192.351 232.354 194.987 231.171C197.623 229.988 199.324 228.171 199.367 225.732Z" fill="#CDD6FF" stroke="#0228CA" stroke-width="0.289756"/>
<path d="M163.843 220.885C163.905 217.397 166.306 214.256 170.191 212.007C174.073 209.758 179.414 208.415 185.293 208.519C191.173 208.623 196.463 210.154 200.263 212.538C204.066 214.923 206.355 218.147 206.294 221.634C206.232 225.122 203.831 228.263 199.946 230.512C196.064 232.761 190.723 234.104 184.843 234C178.964 233.896 173.674 232.365 169.873 229.981C166.071 227.596 163.781 224.372 163.843 220.885Z" fill="white" stroke="#0228CA" stroke-width="0.289756"/>
<defs>
<linearGradient id="paint0_linear_4104_235403" x1="126.299" y1="59.628" x2="111.404" y2="108.575" gradientUnits="userSpaceOnUse">
<stop stop-color="#8DA3FF"/>
<stop offset="1" stop-color="#0228CA"/>
</linearGradient>
<linearGradient id="paint1_linear_4104_235403" x1="133.171" y1="93.5554" x2="49.9851" y2="218.839" gradientUnits="userSpaceOnUse">
<stop stop-color="#8DA3FF"/>
<stop offset="1" stop-color="#0228CA"/>
</linearGradient>
<linearGradient id="paint2_linear_4104_235403" x1="116.212" y1="106.143" x2="117.109" y2="107.924" gradientUnits="userSpaceOnUse">
<stop stop-color="#8EA3FF"/>
<stop offset="1" stop-color="#0228CA"/>
</linearGradient>
<linearGradient id="paint3_linear_4104_235403" x1="116.212" y1="117.585" x2="117.109" y2="119.366" gradientUnits="userSpaceOnUse">
<stop stop-color="#8EA3FF"/>
<stop offset="1" stop-color="#0228CA"/>
</linearGradient>
<linearGradient id="paint4_linear_4104_235403" x1="116.222" y1="128.532" x2="117.154" y2="130.384" gradientUnits="userSpaceOnUse">
<stop stop-color="#8EA3FF"/>
<stop offset="1" stop-color="#0228CA"/>
</linearGradient>
<linearGradient id="paint5_linear_4104_235403" x1="89.945" y1="201.065" x2="52.0709" y2="236.021" gradientUnits="userSpaceOnUse">
<stop stop-color="#57DD4E"/>
<stop offset="1" stop-color="#54B54B"/>
</linearGradient>
<linearGradient id="paint6_linear_4104_235403" x1="233.171" y1="112.44" x2="246.085" y2="195.515" gradientUnits="userSpaceOnUse">
<stop stop-color="#57DD4E"/>
<stop offset="1" stop-color="#54B54B"/>
</linearGradient>
<linearGradient id="paint7_linear_4104_235403" x1="128.136" y1="179.035" x2="90.2623" y2="213.991" gradientUnits="userSpaceOnUse">
<stop stop-color="#57DD4E"/>
<stop offset="1" stop-color="#54B54B"/>
</linearGradient>
<linearGradient id="paint8_linear_4104_235403" x1="205.453" y1="219.617" x2="211.756" y2="191.799" gradientUnits="userSpaceOnUse">
<stop stop-color="#8DA3FF"/>
<stop offset="1" stop-color="#0228CA"/>
</linearGradient>
<linearGradient id="paint9_linear_4104_235403" x1="205.453" y1="204.238" x2="211.756" y2="176.421" gradientUnits="userSpaceOnUse">
<stop stop-color="#8DA3FF"/>
<stop offset="1" stop-color="#0228CA"/>
</linearGradient>
<linearGradient id="paint10_linear_4104_235403" x1="205.453" y1="188.856" x2="211.756" y2="161.039" gradientUnits="userSpaceOnUse">
<stop stop-color="#8DA3FF"/>
<stop offset="1" stop-color="#0228CA"/>
</linearGradient>
<linearGradient id="paint11_linear_4104_235403" x1="172.848" y1="238.987" x2="179.151" y2="211.17" gradientUnits="userSpaceOnUse">
<stop stop-color="#8DA3FF"/>
<stop offset="1" stop-color="#0228CA"/>
</linearGradient>
</defs>
</svg>
