<svg width="326" height="309" viewBox="0 0 326 309" fill="none" xmlns="http://www.w3.org/2000/svg">
<rect x="0.105469" y="0.0585938" width="325.285" height="308" rx="14.4571" fill="#E8ECFF"/>
<path d="M92.1379 122.162H95.5419L78.9001 158.32H75.4961L92.1379 122.162Z" fill="#55CA4C"/>
<path d="M87.8497 152.571V217.323L103.105 208.397V143.948L111.552 138.804L95.5402 122.162L78.8984 158.32L87.8497 152.571Z" fill="#A3EB9D"/>
<path d="M87.8497 217.474V152.571L84.3196 154.838V215.205L87.8497 217.474Z" fill="#55CA4C"/>
<path d="M127.993 89.4834H131.397L114.756 124.436H111.352L127.993 89.4834Z" fill="#55CA4C"/>
<path d="M123.705 118.879V181.472L138.96 172.844V110.543L147.407 105.57L131.396 89.4834L114.754 124.436L123.705 118.879Z" fill="#A3EB9D"/>
<path d="M123.705 181.618V118.879L120.175 121.071V179.425L123.705 181.618Z" fill="#55CA4C"/>
<path d="M162.489 55.8975H165.893L149.252 93.6052H145.848L162.489 55.8975Z" fill="#55CA4C"/>
<path d="M158.201 87.6098V155.137L173.456 145.828V78.6168L181.903 73.2525L165.892 55.8975L149.25 93.6052L158.201 87.6098Z" fill="#A3EB9D"/>
<path d="M158.201 155.295V87.6104L154.671 89.9747V152.928L158.201 155.295Z" fill="#55CA4C"/>
<path d="M119.82 244.655V218.613L218.464 161.268V187.31L119.82 244.655Z" fill="#BFCBFF"/>
<path d="M75.4961 194.189L119.82 218.39V244.432L75.4961 220.231V194.189Z" fill="#8EA3FF"/>
<path d="M176.508 137.594L75.4961 194.413L119.82 218.613L218.464 161.268L176.508 137.594Z" fill="#CFD8FF"/>
<path d="M75.4961 198.885L119.82 223.085L218.464 165.74" stroke="#DADEEF" stroke-width="0.817287"/>
<path d="M75.4961 200.239L119.82 224.44L218.464 167.095" stroke="#DADEEF" stroke-width="0.817287"/>
<path d="M75.4961 205.238L119.82 229.439L218.464 172.094" stroke="#DADEEF" stroke-width="0.817287"/>
<path d="M75.4961 206.815L119.82 231.016L218.464 173.671" stroke="#DADEEF" stroke-width="0.817287"/>
<path d="M75.4961 209.71L119.82 233.911L218.464 176.565" stroke="#DADEEF" stroke-width="0.817287"/>
<path d="M75.4961 214.708L119.82 238.909L218.464 181.563" stroke="#DADEEF" stroke-width="0.817287"/>
<path d="M75.4961 216.022L119.82 240.223L218.464 182.878" stroke="#DADEEF" stroke-width="0.817287"/>
<path d="M193.605 201.647V175.736L176.77 185.469L177.164 211.511L193.605 201.647Z" fill="#E0E0E0"/>
<path d="M134.684 161.138L176.772 185.47L193.607 175.737L150.73 152.062L134.684 161.138Z" fill="white"/>
<path d="M207.133 111.223C202.948 109.197 191.777 111.072 186.709 113.492C186.482 119.695 187.935 133.054 195.56 136.866C203.185 140.679 212.504 133.916 216.211 130.058C214.471 124.536 214.168 114.627 207.133 111.223Z" fill="#A3EB9D"/>
<path d="M195.769 209.532L193.727 185.478H246.148L243.425 209.532C242.971 213.088 237.797 220.335 220.732 220.879C203.666 221.424 196.979 213.542 195.769 209.532Z" fill="#BFCBFF"/>
<path d="M190.548 181.619L189.867 172.088L249.097 170.727L248.189 182.981C246.071 186.461 237.432 193.556 219.822 194.101C202.212 194.645 192.969 186.007 190.548 181.619Z" fill="url(#paint0_linear_4104_235416)"/>
<ellipse cx="219.365" cy="170.046" rx="29.9552" ry="17.9278" fill="white"/>
<ellipse cx="219.371" cy="169.365" rx="23.6011" ry="13.1621" fill="#BFCBFF"/>
<path d="M213.469 170.282V104.916H225.269V107.918V171.282C224.815 172.005 222.909 173.45 218.915 173.45C214.921 173.45 213.62 171.338 213.469 170.282Z" fill="url(#paint1_linear_4104_235416)"/>
<path d="M211.424 42.0119L200.305 47.6852L230.714 106.688L244.557 97.8375C247.204 92.7694 250.956 78.0489 241.153 61.5282C231.349 45.0074 217.249 41.6336 211.424 42.0119Z" fill="url(#paint2_linear_4104_235416)"/>
<path d="M234.573 73.3295C240.7 86.7186 240.927 103.528 228.9 107.597C216.078 111.934 200.414 97.0311 195.314 81.9532C190.214 66.8752 189.187 53.3594 199.626 47.686C211.88 42.0126 228.9 57.6711 234.573 73.3295Z" fill="white"/>
<path d="M229.625 74.8094C234.46 85.5601 234.893 98.9413 225.874 101.992C216.259 105.244 204.199 93.1406 200.113 81.0618C196.028 68.9831 195.042 58.2108 202.836 53.8581C212.002 49.5336 225.097 62.2597 229.625 74.8094Z" fill="#BFCBFF"/>
<path d="M227.537 126.409C222.817 132.036 221.637 143.126 221.637 147.967C223.603 149.858 229.806 153.368 238.884 152.279C247.961 151.19 249.474 135.183 249.096 127.316C243.876 124.669 232.257 120.781 227.537 126.409Z" fill="#A3EB9D"/>
<path d="M166.34 224.358C166.348 223.912 166.339 223.455 166.329 223C166.324 222.726 166.318 222.453 166.316 222.183C166.311 221.461 166.333 220.753 166.451 220.081C166.684 218.745 167.293 217.55 168.837 216.682C170.353 215.829 172.832 214.922 175.507 214.238C178.182 213.554 181.036 213.097 183.298 213.137C185.879 213.182 188.785 213.651 191.425 214.393C194.068 215.135 196.432 216.147 197.935 217.273C199.101 218.146 199.55 219.233 199.704 220.414C199.814 221.258 199.772 222.137 199.73 223.022C199.713 223.391 199.696 223.761 199.689 224.131C199.493 227.016 197.606 229.685 194.596 231.617C191.587 233.55 187.467 234.736 182.846 234.654C178.221 234.573 174.061 233.368 171.074 231.495C168.084 229.619 166.292 227.09 166.34 224.358ZM194.325 224.853C194.359 222.924 193.094 221.18 191.073 219.912C189.05 218.643 186.247 217.835 183.144 217.78C180.041 217.725 177.211 218.434 175.144 219.631C173.08 220.826 171.754 222.525 171.72 224.453C171.685 226.389 172.945 227.875 174.955 228.882C176.964 229.888 179.749 230.433 182.843 230.488C185.937 230.542 188.777 230.097 190.859 229.163C192.939 228.229 194.291 226.79 194.325 224.853Z" fill="#CDD6FF" stroke="#0228CA" stroke-width="0.289756"/>
<path d="M166.353 221.036C166.401 218.305 168.282 215.84 171.336 214.072C174.387 212.305 178.587 211.248 183.212 211.329C187.837 211.411 191.997 212.616 194.984 214.489C197.973 216.365 199.766 218.894 199.718 221.626C199.67 224.357 197.789 226.822 194.735 228.59C191.684 230.357 187.484 231.414 182.859 231.332C178.234 231.251 174.074 230.046 171.087 228.173C168.098 226.297 166.305 223.768 166.353 221.036Z" fill="white" stroke="#0228CA" stroke-width="0.289756"/>
<path d="M166.195 218.301C166.246 215.447 165.588 212.289 168.766 210.501C171.828 208.778 178.74 206.857 183.3 206.937C188.491 207.029 194.974 208.82 198.022 211.102C200.431 212.906 199.877 215.608 199.834 218.082C199.436 223.975 192.137 228.909 182.843 228.745C173.55 228.58 166.096 223.905 166.195 218.301ZM194.18 218.795C194.246 215.08 189.304 211.979 183.141 211.87C176.979 211.761 171.93 214.685 171.864 218.401C171.799 222.117 176.683 224.179 182.846 224.288C189.008 224.397 194.115 222.511 194.18 218.795Z" fill="url(#paint3_linear_4104_235416)"/>
<path d="M166.353 214.983C166.401 212.251 168.282 209.787 171.336 208.018C174.387 206.251 178.587 205.194 183.212 205.276C187.837 205.357 191.997 206.562 194.984 208.436C197.973 210.311 199.766 212.84 199.718 215.572C199.67 218.303 197.789 220.768 194.735 222.537C191.684 224.304 187.484 225.36 182.859 225.279C178.234 225.197 174.074 223.993 171.087 222.119C168.098 220.243 166.305 217.714 166.353 214.983Z" fill="white" stroke="#0228CA" stroke-width="0.289756"/>
<path d="M166.34 212.246C166.348 211.8 166.339 211.343 166.329 210.888C166.324 210.614 166.318 210.341 166.316 210.071C166.311 209.348 166.333 208.64 166.451 207.968C166.684 206.633 167.293 205.438 168.837 204.569C170.353 203.717 172.832 202.809 175.507 202.125C178.182 201.441 181.036 200.984 183.298 201.024C185.879 201.07 188.785 201.538 191.425 202.28C194.068 203.023 196.432 204.035 197.935 205.161C199.101 206.034 199.55 207.12 199.704 208.302C199.814 209.146 199.772 210.024 199.73 210.91C199.713 211.279 199.696 211.649 199.689 212.018C199.493 214.904 197.606 217.573 194.596 219.505C191.587 221.437 187.467 222.624 182.846 222.542C178.221 222.46 174.061 221.256 171.074 219.382C168.084 217.507 166.292 214.977 166.34 212.246ZM194.325 212.74C194.359 210.812 193.094 209.068 191.073 207.8C189.05 206.53 186.247 205.723 183.144 205.668C180.041 205.613 177.211 206.321 175.144 207.519C173.08 208.714 171.754 210.413 171.72 212.341C171.685 214.277 172.945 215.762 174.955 216.769C176.964 217.776 179.749 218.321 182.843 218.375C185.937 218.43 188.777 217.985 190.859 217.051C192.939 216.117 194.291 214.678 194.325 212.74Z" fill="#CDD6FF" stroke="#0228CA" stroke-width="0.289756"/>
<path d="M166.353 208.924C166.401 206.193 168.282 203.728 171.336 201.959C174.387 200.192 178.587 199.135 183.212 199.217C187.837 199.299 191.997 200.503 194.984 202.377C197.973 204.252 199.766 206.782 199.718 209.513C199.67 212.245 197.789 214.709 194.735 216.478C191.684 218.245 187.484 219.302 182.859 219.22C178.234 219.138 174.074 217.934 171.087 216.06C168.098 214.185 166.305 211.655 166.353 208.924Z" fill="white" stroke="#0228CA" stroke-width="0.289756"/>
<path d="M166.195 206.19C166.246 203.336 165.588 200.177 168.766 198.389C171.828 196.666 178.74 194.745 183.3 194.826C188.491 194.918 194.974 196.709 198.022 198.991C200.431 200.795 199.877 203.497 199.834 205.971C199.436 211.863 192.137 216.797 182.843 216.633C173.55 216.469 166.096 211.793 166.195 206.19ZM194.18 206.684C194.246 202.968 189.304 199.868 183.141 199.759C176.979 199.65 171.93 202.574 171.864 206.29C171.799 210.006 176.683 212.068 182.846 212.177C189.008 212.286 194.115 210.4 194.18 206.684Z" fill="url(#paint4_linear_4104_235416)"/>
<path d="M166.353 202.87C166.401 200.139 168.282 197.674 171.336 195.906C174.387 194.139 178.587 193.082 183.212 193.163C187.837 193.245 191.997 194.45 194.984 196.323C197.973 198.199 199.766 200.728 199.718 203.459C199.67 206.191 197.789 208.656 194.735 210.424C191.684 212.191 187.484 213.248 182.859 213.166C178.234 213.085 174.074 211.88 171.087 210.007C168.098 208.131 166.305 205.602 166.353 202.87Z" fill="white" stroke="#0228CA" stroke-width="0.289756"/>
<path d="M166.344 200.136C166.352 199.69 166.342 199.232 166.333 198.777C166.327 198.503 166.322 198.23 166.32 197.961C166.315 197.238 166.337 196.53 166.454 195.858C166.688 194.523 167.297 193.328 168.841 192.459C170.356 191.606 172.836 190.699 175.511 190.015C178.185 189.331 181.04 188.874 183.302 188.914C185.883 188.96 188.789 189.428 191.429 190.17C194.072 190.912 196.436 191.925 197.939 193.05C199.105 193.923 199.554 195.01 199.708 196.192C199.817 197.035 199.776 197.914 199.734 198.799C199.717 199.168 199.699 199.539 199.693 199.908C199.497 202.793 197.61 205.462 194.6 207.395C191.591 209.327 187.471 210.513 182.85 210.432C178.225 210.35 174.065 209.146 171.078 207.272C168.088 205.397 166.296 202.867 166.344 200.136ZM194.329 200.63C194.363 198.701 193.098 196.957 191.077 195.689C189.054 194.42 186.251 193.612 183.148 193.557C180.045 193.503 177.215 194.211 175.148 195.408C173.084 196.604 171.758 198.302 171.723 200.231C171.689 202.166 172.949 203.652 174.958 204.659C176.968 205.666 179.753 206.21 182.847 206.265C185.941 206.32 188.781 205.874 190.863 204.94C192.943 204.006 194.295 202.568 194.329 200.63Z" fill="#CDD6FF" stroke="#0228CA" stroke-width="0.289756"/>
<path d="M166.357 196.815C166.405 194.083 168.286 191.619 171.34 189.85C174.391 188.083 178.591 187.026 183.216 187.108C187.841 187.189 192.001 188.394 194.988 190.268C197.977 192.143 199.77 194.673 199.722 197.404C199.674 200.135 197.793 202.6 194.739 204.369C191.688 206.136 187.488 207.192 182.863 207.111C178.238 207.029 174.078 205.825 171.091 203.951C168.102 202.076 166.309 199.546 166.357 196.815Z" fill="white" stroke="#0228CA" stroke-width="0.289756"/>
<path d="M166.195 194.079C166.246 191.226 165.588 188.067 168.766 186.279C171.828 184.556 178.74 182.635 183.3 182.715C188.491 182.807 194.974 184.599 198.022 186.88C200.431 188.684 199.877 191.387 199.834 193.861C199.436 199.753 192.137 204.687 182.843 204.523C173.55 204.359 166.096 199.683 166.195 194.079ZM194.18 194.574C194.246 190.858 189.304 187.757 183.141 187.649C176.979 187.54 171.93 190.464 171.864 194.18C171.799 197.895 176.683 199.958 182.846 200.067C189.008 200.175 194.115 198.289 194.18 194.574Z" fill="url(#paint5_linear_4104_235416)"/>
<path d="M166.353 190.761C166.401 188.03 168.282 185.565 171.336 183.796C174.387 182.029 178.587 180.972 183.212 181.054C187.837 181.136 191.997 182.34 194.984 184.214C197.973 186.089 199.766 188.619 199.718 191.35C199.67 194.081 197.789 196.546 194.735 198.315C191.684 200.082 187.484 201.139 182.859 201.057C178.234 200.975 174.074 199.771 171.087 197.897C168.098 196.022 166.305 193.492 166.353 190.761Z" fill="white" stroke="#0228CA" stroke-width="0.289756"/>
<path d="M133.656 238.87C133.664 238.424 133.655 237.967 133.646 237.512C133.64 237.238 133.634 236.965 133.633 236.695C133.628 235.972 133.65 235.264 133.767 234.593C134 233.257 134.609 232.062 136.153 231.193C137.669 230.341 140.149 229.433 142.824 228.749C145.498 228.065 148.352 227.608 150.614 227.648C153.195 227.694 156.101 228.163 158.742 228.904C161.385 229.647 163.748 230.659 165.251 231.785C166.417 232.658 166.867 233.744 167.02 234.926C167.13 235.77 167.089 236.648 167.047 237.534C167.029 237.903 167.012 238.273 167.005 238.642C166.809 241.528 164.922 244.197 161.913 246.129C158.903 248.061 154.784 249.248 150.162 249.166C145.537 249.084 141.377 247.88 138.39 246.006C135.401 244.131 133.608 241.601 133.656 238.87ZM161.642 239.364C161.676 237.436 160.411 235.692 158.39 234.424C156.366 233.154 153.563 232.347 150.46 232.292C147.357 232.237 144.527 232.945 142.46 234.143C140.396 235.338 139.07 237.037 139.036 238.965C139.002 240.901 140.261 242.386 142.271 243.393C144.28 244.4 147.066 244.945 150.159 245C153.253 245.054 156.094 244.609 158.175 243.675C160.256 242.741 161.607 241.302 161.642 239.364Z" fill="#CDD6FF" stroke="#0228CA" stroke-width="0.289756"/>
<path d="M133.67 235.549C133.718 232.818 135.599 230.353 138.653 228.584C141.704 226.817 145.904 225.76 150.529 225.842C155.153 225.924 159.313 227.128 162.3 229.002C165.29 230.877 167.083 233.407 167.034 236.138C166.986 238.87 165.105 241.334 162.051 243.103C159 244.87 154.8 245.927 150.175 245.845C145.55 245.763 141.39 244.559 138.404 242.685C135.414 240.81 133.621 238.28 133.67 235.549Z" fill="white" stroke="#0228CA" stroke-width="0.289756"/>
<path d="M133.512 232.813C133.562 229.959 132.905 226.8 136.082 225.012C139.145 223.29 146.056 221.368 150.617 221.449C155.807 221.541 162.291 223.332 165.338 225.614C167.747 227.418 167.194 230.12 167.15 232.594C166.753 238.486 159.453 243.42 150.16 243.256C140.866 243.092 133.413 238.416 133.512 232.813ZM161.497 233.307C161.562 229.591 156.62 226.491 150.458 226.382C144.295 226.273 139.246 229.197 139.181 232.913C139.115 236.629 144 238.691 150.162 238.8C156.324 238.909 161.431 237.023 161.497 233.307Z" fill="url(#paint6_linear_4104_235416)"/>
<path d="M133.67 229.494C133.718 226.763 135.599 224.298 138.653 222.53C141.704 220.763 145.904 219.706 150.529 219.787C155.153 219.869 159.313 221.074 162.3 222.947C165.29 224.823 167.083 227.352 167.034 230.084C166.986 232.815 165.105 235.28 162.051 237.048C159 238.815 154.8 239.872 150.175 239.79C145.55 239.709 141.39 238.504 138.404 236.631C135.414 234.755 133.621 232.226 133.67 229.494Z" fill="white" stroke="#0228CA" stroke-width="0.289756"/>
<path d="M133.656 226.761C133.664 226.315 133.655 225.857 133.646 225.402C133.64 225.128 133.634 224.855 133.633 224.586C133.628 223.863 133.65 223.155 133.767 222.483C134 221.148 134.609 219.953 136.153 219.084C137.669 218.231 140.149 217.324 142.824 216.64C145.498 215.956 148.352 215.499 150.614 215.539C153.195 215.585 156.101 216.053 158.742 216.795C161.385 217.537 163.748 218.55 165.251 219.675C166.417 220.548 166.867 221.635 167.02 222.817C167.13 223.66 167.089 224.539 167.047 225.424C167.029 225.793 167.012 226.164 167.005 226.533C166.809 229.418 164.922 232.087 161.913 234.02C158.903 235.952 154.784 237.138 150.162 237.057C145.537 236.975 141.377 235.771 138.39 233.897C135.401 232.022 133.608 229.492 133.656 226.761ZM161.642 227.255C161.676 225.326 160.411 223.582 158.39 222.314C156.366 221.045 153.563 220.237 150.46 220.182C147.357 220.128 144.527 220.836 142.46 222.033C140.396 223.229 139.07 224.927 139.036 226.856C139.002 228.791 140.261 230.277 142.271 231.284C144.28 232.291 147.066 232.835 150.159 232.89C153.253 232.945 156.094 232.499 158.175 231.565C160.256 230.631 161.607 229.193 161.642 227.255Z" fill="#CDD6FF" stroke="#0228CA" stroke-width="0.289756"/>
<path d="M133.67 223.439C133.718 220.707 135.599 218.243 138.653 216.474C141.704 214.707 145.904 213.65 150.529 213.732C155.153 213.813 159.313 215.018 162.3 216.892C165.29 218.767 167.083 221.297 167.034 224.028C166.986 226.759 165.105 229.224 162.051 230.993C159 232.76 154.8 233.816 150.175 233.735C145.55 233.653 141.39 232.449 138.404 230.575C135.414 228.7 133.621 226.17 133.67 223.439Z" fill="white" stroke="#0228CA" stroke-width="0.289756"/>
<path d="M214.973 93.8381L220.078 96.4959L210.521 78.8181C212.223 79.4228 215.437 78.3887 217.293 76.4986C219.15 74.6086 218.615 70.7751 217.842 68.9891L223.2 71.1023V67.4714L204.848 57.4863V61.4374C206.62 62.464 210.467 64.7281 211.682 65.5719C213.201 66.6266 216.576 70.761 214.003 73.1236C211.944 75.0136 207.738 74.6142 205.755 73.1236L206.209 78.8181L214.973 93.8381Z" fill="#0228CA"/>
<path d="M205.301 69.0598V64.748L222.904 73.8828V77.9102L205.301 69.0598Z" fill="#0228CA"/>
<path d="M159.981 244.018C159.989 243.571 159.979 243.114 159.97 242.659C159.964 242.385 159.959 242.112 159.957 241.843C159.952 241.12 159.974 240.412 160.091 239.74C160.324 238.405 160.933 237.21 162.478 236.341C163.993 235.488 166.473 234.581 169.148 233.897C171.822 233.213 174.676 232.756 176.938 232.796C179.52 232.841 182.426 233.31 185.066 234.052C187.709 234.794 190.072 235.806 191.575 236.932C192.741 237.805 193.191 238.892 193.344 240.073C193.454 240.917 193.413 241.796 193.371 242.681C193.354 243.05 193.336 243.42 193.33 243.79C193.134 246.675 191.247 249.344 188.237 251.277C185.227 253.209 181.108 254.395 176.486 254.314C171.862 254.232 167.702 253.028 164.715 251.154C161.725 249.278 159.932 246.749 159.981 244.018ZM187.966 244.512C188 242.583 186.735 240.839 184.714 239.571C182.69 238.302 179.887 237.494 176.784 237.439C173.681 237.384 170.852 238.093 168.785 239.29C166.72 240.486 165.394 242.184 165.36 244.113C165.326 246.048 166.585 247.534 168.595 248.541C170.605 249.548 173.39 250.092 176.484 250.147C179.577 250.202 182.418 249.756 184.499 248.822C186.58 247.888 187.932 246.449 187.966 244.512Z" fill="#CDD6FF" stroke="#0228CA" stroke-width="0.289756"/>
<path d="M159.994 240.697C160.042 237.966 161.923 235.501 164.977 233.733C168.028 231.966 172.228 230.909 176.853 230.991C181.478 231.072 185.638 232.277 188.625 234.15C191.614 236.026 193.407 238.555 193.359 241.287C193.31 244.018 191.429 246.483 188.376 248.251C185.324 250.018 181.124 251.075 176.5 250.994C171.875 250.912 167.715 249.707 164.728 247.834C161.738 245.958 159.946 243.429 159.994 240.697Z" fill="white" stroke="#0228CA" stroke-width="0.289756"/>
<path d="M159.836 237.96C159.886 235.106 159.229 231.948 162.407 230.16C165.469 228.437 172.381 226.516 176.941 226.596C182.131 226.688 188.615 228.479 191.662 230.761C194.071 232.565 193.518 235.267 193.474 237.741C193.077 243.634 185.777 248.568 176.484 248.404C167.19 248.24 159.737 243.564 159.836 237.96ZM187.821 238.454C187.887 234.739 182.944 231.638 176.782 231.529C170.619 231.421 165.571 234.345 165.505 238.06C165.439 241.776 170.324 243.839 176.486 243.947C182.649 244.056 187.755 242.17 187.821 238.454Z" fill="url(#paint7_linear_4104_235416)"/>
<path d="M159.994 234.641C160.042 231.909 161.923 229.445 164.977 227.676C168.028 225.909 172.228 224.852 176.853 224.934C181.478 225.016 185.638 226.22 188.625 228.094C191.614 229.969 193.407 232.499 193.359 235.23C193.31 237.961 191.429 240.426 188.376 242.195C185.324 243.962 181.124 245.019 176.5 244.937C171.875 244.855 167.715 243.651 164.728 241.777C161.738 239.902 159.946 237.372 159.994 234.641Z" fill="white" stroke="#0228CA" stroke-width="0.289756"/>
<path d="M159.981 231.908C159.989 231.462 159.979 231.005 159.97 230.55C159.964 230.276 159.959 230.003 159.957 229.733C159.952 229.01 159.974 228.303 160.091 227.631C160.324 226.295 160.933 225.1 162.478 224.231C163.993 223.379 166.473 222.472 169.148 221.787C171.822 221.104 174.676 220.647 176.938 220.687C179.52 220.732 182.426 221.201 185.066 221.942C187.709 222.685 190.072 223.697 191.575 224.823C192.741 225.696 193.191 226.783 193.344 227.964C193.454 228.808 193.413 229.686 193.371 230.572C193.354 230.941 193.336 231.311 193.33 231.681C193.134 234.566 191.247 237.235 188.237 239.167C185.227 241.1 181.108 242.286 176.486 242.204C171.862 242.123 167.702 240.918 164.715 239.044C161.725 237.169 159.932 234.639 159.981 231.908ZM187.966 232.402C188 230.474 186.735 228.73 184.714 227.462C182.69 226.193 179.887 225.385 176.784 225.33C173.681 225.275 170.852 225.983 168.785 227.181C166.72 228.376 165.394 230.075 165.36 232.003C165.326 233.939 166.585 235.424 168.595 236.431C170.605 237.438 173.39 237.983 176.484 238.038C179.577 238.092 182.418 237.647 184.499 236.713C186.58 235.779 187.932 234.34 187.966 232.402Z" fill="#CDD6FF" stroke="#0228CA" stroke-width="0.289756"/>
<path d="M159.994 228.586C160.042 225.855 161.923 223.39 164.977 221.621C168.028 219.854 172.228 218.798 176.853 218.879C181.478 218.961 185.638 220.165 188.625 222.039C191.614 223.914 193.407 226.444 193.359 229.175C193.31 231.907 191.429 234.371 188.376 236.14C185.324 237.907 181.124 238.964 176.5 238.882C171.875 238.801 167.715 237.596 164.728 235.722C161.738 233.847 159.946 231.317 159.994 228.586Z" fill="white" stroke="#0228CA" stroke-width="0.289756"/>
<path d="M159.836 225.851C159.886 222.997 159.229 219.838 162.407 218.05C165.469 216.328 172.381 214.406 176.941 214.487C182.131 214.579 188.615 216.37 191.662 218.652C194.071 220.456 193.518 223.158 193.474 225.632C193.077 231.524 185.777 236.459 176.484 236.294C167.19 236.13 159.737 231.455 159.836 225.851ZM187.821 226.345C187.887 222.629 182.944 219.529 176.782 219.42C170.619 219.311 165.571 222.235 165.505 225.951C165.439 229.667 170.324 231.729 176.486 231.838C182.649 231.947 187.755 230.061 187.821 226.345Z" fill="url(#paint8_linear_4104_235416)"/>
<path d="M159.994 222.532C160.042 219.801 161.923 217.336 164.977 215.568C168.028 213.801 172.228 212.744 176.853 212.826C181.478 212.907 185.638 214.112 188.625 215.985C191.614 217.861 193.407 220.39 193.359 223.122C193.31 225.853 191.429 228.318 188.376 230.086C185.324 231.853 181.124 232.91 176.5 232.828C171.875 232.747 167.715 231.542 164.728 229.669C161.738 227.793 159.946 225.264 159.994 222.532Z" fill="white" stroke="#0228CA" stroke-width="0.289756"/>
<defs>
<linearGradient id="paint0_linear_4104_235416" x1="236.171" y1="176.515" x2="229.118" y2="197.149" gradientUnits="userSpaceOnUse">
<stop stop-color="#0228CA"/>
<stop offset="1" stop-color="#8EA3FF"/>
</linearGradient>
<linearGradient id="paint1_linear_4104_235416" x1="221.869" y1="106.958" x2="204.484" y2="112.839" gradientUnits="userSpaceOnUse">
<stop stop-color="#0228CA"/>
<stop offset="1" stop-color="#8EA3FF"/>
</linearGradient>
<linearGradient id="paint2_linear_4104_235416" x1="237.22" y1="57.9922" x2="212.073" y2="114.937" gradientUnits="userSpaceOnUse">
<stop stop-color="#0228CA"/>
<stop offset="1" stop-color="#8EA3FF"/>
</linearGradient>
<linearGradient id="paint3_linear_4104_235416" x1="173.413" y1="223.181" x2="178.376" y2="201.277" gradientUnits="userSpaceOnUse">
<stop stop-color="#8DA3FF"/>
<stop offset="1" stop-color="#0228CA"/>
</linearGradient>
<linearGradient id="paint4_linear_4104_235416" x1="173.413" y1="211.069" x2="178.376" y2="189.165" gradientUnits="userSpaceOnUse">
<stop stop-color="#8DA3FF"/>
<stop offset="1" stop-color="#0228CA"/>
</linearGradient>
<linearGradient id="paint5_linear_4104_235416" x1="173.413" y1="198.959" x2="178.376" y2="177.055" gradientUnits="userSpaceOnUse">
<stop stop-color="#8DA3FF"/>
<stop offset="1" stop-color="#0228CA"/>
</linearGradient>
<linearGradient id="paint6_linear_4104_235416" x1="140.729" y1="237.693" x2="145.692" y2="215.789" gradientUnits="userSpaceOnUse">
<stop stop-color="#8DA3FF"/>
<stop offset="1" stop-color="#0228CA"/>
</linearGradient>
<linearGradient id="paint7_linear_4104_235416" x1="167.054" y1="242.84" x2="172.017" y2="220.936" gradientUnits="userSpaceOnUse">
<stop stop-color="#8DA3FF"/>
<stop offset="1" stop-color="#0228CA"/>
</linearGradient>
<linearGradient id="paint8_linear_4104_235416" x1="167.054" y1="230.731" x2="172.017" y2="208.827" gradientUnits="userSpaceOnUse">
<stop stop-color="#8DA3FF"/>
<stop offset="1" stop-color="#0228CA"/>
</linearGradient>
</defs>
</svg>
