<svg width="163" height="190" viewBox="0 0 163 190" fill="none" xmlns="http://www.w3.org/2000/svg">
<g clip-path="url(#clip0_5133_2167)">
<path d="M111.547 0.677979L-0.203125 64.9928V150.552L27.4398 166.483L111.547 85.946L139.205 16.7181L111.547 0.677979Z" fill="#DAE1FF"/>
<path d="M111.547 0.677979L-0.203125 64.9928V150.552L27.4398 166.483L111.547 85.946L139.205 16.7181L111.547 0.677979Z" fill="url(#paint0_linear_5133_2167)"/>
<path d="M139.206 16.6094L27.4551 80.9241V166.483L139.206 101.877V16.6094Z" fill="#D9E0FF"/>
<path fill-rule="evenodd" clip-rule="evenodd" d="M48.5156 28.9364L90.4873 6.76538L93.0119 7.7719L93.1789 32.9255L90.4296 34.4348L87.8078 33.5673L87.7158 33.6216V12.3077L51.8412 31.153V54.79L51.2671 55.1287L48.5156 54.1572V28.9364Z" fill="#DAE1FF"/>
<path fill-rule="evenodd" clip-rule="evenodd" d="M48.5156 28.9364L90.4873 6.76538L93.0119 7.7719L93.1789 32.9255L90.4296 34.4348L87.8078 33.5673L87.7158 33.6216V12.3077L51.8412 31.153V54.79L51.2671 55.1287L48.5156 54.1572V28.9364Z" fill="url(#paint1_linear_5133_2167)"/>
<path fill-rule="evenodd" clip-rule="evenodd" d="M51.2051 29.9121L93.1769 7.74109V32.9619L90.4058 34.4257V13.2838L54.5311 32.1292V53.376L51.2051 55.1329V29.9121Z" fill="#D9E0FF"/>
<path d="M91.2495 101.911L27.7256 80.9942L138.505 17.4705L91.2495 101.911Z" fill="#BFCBFF"/>
<path d="M97.7255 92.9929L89.2773 97.4271V108.341L97.7255 103.907V92.9929Z" fill="#D9E0FF"/>
<path d="M98.787 87.3019L87.5674 93.9532V104.867L98.787 98.2158V87.3019Z" fill="#DAE1FF"/>
<path d="M98.787 87.3019L87.5674 93.9532V104.867L98.787 98.2158V87.3019Z" fill="url(#paint2_linear_5133_2167)"/>
<path d="M162.932 129.432L163.076 65.8046L146.888 73.9515V138.234L162.932 129.432Z" fill="#DAE1FF"/>
<path d="M162.932 129.432L163.076 65.8046L146.888 73.9515V138.234L162.932 129.432Z" fill="url(#paint3_linear_5133_2167)"/>
<path d="M131.746 65.3779L147.218 74.4135L146.908 138.29L131.746 128.446V65.3779Z" fill="#BFCBFF"/>
<path d="M147.387 56.4373L131.802 65.3632L147.127 74.5051L163.112 65.7595L147.387 56.4373Z" fill="#F2F5FF"/>
<path d="M135.773 142.918L135.917 100.885L119.729 109.031V151.72L135.773 142.918Z" fill="#DAE1FF"/>
<path d="M135.773 142.918L135.917 100.885L119.729 109.031V151.72L135.773 142.918Z" fill="url(#paint4_linear_5133_2167)"/>
<path d="M104.587 100.458L120.059 109.493L119.75 151.779L104.587 141.935V100.458Z" fill="#BFCBFF"/>
<path d="M120.228 91.5176L104.643 100.444L119.968 109.585L135.953 100.84L120.228 91.5176Z" fill="#F2F5FF"/>
<path d="M106.523 157.544L106.666 138.91L90.4785 147.057V166.347L106.523 157.544Z" fill="#DAE1FF"/>
<path d="M106.523 157.544L106.666 138.91L90.4785 147.057V166.347L106.523 157.544Z" fill="url(#paint5_linear_5133_2167)"/>
<path d="M75.3359 138.483L90.808 147.518L90.4985 166.483L75.3359 156.639V138.483Z" fill="#BFCBFF"/>
<path d="M90.9748 129.542L75.3906 138.468L90.7152 147.61L106.7 138.865L90.9748 129.542Z" fill="#F2F5FF"/>
<path d="M58.1273 129.542L52.1638 130.857L25.4385 186.406L28.908 189.038L34.2132 184.057L61.6977 131.799L58.1273 129.542Z" fill="#DAE1FF"/>
<path d="M58.1273 129.542L52.1638 130.857L25.4385 186.406L28.908 189.038L34.2132 184.057L61.6977 131.799L58.1273 129.542Z" fill="url(#paint6_linear_5133_2167)"/>
<path d="M61.4408 131.963L55.4773 133.509L28.752 189.058L35.4884 185.965L61.4408 131.963Z" fill="#8AE980"/>
<path d="M23.6717 145.859C20.3143 151.486 20.3681 157.703 23.7919 159.746C25.306 160.65 27.7548 162.919 29.7156 162.08C32.1885 161.021 34.4522 156.653 36.3248 153.515C38.1156 150.514 41.0868 147.021 40.9429 144.407C40.817 142.12 37.5478 140.325 35.9502 139.371C32.5264 137.328 27.0292 140.233 23.6717 145.859ZM32.8924 151.467C31.3939 153.978 28.9404 155.274 27.4123 154.362C25.8842 153.451 25.8602 150.676 27.3587 148.164C28.8572 145.653 31.3107 144.357 32.8388 145.269C34.3669 146.18 34.3909 148.955 32.8924 151.467Z" fill="#DAE1FF"/>
<path d="M23.6717 145.859C20.3143 151.486 20.3681 157.703 23.7919 159.746C25.306 160.65 27.7548 162.919 29.7156 162.08C32.1885 161.021 34.4522 156.653 36.3248 153.515C38.1156 150.514 41.0868 147.021 40.9429 144.407C40.817 142.12 37.5478 140.325 35.9502 139.371C32.5264 137.328 27.0292 140.233 23.6717 145.859ZM32.8924 151.467C31.3939 153.978 28.9404 155.274 27.4123 154.362C25.8842 153.451 25.8602 150.676 27.3587 148.164C28.8572 145.653 31.3107 144.357 32.8388 145.269C34.3669 146.18 34.3909 148.955 32.8924 151.467Z" fill="url(#paint7_linear_5133_2167)"/>
<path d="M26.6181 147.853C23.2606 153.48 23.3144 159.697 26.7382 161.74C30.162 163.783 35.6592 160.878 39.0167 155.252C42.3741 149.626 42.3203 143.408 38.8966 141.365C35.4728 139.322 29.9755 142.227 26.6181 147.853ZM35.5843 153.204C34.0858 155.715 31.6322 157.012 30.1041 156.1C28.576 155.188 28.552 152.413 30.0505 149.902C31.549 147.39 34.0025 146.094 35.5307 147.006C37.0588 147.918 37.0828 150.693 35.5843 153.204Z" fill="#8AE980"/>
<path d="M48.078 163.698C44.7206 169.325 44.7744 175.542 48.1982 177.585C49.7123 178.489 52.1611 180.758 54.122 179.919C56.5949 178.86 58.8585 174.492 60.7312 171.354C62.5219 168.353 65.4931 164.86 65.3492 162.246C65.2233 159.959 61.9542 158.164 60.3565 157.21C56.9327 155.167 51.4355 158.072 48.078 163.698ZM57.2987 169.306C55.8002 171.817 53.3467 173.113 51.8186 172.201C50.2905 171.29 50.2665 168.515 51.765 166.003C53.2635 163.492 55.717 162.196 57.2451 163.108C58.7732 164.019 58.7972 166.794 57.2987 169.306Z" fill="#DAE1FF"/>
<path d="M48.078 163.698C44.7206 169.325 44.7744 175.542 48.1982 177.585C49.7123 178.489 52.1611 180.758 54.122 179.919C56.5949 178.86 58.8585 174.492 60.7312 171.354C62.5219 168.353 65.4931 164.86 65.3492 162.246C65.2233 159.959 61.9542 158.164 60.3565 157.21C56.9327 155.167 51.4355 158.072 48.078 163.698ZM57.2987 169.306C55.8002 171.817 53.3467 173.113 51.8186 172.201C50.2905 171.29 50.2665 168.515 51.765 166.003C53.2635 163.492 55.717 162.196 57.2451 163.108C58.7732 164.019 58.7972 166.794 57.2987 169.306Z" fill="url(#paint8_linear_5133_2167)"/>
<path d="M51.0233 165.693C47.6659 171.319 47.7197 177.537 51.1434 179.58C54.5672 181.623 60.0645 178.718 63.4219 173.092C66.7794 167.465 66.7256 161.248 63.3018 159.205C59.878 157.162 54.3808 160.067 51.0233 165.693ZM59.9895 171.043C58.491 173.554 56.0375 174.851 54.5094 173.939C52.9812 173.027 52.9572 170.252 54.4557 167.741C55.9542 165.23 58.4078 163.933 59.9359 164.845C61.464 165.757 61.488 168.532 59.9895 171.043Z" fill="#8AE980"/>
</g>
<defs>
<linearGradient id="paint0_linear_5133_2167" x1="30.2197" y1="41.6986" x2="88.4982" y2="193.742" gradientUnits="userSpaceOnUse">
<stop stop-color="#8EA3FF"/>
<stop offset="1" stop-color="#0228CA"/>
</linearGradient>
<linearGradient id="paint1_linear_5133_2167" x1="58.2623" y1="18.7306" x2="74.0861" y2="64.0734" gradientUnits="userSpaceOnUse">
<stop stop-color="#8EA3FF"/>
<stop offset="1" stop-color="#0228CA"/>
</linearGradient>
<linearGradient id="paint2_linear_5133_2167" x1="90.0158" y1="91.6476" x2="97.446" y2="106.372" gradientUnits="userSpaceOnUse">
<stop stop-color="#8EA3FF"/>
<stop offset="1" stop-color="#0228CA"/>
</linearGradient>
<linearGradient id="paint3_linear_5133_2167" x1="159.543" y1="83.7239" x2="123.871" y2="108.461" gradientUnits="userSpaceOnUse">
<stop stop-color="#8EA3FF"/>
<stop offset="1" stop-color="#0228CA"/>
</linearGradient>
<linearGradient id="paint4_linear_5133_2167" x1="132.384" y1="113.461" x2="105.653" y2="139.873" gradientUnits="userSpaceOnUse">
<stop stop-color="#8EA3FF"/>
<stop offset="1" stop-color="#0228CA"/>
</linearGradient>
<linearGradient id="paint5_linear_5133_2167" x1="103.134" y1="145.698" x2="90.9935" y2="167.922" gradientUnits="userSpaceOnUse">
<stop stop-color="#8EA3FF"/>
<stop offset="1" stop-color="#0228CA"/>
</linearGradient>
<linearGradient id="paint6_linear_5133_2167" x1="53.0418" y1="144.855" x2="36.6389" y2="202.136" gradientUnits="userSpaceOnUse">
<stop stop-color="#57DD4E"/>
<stop offset="1" stop-color="#54B54B"/>
</linearGradient>
<linearGradient id="paint7_linear_5133_2167" x1="29.6764" y1="142.779" x2="23.3581" y2="165.885" gradientUnits="userSpaceOnUse">
<stop stop-color="#57DD4E"/>
<stop offset="1" stop-color="#54B54B"/>
</linearGradient>
<linearGradient id="paint8_linear_5133_2167" x1="54.0827" y1="160.618" x2="47.7644" y2="183.724" gradientUnits="userSpaceOnUse">
<stop stop-color="#57DD4E"/>
<stop offset="1" stop-color="#54B54B"/>
</linearGradient>
<clipPath id="clip0_5133_2167">
<rect width="163" height="190" fill="white"/>
</clipPath>
</defs>
</svg>
