<svg width="187" height="164" viewBox="0 0 187 164" fill="none" xmlns="http://www.w3.org/2000/svg">
<path d="M157.548 68.7579L14.8428 148.253C9.43993 151.263 10.4379 159.317 16.412 160.917C23.4472 162.801 30.9424 161.822 37.257 158.192L179.978 76.1681C182.991 74.4367 182.901 70.0603 179.821 68.453C172.818 64.7997 164.448 64.9143 157.548 68.7579Z" fill="#92A2E9"/>
<mask id="mask0_146_8158" style="mask-type:alpha" maskUnits="userSpaceOnUse" x="16" y="-1" width="149" height="164">
<path d="M27.6647 162.05L159.705 85.169L164.564 6.57347L155.99 0H22.5201C20.71 44.3946 17.0898 133.641 17.0898 135.47C17.0898 137.299 24.1397 153.952 27.6647 162.05Z" fill="#1C44F1" stroke="white" stroke-width="0.694537"/>
</mask>
<g mask="url(#mask0_146_8158)">
<path d="M124.96 11.3884C126.825 12.5096 128.771 13.5804 130.715 14.6501C131.89 15.2966 133.064 15.9426 134.219 16.5991C137.297 18.3485 140.263 20.1845 142.846 22.3448C147.997 26.6521 151.631 32.2493 151.534 41.0393C151.439 49.5843 149.209 62.3354 145.563 75.3473C141.917 88.3577 136.864 101.593 131.142 111.112C124.622 121.958 115.514 133.141 105.9 142.526C96.2826 151.915 86.1824 159.481 77.6837 163.119C71.0267 165.968 65.2229 165.196 59.7784 162.931C55.9069 161.32 52.2452 158.969 48.586 156.62C47.0675 155.646 45.5495 154.671 44.0171 153.75C32.4123 146.774 25.6843 132.145 24.7936 114.342C23.9034 96.5484 28.8515 75.6455 40.5246 56.2271C52.2036 36.799 67.5172 22.0793 82.8186 13.9778C98.1268 5.87271 113.363 4.41711 124.96 11.3884ZM54.4592 128.667C62.39 133.434 72.7237 132.39 82.9706 126.965C93.2244 121.536 103.451 111.694 111.24 98.737C119.029 85.7796 122.924 72.1312 122.908 60.5289C122.892 48.9344 118.966 39.3187 111.036 34.5512C103.09 29.7748 93.8786 31.4086 84.7641 37.4154C75.6507 43.4216 66.5692 53.8341 58.7915 66.7723C51.0138 79.7106 45.9828 92.7745 44.8571 103.799C43.7317 114.821 46.5094 123.888 54.4592 128.667Z" fill="url(#paint0_linear_146_8158)" stroke="#BFCBFF" stroke-width="0.694537"/>
<path d="M138.992 19.5739C150.589 26.5452 156.451 40.6837 156.474 58.0052C156.498 75.3189 150.682 95.7481 139.003 115.176C127.324 134.604 112.01 149.324 96.7088 157.426C81.4006 165.531 66.1644 166.986 54.5676 160.015C42.9708 153.044 37.1088 138.905 37.0855 121.584C37.0622 104.27 42.878 83.8408 54.557 64.4127C66.236 44.9845 81.5496 30.2648 96.851 22.1633C112.159 14.0582 127.395 12.6026 138.992 19.5739Z" fill="#DAE1FF" stroke="#BFCBFF" stroke-width="0.694537"/>
<path d="M126.915 40.795L122.817 47.0945L103.585 57.947L103.297 58.1093L103.445 58.4048C103.78 59.0759 104.269 60.2413 104.631 61.5356C104.996 62.8363 105.222 64.23 105.066 65.3735L104.97 66.081L105.586 65.72L123.041 55.4924L126.857 58.2805L122.856 61.9658L105.24 71.875L105.057 71.9779L105.063 72.1876C105.244 78.4676 101.527 93.2038 85.1195 101.517L84.7167 101.721L85.0174 102.058L107.732 127.51L102.291 135.852L97.9058 133.543L74.8723 107.487V98.2163C78.2173 97.0924 83.2487 94.7524 87.8061 91.2669C92.4703 87.6997 96.6772 82.9021 98.0264 76.943L98.2555 75.9311L97.4634 76.6012L78.829 92.3652L74.8723 90.044V83.1366L97.8587 70.1356L98.0707 70.0157L98.0302 69.7755C97.8365 68.6277 97.1834 67.0443 95.8241 66.0511C94.4388 65.0391 92.3961 64.6939 89.5538 65.8995L89.4929 65.9253L89.4458 65.9716L78.7974 76.4462L74.8723 74.5216V66.4194L123.06 38.5179L126.915 40.795Z" fill="#1C44F1"/>
<path d="M126.915 40.795L122.817 47.0945L103.585 57.947L103.297 58.1093L103.445 58.4048C103.78 59.0759 104.269 60.2413 104.631 61.5356C104.996 62.8363 105.222 64.23 105.066 65.3735L104.97 66.081L105.586 65.72L123.041 55.4924L126.857 58.2805L122.856 61.9658L105.24 71.875L105.057 71.9779L105.063 72.1876C105.244 78.4676 101.527 93.2038 85.1195 101.517L84.7167 101.721L85.0174 102.058L107.732 127.51L102.291 135.852L97.9058 133.543L74.8723 107.487V98.2163C78.2173 97.0924 83.2487 94.7524 87.8061 91.2669C92.4703 87.6997 96.6772 82.9021 98.0264 76.943L98.2555 75.9311L97.4634 76.6012L78.829 92.3652L74.8723 90.044V83.1366L97.8587 70.1356L98.0707 70.0157L98.0302 69.7755C97.8365 68.6277 97.1834 67.0443 95.8241 66.0511C94.4388 65.0391 92.3961 64.6939 89.5538 65.8995L89.4929 65.9253L89.4458 65.9716L78.7974 76.4462L74.8723 74.5216V66.4194L123.06 38.5179L126.915 40.795Z" fill="url(#paint1_linear_146_8158)"/>
<path d="M126.915 40.795L122.817 47.0945L103.585 57.947L103.297 58.1093L103.445 58.4048C103.78 59.0759 104.269 60.2413 104.631 61.5356C104.996 62.8363 105.222 64.23 105.066 65.3735L104.97 66.081L105.586 65.72L123.041 55.4924L126.857 58.2805L122.856 61.9658L105.24 71.875L105.057 71.9779L105.063 72.1876C105.244 78.4676 101.527 93.2038 85.1195 101.517L84.7167 101.721L85.0174 102.058L107.732 127.51L102.291 135.852L97.9058 133.543L74.8723 107.487V98.2163C78.2173 97.0924 83.2487 94.7524 87.8061 91.2669C92.4703 87.6997 96.6772 82.9021 98.0264 76.943L98.2555 75.9311L97.4634 76.6012L78.829 92.3652L74.8723 90.044V83.1366L97.8587 70.1356L98.0707 70.0157L98.0302 69.7755C97.8365 68.6277 97.1834 67.0443 95.8241 66.0511C94.4388 65.0391 92.3961 64.6939 89.5538 65.8995L89.4929 65.9253L89.4458 65.9716L78.7974 76.4462L74.8723 74.5216V66.4194L123.06 38.5179L126.915 40.795Z" stroke="#BFCBFF" stroke-width="0.694537"/>
<path d="M127.328 40.9394V49.3738L108.198 60.1685L107.911 60.3308L108.058 60.6262C108.394 61.2973 108.882 62.4627 109.245 63.757C109.609 65.0578 109.836 66.4514 109.68 67.5949L109.583 68.3025L110.199 67.9415L127.328 57.9051V64.267L109.853 74.0964L109.671 74.1993L109.677 74.4091C109.857 80.689 106.141 95.4252 89.7329 103.738L89.3301 103.943L89.6308 104.279L112.244 129.618L102.369 135.594L79.4857 109.709V100.438C82.8308 99.3138 87.8621 96.9738 92.4195 93.4883C97.0837 89.9211 101.291 85.1235 102.64 79.1645L102.815 78.3899L102.127 78.7871L79.4857 91.8628V85.3581L102.472 72.357L102.684 72.2371L102.644 71.997C102.45 70.8492 101.797 69.2657 100.437 68.2725C99.0522 67.2605 97.0095 66.9153 94.1672 68.1209L94.1495 68.1284L94.1327 68.1378L79.4857 76.3661V68.6408L127.328 40.9394Z" fill="#BFCBFF" stroke="#BFCBFF" stroke-width="0.694537"/>
</g>
<path fill-rule="evenodd" clip-rule="evenodd" d="M156.801 60.7908L173.039 58L181.158 61.8058L161.876 64.5965L142.593 84.1328L136.504 80.327L156.801 60.7911L156.801 60.7909L156.801 60.7908Z" fill="#BFCBFF"/>
<path fill-rule="evenodd" clip-rule="evenodd" d="M156.801 60.7908L173.039 58L181.158 61.8058L161.876 64.5965L142.593 84.1328L136.504 80.327L156.801 60.7911L156.801 60.7909L156.801 60.7908Z" fill="url(#paint2_linear_146_8158)"/>
<path d="M131.429 114.071C129.602 103.72 134.051 87.2619 136.503 80.3269L142.592 84.1327C132.038 112.346 140.986 127.096 146.652 131.07C142.423 129.633 133.256 124.423 131.429 114.071Z" fill="#8EA3FF"/>
<path d="M131.429 114.071C129.602 103.72 134.051 87.2619 136.503 80.3269L142.592 84.1327C132.038 112.346 140.986 127.096 146.652 131.07C142.423 129.633 133.256 124.423 131.429 114.071Z" fill="url(#paint3_linear_146_8158)"/>
<path d="M142.592 84.1331L161.875 64.5968L181.157 61.8059C184.963 67.8106 189.623 81.5286 184.963 97.5801C180.396 113.311 166.357 127.181 161.875 131.832C130.008 138.53 135.742 102.824 142.592 84.1331Z" fill="url(#paint4_linear_146_8158)"/>
<path d="M144.755 86.9625L162.964 68.3439L179.635 65.8654C182.979 71.198 186.073 84.6495 181.979 98.9045C177.967 112.874 165.559 124.657 161.621 128.788C133.625 134.736 138.737 103.561 144.755 86.9625Z" fill="#F3F5FF"/>
<path d="M158.576 108.405L150.458 103.585L147.667 108.236L159.591 115.34L177.859 84.1329L174.307 81.8494L158.576 108.405Z" fill="#54B549"/>
<defs>
<linearGradient id="paint0_linear_146_8158" x1="86.8352" y1="29.7216" x2="167.443" y2="104.277" gradientUnits="userSpaceOnUse">
<stop stop-color="#8DA3FF"/>
<stop offset="1" stop-color="#0228CA"/>
</linearGradient>
<linearGradient id="paint1_linear_146_8158" x1="119.89" y1="26.1019" x2="61.4052" y2="134.932" gradientUnits="userSpaceOnUse">
<stop stop-color="#AABBFF"/>
<stop offset="1" stop-color="#495CA8"/>
</linearGradient>
<linearGradient id="paint2_linear_146_8158" x1="175.887" y1="59.632" x2="180.13" y2="96.6017" gradientUnits="userSpaceOnUse">
<stop stop-color="#8DA3FF"/>
<stop offset="1" stop-color="#0228CA"/>
</linearGradient>
<linearGradient id="paint3_linear_146_8158" x1="143.265" y1="92.8811" x2="116.617" y2="118.172" gradientUnits="userSpaceOnUse">
<stop stop-color="#8DA3FF"/>
<stop offset="1" stop-color="#0228CA"/>
</linearGradient>
<linearGradient id="paint4_linear_146_8158" x1="176.166" y1="79.3349" x2="147.733" y2="140.671" gradientUnits="userSpaceOnUse">
<stop stop-color="#8DA3FF"/>
<stop offset="1" stop-color="#0228CA"/>
</linearGradient>
</defs>
</svg>
