<svg width="201" height="186" viewBox="0 0 201 186" fill="none" xmlns="http://www.w3.org/2000/svg">
<path d="M70.1462 155.353L92.2847 142.591V145.456L70.6671 158.739L70.1462 155.353Z" fill="#0F2170"/>
<path d="M70.1462 155.353L92.2847 142.591V145.456L70.6671 158.739L70.1462 155.353Z" fill="url(#paint0_linear_146_8908)"/>
<path d="M58.7598 139.056L81.345 126.964C80.6201 135.975 79.7077 141.4 89.6795 143.633L70.6663 158.739C57.3089 153.939 58.1645 150.925 58.7598 139.056Z" fill="#0F2170"/>
<path d="M58.7598 139.056L81.345 126.964C80.6201 135.975 79.7077 141.4 89.6795 143.633L70.6663 158.739C57.3089 153.939 58.1645 150.925 58.7598 139.056Z" fill="url(#paint1_linear_146_8908)"/>
<path d="M58.9462 138.683L82.1265 125.921C81.4449 134.331 82.9076 140.506 92.2842 142.59L70.1457 155.352C58.7706 150.513 59.988 149.101 58.9462 138.683Z" fill="#BFCBFF"/>
<path d="M0 86.7735C0 80.0714 3.60566 73.8875 9.43835 70.5863L94.5989 22.387C106.804 15.4792 121.973 24.0496 122.354 38.0687L123.816 91.8714C124.002 98.7054 120.424 105.091 114.498 108.5L27.8746 158.33C15.4747 165.463 0 156.512 0 142.207V86.7735Z" fill="#7B93F8"/>
<path d="M0 86.7735C0 80.0714 3.60566 73.8875 9.43835 70.5863L94.5989 22.387C106.804 15.4792 121.973 24.0496 122.354 38.0687L123.816 91.8714C124.002 98.7054 120.424 105.091 114.498 108.5L27.8746 158.33C15.4747 165.463 0 156.512 0 142.207V86.7735Z" fill="url(#paint2_linear_146_8908)"/>
<path d="M0 86.7735C0 80.0714 3.60566 73.8875 9.43835 70.5863L94.5989 22.387C106.804 15.4792 121.973 24.0496 122.354 38.0687L123.816 91.8714C124.002 98.7054 120.424 105.091 114.498 108.5L27.8746 158.33C15.4747 165.463 0 156.512 0 142.207V86.7735Z" fill="url(#paint3_linear_146_8908)"/>
<path d="M5.77984 90.1869C5.77984 83.1298 9.57333 76.6175 15.712 73.1363L103.113 23.5714C113.157 17.8752 125.652 24.926 125.968 36.469L127.622 96.8286C127.761 101.925 125.095 106.688 120.678 109.233L26.5878 163.455C17.3355 168.787 5.77984 162.109 5.77984 151.43V90.1869Z" fill="#F3F5FF" stroke="#BFCBFF" stroke-width="0.858462"/>
<path d="M5.35061 153.268L127.764 85.0295L128.026 95.3947C128.185 101.687 124.889 107.562 119.435 110.705L25.4347 164.875C16.5043 170.021 5.35061 163.576 5.35061 153.268Z" fill="#0F2170"/>
<path d="M5.35061 153.268L127.764 85.0295L128.026 95.3947C128.185 101.687 124.889 107.562 119.435 110.705L25.4347 164.875C16.5043 170.021 5.35061 163.576 5.35061 153.268Z" fill="url(#paint4_linear_146_8908)"/>
<path d="M71.925 53.1478C71.925 50.0448 73.5996 47.1833 76.3049 45.6634L133.856 13.3313C138.699 10.6101 144.661 14.208 144.511 19.7618L144.079 35.7069L144.714 59.1235C144.799 62.2606 143.165 65.1941 140.454 66.7738L80.5289 101.683C76.7136 103.906 71.925 101.154 71.925 96.738V53.1478Z" fill="url(#paint5_linear_146_8908)"/>
<path d="M71.925 53.1478C71.925 50.0448 73.5996 47.1833 76.3049 45.6634L133.856 13.3313C138.699 10.6101 144.661 14.208 144.511 19.7618L144.079 35.7069L144.714 59.1235C144.799 62.2606 143.165 65.1941 140.454 66.7738L80.5289 101.683C76.7136 103.906 71.925 101.154 71.925 96.738V53.1478Z" fill="url(#paint6_linear_146_8908)"/>
<path d="M74.5305 54.4595C74.5305 51.3762 76.184 48.5297 78.8624 47.0023L137.616 13.4962C141.372 11.3545 146.055 13.9902 146.172 18.3118L147.318 60.3739C147.404 63.5184 145.763 66.458 143.041 68.0352L83.1231 102.758C79.3077 104.969 74.5305 102.216 74.5305 97.8062V54.4595Z" fill="#F3F5FF"/>
<path d="M74.5305 54.4595C74.5305 51.3762 76.184 48.5297 78.8624 47.0023L137.616 13.4962C141.372 11.3545 146.055 13.9902 146.172 18.3118L147.318 60.3739C147.404 63.5184 145.763 66.458 143.041 68.0352L83.1231 102.758C79.3077 104.969 74.5305 102.216 74.5305 97.8062V54.4595Z" fill="#BFCBFF"/>
<path fill-rule="evenodd" clip-rule="evenodd" d="M115.531 76.0029L106.702 74.2572L106.707 74.2344C105.511 74.0294 104.393 73.4447 103.407 72.5027C102.148 71.3004 101.136 69.5469 100.445 67.3721L106.839 59.7503C107.078 60.5023 107.428 61.1086 107.864 61.5243C108.299 61.94 108.808 62.1545 109.353 62.1517C109.899 62.1489 110.466 61.929 111.014 61.5083C111.562 61.0876 112.076 60.4769 112.518 59.7214C112.96 58.966 113.318 58.0851 113.567 57.1441C113.816 56.2031 113.948 55.2262 113.955 54.2857C113.961 53.3452 113.842 52.4653 113.604 51.7111C113.367 50.9569 113.019 50.3479 112.585 49.9291L117.061 38.9694C118.065 39.9379 118.91 41.2583 119.559 42.8639L120.322 42.2537L125.894 55.1366L124.923 65.1814L118.433 71.0023L115.531 76.0029Z" fill="url(#paint7_linear_146_8908)"/>
<path d="M114.651 43.0466L128.787 46.0917L123.206 52.7611L113.16 50.5884L114.651 43.0466Z" fill="url(#paint8_linear_146_8908)"/>
<path d="M109.201 69.1041C110.422 72.9479 112.623 75.4069 115.32 75.94C118.016 76.4732 120.988 75.0369 123.58 71.947C126.172 68.8572 128.173 64.3669 129.142 59.4641C130.112 54.5612 129.97 49.6473 128.749 45.8035L123.012 52.6417C123.516 54.2294 123.575 56.259 123.174 58.2841C122.774 60.3092 121.948 62.1639 120.877 63.4401C119.806 64.7163 118.579 65.3096 117.465 65.0894C116.351 64.8692 115.442 63.8535 114.938 62.2658L109.201 69.1041Z" fill="#F3F5FF"/>
<path d="M120.532 44.1794C119.545 41.0733 117.912 38.8515 115.872 37.8415C113.832 36.8315 111.494 37.0868 109.203 38.5698L110.116 48.7006C111.062 48.0881 111.949 48.8125 112.792 49.2297C113.634 49.6469 114.584 49.4138 114.991 50.6968L120.532 44.1794Z" fill="url(#paint9_linear_146_8908)"/>
<path d="M100.437 67.3508L109.3 69.1031L114.878 62.535L105.996 60.7789L100.437 67.3508Z" fill="url(#paint10_linear_146_8908)"/>
<path d="M113.459 37.1926L119.699 38.4263L115.007 39.7974L109.278 38.6646C110.827 37.5091 112.711 37.2018 113.459 37.1926Z" fill="white"/>
<path d="M113.459 37.1926L119.699 38.4263L115.007 39.7974L109.278 38.6646C110.827 37.5091 112.711 37.2018 113.459 37.1926Z" fill="url(#paint11_linear_146_8908)"/>
<path d="M110.384 48.7651L115.769 49.8298L117.42 44.8911L122.063 45.224L120.561 51.9766L113.16 50.5133L110.384 48.7651Z" fill="white"/>
<path d="M110.384 48.7651L115.769 49.8298L117.42 44.8911L122.063 45.224L120.561 51.9766L113.16 50.5133L110.384 48.7651Z" fill="url(#paint12_linear_146_8908)"/>
<path d="M126.204 45.3004C125.217 42.1943 123.583 39.9725 121.543 38.9625C119.503 37.9525 117.165 38.2078 114.874 39.6908L115.787 49.8216C116.734 49.2091 117.699 49.1037 118.542 49.5208C119.384 49.938 120.059 50.8557 120.467 52.1387L126.204 45.3004Z" fill="#C9FFC4"/>
<path fill-rule="evenodd" clip-rule="evenodd" d="M109.939 45.8493L110.108 48.7051C109.309 49.2246 108.557 50.0839 107.932 51.1915C107.308 52.2991 106.833 53.6136 106.56 54.9949L100.593 53.8097C101.255 50.4655 102.404 47.283 103.916 44.6014C105.429 41.9197 107.564 39.6615 109.498 38.404L109.501 38.4571L112.895 39.2103L109.939 45.8493Z" fill="url(#paint13_linear_146_8908)"/>
<path d="M112.867 39.3106C110.933 40.5681 109.113 42.6485 107.6 45.3302C106.087 48.0118 104.938 51.1943 104.276 54.5385L110.243 55.7237C110.517 54.3424 110.991 53.0279 111.616 51.9203C112.241 50.8127 112.993 49.9534 113.791 49.434L112.867 39.3106Z" fill="#F3F5FF"/>
<path fill-rule="evenodd" clip-rule="evenodd" d="M100.003 58.5279C100.094 56.9229 100.298 55.2941 100.613 53.6987L100.717 53.7192L100.717 53.7188L103.527 54.2744L103.527 54.2748L106.581 54.8787C106.189 56.861 106.22 58.8493 106.668 60.4377L104.21 63.3798L103.413 67.9597L100.812 67.4455L100.812 67.4458C100.812 67.4457 100.812 67.4455 100.812 67.4454L100.431 67.37C99.912 64.4472 99.7697 61.4758 100.003 58.5279Z" fill="url(#paint14_linear_146_8908)"/>
<path d="M103.048 54.0978C102.568 56.5255 102.309 59.1795 102.377 61.5234C102.444 63.8673 102.79 66.0532 103.395 67.9565L109.132 61.1183C108.882 60.3322 108.739 59.4293 108.711 58.4611C108.683 57.493 108.811 56.2792 109.009 55.2765L103.048 54.0978Z" fill="#F8FAFF"/>
<path d="M22.649 99.0534V117.697" stroke="#718BF4" stroke-width="3.73244" stroke-linecap="round"/>
<path d="M30.4805 84.3658V103.009" stroke="#56D04D" stroke-width="3.73244" stroke-linecap="round"/>
<path d="M50.7259 78.1733V96.8165" stroke="#718BF4" stroke-width="3.73244" stroke-linecap="round"/>
<path d="M37.117 91.7176V105.636" stroke="#718BF4" stroke-width="3.73244" stroke-linecap="round"/>
<path d="M42.8035 73.4301V110.92" stroke="#56D04D" stroke-width="3.73244" stroke-linecap="round"/>
<path d="M120.341 145.551L84.8389 165.793C86.1106 165.068 89.3322 164.794 92.0452 169.502C94.7582 174.209 93.0697 177.115 91.9392 177.874L127.335 157.633C128.148 156.855 129.2 154.22 126.911 149.896C124.622 145.573 121.577 145.198 120.341 145.551Z" fill="url(#paint15_linear_146_8908)"/>
<path d="M190.708 129.549V139.935C190.708 139.935 185.763 120.223 158.377 120.223C130.991 120.223 125.003 139.299 125.003 139.299V129.549C125.42 123.226 133.242 112.169 158.377 112.169C184.106 112.169 190.639 124.285 190.708 129.549Z" fill="url(#paint16_linear_146_8908)"/>
<ellipse cx="88.662" cy="171.666" rx="4.17677" ry="7.06009" transform="rotate(-29.4481 88.662 171.666)" fill="#DAE1FF"/>
<path d="M191.238 138.875V128.489C191.238 128.489 188.588 143.856 159.233 145.551C129.878 147.247 124.473 129.125 124.473 129.125V138.875C124.897 145.198 132.845 156.255 158.385 156.255C184.529 156.255 191.167 144.138 191.238 138.875Z" fill="url(#paint17_linear_146_8908)"/>
<path d="M191.133 128.701C191.133 138.768 176.234 146.929 157.856 146.929C139.478 146.929 124.58 138.768 124.58 128.701C124.58 118.634 139.478 110.473 157.856 110.473C176.234 110.473 191.133 118.634 191.133 128.701ZM129.243 128.701C129.243 137.541 142.254 143.117 158.391 143.117C174.528 143.117 187.044 136.799 187.044 127.959C187.044 119.12 174.034 113.544 157.897 113.544C141.76 113.544 129.243 119.862 129.243 128.701Z" fill="#DAE1FF"/>
<path d="M130.515 142.054L123.414 146.081C124.085 146.576 125.746 148.074 127.017 150.108C128.289 152.143 128.395 154.135 128.289 154.877L135.813 150.426C136.237 149.79 136.725 147.84 135.283 145.127C133.842 142.415 131.504 141.948 130.515 142.054Z" fill="#DAE1FF"/>
<defs>
<linearGradient id="paint0_linear_146_8908" x1="87.4478" y1="146.555" x2="83.7247" y2="162.537" gradientUnits="userSpaceOnUse">
<stop stop-color="#8DA3FF"/>
<stop offset="1" stop-color="#0228CA"/>
</linearGradient>
<linearGradient id="paint1_linear_146_8908" x1="82.8636" y1="134.763" x2="73.1103" y2="164.746" gradientUnits="userSpaceOnUse">
<stop stop-color="#8DA3FF"/>
<stop offset="1" stop-color="#0228CA"/>
</linearGradient>
<linearGradient id="paint2_linear_146_8908" x1="97.2902" y1="48.5224" x2="32.6265" y2="196.037" gradientUnits="userSpaceOnUse">
<stop stop-color="#8EA3FF"/>
<stop offset="1" stop-color="#0228CA"/>
</linearGradient>
<linearGradient id="paint3_linear_146_8908" x1="97.2586" y1="48.5226" x2="32.6465" y2="196.093" gradientUnits="userSpaceOnUse">
<stop stop-color="#8DA3FF"/>
<stop offset="1" stop-color="#0228CA"/>
</linearGradient>
<linearGradient id="paint4_linear_146_8908" x1="101.425" y1="107.469" x2="79.9801" y2="197.767" gradientUnits="userSpaceOnUse">
<stop stop-color="#8DA3FF"/>
<stop offset="1" stop-color="#0228CA"/>
</linearGradient>
<linearGradient id="paint5_linear_146_8908" x1="128.937" y1="31.8176" x2="90.3826" y2="119.505" gradientUnits="userSpaceOnUse">
<stop stop-color="#8EA3FF"/>
<stop offset="1" stop-color="#0228CA"/>
</linearGradient>
<linearGradient id="paint6_linear_146_8908" x1="128.918" y1="31.8177" x2="90.3945" y2="119.539" gradientUnits="userSpaceOnUse">
<stop stop-color="#8DA3FF"/>
<stop offset="1" stop-color="#0228CA"/>
</linearGradient>
<linearGradient id="paint7_linear_146_8908" x1="118.336" y1="68.4096" x2="95.9616" y2="58.9541" gradientUnits="userSpaceOnUse">
<stop stop-color="#8EA3FF"/>
<stop offset="1" stop-color="#0228CA"/>
</linearGradient>
<linearGradient id="paint8_linear_146_8908" x1="124.132" y1="51.1934" x2="114.379" y2="42.4705" gradientUnits="userSpaceOnUse">
<stop stop-color="#8EA3FF"/>
<stop offset="1" stop-color="#0228CA"/>
</linearGradient>
<linearGradient id="paint9_linear_146_8908" x1="122.953" y1="47.5848" x2="110.903" y2="50.404" gradientUnits="userSpaceOnUse">
<stop stop-color="#5AE650"/>
<stop offset="1" stop-color="#54B54B"/>
</linearGradient>
<linearGradient id="paint10_linear_146_8908" x1="110.525" y1="67.6714" x2="101.349" y2="59.7719" gradientUnits="userSpaceOnUse">
<stop stop-color="#8EA3FF"/>
<stop offset="1" stop-color="#0228CA"/>
</linearGradient>
<linearGradient id="paint11_linear_146_8908" x1="116.796" y1="39.6024" x2="111.377" y2="33.278" gradientUnits="userSpaceOnUse">
<stop stop-color="#57DD4E"/>
<stop offset="1" stop-color="#54B54B"/>
</linearGradient>
<linearGradient id="paint12_linear_146_8908" x1="118.323" y1="49.8512" x2="108.624" y2="45.0391" gradientUnits="userSpaceOnUse">
<stop stop-color="#57DD4E"/>
<stop offset="1" stop-color="#54B54B"/>
</linearGradient>
<linearGradient id="paint13_linear_146_8908" x1="108.125" y1="51.557" x2="99.2057" y2="48.0965" gradientUnits="userSpaceOnUse">
<stop stop-color="#8EA3FF"/>
<stop offset="1" stop-color="#0228CA"/>
</linearGradient>
<linearGradient id="paint14_linear_146_8908" x1="103.925" y1="65.0698" x2="96.9157" y2="62.3741" gradientUnits="userSpaceOnUse">
<stop stop-color="#8EA3FF"/>
<stop offset="1" stop-color="#0228CA"/>
</linearGradient>
<linearGradient id="paint15_linear_146_8908" x1="118.814" y1="153.472" x2="111.063" y2="185.709" gradientUnits="userSpaceOnUse">
<stop stop-color="#0228CA"/>
<stop offset="1" stop-color="#8EA3FF"/>
</linearGradient>
<linearGradient id="paint16_linear_146_8908" x1="176.37" y1="133.065" x2="172.465" y2="104.395" gradientUnits="userSpaceOnUse">
<stop stop-color="#0228CA"/>
<stop offset="1" stop-color="#8EA3FF"/>
</linearGradient>
<linearGradient id="paint17_linear_146_8908" x1="176.668" y1="135.359" x2="172.823" y2="164.045" gradientUnits="userSpaceOnUse">
<stop stop-color="#0228CA"/>
<stop offset="1" stop-color="#8EA3FF"/>
</linearGradient>
</defs>
</svg>
