<svg width="110" height="97" viewBox="0 0 110 97" fill="none" xmlns="http://www.w3.org/2000/svg">
<path d="M84.947 31.6876L97.5136 40.159L102.501 34.5857L106.517 26.8574L100.947 21.6558L93.4327 22.1759L84.947 31.6876Z" fill="#0F2170"/>
<path d="M84.947 31.6876L97.5136 40.159L102.501 34.5857L106.517 26.8574L100.947 21.6558L93.4327 22.1759L84.947 31.6876Z" fill="#8AE980"/>
<path d="M108.72 28.4922C110.43 21.9529 107.273 18.8319 105.481 18.0888C99.3143 17.7321 96.434 21.4576 95.7646 23.3649L101.076 26.9317C99.5216 27.8829 98.0965 29.8546 97.5783 30.7216C94.6763 35.7746 96.3692 39.1186 97.5783 40.1589C103.486 42.3585 107.467 33.2976 108.72 28.4922Z" fill="#0F2170"/>
<path d="M108.72 28.4922C110.43 21.9529 107.273 18.8319 105.481 18.0888C99.3143 17.7321 96.434 21.4576 95.7646 23.3649L101.076 26.9317C99.5216 27.8829 98.0965 29.8546 97.5783 30.7216C94.6763 35.7746 96.3692 39.1186 97.5783 40.1589C103.486 42.3585 107.467 33.2976 108.72 28.4922Z" fill="url(#paint0_linear_146_8828)"/>
<path d="M105.934 18.3118C94.1193 18.3712 89.6108 34.1399 88.8335 42.0167L65.7084 29.7556L61.5627 22.9933C61.3554 18.4753 63.8947 12.3422 65.1902 9.84045C70.9941 -0.265725 76.6772 -0.662048 78.7932 0.403063L105.934 18.3118Z" fill="#0F2170"/>
<path d="M105.934 18.3118C94.1193 18.3712 89.6108 34.1399 88.8335 42.0167L65.7084 29.7556L61.5627 22.9933C61.3554 18.4753 63.8947 12.3422 65.1902 9.84045C70.9941 -0.265725 76.6772 -0.662048 78.7932 0.403063L105.934 18.3118Z" fill="url(#paint1_linear_146_8828)"/>
<path d="M58.8018 21.2326L55.2741 20.8508L45.2504 45.8784L1.35813 66.2681C0.750756 66.5502 0.36223 67.1591 0.36223 67.8288V69.2713C0.36223 69.8472 0.650345 70.385 1.12985 70.704L37.2694 94.7501C39.2907 96.095 41.922 96.0949 43.9432 94.7496L89.9726 64.1146L96.4787 45.8784L58.8018 21.2326Z" fill="#0F2170"/>
<path d="M58.8018 21.2326L55.2741 20.8508L45.2504 45.8784L1.35813 66.2681C0.750756 66.5502 0.36223 67.1591 0.36223 67.8288V69.2713C0.36223 69.8472 0.650345 70.385 1.12985 70.704L37.2694 94.7501C39.2907 96.095 41.922 96.0949 43.9432 94.7496L89.9726 64.1146L96.4787 45.8784L58.8018 21.2326Z" fill="url(#paint2_linear_146_8828)"/>
<path d="M40.9835 39.9871L1.09259 66.1536C0.575671 66.4927 0.574319 67.25 1.09002 67.5909L39.094 92.7142C39.9581 93.2854 41.0799 93.2848 41.9434 92.7126L80.7976 66.9677C82.0194 66.1581 83.0142 65.0498 83.6876 63.7479L91.0931 49.4304C92.0975 47.4885 91.4858 45.1021 89.6711 43.8828L56.9455 21.8937C54.8085 20.4578 51.8974 21.2076 50.72 23.4972L43.9161 36.7274C43.2365 38.049 42.2261 39.172 40.9835 39.9871Z" fill="#0F2170"/>
<path d="M40.9835 39.9871L1.09259 66.1536C0.575671 66.4927 0.574319 67.25 1.09002 67.5909L39.094 92.7142C39.9581 93.2854 41.0799 93.2848 41.9434 92.7126L80.7976 66.9677C82.0194 66.1581 83.0142 65.0498 83.6876 63.7479L91.0931 49.4304C92.0975 47.4885 91.4858 45.1021 89.6711 43.8828L56.9455 21.8937C54.8085 20.4578 51.8974 21.2076 50.72 23.4972L43.9161 36.7274C43.2365 38.049 42.2261 39.172 40.9835 39.9871Z" fill="#BFCBFF"/>
<path d="M48.2714 60.0664L56.1444 55.0309C56.4992 54.804 56.7138 54.4119 56.7138 53.9908V50.2315C56.7138 49.7089 56.3848 49.2429 55.8922 49.068L43.8526 44.7938C43.6724 44.7298 43.4797 44.7086 43.2899 44.7318L36.007 45.6211C35.3875 45.6967 34.9219 46.2226 34.9219 46.8466V51.0674C34.9219 51.4718 35.1199 51.8505 35.4519 52.0812L46.9014 60.0401C47.3109 60.3247 47.8513 60.3351 48.2714 60.0664Z" fill="#0F2170"/>
<path d="M48.2714 60.0664L56.1444 55.0309C56.4992 54.804 56.7138 54.4119 56.7138 53.9908V50.2315C56.7138 49.7089 56.3848 49.2429 55.8922 49.068L43.8526 44.7938C43.6724 44.7298 43.4797 44.7086 43.2899 44.7318L36.007 45.6211C35.3875 45.6967 34.9219 46.2226 34.9219 46.8466V51.0674C34.9219 51.4718 35.1199 51.8505 35.4519 52.0812L46.9014 60.0401C47.3109 60.3247 47.8513 60.3351 48.2714 60.0664Z" fill="url(#paint3_linear_146_8828)"/>
<path d="M42.9005 41.0678L35.5452 45.6176C34.7987 46.0794 34.7589 47.1507 35.4691 47.6666L46.9039 55.973C47.3109 56.2686 47.8566 56.2878 48.2833 56.0214L56.077 51.1559C56.8359 50.6822 56.8547 49.5838 56.1125 49.0843L44.2394 41.0935C43.8369 40.8226 43.3131 40.8126 42.9005 41.0678Z" fill="#BFCBFF"/>
<path d="M34.2742 69.9477L42.1472 64.9123C42.502 64.6854 42.7167 64.2933 42.7167 63.8722V60.1129C42.7167 59.5902 42.3876 59.1242 41.8951 58.9494L29.8554 54.6752C29.6752 54.6112 29.4826 54.5899 29.2927 54.6131L22.0098 55.5024C21.3904 55.578 20.9248 56.104 20.9248 56.728V60.9488C20.9248 61.3531 21.1227 61.7318 21.4547 61.9626L32.9042 69.9214C33.3137 70.206 33.8541 70.2164 34.2742 69.9477Z" fill="#0F2170"/>
<path d="M34.2742 69.9477L42.1472 64.9123C42.502 64.6854 42.7167 64.2933 42.7167 63.8722V60.1129C42.7167 59.5902 42.3876 59.1242 41.8951 58.9494L29.8554 54.6752C29.6752 54.6112 29.4826 54.5899 29.2927 54.6131L22.0098 55.5024C21.3904 55.578 20.9248 56.104 20.9248 56.728V60.9488C20.9248 61.3531 21.1227 61.7318 21.4547 61.9626L32.9042 69.9214C33.3137 70.206 33.8541 70.2164 34.2742 69.9477Z" fill="url(#paint4_linear_146_8828)"/>
<path d="M28.9034 50.9494L21.5481 55.4992C20.8017 55.961 20.7619 57.0323 21.472 57.5482L32.9068 65.8545C33.3138 66.1502 33.8595 66.1694 34.2862 65.903L42.0799 61.0375C42.8388 60.5638 42.8576 59.4654 42.1154 58.9659L30.2423 50.9751C29.8398 50.7042 29.316 50.6942 28.9034 50.9494Z" fill="#BFCBFF"/>
<path d="M66.5099 72.021L74.3829 66.9855C74.7377 66.7586 74.9523 66.3665 74.9523 65.9454V62.1861C74.9523 61.6635 74.6232 61.1975 74.1307 61.0226L62.0911 56.7484C61.9109 56.6844 61.7182 56.6632 61.5284 56.6864L54.2454 57.5757C53.626 57.6513 53.1604 58.1772 53.1604 58.8012V63.022C53.1604 63.4264 53.3584 63.8051 53.6904 64.0358L65.1399 71.9947C65.5494 72.2793 66.0898 72.2897 66.5099 72.021Z" fill="#0F2170"/>
<path d="M66.5099 72.021L74.3829 66.9855C74.7377 66.7586 74.9523 66.3665 74.9523 65.9454V62.1861C74.9523 61.6635 74.6232 61.1975 74.1307 61.0226L62.0911 56.7484C61.9109 56.6844 61.7182 56.6632 61.5284 56.6864L54.2454 57.5757C53.626 57.6513 53.1604 58.1772 53.1604 58.8012V63.022C53.1604 63.4264 53.3584 63.8051 53.6904 64.0358L65.1399 71.9947C65.5494 72.2793 66.0898 72.2897 66.5099 72.021Z" fill="url(#paint5_linear_146_8828)"/>
<path d="M61.139 53.0225L53.7838 57.5723C53.0373 58.0341 52.9975 59.1054 53.7077 59.6213L65.1424 67.9277C65.5494 68.2233 66.0951 68.2425 66.5219 67.9761L74.3156 63.1106C75.0744 62.6369 75.0933 61.5385 74.3511 61.039L62.4779 53.0482C62.0754 52.7774 61.5516 52.7673 61.139 53.0225Z" fill="#BFCBFF"/>
<path d="M52.5127 81.9025L60.3857 76.867C60.7405 76.6401 60.9552 76.248 60.9552 75.8269V72.0676C60.9552 71.545 60.6261 71.0789 60.1336 70.9041L48.0939 66.6299C47.9137 66.5659 47.7211 66.5447 47.5312 66.5678L40.2483 67.4571C39.6289 67.5328 39.1633 68.0587 39.1633 68.6827V72.9035C39.1633 73.3078 39.3612 73.6865 39.6932 73.9173L51.1428 81.8761C51.5522 82.1607 52.0926 82.1711 52.5127 81.9025Z" fill="#0F2170"/>
<path d="M52.5127 81.9025L60.3857 76.867C60.7405 76.6401 60.9552 76.248 60.9552 75.8269V72.0676C60.9552 71.545 60.6261 71.0789 60.1336 70.9041L48.0939 66.6299C47.9137 66.5659 47.7211 66.5447 47.5312 66.5678L40.2483 67.4571C39.6289 67.5328 39.1633 68.0587 39.1633 68.6827V72.9035C39.1633 73.3078 39.3612 73.6865 39.6932 73.9173L51.1428 81.8761C51.5522 82.1607 52.0926 82.1711 52.5127 81.9025Z" fill="url(#paint6_linear_146_8828)"/>
<path d="M47.142 62.904L39.7867 67.4538C39.0402 67.9156 39.0004 68.9869 39.7106 69.5027L51.1454 77.8091C51.5524 78.1048 52.0981 78.1239 52.5248 77.8575L60.3185 72.9921C61.0773 72.5183 61.0962 71.42 60.354 70.9205L48.4808 62.9297C48.0784 62.6588 47.5546 62.6488 47.142 62.904Z" fill="#BFCBFF"/>
<path d="M23.5467 77.6778L28.4536 74.4566C28.8013 74.2283 29.0107 73.8404 29.0107 73.4245V69.4618C29.0107 69.0395 28.7949 68.6466 28.4386 68.42L19.2235 62.5594C18.9822 62.4059 18.6952 62.341 18.4113 62.3756L11.2787 63.2466C10.6593 63.3222 10.1937 63.8481 10.1937 64.4721V68.6929C10.1937 69.0973 10.3917 69.476 10.7237 69.7067L22.1644 77.6595C22.5783 77.9471 23.1254 77.9544 23.5467 77.6778Z" fill="#0F2170"/>
<path d="M23.5467 77.6778L28.4536 74.4566C28.8013 74.2283 29.0107 73.8404 29.0107 73.4245V69.4618C29.0107 69.0395 28.7949 68.6466 28.4386 68.42L19.2235 62.5594C18.9822 62.4059 18.6952 62.341 18.4113 62.3756L11.2787 63.2466C10.6593 63.3222 10.1937 63.8481 10.1937 64.4721V68.6929C10.1937 69.0973 10.3917 69.476 10.7237 69.7067L22.1644 77.6595C22.5783 77.9471 23.1254 77.9544 23.5467 77.6778Z" fill="url(#paint7_linear_146_8828)"/>
<path d="M40.6792 90.0318L45.5861 86.8106C45.9338 86.5823 46.1432 86.1944 46.1432 85.7785V81.8158C46.1432 81.3936 45.9274 81.0006 45.5711 80.774L36.356 74.9134C36.1147 74.7599 35.8277 74.695 35.5438 74.7296L28.4112 75.6006C27.7918 75.6762 27.3262 76.2021 27.3262 76.8261V81.0469C27.3262 81.4513 27.5242 81.83 27.8562 82.0607L39.297 90.0135C39.7108 90.3011 40.2579 90.3084 40.6792 90.0318Z" fill="#0F2170"/>
<path d="M40.6792 90.0318L45.5861 86.8106C45.9338 86.5823 46.1432 86.1944 46.1432 85.7785V81.8158C46.1432 81.3936 45.9274 81.0006 45.5711 80.774L36.356 74.9134C36.1147 74.7599 35.8277 74.695 35.5438 74.7296L28.4112 75.6006C27.7918 75.6762 27.3262 76.2021 27.3262 76.8261V81.0469C27.3262 81.4513 27.5242 81.83 27.8562 82.0607L39.297 90.0135C39.7108 90.3011 40.2579 90.3084 40.6792 90.0318Z" fill="url(#paint8_linear_146_8828)"/>
<path d="M15.2045 60.4686L10.8352 63.0473C10.0698 63.499 10.018 64.5871 10.7371 65.1095L22.1505 73.4003C22.5511 73.6914 23.0869 73.7149 23.5115 73.46L28.325 70.5707C29.1 70.1055 29.1288 68.9926 28.3789 68.4878L16.5214 60.5076C16.1266 60.2419 15.6143 60.2268 15.2045 60.4686Z" fill="#BFCBFF"/>
<path d="M32.337 72.8227L27.9677 75.4014C27.2023 75.8531 27.1505 76.9412 27.8696 77.4636L39.283 85.7545C39.6836 86.0455 40.2194 86.069 40.644 85.8141L45.4575 82.9249C46.2325 82.4596 46.2613 81.3467 45.5114 80.842L33.6539 72.8617C33.2591 72.5961 32.7468 72.5809 32.337 72.8227Z" fill="#BFCBFF"/>
<path d="M54.4952 26.2603L48.9431 37.22L81.0796 58.6765L86.6785 47.7267L54.4952 26.2603Z" fill="#0F2170"/>
<defs>
<linearGradient id="paint0_linear_146_8828" x1="102.488" y1="49.9868" x2="98.0131" y2="18.7051" gradientUnits="userSpaceOnUse">
<stop stop-color="#6DD362"/>
<stop offset="1" stop-color="#396D33"/>
</linearGradient>
<linearGradient id="paint1_linear_146_8828" x1="95.3389" y1="10.8142" x2="88.2997" y2="53.4211" gradientUnits="userSpaceOnUse">
<stop stop-color="#57DD4E"/>
<stop offset="1" stop-color="#54B54B"/>
</linearGradient>
<linearGradient id="paint2_linear_146_8828" x1="75.5034" y1="39.683" x2="56.3201" y2="114.844" gradientUnits="userSpaceOnUse">
<stop stop-color="#8EA3FF"/>
<stop offset="1" stop-color="#0228CA"/>
</linearGradient>
<linearGradient id="paint3_linear_146_8828" x1="51.9583" y1="48.6089" x2="48.2704" y2="64.3779" gradientUnits="userSpaceOnUse">
<stop stop-color="#8EA3FF"/>
<stop offset="1" stop-color="#0228CA"/>
</linearGradient>
<linearGradient id="paint4_linear_146_8828" x1="37.9611" y1="58.4902" x2="34.2732" y2="74.2593" gradientUnits="userSpaceOnUse">
<stop stop-color="#8EA3FF"/>
<stop offset="1" stop-color="#0228CA"/>
</linearGradient>
<linearGradient id="paint5_linear_146_8828" x1="70.1967" y1="60.5634" x2="66.5089" y2="76.3325" gradientUnits="userSpaceOnUse">
<stop stop-color="#8EA3FF"/>
<stop offset="1" stop-color="#0228CA"/>
</linearGradient>
<linearGradient id="paint6_linear_146_8828" x1="56.1996" y1="70.4449" x2="52.5117" y2="86.214" gradientUnits="userSpaceOnUse">
<stop stop-color="#8EA3FF"/>
<stop offset="1" stop-color="#0228CA"/>
</linearGradient>
<linearGradient id="paint7_linear_146_8828" x1="24.9043" y1="66.2343" x2="20.7077" y2="81.7293" gradientUnits="userSpaceOnUse">
<stop stop-color="#8EA3FF"/>
<stop offset="1" stop-color="#0228CA"/>
</linearGradient>
<linearGradient id="paint8_linear_146_8828" x1="42.0368" y1="78.5883" x2="37.8402" y2="94.0833" gradientUnits="userSpaceOnUse">
<stop stop-color="#8EA3FF"/>
<stop offset="1" stop-color="#0228CA"/>
</linearGradient>
</defs>
</svg>
