<svg width="326" height="309" viewBox="0 0 326 309" fill="none" xmlns="http://www.w3.org/2000/svg">
<rect x="0.105469" y="0.0585938" width="325.285" height="308" rx="14.4571" fill="#E8ECFF"/>
<path d="M203.159 125.827L134.07 85.4736V175.59L203.159 216.13V125.827Z" fill="url(#paint0_linear_4104_235429)"/>
<path d="M203.145 125.827L267.766 88.5889L267.749 178.197L203.157 216.13L203.145 125.827Z" fill="#B3C0F8"/>
<path d="M210.608 137.524L260.508 107.953V173.865L210.618 202.911L210.608 137.524Z" fill="#E8ECFE"/>
<path d="M197.934 48.0509L134.071 85.4738L203.16 125.827L267.768 88.5888L197.934 48.0509Z" fill="#CFD8FF"/>
<path d="M263.484 128.072V123.493L256.006 127.766V132.345L263.484 128.072Z" fill="white"/>
<path d="M262.304 122.849L263.484 123.493L256.006 127.766L254.733 127.131L262.304 122.849Z" fill="url(#paint1_linear_4104_235429)"/>
<path d="M256.008 132.345V127.767L254.735 127.132V131.709L256.008 132.345Z" fill="url(#paint2_linear_4104_235429)"/>
<path d="M263.484 161.957V157.379L256.006 161.652V166.231L263.484 161.957Z" fill="white"/>
<path d="M262.304 156.734L263.484 157.378L256.006 161.652L254.733 161.017L262.304 156.734Z" fill="url(#paint3_linear_4104_235429)"/>
<path d="M256.008 166.23V161.651L254.735 161.017V165.593L256.008 166.23Z" fill="url(#paint4_linear_4104_235429)"/>
<path d="M235.648 169.452L235.558 151.894L220.29 160.831V178.333L235.648 169.452Z" fill="white"/>
<path d="M233.48 150.776L235.555 151.894L220.287 160.831L218.053 159.714L233.48 150.776Z" fill="url(#paint5_linear_4104_235429)"/>
<path d="M218.055 159.714L220.289 160.831V178.333L218.055 176.799V159.714Z" fill="url(#paint6_linear_4104_235429)"/>
<path d="M229.228 159.341L231.648 160.458L226.435 171.257L223.74 169.316C223.424 168.73 222.847 166.42 224.146 163.497C225.445 160.574 228.055 159.566 229.228 159.341Z" fill="url(#paint7_radial_4104_235429)"/>
<ellipse cx="4.16625" cy="6.03844" rx="4.16625" ry="6.03844" transform="matrix(-0.908799 -0.417235 -0.417235 0.908799 235.648 162.236)" fill="#CFD8FF"/>
<ellipse cx="2.84894" cy="4.55965" rx="2.84894" ry="4.55965" transform="matrix(-0.908799 -0.417235 -0.417235 0.908799 233.922 163.141)" fill="#B3C0F8"/>
<path d="M206.895 237.582V223.117L261.685 191.266V205.73L206.895 237.582Z" fill="#8AE980"/>
<path d="M182.273 209.551L206.893 222.993V237.458L182.273 224.016V209.551Z" fill="#56D04D"/>
<path d="M238.379 178.115L182.273 209.675L206.893 223.117L261.683 191.265L238.379 178.115Z" fill="#C9FFC4"/>
<path d="M182.273 212.158L206.893 225.6L261.683 193.748" stroke="#4CAF50" stroke-width="0.408644"/>
<path d="M182.273 212.911L206.893 226.353L261.683 194.501" stroke="#4CAF50" stroke-width="0.408644"/>
<path d="M182.273 215.686L206.893 229.128L261.683 197.276" stroke="#4CAF50" stroke-width="0.408644"/>
<path d="M182.273 216.563L206.893 230.005L261.683 198.153" stroke="#4CAF50" stroke-width="0.408644"/>
<path d="M182.273 218.17L206.893 231.612L261.683 199.761" stroke="#4CAF50" stroke-width="0.408644"/>
<path d="M182.273 220.947L206.893 234.389L261.683 202.537" stroke="#4CAF50" stroke-width="0.408644"/>
<path d="M182.273 221.677L206.893 235.119L261.683 203.268" stroke="#4CAF50" stroke-width="0.408644"/>
<path d="M247.878 213.692V199.301L238.527 204.707L238.747 219.172L247.878 213.692Z" fill="#E0E0E0"/>
<path d="M215.148 191.192L238.526 204.707L247.877 199.301L224.061 186.151L215.148 191.192Z" fill="white"/>
<path d="M229.353 231.039C229.357 230.79 229.352 230.533 229.347 230.279C229.344 230.128 229.34 229.977 229.339 229.829C229.337 229.429 229.349 229.04 229.413 228.673C229.54 227.946 229.869 227.301 230.707 226.83C231.542 226.36 232.913 225.858 234.396 225.478C235.879 225.099 237.458 224.847 238.706 224.869C240.134 224.894 241.742 225.153 243.204 225.564C244.669 225.975 245.973 226.535 246.799 227.153C247.429 227.626 247.672 228.212 247.756 228.855C247.816 229.318 247.794 229.797 247.77 230.286C247.761 230.492 247.751 230.699 247.747 230.908C247.64 232.484 246.608 233.949 244.948 235.015C243.288 236.081 241.013 236.737 238.457 236.692C235.898 236.647 233.6 235.98 231.952 234.947C230.302 233.911 229.326 232.524 229.353 231.039ZM244.897 231.313C244.916 230.211 244.193 229.224 243.06 228.513C241.925 227.801 240.356 227.35 238.623 227.319C236.89 227.289 235.306 227.684 234.146 228.356C232.989 229.026 232.231 229.987 232.212 231.089C232.192 232.199 232.916 233.042 234.044 233.607C235.172 234.172 236.73 234.476 238.454 234.506C240.178 234.537 241.766 234.289 242.933 233.765C244.1 233.241 244.877 232.425 244.897 231.313Z" fill="#CDD6FF" stroke="#0228CA" stroke-width="0.289756"/>
<path d="M229.364 229.193C229.39 227.707 230.414 226.355 232.1 225.379C233.783 224.404 236.103 223.82 238.663 223.865C241.222 223.91 243.52 224.576 245.168 225.61C246.818 226.645 247.793 228.032 247.767 229.518C247.741 231.004 246.717 232.356 245.032 233.332C243.349 234.307 241.028 234.892 238.469 234.846C235.909 234.801 233.611 234.135 231.963 233.101C230.313 232.066 229.338 230.679 229.364 229.193Z" fill="white" stroke="#0228CA" stroke-width="0.289756"/>
<path d="M229.208 227.673C229.236 226.088 228.871 224.333 230.636 223.34C232.337 222.383 236.176 221.316 238.709 221.361C241.592 221.412 245.193 222.407 246.886 223.674C248.224 224.676 247.916 226.177 247.892 227.551C247.671 230.824 243.617 233.565 238.455 233.473C233.293 233.382 229.153 230.785 229.208 227.673ZM244.752 227.947C244.788 225.883 242.043 224.161 238.62 224.101C235.198 224.04 232.393 225.665 232.357 227.728C232.32 229.792 235.033 230.938 238.456 230.998C241.879 231.059 244.715 230.011 244.752 227.947Z" fill="url(#paint8_linear_4104_235429)"/>
<path d="M229.364 225.83C229.39 224.344 230.414 222.992 232.1 222.016C233.783 221.041 236.103 220.456 238.663 220.501C241.222 220.547 243.52 221.213 245.168 222.247C246.818 223.282 247.793 224.669 247.767 226.155C247.741 227.64 246.717 228.992 245.032 229.969C243.349 230.943 241.028 231.528 238.469 231.483C235.909 231.438 233.611 230.771 231.963 229.738C230.313 228.703 229.338 227.315 229.364 225.83Z" fill="white" stroke="#0228CA" stroke-width="0.289756"/>
<path d="M229.353 224.314C229.357 224.065 229.352 223.809 229.347 223.555C229.344 223.403 229.34 223.252 229.339 223.104C229.337 222.704 229.349 222.315 229.413 221.948C229.54 221.222 229.869 220.576 230.707 220.105C231.542 219.635 232.913 219.133 234.396 218.754C235.879 218.375 237.458 218.122 238.706 218.144C240.134 218.17 241.742 218.429 243.204 218.839C244.669 219.251 245.973 219.81 246.799 220.429C247.429 220.901 247.672 221.487 247.756 222.13C247.816 222.593 247.794 223.072 247.77 223.561C247.761 223.767 247.751 223.975 247.747 224.184C247.64 225.759 246.608 227.225 244.948 228.291C243.288 229.356 241.013 230.012 238.457 229.967C235.898 229.922 233.6 229.256 231.952 228.222C230.302 227.187 229.326 225.8 229.353 224.314ZM244.897 224.588C244.916 223.486 244.193 222.499 243.06 221.789C241.925 221.076 240.356 220.625 238.623 220.595C236.89 220.564 235.306 220.96 234.146 221.631C232.989 222.301 232.231 223.262 232.212 224.364C232.192 225.474 232.916 226.318 234.044 226.883C235.172 227.448 236.73 227.751 238.454 227.782C240.178 227.812 241.766 227.564 242.933 227.04C244.1 226.517 244.877 225.7 244.897 224.588Z" fill="#CDD6FF" stroke="#0228CA" stroke-width="0.289756"/>
<path d="M229.364 222.467C229.39 220.982 230.414 219.63 232.1 218.654C233.783 217.679 236.103 217.094 238.663 217.139C241.222 217.184 243.52 217.851 245.168 218.884C246.818 219.92 247.793 221.307 247.767 222.792C247.741 224.278 246.717 225.63 245.032 226.606C243.349 227.581 241.028 228.166 238.469 228.121C235.909 228.076 233.611 227.409 231.963 226.376C230.313 225.34 229.338 223.953 229.364 222.467Z" fill="white" stroke="#0228CA" stroke-width="0.289756"/>
<path d="M229.208 220.948C229.236 219.363 228.871 217.609 230.636 216.615C232.337 215.659 236.176 214.591 238.709 214.636C241.592 214.687 245.193 215.682 246.886 216.95C248.224 217.952 247.916 219.452 247.892 220.827C247.671 224.099 243.617 226.84 238.455 226.749C233.293 226.658 229.153 224.061 229.208 220.948ZM244.752 221.223C244.788 219.159 242.043 217.437 238.62 217.376C235.198 217.316 232.393 218.94 232.357 221.004C232.32 223.068 235.033 224.213 238.456 224.274C241.879 224.334 244.715 223.287 244.752 221.223Z" fill="url(#paint9_linear_4104_235429)"/>
<path d="M229.364 219.105C229.39 217.619 230.414 216.268 232.1 215.291C233.783 214.317 236.103 213.732 238.663 213.777C241.222 213.822 243.52 214.489 245.168 215.522C246.818 216.557 247.793 217.944 247.767 219.43C247.741 220.916 246.717 222.268 245.032 223.244C243.349 224.219 241.028 224.804 238.469 224.758C235.909 224.713 233.611 224.047 231.963 223.013C230.313 221.978 229.338 220.591 229.364 219.105Z" fill="white" stroke="#0228CA" stroke-width="0.289756"/>
<path d="M229.353 217.585C229.357 217.336 229.352 217.079 229.347 216.825C229.344 216.673 229.34 216.523 229.339 216.375C229.337 215.975 229.349 215.586 229.413 215.219C229.54 214.492 229.869 213.847 230.707 213.376C231.542 212.906 232.913 212.404 234.396 212.024C235.879 211.645 237.458 211.393 238.706 211.415C240.134 211.44 241.742 211.699 243.204 212.11C244.669 212.521 245.973 213.081 246.799 213.699C247.429 214.171 247.672 214.758 247.756 215.401C247.816 215.864 247.794 216.343 247.77 216.832C247.761 217.038 247.751 217.245 247.747 217.454C247.64 219.03 246.608 220.495 244.948 221.561C243.288 222.627 241.013 223.283 238.457 223.238C235.898 223.193 233.6 222.526 231.952 221.493C230.302 220.457 229.326 219.07 229.353 217.585ZM244.897 217.859C244.916 216.757 244.193 215.77 243.06 215.059C241.925 214.347 240.356 213.896 238.623 213.865C236.89 213.835 235.306 214.23 234.146 214.902C232.989 215.572 232.231 216.533 232.212 217.635C232.192 218.745 232.916 219.588 234.044 220.153C235.172 220.718 236.73 221.022 238.454 221.052C240.178 221.083 241.766 220.835 242.933 220.311C244.1 219.787 244.877 218.971 244.897 217.859Z" fill="#CDD6FF" stroke="#0228CA" stroke-width="0.289756"/>
<path d="M229.364 215.739C229.39 214.253 230.414 212.901 232.1 211.925C233.783 210.95 236.103 210.365 238.663 210.411C241.222 210.456 243.52 211.122 245.168 212.156C246.818 213.191 247.793 214.578 247.767 216.064C247.741 217.55 246.717 218.901 245.032 219.878C243.349 220.852 241.028 221.437 238.469 221.392C235.909 221.347 233.611 220.681 231.963 219.647C230.313 218.612 229.338 217.225 229.364 215.739Z" fill="white" stroke="#0228CA" stroke-width="0.289756"/>
<path d="M229.208 214.222C229.236 212.636 228.871 210.882 230.636 209.889C232.337 208.932 236.176 207.865 238.709 207.91C241.592 207.961 245.193 208.956 246.886 210.223C248.224 211.225 247.916 212.726 247.892 214.1C247.671 217.373 243.617 220.113 238.455 220.022C233.293 219.931 229.153 217.334 229.208 214.222ZM244.752 214.496C244.788 212.432 242.043 210.71 238.62 210.65C235.198 210.589 232.393 212.213 232.357 214.277C232.32 216.341 235.033 217.487 238.456 217.547C241.879 217.608 244.715 216.56 244.752 214.496Z" fill="url(#paint10_linear_4104_235429)"/>
<path d="M229.36 212.379C229.386 210.893 230.41 209.541 232.096 208.565C233.779 207.59 236.1 207.005 238.659 207.05C241.218 207.095 243.516 207.762 245.164 208.795C246.814 209.831 247.789 211.218 247.763 212.704C247.737 214.189 246.713 215.541 245.028 216.517C243.345 217.492 241.024 218.077 238.465 218.032C235.906 217.987 233.607 217.32 231.959 216.287C230.309 215.251 229.334 213.864 229.36 212.379Z" fill="white" stroke="#0228CA" stroke-width="0.289756"/>
<path d="M211.196 239.101C211.201 238.852 211.196 238.596 211.19 238.342C211.187 238.19 211.184 238.039 211.183 237.892C211.18 237.491 211.193 237.103 211.257 236.735C211.384 236.009 211.713 235.364 212.551 234.892C213.385 234.422 214.757 233.92 216.24 233.541C217.722 233.162 219.301 232.909 220.55 232.931C221.977 232.957 223.586 233.216 225.048 233.627C226.513 234.038 227.817 234.598 228.642 235.216C229.273 235.688 229.516 236.274 229.6 236.918C229.66 237.38 229.637 237.859 229.614 238.349C229.605 238.554 229.595 238.762 229.591 238.971C229.483 240.546 228.452 242.012 226.792 243.078C225.132 244.143 222.857 244.8 220.301 244.754C217.742 244.709 215.443 244.043 213.796 243.009C212.145 241.974 211.17 240.587 211.196 239.101ZM226.741 239.376C226.76 238.273 226.037 237.286 224.904 236.576C223.769 235.864 222.2 235.412 220.467 235.382C218.733 235.351 217.15 235.747 215.99 236.418C214.833 237.089 214.075 238.049 214.056 239.152C214.036 240.261 214.76 241.105 215.888 241.67C217.016 242.235 218.573 242.538 220.297 242.569C222.021 242.599 223.609 242.351 224.777 241.827C225.944 241.304 226.721 240.487 226.741 239.376Z" fill="#CDD6FF" stroke="#0228CA" stroke-width="0.289756"/>
<path d="M211.204 237.256C211.23 235.77 212.254 234.418 213.939 233.442C215.622 232.467 217.943 231.882 220.502 231.927C223.061 231.972 225.36 232.639 227.008 233.672C228.658 234.708 229.633 236.095 229.607 237.581C229.581 239.066 228.557 240.418 226.871 241.394C225.188 242.369 222.868 242.954 220.308 242.909C217.749 242.864 215.451 242.197 213.803 241.164C212.153 240.128 211.178 238.741 211.204 237.256Z" fill="white" stroke="#0228CA" stroke-width="0.289756"/>
<path d="M211.052 235.735C211.08 234.15 210.714 232.396 212.48 231.403C214.18 230.446 218.019 229.379 220.552 229.423C223.435 229.474 227.037 230.469 228.729 231.737C230.067 232.739 229.76 234.24 229.736 235.614C229.515 238.887 225.46 241.627 220.299 241.536C215.137 241.445 210.997 238.848 211.052 235.735ZM226.596 236.01C226.632 233.946 223.887 232.224 220.464 232.163C217.041 232.103 214.237 233.727 214.201 235.791C214.164 237.855 216.877 239 220.3 239.061C223.723 239.121 226.559 238.074 226.596 236.01Z" fill="url(#paint11_linear_4104_235429)"/>
<path d="M211.204 233.892C211.23 232.407 212.254 231.055 213.939 230.078C215.622 229.104 217.943 228.519 220.502 228.564C223.061 228.609 225.36 229.276 227.008 230.309C228.658 231.344 229.633 232.732 229.607 234.217C229.581 235.703 228.557 237.055 226.871 238.031C225.188 239.006 222.868 239.591 220.308 239.546C217.749 239.5 215.451 238.834 213.803 237.8C212.153 236.765 211.178 235.378 211.204 233.892Z" fill="white" stroke="#0228CA" stroke-width="0.289756"/>
<path d="M211.196 232.374C211.201 232.125 211.196 231.868 211.19 231.614C211.187 231.463 211.184 231.312 211.183 231.164C211.18 230.764 211.193 230.375 211.257 230.008C211.384 229.281 211.713 228.636 212.551 228.165C213.385 227.695 214.757 227.193 216.24 226.813C217.722 226.434 219.301 226.182 220.55 226.204C221.977 226.229 223.586 226.488 225.048 226.899C226.513 227.31 227.817 227.87 228.642 228.488C229.273 228.961 229.516 229.547 229.6 230.19C229.66 230.653 229.637 231.132 229.614 231.621C229.605 231.827 229.595 232.034 229.591 232.243C229.483 233.819 228.452 235.284 226.792 236.35C225.132 237.416 222.857 238.072 220.301 238.027C217.742 237.982 215.443 237.315 213.796 236.282C212.145 235.246 211.17 233.859 211.196 232.374ZM226.741 232.648C226.76 231.546 226.037 230.559 224.904 229.848C223.769 229.136 222.2 228.685 220.467 228.654C218.733 228.624 217.15 229.019 215.99 229.691C214.833 230.361 214.075 231.322 214.056 232.424C214.036 233.534 214.76 234.377 215.888 234.942C217.016 235.507 218.573 235.811 220.297 235.841C222.021 235.872 223.609 235.624 224.777 235.1C225.944 234.576 226.721 233.76 226.741 232.648Z" fill="#CDD6FF" stroke="#0228CA" stroke-width="0.289756"/>
<path d="M211.204 230.527C211.23 229.041 212.254 227.689 213.939 226.713C215.622 225.738 217.943 225.154 220.502 225.199C223.061 225.244 225.36 225.91 227.008 226.944C228.658 227.979 229.633 229.366 229.607 230.852C229.581 232.338 228.557 233.69 226.871 234.666C225.188 235.641 222.868 236.226 220.308 236.18C217.749 236.135 215.451 235.469 213.803 234.435C212.153 233.4 211.178 232.013 211.204 230.527Z" fill="white" stroke="#0228CA" stroke-width="0.289756"/>
<path d="M249.236 229.504C249.24 229.256 249.235 228.999 249.229 228.745C249.226 228.593 249.223 228.443 249.222 228.295C249.22 227.894 249.232 227.506 249.296 227.138C249.423 226.412 249.752 225.767 250.59 225.295C251.424 224.826 252.796 224.324 254.279 223.944C255.761 223.565 257.34 223.313 258.589 223.335C260.016 223.36 261.625 223.619 263.087 224.03C264.552 224.441 265.856 225.001 266.681 225.619C267.312 226.091 267.555 226.677 267.639 227.321C267.699 227.784 267.676 228.263 267.653 228.752C267.644 228.958 267.634 229.165 267.63 229.374C267.522 230.95 266.491 232.415 264.831 233.481C263.171 234.547 260.896 235.203 258.34 235.158C255.781 235.113 253.482 234.446 251.835 233.413C250.185 232.377 249.209 230.99 249.236 229.504ZM264.78 229.779C264.799 228.676 264.076 227.69 262.943 226.979C261.808 226.267 260.239 225.816 258.506 225.785C256.772 225.754 255.189 226.15 254.029 226.822C252.872 227.492 252.114 228.452 252.095 229.555C252.075 230.665 252.799 231.508 253.927 232.073C255.055 232.638 256.612 232.942 258.336 232.972C260.06 233.003 261.648 232.755 262.816 232.231C263.983 231.707 264.76 230.891 264.78 229.779Z" fill="#CDD6FF" stroke="#0228CA" stroke-width="0.289756"/>
<path d="M249.243 227.659C249.269 226.173 250.293 224.821 251.978 223.845C253.661 222.87 255.982 222.285 258.541 222.331C261.101 222.376 263.399 223.042 265.047 224.076C266.697 225.111 267.672 226.498 267.646 227.984C267.62 229.47 266.596 230.821 264.91 231.798C263.227 232.772 260.907 233.357 258.347 233.312C255.788 233.267 253.49 232.6 251.842 231.567C250.192 230.532 249.217 229.145 249.243 227.659Z" fill="white" stroke="#0228CA" stroke-width="0.289756"/>
<path d="M249.091 226.138C249.119 224.552 248.753 222.798 250.519 221.805C252.219 220.848 256.059 219.781 258.592 219.826C261.474 219.877 265.076 220.872 266.768 222.139C268.106 223.141 267.799 224.642 267.775 226.016C267.554 229.289 263.5 232.029 258.338 231.938C253.176 231.847 249.036 229.25 249.091 226.138ZM264.635 226.412C264.671 224.348 261.926 222.626 258.503 222.566C255.08 222.505 252.276 224.129 252.24 226.193C252.203 228.257 254.916 229.403 258.339 229.463C261.762 229.524 264.598 228.476 264.635 226.412Z" fill="url(#paint12_linear_4104_235429)"/>
<path d="M249.247 224.295C249.273 222.809 250.297 221.457 251.982 220.481C253.665 219.506 255.986 218.921 258.545 218.966C261.104 219.011 263.403 219.678 265.051 220.712C266.701 221.747 267.676 223.134 267.65 224.62C267.624 226.105 266.6 227.457 264.914 228.433C263.231 229.408 260.91 229.993 258.351 229.948C255.792 229.903 253.494 229.236 251.846 228.203C250.196 227.167 249.22 225.78 249.247 224.295Z" fill="white" stroke="#0228CA" stroke-width="0.289756"/>
<path d="M249.236 222.777C249.24 222.528 249.235 222.272 249.229 222.018C249.226 221.866 249.223 221.715 249.222 221.567C249.22 221.167 249.232 220.778 249.296 220.411C249.423 219.685 249.752 219.039 250.59 218.568C251.424 218.098 252.796 217.596 254.279 217.217C255.761 216.838 257.34 216.585 258.589 216.607C260.016 216.632 261.625 216.892 263.087 217.302C264.552 217.714 265.856 218.273 266.681 218.892C267.312 219.364 267.555 219.95 267.639 220.593C267.699 221.056 267.676 221.535 267.653 222.024C267.644 222.23 267.634 222.438 267.63 222.647C267.522 224.222 266.491 225.688 264.831 226.753C263.171 227.819 260.896 228.475 258.34 228.43C255.781 228.385 253.482 227.718 251.835 226.685C250.185 225.65 249.209 224.263 249.236 222.777ZM264.78 223.051C264.799 221.949 264.076 220.962 262.943 220.252C261.808 219.539 260.239 219.088 258.506 219.058C256.772 219.027 255.189 219.422 254.029 220.094C252.872 220.764 252.114 221.725 252.095 222.827C252.075 223.937 252.799 224.78 253.927 225.346C255.055 225.911 256.612 226.214 258.336 226.245C260.06 226.275 261.648 226.027 262.816 225.503C263.983 224.979 264.76 224.163 264.78 223.051Z" fill="#CDD6FF" stroke="#0228CA" stroke-width="0.289756"/>
<path d="M249.247 220.93C249.273 219.445 250.297 218.093 251.982 217.116C253.665 216.142 255.986 215.557 258.545 215.602C261.104 215.647 263.403 216.314 265.051 217.347C266.701 218.382 267.676 219.77 267.65 221.255C267.624 222.741 266.6 224.093 264.914 225.069C263.231 226.044 260.91 226.629 258.351 226.584C255.792 226.538 253.494 225.872 251.846 224.838C250.196 223.803 249.22 222.416 249.247 220.93Z" fill="white" stroke="#0228CA" stroke-width="0.289756"/>
<path d="M249.091 219.411C249.119 217.826 248.753 216.072 250.519 215.078C252.219 214.121 256.059 213.054 258.592 213.099C261.474 213.15 265.076 214.145 266.768 215.412C268.106 216.414 267.799 217.915 267.775 219.289C267.554 222.562 263.5 225.303 258.338 225.212C253.176 225.121 249.036 222.524 249.091 219.411ZM264.635 219.686C264.671 217.622 261.926 215.9 258.503 215.839C255.08 215.779 252.276 217.403 252.24 219.467C252.203 221.531 254.916 222.676 258.339 222.737C261.762 222.797 264.598 221.749 264.635 219.686Z" fill="url(#paint13_linear_4104_235429)"/>
<path d="M249.243 217.568C249.269 216.082 250.293 214.73 251.978 213.754C253.661 212.779 255.982 212.195 258.541 212.24C261.101 212.285 263.399 212.951 265.047 213.985C266.697 215.02 267.672 216.407 267.646 217.893C267.62 219.379 266.596 220.731 264.91 221.707C263.227 222.682 260.907 223.267 258.347 223.221C255.788 223.176 253.49 222.51 251.842 221.476C250.192 220.441 249.217 219.054 249.243 217.568Z" fill="white" stroke="#0228CA" stroke-width="0.289756"/>
<g filter="url(#filter0_d_4104_235429)">
<path d="M109.385 174.891L182.277 211.445L122.286 243.484L51.5442 203.49L109.385 174.891Z" fill="white"/>
</g>
<g filter="url(#filter1_d_4104_235429)">
<path d="M109.385 168.439L182.277 204.994L122.286 237.033L51.5442 197.039L109.385 168.439Z" fill="white"/>
</g>
<g filter="url(#filter2_d_4104_235429)">
<path d="M109.385 161.989L182.277 198.544L122.286 230.582L51.5442 190.588L109.385 161.989Z" fill="white"/>
</g>
<path d="M68.3125 191.446L113.037 167.794M100.351 183.49L121.638 172.094M107.231 186.501L127.873 175.75M113.897 190.156L134.109 179.405" stroke="#BFCBFF" stroke-width="4.90372"/>
<ellipse cx="91.5344" cy="194.457" rx="13.3313" ry="6.02057" fill="#CFD8FF"/>
<path d="M109.168 212.948L122.714 221.119M111.748 203.917L131.315 215.744M127.23 203.917L140.776 212.088M124.649 194.027L147.657 207.788M143.356 195.747L150.129 199.832L156.903 203.917M151.527 191.446L158.3 195.532L165.073 199.617" stroke="#6575B8" stroke-opacity="0.5" stroke-width="4.90372"/>
<path d="M112.853 237.013L81.5352 254.869C82.657 254.23 85.499 253.989 87.8923 258.141C90.2856 262.294 88.796 264.858 87.7988 265.527L119.024 247.671C119.74 246.985 120.669 244.66 118.65 240.846C116.63 237.032 113.944 236.702 112.853 237.013Z" fill="url(#paint14_linear_4104_235429)"/>
<path d="M174.927 222.896V232.058C174.927 232.058 170.564 214.669 146.406 214.669C122.247 214.669 116.965 231.497 116.965 231.497V222.896C117.333 217.318 124.233 207.564 146.406 207.564C169.102 207.564 174.866 218.253 174.927 222.896Z" fill="url(#paint15_linear_4104_235429)"/>
<ellipse cx="84.9072" cy="260.049" rx="3.68456" ry="6.2281" transform="rotate(-29.4481 84.9072 260.049)" fill="#DAE1FF"/>
<path d="M175.397 231.123V221.961C175.397 221.961 173.06 235.517 147.164 237.012C121.268 238.508 116.5 222.522 116.5 222.522V231.123C116.874 236.701 123.885 246.455 146.416 246.455C169.478 246.455 175.335 235.766 175.397 231.123Z" fill="url(#paint16_linear_4104_235429)"/>
<path d="M175.304 222.148C175.304 231.029 162.161 238.228 145.949 238.228C129.736 238.228 116.594 231.029 116.594 222.148C116.594 213.268 129.736 206.068 145.949 206.068C162.161 206.068 175.304 213.268 175.304 222.148ZM120.707 222.148C120.707 229.946 132.185 234.865 146.42 234.865C160.656 234.865 171.697 229.292 171.697 221.494C171.697 213.696 160.22 208.777 145.984 208.777C131.749 208.777 120.707 214.35 120.707 222.148Z" fill="#DAE1FF"/>
<path d="M121.83 233.928L115.566 237.481C116.158 237.917 117.623 239.238 118.745 241.033C119.867 242.828 119.96 244.586 119.867 245.24L126.504 241.313C126.878 240.753 127.308 239.032 126.037 236.639C124.766 234.246 122.703 233.835 121.83 233.928Z" fill="#DAE1FF"/>
<defs>
<filter id="filter0_d_4104_235429" x="48.2738" y="174.891" width="137.273" height="75.1311" filterUnits="userSpaceOnUse" color-interpolation-filters="sRGB">
<feFlood flood-opacity="0" result="BackgroundImageFix"/>
<feColorMatrix in="SourceAlpha" type="matrix" values="0 0 0 0 0 0 0 0 0 0 0 0 0 0 0 0 0 0 127 0" result="hardAlpha"/>
<feOffset dy="3.26915"/>
<feGaussianBlur stdDeviation="1.63457"/>
<feComposite in2="hardAlpha" operator="out"/>
<feColorMatrix type="matrix" values="0 0 0 0 0 0 0 0 0 0 0 0 0 0 0 0 0 0 0.25 0"/>
<feBlend mode="normal" in2="BackgroundImageFix" result="effect1_dropShadow_4104_235429"/>
<feBlend mode="normal" in="SourceGraphic" in2="effect1_dropShadow_4104_235429" result="shape"/>
</filter>
<filter id="filter1_d_4104_235429" x="48.2738" y="168.439" width="137.273" height="75.1311" filterUnits="userSpaceOnUse" color-interpolation-filters="sRGB">
<feFlood flood-opacity="0" result="BackgroundImageFix"/>
<feColorMatrix in="SourceAlpha" type="matrix" values="0 0 0 0 0 0 0 0 0 0 0 0 0 0 0 0 0 0 127 0" result="hardAlpha"/>
<feOffset dy="3.26915"/>
<feGaussianBlur stdDeviation="1.63457"/>
<feComposite in2="hardAlpha" operator="out"/>
<feColorMatrix type="matrix" values="0 0 0 0 0 0 0 0 0 0 0 0 0 0 0 0 0 0 0.25 0"/>
<feBlend mode="normal" in2="BackgroundImageFix" result="effect1_dropShadow_4104_235429"/>
<feBlend mode="normal" in="SourceGraphic" in2="effect1_dropShadow_4104_235429" result="shape"/>
</filter>
<filter id="filter2_d_4104_235429" x="48.2738" y="161.989" width="137.273" height="75.1311" filterUnits="userSpaceOnUse" color-interpolation-filters="sRGB">
<feFlood flood-opacity="0" result="BackgroundImageFix"/>
<feColorMatrix in="SourceAlpha" type="matrix" values="0 0 0 0 0 0 0 0 0 0 0 0 0 0 0 0 0 0 127 0" result="hardAlpha"/>
<feOffset dy="3.26915"/>
<feGaussianBlur stdDeviation="1.63457"/>
<feComposite in2="hardAlpha" operator="out"/>
<feColorMatrix type="matrix" values="0 0 0 0 0 0 0 0 0 0 0 0 0 0 0 0 0 0 0.25 0"/>
<feBlend mode="normal" in2="BackgroundImageFix" result="effect1_dropShadow_4104_235429"/>
<feBlend mode="normal" in="SourceGraphic" in2="effect1_dropShadow_4104_235429" result="shape"/>
</filter>
<linearGradient id="paint0_linear_4104_235429" x1="188.082" y1="117.798" x2="127.015" y2="217.994" gradientUnits="userSpaceOnUse">
<stop stop-color="#8EA3FF"/>
<stop offset="1" stop-color="#0228CA"/>
</linearGradient>
<linearGradient id="paint1_linear_4104_235429" x1="256.643" y1="124.065" x2="257.55" y2="129.072" gradientUnits="userSpaceOnUse">
<stop stop-color="#0228CA"/>
<stop offset="1" stop-color="#8EA3FF"/>
</linearGradient>
<linearGradient id="paint2_linear_4104_235429" x1="255.013" y1="128.422" x2="257.652" y2="130.421" gradientUnits="userSpaceOnUse">
<stop stop-color="#0228CA"/>
<stop offset="1" stop-color="#8EA3FF"/>
</linearGradient>
<linearGradient id="paint3_linear_4104_235429" x1="256.643" y1="157.951" x2="257.55" y2="162.958" gradientUnits="userSpaceOnUse">
<stop stop-color="#0228CA"/>
<stop offset="1" stop-color="#8EA3FF"/>
</linearGradient>
<linearGradient id="paint4_linear_4104_235429" x1="255.013" y1="162.306" x2="257.652" y2="164.306" gradientUnits="userSpaceOnUse">
<stop stop-color="#0228CA"/>
<stop offset="1" stop-color="#8EA3FF"/>
</linearGradient>
<linearGradient id="paint5_linear_4104_235429" x1="239.465" y1="149.287" x2="220.81" y2="149.952" gradientUnits="userSpaceOnUse">
<stop stop-color="#0228CA"/>
<stop offset="1" stop-color="#8EA3FF"/>
</linearGradient>
<linearGradient id="paint6_linear_4104_235429" x1="217.682" y1="160.459" x2="225.282" y2="161.449" gradientUnits="userSpaceOnUse">
<stop stop-color="#0228CA"/>
<stop offset="1" stop-color="#8EA3FF"/>
</linearGradient>
<radialGradient id="paint7_radial_4104_235429" cx="0" cy="0" r="1" gradientUnits="userSpaceOnUse" gradientTransform="translate(225.372 172.523) rotate(-81.5554) scale(15.4299 4.48273)">
<stop stop-color="#8EA3FF"/>
<stop offset="1" stop-color="#0228CA"/>
</radialGradient>
<linearGradient id="paint8_linear_4104_235429" x1="233.217" y1="230.383" x2="235.974" y2="218.217" gradientUnits="userSpaceOnUse">
<stop stop-color="#8DA3FF"/>
<stop offset="1" stop-color="#0228CA"/>
</linearGradient>
<linearGradient id="paint9_linear_4104_235429" x1="233.217" y1="223.659" x2="235.974" y2="211.492" gradientUnits="userSpaceOnUse">
<stop stop-color="#8DA3FF"/>
<stop offset="1" stop-color="#0228CA"/>
</linearGradient>
<linearGradient id="paint10_linear_4104_235429" x1="233.217" y1="216.932" x2="235.974" y2="204.766" gradientUnits="userSpaceOnUse">
<stop stop-color="#8DA3FF"/>
<stop offset="1" stop-color="#0228CA"/>
</linearGradient>
<linearGradient id="paint11_linear_4104_235429" x1="215.061" y1="238.446" x2="217.817" y2="226.279" gradientUnits="userSpaceOnUse">
<stop stop-color="#8DA3FF"/>
<stop offset="1" stop-color="#0228CA"/>
</linearGradient>
<linearGradient id="paint12_linear_4104_235429" x1="253.1" y1="228.848" x2="255.856" y2="216.682" gradientUnits="userSpaceOnUse">
<stop stop-color="#8DA3FF"/>
<stop offset="1" stop-color="#0228CA"/>
</linearGradient>
<linearGradient id="paint13_linear_4104_235429" x1="253.1" y1="222.121" x2="255.856" y2="209.955" gradientUnits="userSpaceOnUse">
<stop stop-color="#8DA3FF"/>
<stop offset="1" stop-color="#0228CA"/>
</linearGradient>
<linearGradient id="paint14_linear_4104_235429" x1="111.506" y1="244" x2="104.669" y2="272.439" gradientUnits="userSpaceOnUse">
<stop stop-color="#0228CA"/>
<stop offset="1" stop-color="#8EA3FF"/>
</linearGradient>
<linearGradient id="paint15_linear_4104_235429" x1="162.278" y1="225.998" x2="158.834" y2="200.706" gradientUnits="userSpaceOnUse">
<stop stop-color="#0228CA"/>
<stop offset="1" stop-color="#8EA3FF"/>
</linearGradient>
<linearGradient id="paint16_linear_4104_235429" x1="162.544" y1="228.021" x2="159.152" y2="253.327" gradientUnits="userSpaceOnUse">
<stop stop-color="#0228CA"/>
<stop offset="1" stop-color="#8EA3FF"/>
</linearGradient>
</defs>
</svg>
