<svg width="326" height="309" viewBox="0 0 326 309" fill="none" xmlns="http://www.w3.org/2000/svg">
<rect x="-0.00500488" y="0.243286" width="325.29" height="308" rx="8.00714" fill="#E8ECFF"/>
<g clip-path="url(#clip0_1133_2)">
<path d="M111.018 122.411L120.27 117.646L131.941 125.469L127.467 222.262L199.888 171.941L214.128 178.25V187.257L122.593 251.122L112.814 242.596L111.018 122.411Z" fill="#0F2170"/>
<path d="M111.018 122.411L120.27 117.646L131.941 125.469L127.467 222.262L199.888 171.941L214.128 178.25V187.257L122.593 251.122L112.814 242.596L111.018 122.411Z" fill="url(#paint0_linear_1133_2)"/>
<path d="M120.861 123.835L131.719 118.345L133.068 232.145L215.538 174.668V187.347L122.278 251.535L120.861 123.835Z" fill="#D9E0FF"/>
<path d="M204.492 182.533L195.05 188.952L193.702 77.8941L111.232 133.986V123.399L202.7 61.3786L204.492 182.533Z" fill="#0F2170"/>
<path d="M204.492 182.533L195.05 188.952L193.702 77.8941L111.232 133.986V123.399L202.7 61.3786L204.492 182.533Z" fill="url(#paint1_linear_1133_2)"/>
<path d="M201.095 193.766V58.169L213.612 66.9949L215.538 187.347L201.095 193.766Z" fill="#D9E0FF"/>
<path d="M156.35 128.63L146.561 137.223L186.489 181.543L228.375 91.976L212.533 95.9351L183.399 159.981L156.35 128.63Z" fill="url(#paint2_linear_1133_2)"/>
<path d="M147.338 140.92L146.535 136.908L186.653 180.235L186.653 183.444L147.338 140.92Z" fill="#3353DC"/>
<path d="M156.164 154.559L163.385 134.501" stroke="#E8ECFF" stroke-width="1.6047"/>
<path d="M136.105 167.397L110.43 148.141" stroke="#E8ECFF" stroke-width="3.20939"/>
<path d="M188.258 132.896L205.107 95.988L219.549 89.5693" stroke="#E8ECFF" stroke-width="3.20939"/>
<path d="M167.397 164.187L172.211 144.931" stroke="#E8ECFF" stroke-width="1.6047"/>
<path d="M110.43 148.943L91.9758 152.955L158.258 201.898L175.42 127.911L183.17 129.219L174.995 113.161L158.258 124.07L167.537 126.086L151.35 179.432L110.43 148.943Z" fill="url(#paint3_linear_1133_2)"/>
<path d="M110.43 122.357L201.819 58.9718L213.933 66.9949L121.663 129.578L110.43 122.357Z" fill="#BFCBFF"/>
<path d="M205.909 95.9879L213.131 96.7903L183.444 160.978L178.63 155.362L205.909 95.9879Z" fill="#3353DC"/>
<path d="M213.131 96.7903L205.91 95.988L218.747 90.3715L228.375 91.9762L213.131 96.7903Z" fill="#BFCBFF"/>
<path d="M166.594 125.675H168.199L152.152 181.037L148.943 177.827L166.594 125.675Z" fill="#1A3DD3"/>
<path d="M91.9759 160.176V152.955L157.768 201.096V205.107L91.9759 160.176Z" fill="#3353DC"/>
<path d="M98.6958 226.366C98.6391 223.157 99.3783 219.606 95.8053 217.595C92.3625 215.658 84.5912 213.498 79.4637 213.589C73.628 213.692 66.3383 215.706 62.912 218.272C60.2035 220.3 60.8255 223.338 60.8746 226.12C61.3214 232.745 69.5288 238.292 79.9777 238.108C90.4267 237.923 98.807 232.666 98.6958 226.366ZM67.2309 226.921C67.1571 222.744 72.7141 219.258 79.6427 219.135C86.5713 219.013 92.2479 222.301 92.3217 226.478C92.3954 230.656 86.9038 232.975 79.9752 233.097C73.0465 233.22 67.3047 231.099 67.2309 226.921Z" fill="url(#paint4_linear_1133_2)"/>
<path d="M79.96 234.237C85.1637 234.145 89.8459 232.79 93.2088 230.68C96.5745 228.569 98.5986 225.717 98.5441 222.633C98.4895 219.549 96.3659 216.771 92.928 214.779C89.4927 212.79 84.7656 211.601 79.5619 211.693C74.3579 211.785 69.6751 213.14 66.3121 215.249C62.9466 217.361 60.9225 220.212 60.9767 223.296C61.0312 226.38 63.1548 229.159 66.5929 231.15C70.0283 233.14 74.756 234.329 79.96 234.237Z" fill="#DAE1FF" stroke="#BFCBFF" stroke-width="0.27158"/>
<path d="M98.6963 219.558C98.6397 216.349 99.3789 212.798 95.8058 210.787C92.363 208.85 84.5918 206.69 79.4643 206.781C73.6286 206.884 66.3389 208.898 62.9126 211.464C60.204 213.492 60.8261 216.53 60.8752 219.311C61.322 225.936 69.5293 231.484 79.9783 231.3C90.4272 231.115 98.8076 225.858 98.6963 219.558ZM67.2314 220.113C67.1577 215.935 72.7146 212.449 79.6432 212.327C86.5719 212.205 92.2484 215.492 92.3222 219.67C92.396 223.848 86.9043 226.167 79.9757 226.289C73.0471 226.411 67.3052 224.291 67.2314 220.113Z" fill="url(#paint5_linear_1133_2)"/>
<path d="M79.9602 227.429C85.164 227.337 89.8461 225.981 93.2091 223.872C96.5747 221.761 98.5988 218.908 98.5444 215.824C98.4897 212.74 96.3662 209.962 92.9283 207.971C89.4929 205.981 84.7659 204.792 79.5621 204.884C74.3581 204.976 69.6754 206.331 66.3123 208.441C62.9469 210.552 60.9227 213.404 60.977 216.488C61.0314 219.572 63.155 222.351 66.5931 224.342C70.0286 226.331 74.7562 227.52 79.9602 227.429Z" fill="#DAE1FF" stroke="#BFCBFF" stroke-width="0.27158"/>
<path d="M98.6966 212.75C98.6399 209.541 99.3791 205.99 95.8061 203.979C92.3633 202.042 84.592 199.882 79.4646 199.973C73.6288 200.076 66.3392 202.09 62.9129 204.656C60.2043 206.684 60.8263 209.722 60.8755 212.503C61.3222 219.128 69.5296 224.676 79.9786 224.492C90.4275 224.307 98.8079 219.05 98.6966 212.75ZM67.2317 213.305C67.1579 209.127 72.7149 205.642 79.6435 205.519C86.5722 205.397 92.2487 208.684 92.3225 212.862C92.3963 217.04 86.9046 219.359 79.976 219.481C73.0474 219.604 67.3055 217.483 67.2317 213.305Z" fill="url(#paint6_linear_1133_2)"/>
<path d="M79.9603 220.62C85.1641 220.528 89.8462 219.173 93.2092 217.064C96.5748 214.952 98.5989 212.1 98.5445 209.016C98.4898 205.932 96.3663 203.154 92.9284 201.163C89.493 199.173 84.766 197.984 79.5622 198.076C74.3582 198.168 69.6755 199.523 66.3124 201.633C62.9469 203.744 60.9228 206.595 60.9771 209.679C61.0315 212.763 63.1551 215.542 66.5932 217.534C70.0286 219.523 74.7563 220.712 79.9603 220.62Z" fill="#DAE1FF" stroke="#BFCBFF" stroke-width="0.27158"/>
<path d="M98.6963 205.942C98.6397 202.733 99.3789 199.182 95.8058 197.172C92.363 195.234 84.5918 193.074 79.4643 193.165C73.6286 193.268 66.3389 195.282 62.9126 197.848C60.204 199.876 60.8261 202.914 60.8752 205.696C61.322 212.321 69.5293 217.868 79.9783 217.684C90.4272 217.499 98.8076 212.242 98.6963 205.942ZM67.2314 206.498C67.1577 202.32 72.7146 198.834 79.6432 198.711C86.5719 198.589 92.2484 201.877 92.3222 206.054C92.396 210.232 86.9043 212.551 79.9757 212.673C73.0471 212.796 67.3052 210.675 67.2314 206.498Z" fill="url(#paint7_linear_1133_2)"/>
<path d="M79.9602 213.812C85.164 213.72 89.8461 212.365 93.2091 210.256C96.5747 208.144 98.5988 205.292 98.5444 202.208C98.4897 199.124 96.3662 196.346 92.9283 194.355C89.4929 192.365 84.7659 191.176 79.5621 191.268C74.3581 191.36 69.6754 192.715 66.3123 194.825C62.9469 196.936 60.9227 199.788 60.977 202.871C61.0314 205.956 63.155 208.735 66.5931 210.726C70.0286 212.715 74.7562 213.904 79.9602 213.812Z" fill="#DAE1FF" stroke="#BFCBFF" stroke-width="0.27158"/>
<path d="M98.6967 199.132C98.64 195.924 99.3792 192.372 95.8062 190.362C92.3634 188.425 84.5921 186.265 79.4646 186.355C73.6289 186.458 66.3392 188.473 62.9129 191.038C60.2044 193.066 60.8264 196.104 60.8755 198.886C61.3223 205.511 69.5297 211.059 79.9786 210.874C90.4276 210.69 98.8079 205.433 98.6967 199.132ZM67.2318 199.688C67.158 195.51 72.715 192.024 79.6436 191.902C86.5722 191.779 92.2488 195.067 92.3226 199.245C92.3963 203.423 86.9047 205.741 79.976 205.864C73.0474 205.986 67.3055 203.866 67.2318 199.688Z" fill="url(#paint8_linear_1133_2)"/>
<path d="M79.9603 207.003C85.164 206.911 89.8462 205.556 93.2091 203.446C96.5748 201.335 98.5989 198.483 98.5444 195.399C98.4898 192.315 96.3662 189.537 92.9283 187.546C89.493 185.556 84.7659 184.367 79.5622 184.459C74.3582 184.551 69.6754 185.906 66.3124 188.016C62.9469 190.127 60.9228 192.978 60.977 196.062C61.0315 199.146 63.1551 201.925 66.5932 203.916C70.0286 205.906 74.7563 207.095 79.9603 207.003Z" fill="#DAE1FF" stroke="#BFCBFF" stroke-width="0.27158"/>
<path d="M98.6963 192.325C98.6397 189.116 99.3789 185.565 95.8058 183.554C92.363 181.617 84.5918 179.457 79.4643 179.548C73.6286 179.651 66.3389 181.665 62.9126 184.231C60.204 186.259 60.8261 189.297 60.8752 192.079C61.322 198.704 69.5293 204.251 79.9783 204.067C90.4272 203.882 98.8076 198.625 98.6963 192.325ZM67.2314 192.88C67.1577 188.703 72.7146 185.217 79.6432 185.094C86.5719 184.972 92.2484 188.26 92.3222 192.437C92.396 196.615 86.9043 198.934 79.9757 199.056C73.0471 199.179 67.3052 197.058 67.2314 192.88Z" fill="url(#paint9_linear_1133_2)"/>
<ellipse cx="18.9224" cy="11.4097" rx="18.9224" ry="11.4097" transform="matrix(0.999844 -0.0176566 -0.0176566 -0.999844 61.0427 200.666)" fill="#F2F5FF"/>
<path d="M127.091 243.803C127.034 240.595 127.773 237.043 124.2 235.033C120.758 233.096 112.986 230.936 107.859 231.026C102.023 231.129 94.7334 233.144 91.3071 235.709C88.5985 237.737 89.2205 240.776 89.2697 243.557C89.7164 250.182 97.9238 255.73 108.373 255.545C118.822 255.361 127.202 250.104 127.091 243.803ZM95.6259 244.359C95.5521 240.181 101.109 236.695 108.038 236.573C114.966 236.45 120.643 239.738 120.717 243.916C120.79 248.094 115.299 250.412 108.37 250.535C101.442 250.657 95.6997 248.537 95.6259 244.359Z" fill="url(#paint10_linear_1133_2)"/>
<path d="M108.355 251.674C113.558 251.582 118.241 250.227 121.604 248.117C124.969 246.006 126.993 243.154 126.939 240.07C126.884 236.986 124.761 234.208 121.323 232.216C117.887 230.227 113.16 229.038 107.957 229.13C102.753 229.222 98.0699 230.577 94.7068 232.687C91.3414 234.798 89.3172 237.649 89.3715 240.733C89.4259 243.817 91.5495 246.596 94.9876 248.587C98.4231 250.577 103.151 251.766 108.355 251.674Z" fill="#DAE1FF" stroke="#BFCBFF" stroke-width="0.27158"/>
<path d="M127.091 236.993C127.034 233.784 127.773 230.233 124.2 228.223C120.758 226.286 112.986 224.126 107.859 224.216C102.023 224.319 94.7334 226.333 91.3071 228.899C88.5986 230.927 89.2206 233.965 89.2697 236.747C89.7165 243.372 97.9239 248.92 108.373 248.735C118.822 248.551 127.202 243.293 127.091 236.993ZM95.626 237.549C95.5522 233.371 101.109 229.885 108.038 229.763C114.966 229.64 120.643 232.928 120.717 237.106C120.791 241.283 115.299 243.602 108.37 243.725C101.442 243.847 95.6997 241.726 95.626 237.549Z" fill="url(#paint11_linear_1133_2)"/>
<path d="M108.355 244.865C113.559 244.773 118.241 243.417 121.604 241.308C124.969 239.197 126.993 236.344 126.939 233.26C126.884 230.176 124.761 227.398 121.323 225.407C117.888 223.417 113.16 222.228 107.957 222.32C102.753 222.412 98.07 223.767 94.7069 225.877C91.3414 227.988 89.3173 230.84 89.3716 233.924C89.426 237.008 91.5496 239.787 94.9877 241.778C98.4231 243.767 103.151 244.956 108.355 244.865Z" fill="#DAE1FF" stroke="#BFCBFF" stroke-width="0.27158"/>
<path d="M127.091 230.187C127.034 226.978 127.774 223.427 124.201 221.416C120.758 219.479 112.986 217.319 107.859 217.41C102.023 217.513 94.7336 219.527 91.3073 222.093C88.5987 224.121 89.2207 227.159 89.2699 229.94C89.7166 236.565 97.924 242.113 108.373 241.929C118.822 241.744 127.202 236.487 127.091 230.187ZM95.6261 230.742C95.5523 226.564 101.109 223.079 108.038 222.956C114.967 222.834 120.643 226.121 120.717 230.299C120.791 234.477 115.299 236.796 108.37 236.918C101.442 237.041 95.6999 234.92 95.6261 230.742Z" fill="url(#paint12_linear_1133_2)"/>
<ellipse cx="18.9224" cy="11.4097" rx="18.9224" ry="11.4097" transform="matrix(0.999844 -0.0176566 -0.0176566 -0.999844 89.4372 238.528)" fill="#F2F5FF"/>
<path d="M175.028 251.021L180.825 255.331L206.553 202.202L233.768 188.057L255.212 158.805H256.796L265.56 118.466L259.192 117.926L221.452 157.209L228.572 161.752L237.657 160.033L226.606 183.939L200.644 198.711L175.028 251.021Z" fill="#0F2170"/>
<path d="M175.028 251.021L180.825 255.331L206.553 202.202L233.768 188.057L255.212 158.805H256.796L265.56 118.466L259.192 117.926L221.452 157.209L228.572 161.752L237.657 160.033L226.606 183.939L200.644 198.711L175.028 251.021Z" fill="url(#paint13_linear_1133_2)"/>
<path d="M181.001 255.428L195.336 249.799L215.108 210.434L240.006 197.985L255.913 163.021L265.523 170.66V119.651L228.56 161.789L245.07 159.818L233.242 187.909L206.382 201.955L181.001 255.428Z" fill="#92F788"/>
</g>
<defs>
<linearGradient id="paint0_linear_1133_2" x1="191.627" y1="150.668" x2="141.744" y2="270.238" gradientUnits="userSpaceOnUse">
<stop stop-color="#8EA3FF"/>
<stop offset="1" stop-color="#0228CA"/>
</linearGradient>
<linearGradient id="paint1_linear_1133_2" x1="131.893" y1="156.794" x2="182.476" y2="42.4711" gradientUnits="userSpaceOnUse">
<stop stop-color="#6D86F3"/>
<stop offset="1" stop-color="#0228CA"/>
</linearGradient>
<linearGradient id="paint2_linear_1133_2" x1="165.328" y1="110.383" x2="183.917" y2="182.649" gradientUnits="userSpaceOnUse">
<stop offset="0.785" stop-color="#6C88FF"/>
<stop offset="1" stop-color="#3358F4"/>
</linearGradient>
<linearGradient id="paint3_linear_1133_2" x1="129.803" y1="123.426" x2="149.719" y2="200.853" gradientUnits="userSpaceOnUse">
<stop offset="0.8" stop-color="#6C88FF"/>
<stop offset="1" stop-color="#375CFB"/>
</linearGradient>
<linearGradient id="paint4_linear_1133_2" x1="90.5806" y1="231.852" x2="85.0005" y2="207.225" gradientUnits="userSpaceOnUse">
<stop stop-color="#8DA3FF"/>
<stop offset="1" stop-color="#0228CA"/>
</linearGradient>
<linearGradient id="paint5_linear_1133_2" x1="90.5812" y1="225.044" x2="85.0011" y2="200.416" gradientUnits="userSpaceOnUse">
<stop stop-color="#8DA3FF"/>
<stop offset="1" stop-color="#0228CA"/>
</linearGradient>
<linearGradient id="paint6_linear_1133_2" x1="90.5814" y1="218.236" x2="85.0013" y2="193.608" gradientUnits="userSpaceOnUse">
<stop stop-color="#8DA3FF"/>
<stop offset="1" stop-color="#0228CA"/>
</linearGradient>
<linearGradient id="paint7_linear_1133_2" x1="90.5812" y1="211.428" x2="85.0011" y2="186.801" gradientUnits="userSpaceOnUse">
<stop stop-color="#8DA3FF"/>
<stop offset="1" stop-color="#0228CA"/>
</linearGradient>
<linearGradient id="paint8_linear_1133_2" x1="90.5815" y1="204.619" x2="85.0014" y2="179.991" gradientUnits="userSpaceOnUse">
<stop stop-color="#8DA3FF"/>
<stop offset="1" stop-color="#0228CA"/>
</linearGradient>
<linearGradient id="paint9_linear_1133_2" x1="90.5812" y1="197.811" x2="85.0011" y2="173.184" gradientUnits="userSpaceOnUse">
<stop stop-color="#8DA3FF"/>
<stop offset="1" stop-color="#0228CA"/>
</linearGradient>
<linearGradient id="paint10_linear_1133_2" x1="118.976" y1="249.29" x2="113.396" y2="224.662" gradientUnits="userSpaceOnUse">
<stop stop-color="#8DA3FF"/>
<stop offset="1" stop-color="#0228CA"/>
</linearGradient>
<linearGradient id="paint11_linear_1133_2" x1="118.976" y1="242.479" x2="113.396" y2="217.852" gradientUnits="userSpaceOnUse">
<stop stop-color="#8DA3FF"/>
<stop offset="1" stop-color="#0228CA"/>
</linearGradient>
<linearGradient id="paint12_linear_1133_2" x1="118.976" y1="235.673" x2="113.396" y2="211.045" gradientUnits="userSpaceOnUse">
<stop stop-color="#8DA3FF"/>
<stop offset="1" stop-color="#0228CA"/>
</linearGradient>
<linearGradient id="paint13_linear_1133_2" x1="243.948" y1="153.291" x2="208.519" y2="287.045" gradientUnits="userSpaceOnUse">
<stop stop-color="#57DD4E"/>
<stop offset="1" stop-color="#54B54B"/>
</linearGradient>
<clipPath id="clip0_1133_2">
<rect width="206.464" height="204.753" fill="white" transform="translate(59.408 51.867)"/>
</clipPath>
</defs>
</svg>
