<svg width="80" height="108" viewBox="0 0 80 108" fill="none" xmlns="http://www.w3.org/2000/svg">
<path d="M14.4447 35.3679L19.3624 32.835L25.5657 36.993L23.1879 88.4406L61.6813 61.6939L69.2504 65.0476V69.8347L20.5973 103.78L15.3996 99.2488L14.4447 35.3679Z" fill="#0F2170"/>
<path d="M14.4447 35.3679L19.3624 32.835L25.5657 36.993L23.1879 88.4406L61.6813 61.6939L69.2504 65.0476V69.8347L20.5973 103.78L15.3996 99.2488L14.4447 35.3679Z" fill="url(#paint0_linear_146_8082)"/>
<path d="M19.6764 36.1244L25.4482 33.2067L26.165 93.6939L69.9994 63.1435V69.8827L20.4297 104L19.6764 36.1244Z" fill="#D9E0FF"/>
<path d="M64.1284 67.324L59.1099 70.7357L58.3931 11.706L14.5587 41.5202V35.8926L63.1759 2.92764L64.1284 67.324Z" fill="#0F2170"/>
<path d="M64.1284 67.324L59.1099 70.7357L58.3931 11.706L14.5587 41.5202V35.8926L63.1759 2.92764L64.1284 67.324Z" fill="url(#paint1_linear_146_8082)"/>
<path d="M62.323 73.2944V1.22168L68.9759 5.9128L69.9994 69.8827L62.323 73.2944Z" fill="#D9E0FF"/>
<path d="M38.5397 38.6732L33.3371 43.2409L54.5594 66.7979L76.8228 19.1908L68.4022 21.2952L52.9171 55.3369L38.5397 38.6732Z" fill="url(#paint2_linear_146_8082)"/>
<path d="M33.7497 45.2054L33.3232 43.0731L54.6465 66.1023L54.6465 67.8081L33.7497 45.2054Z" fill="#3353DC"/>
<path d="M38.4408 52.4553L42.279 41.7937" stroke="#E8ECFF" stroke-width="0.852932"/>
<path d="M27.7792 59.2789L14.1323 49.0437" stroke="#E8ECFF" stroke-width="1.70586"/>
<path d="M55.4996 40.9407L64.4554 21.3233L72.1318 17.9116" stroke="#E8ECFF" stroke-width="1.70586"/>
<path d="M44.4114 57.5728L46.9702 47.3376" stroke="#E8ECFF" stroke-width="0.852932"/>
<path d="M14.1323 49.47L4.32355 51.6023L39.5539 77.6167L48.6759 38.2909L52.795 38.9865L48.4503 30.451L39.5538 36.2496L44.4861 37.321L35.882 65.6757L14.1323 49.47Z" fill="url(#paint3_linear_146_8082)"/>
<path d="M14.1323 35.3391L62.7076 1.64836L69.1464 5.91284L20.1029 39.1774L14.1323 35.3391Z" fill="#BFCBFF"/>
<path d="M64.8818 21.3232L68.72 21.7497L52.9408 55.867L50.382 52.8817L64.8818 21.3232Z" fill="#3353DC"/>
<path d="M68.72 21.7497L64.8818 21.3233L71.7053 18.338L76.8229 19.1909L68.72 21.7497Z" fill="#BFCBFF"/>
<path d="M43.9849 37.1025H44.8378L36.3085 66.5287L34.6027 64.8228L43.9849 37.1025Z" fill="#1A3DD3"/>
<path d="M4.32361 55.4406V51.6024L39.2938 77.1904V79.3227L4.32361 55.4406Z" fill="#3353DC"/>
<path d="M18.0343 94.2769C18.0078 92.7786 18.353 91.1202 16.6845 90.1814C15.0768 89.2769 11.4479 88.2682 9.05351 88.3105C6.32839 88.3586 2.92433 89.2992 1.32434 90.4973C0.0595304 91.4443 0.349995 92.8631 0.372934 94.162C0.581565 97.2557 4.41417 99.8463 9.29353 99.7601C14.1729 99.674 18.0863 97.219 18.0343 94.2769ZM3.34112 94.5364C3.30666 92.5855 5.9016 90.9577 9.13707 90.9005C12.3725 90.8434 15.0233 92.3786 15.0578 94.3295C15.0922 96.2804 12.5278 97.3632 9.29232 97.4204C6.05686 97.4775 3.37557 96.4873 3.34112 94.5364Z" fill="url(#paint4_linear_146_8082)"/>
<path d="M17.9635 92.5339C17.9381 91.0937 16.9464 89.7963 15.341 88.8665C13.7367 87.9374 11.5292 87.3821 9.09912 87.425C6.66901 87.468 4.48252 88.1008 2.91206 89.086C1.34041 90.0719 0.395187 91.4035 0.420619 92.8437C0.446052 94.2839 1.4377 95.5813 3.04319 96.5111C4.64745 97.4402 6.85492 97.9955 9.28503 97.9526C11.7151 97.9097 13.9016 97.2768 15.4721 96.2916C17.0437 95.3057 17.989 93.9741 17.9635 92.5339Z" fill="#DAE1FF" stroke="#BFCBFF" stroke-width="0.12682"/>
<path d="M18.0345 91.0977C18.0081 89.5994 18.3533 87.941 16.6848 87.0022C15.0771 86.0977 11.4481 85.089 9.05375 85.1313C6.32863 85.1794 2.92457 86.12 1.32458 87.3181C0.0597745 88.2651 0.35024 89.6839 0.373178 90.9828C0.581809 94.0765 4.41442 96.6671 9.29377 96.5809C14.1731 96.4948 18.0865 94.0398 18.0345 91.0977ZM3.34136 91.3572C3.30691 89.4063 5.90185 87.7785 9.13732 87.7213C12.3728 87.6642 15.0236 89.1994 15.058 91.1503C15.0925 93.1012 12.528 94.184 9.29257 94.2412C6.0571 94.2983 3.37581 93.3081 3.34136 91.3572Z" fill="url(#paint5_linear_146_8082)"/>
<path d="M17.9637 89.3546C17.9382 87.9144 16.9466 86.617 15.3411 85.6872C13.7368 84.7581 11.5293 84.2028 9.09924 84.2457C6.66913 84.2886 4.48264 84.9215 2.91219 85.9066C1.34053 86.8926 0.395309 88.2242 0.420742 89.6644C0.446174 91.1046 1.43783 92.402 3.04331 93.3318C4.64757 94.2609 6.85504 94.8162 9.28515 94.7733C11.7153 94.7303 13.9018 94.0975 15.4722 93.1123C17.0439 92.1264 17.9891 90.7948 17.9637 89.3546Z" fill="#DAE1FF" stroke="#BFCBFF" stroke-width="0.12682"/>
<path d="M18.0347 87.9185C18.0082 86.4202 18.3534 84.7618 16.6849 83.823C15.0772 82.9185 11.4483 81.9098 9.05387 81.9521C6.32875 82.0002 2.92469 82.9408 1.3247 84.1389C0.0598966 85.0859 0.350362 86.5047 0.3733 87.8036C0.581931 90.8973 4.41454 93.4879 9.29389 93.4017C14.1733 93.3156 18.0866 90.8606 18.0347 87.9185ZM3.34148 88.178C3.30703 86.2271 5.90197 84.5993 9.13744 84.5421C12.3729 84.485 15.0237 86.0202 15.0581 87.9711C15.0926 89.922 12.5282 91.0048 9.29269 91.062C6.05722 91.1191 3.37593 90.1289 3.34148 88.178Z" fill="url(#paint6_linear_146_8082)"/>
<path d="M17.9637 86.1753C17.9382 84.7351 16.9466 83.4376 15.3411 82.5078C13.7368 81.5787 11.5293 81.0235 9.09924 81.0664C6.66913 81.1093 4.48264 81.7422 2.91219 82.7273C1.34053 83.7132 0.395309 85.0449 0.420742 86.4851C0.446174 87.9253 1.43783 89.2227 3.04331 90.1525C4.64757 91.0816 6.85504 91.6369 9.28515 91.5939C11.7153 91.551 13.9018 90.9182 15.4722 89.933C17.0439 88.9471 17.9891 87.6155 17.9637 86.1753Z" fill="#DAE1FF" stroke="#BFCBFF" stroke-width="0.12682"/>
<path d="M18.0345 84.7396C18.0081 83.2412 18.3533 81.5828 16.6848 80.6441C15.0771 79.7395 11.4481 78.7309 9.05375 78.7731C6.32863 78.8213 2.92457 79.7618 1.32458 80.9599C0.0597745 81.907 0.35024 83.3257 0.373178 84.6247C0.581809 87.7183 4.41442 90.3089 9.29377 90.2228C14.1731 90.1366 18.0865 87.6817 18.0345 84.7396ZM3.34136 84.9991C3.30691 83.0482 5.90185 81.4203 9.13732 81.3632C12.3728 81.3061 15.0236 82.8412 15.058 84.7921C15.0925 86.743 12.528 87.8259 9.29257 87.883C6.0571 87.9402 3.37581 86.9499 3.34136 84.9991Z" fill="url(#paint7_linear_146_8082)"/>
<path d="M17.9637 82.9962C17.9382 81.556 16.9466 80.2586 15.3411 79.3288C13.7368 78.3997 11.5293 77.8444 9.09924 77.8873C6.66913 77.9302 4.48264 78.5631 2.91219 79.5482C1.34053 80.5342 0.395309 81.8658 0.420742 83.306C0.446174 84.7462 1.43783 86.0436 3.04331 86.9734C4.64757 87.9025 6.85504 88.4578 9.28515 88.4149C11.7153 88.3719 13.9018 87.7391 15.4722 86.7539C17.0439 85.768 17.9891 84.4364 17.9637 82.9962Z" fill="#DAE1FF" stroke="#BFCBFF" stroke-width="0.12682"/>
<path d="M18.0347 81.5596C18.0082 80.0613 18.3534 78.4029 16.6849 77.4641C15.0772 76.5596 11.4483 75.5509 9.05387 75.5932C6.32875 75.6413 2.92469 76.5819 1.3247 77.78C0.0598966 78.7271 0.350362 80.1458 0.3733 81.4447C0.581931 84.5384 4.41454 87.129 9.29389 87.0428C14.1733 86.9567 18.0866 84.5018 18.0347 81.5596ZM3.34148 81.8191C3.30703 79.8682 5.90197 78.2404 9.13744 78.1833C12.3729 78.1261 15.0237 79.6613 15.0581 81.6122C15.0926 83.5631 12.5282 84.646 9.29269 84.7031C6.05722 84.7602 3.37593 83.77 3.34148 81.8191Z" fill="url(#paint8_linear_146_8082)"/>
<path d="M17.9637 79.8165C17.9382 78.3763 16.9466 77.0789 15.3411 76.1491C13.7368 75.22 11.5293 74.6647 9.09924 74.7076C6.66913 74.7505 4.48264 75.3834 2.91219 76.3686C1.34053 77.3545 0.395309 78.6861 0.420742 80.1263C0.446174 81.5665 1.43783 82.8639 3.04331 83.7937C4.64757 84.7228 6.85504 85.2781 9.28515 85.2352C11.7153 85.1923 13.9018 84.5594 15.4722 83.5742C17.0439 82.5883 17.9891 81.2567 17.9637 79.8165Z" fill="#DAE1FF" stroke="#BFCBFF" stroke-width="0.12682"/>
<path d="M18.0345 78.3808C18.0081 76.8824 18.3533 75.2241 16.6848 74.2853C15.0771 73.3808 11.4481 72.3721 9.05375 72.4144C6.32863 72.4625 2.92457 73.4031 1.32458 74.6011C0.0597745 75.5482 0.35024 76.9669 0.373178 78.2659C0.581809 81.3596 4.41442 83.9502 9.29377 83.864C14.1731 83.7778 18.0865 81.3229 18.0345 78.3808ZM3.34136 78.6403C3.30691 76.6894 5.90185 75.0616 9.13732 75.0044C12.3728 74.9473 15.0236 76.4825 15.058 78.4334C15.0925 80.3843 12.528 81.4671 9.29257 81.5243C6.0571 81.5814 3.37581 80.5912 3.34136 78.6403Z" fill="url(#paint9_linear_146_8082)"/>
<ellipse cx="8.83623" cy="5.328" rx="8.83623" ry="5.328" transform="matrix(0.999844 -0.0176566 -0.0176566 -0.999844 0.451416 82.2759)" fill="#F2F5FF"/>
<path d="M31.2939 102.42C31.2675 100.921 31.6127 99.263 29.9442 98.3242C28.3365 97.4197 24.7075 96.411 22.3131 96.4533C19.588 96.5014 16.184 97.442 14.584 98.6401C13.3192 99.5872 13.6096 101.006 13.6326 102.305C13.8412 105.398 17.6738 107.989 22.5532 107.903C27.4325 107.817 31.3459 105.362 31.2939 102.42ZM16.6008 102.679C16.5663 100.728 19.1612 99.1005 22.3967 99.0434C25.6322 98.9862 28.283 100.521 28.3174 102.472C28.3519 104.423 25.7874 105.506 22.552 105.563C19.3165 105.62 16.6352 104.63 16.6008 102.679Z" fill="url(#paint10_linear_146_8082)"/>
<path d="M31.2231 100.676C31.1976 99.2363 30.206 97.9389 28.6005 97.0091C26.9962 96.08 24.7887 95.5247 22.3586 95.5676C19.9285 95.6105 17.742 96.2434 16.1716 97.2285C14.5999 98.2145 13.6547 99.5461 13.6801 100.986C13.7056 102.426 14.6972 103.724 16.3027 104.654C17.907 105.583 20.1144 106.138 22.5446 106.095C24.9747 106.052 27.1612 105.419 28.7316 104.434C30.3033 103.448 31.2485 102.117 31.2231 100.676Z" fill="#DAE1FF" stroke="#BFCBFF" stroke-width="0.12682"/>
<path d="M31.2939 99.2396C31.2675 97.7412 31.6127 96.0828 29.9442 95.1441C28.3365 94.2395 24.7075 93.2309 22.3131 93.2731C19.588 93.3213 16.184 94.2618 14.584 95.4599C13.3192 96.407 13.6096 97.8257 13.6326 99.1247C13.8412 102.218 17.6738 104.809 22.5532 104.723C27.4325 104.637 31.3459 102.182 31.2939 99.2396ZM16.6008 99.4991C16.5663 97.5482 19.1612 95.9203 22.3967 95.8632C25.6322 95.8061 28.283 97.3412 28.3174 99.2921C28.3519 101.243 25.7874 102.326 22.552 102.383C19.3165 102.44 16.6352 101.45 16.6008 99.4991Z" fill="url(#paint11_linear_146_8082)"/>
<path d="M31.2231 97.4967C31.1976 96.0565 30.206 94.7591 28.6005 93.8292C26.9962 92.9002 24.7887 92.3449 22.3586 92.3878C19.9285 92.4307 17.742 93.0636 16.1716 94.0487C14.5999 95.0347 13.6547 96.3663 13.6801 97.8065C13.7056 99.2467 14.6972 100.544 16.3027 101.474C17.907 102.403 20.1144 102.958 22.5446 102.915C24.9747 102.872 27.1612 102.24 28.7316 101.254C30.3033 100.269 31.2485 98.9369 31.2231 97.4967Z" fill="#DAE1FF" stroke="#BFCBFF" stroke-width="0.12682"/>
<path d="M31.2941 96.0611C31.2676 94.5627 31.6128 92.9044 29.9443 91.9656C28.3366 91.0611 24.7077 90.0524 22.3133 90.0947C19.5882 90.1428 16.1841 91.0834 14.5841 92.2814C13.3193 93.2285 13.6098 94.6472 13.6327 95.9462C13.8413 99.0399 17.6739 101.63 22.5533 101.544C27.4326 101.458 31.346 99.0032 31.2941 96.0611ZM16.6009 96.3206C16.5664 94.3697 19.1614 92.7419 22.3968 92.6847C25.6323 92.6276 28.2831 94.1628 28.3175 96.1137C28.352 98.0646 25.7876 99.1474 22.5521 99.2046C19.3166 99.2617 16.6353 98.2715 16.6009 96.3206Z" fill="url(#paint12_linear_146_8082)"/>
<ellipse cx="8.83623" cy="5.328" rx="8.83623" ry="5.328" transform="matrix(0.999844 -0.0176566 -0.0176566 -0.999844 13.7108 99.9563)" fill="#F2F5FF"/>
<path d="M52.0878 86.9248L53.8305 88.2207L61.5654 72.248L69.7474 67.9955L76.1942 59.2012H76.6705L79.3053 47.0736L77.3907 46.9113L66.0446 58.7214L68.1853 60.087L70.9164 59.5703L67.5943 66.7575L59.789 71.1984L52.0878 86.9248Z" fill="#0F2170"/>
<path d="M52.0878 86.9248L53.8305 88.2207L61.5654 72.248L69.7474 67.9955L76.1942 59.2012H76.6705L79.3053 47.0736L77.3907 46.9113L66.0446 58.7214L68.1853 60.087L70.9164 59.5703L67.5943 66.7575L59.789 71.1984L52.0878 86.9248Z" fill="url(#paint13_linear_146_8082)"/>
<path d="M53.8835 88.2499L58.1932 86.5573L64.1374 74.7228L71.6226 70.9802L76.4049 60.4686L79.2941 62.7652V47.4299L68.1816 60.0982L73.1452 59.5055L69.5892 67.951L61.5141 72.1738L53.8835 88.2499Z" fill="#92F788"/>
<defs>
<linearGradient id="paint0_linear_146_8082" x1="57.2903" y1="50.387" x2="30.7764" y2="113.941" gradientUnits="userSpaceOnUse">
<stop stop-color="#8EA3FF"/>
<stop offset="1" stop-color="#0228CA"/>
</linearGradient>
<linearGradient id="paint1_linear_146_8082" x1="25.5406" y1="53.6433" x2="52.4264" y2="-7.12212" gradientUnits="userSpaceOnUse">
<stop stop-color="#6D86F3"/>
<stop offset="1" stop-color="#0228CA"/>
</linearGradient>
<linearGradient id="paint2_linear_146_8082" x1="43.3121" y1="28.9746" x2="53.1923" y2="67.3854" gradientUnits="userSpaceOnUse">
<stop offset="0.785" stop-color="#6C88FF"/>
<stop offset="1" stop-color="#3358F4"/>
</linearGradient>
<linearGradient id="paint3_linear_146_8082" x1="24.4293" y1="35.907" x2="35.0152" y2="77.0616" gradientUnits="userSpaceOnUse">
<stop offset="0.8" stop-color="#6C88FF"/>
<stop offset="1" stop-color="#375CFB"/>
</linearGradient>
<linearGradient id="paint4_linear_146_8082" x1="14.2448" y1="96.8389" x2="11.639" y2="85.3386" gradientUnits="userSpaceOnUse">
<stop stop-color="#8DA3FF"/>
<stop offset="1" stop-color="#0228CA"/>
</linearGradient>
<linearGradient id="paint5_linear_146_8082" x1="14.245" y1="93.6597" x2="11.6393" y2="82.1594" gradientUnits="userSpaceOnUse">
<stop stop-color="#8DA3FF"/>
<stop offset="1" stop-color="#0228CA"/>
</linearGradient>
<linearGradient id="paint6_linear_146_8082" x1="14.2451" y1="90.4806" x2="11.6394" y2="78.9802" gradientUnits="userSpaceOnUse">
<stop stop-color="#8DA3FF"/>
<stop offset="1" stop-color="#0228CA"/>
</linearGradient>
<linearGradient id="paint7_linear_146_8082" x1="14.245" y1="87.3016" x2="11.6393" y2="75.8012" gradientUnits="userSpaceOnUse">
<stop stop-color="#8DA3FF"/>
<stop offset="1" stop-color="#0228CA"/>
</linearGradient>
<linearGradient id="paint8_linear_146_8082" x1="14.2451" y1="84.1217" x2="11.6394" y2="72.6213" gradientUnits="userSpaceOnUse">
<stop stop-color="#8DA3FF"/>
<stop offset="1" stop-color="#0228CA"/>
</linearGradient>
<linearGradient id="paint9_linear_146_8082" x1="14.245" y1="80.9428" x2="11.6393" y2="69.4425" gradientUnits="userSpaceOnUse">
<stop stop-color="#8DA3FF"/>
<stop offset="1" stop-color="#0228CA"/>
</linearGradient>
<linearGradient id="paint10_linear_146_8082" x1="27.5044" y1="104.982" x2="24.8987" y2="93.4814" gradientUnits="userSpaceOnUse">
<stop stop-color="#8DA3FF"/>
<stop offset="1" stop-color="#0228CA"/>
</linearGradient>
<linearGradient id="paint11_linear_146_8082" x1="27.5044" y1="101.802" x2="24.8987" y2="90.3012" gradientUnits="userSpaceOnUse">
<stop stop-color="#8DA3FF"/>
<stop offset="1" stop-color="#0228CA"/>
</linearGradient>
<linearGradient id="paint12_linear_146_8082" x1="27.5045" y1="98.6231" x2="24.8988" y2="87.1228" gradientUnits="userSpaceOnUse">
<stop stop-color="#8DA3FF"/>
<stop offset="1" stop-color="#0228CA"/>
</linearGradient>
<linearGradient id="paint13_linear_146_8082" x1="72.8078" y1="57.5434" x2="62.1566" y2="97.7552" gradientUnits="userSpaceOnUse">
<stop stop-color="#57DD4E"/>
<stop offset="1" stop-color="#54B54B"/>
</linearGradient>
</defs>
</svg>
